<?xml version="1.0" encoding="UTF-8"?>
<svg id="Layer_1" data-name="Layer 1" xmlns="http://www.w3.org/2000/svg" viewBox="0 0 25.61 22.08">
  <defs>
    <style>
      .cls-1 {
        fill: #fff;
      }

      .cls-2 {
        fill: #be1e2d;
      }

      .cls-3 {
        fill: #faa74a;
      }
    </style>
  </defs>
  <path d="M22.08,11.04C22.08,4.94,17.14,0,11.04,0S0,4.94,0,11.04s4.94,11.04,11.04,11.04,11.04-4.94,11.04-11.04"/>
  <polygon class="cls-3" points="15.08 3.1 9.55 3.1 6.58 11.84 9.31 11.84 8.4 19.84 17.13 8.56 13.49 8.56 15.08 3.1"/>
  <g>
    <path class="cls-1" d="M25.61,15.84c0-3.15-2.55-5.7-5.7-5.7s-5.7,2.55-5.7,5.7,2.55,5.7,5.7,5.7,5.7-2.55,5.7-5.7"/>
    <path class="cls-2" d="M24.75,15.84c0-2.67-2.17-4.84-4.84-4.84s-4.84,2.17-4.84,4.84,2.17,4.84,4.84,4.84,4.84-2.17,4.84-4.84"/>
    <path class="cls-1" d="M22.86,18.22h-5.91v-1.44h5.91s0,1.44,0,1.44ZM22.86,14.89h-5.91v-1.44h5.91s0,1.44,0,1.44Z"/>
    <rect class="cls-1" x="16.05" y="15.33" width="7.69" height="1.03" transform="translate(-2.62 27.67) rotate(-66.25)"/>
  </g>
</svg>