<?xml version="1.0" encoding="UTF-8"?>
<svg id="Layer_1" xmlns="http://www.w3.org/2000/svg" viewBox="0 0 27 78">
  <defs>
    <style>
      .cls-1 {
        fill: #ceb28f;
      }
    </style>
  </defs>
  <polygon class="cls-1" points="21.12 4.41 4.99 4.41 4.41 5 4.41 16.18 4.99 16.76 21.12 16.76 21.7 16.18 21.7 5 21.12 4.41"/>
  <polygon class="cls-1" points="21.12 18.67 4.99 18.67 4.41 19.24 4.41 30.43 4.99 31.01 21.12 31.01 21.7 30.43 21.7 19.24 21.12 18.67"/>
  <polygon class="cls-1" points="21.12 32.91 4.99 32.91 4.41 33.5 4.41 44.68 4.99 45.26 21.12 45.26 21.7 44.68 21.7 33.5 21.12 32.91"/>
  <polygon class="cls-1" points="21.12 47.17 4.99 47.17 4.41 47.74 4.41 58.93 4.99 59.52 21.12 59.52 21.7 58.93 21.7 47.74 21.12 47.17"/>
  <polygon class="cls-1" points="21.12 61.43 4.99 61.43 4.41 62 4.41 73.18 4.99 73.76 21.12 73.76 21.7 73.18 21.7 62 21.12 61.43"/>
  <path class="cls-1" d="M20.9,0H5.22C2.33,0,0,2.38,0,5.29v67.47c0,2.91,2.33,5.29,5.22,5.29h15.68c2.89,0,5.22-2.38,5.22-5.29h-1.41c0,2.15-1.72,3.88-3.81,3.88H5.22c-2.09,0-3.81-1.73-3.81-3.88V5.29c0-2.15,1.72-3.88,3.81-3.88h15.68c2.09,0,3.8,1.73,3.81,3.88v67.47h1.41V5.29C26.12,2.38,23.79,0,20.9,0"/>
</svg>