<?xml version="1.0" encoding="UTF-8"?>
<svg id="Layer_1" data-name="Layer 1" xmlns="http://www.w3.org/2000/svg" viewBox="0 0 36.68 22">
  <defs>
    <style>
      .cls-1 {
        fill: #ce9c63;
      }

      .cls-2 {
        fill: #fff;
      }

      .cls-3 {
        fill: #e1ceb8;
      }

      .cls-4 {
        fill: #e7d9c7;
      }

      .cls-5 {
        fill: #c8a880;
      }

      .cls-6 {
        fill: #bf9a6b;
      }

      .cls-7 {
        fill: #ceb28f;
      }

      .cls-8 {
        fill: #ceb08b;
      }

      .cls-9 {
        fill: #faa74a;
      }

      .cls-10 {
        fill: #ece2d4;
      }

      .cls-11 {
        fill: #f4ede5;
      }
    </style>
  </defs>
  <g>
    <path class="cls-9" d="M25.87,9.14l-2.76-4.79-.9,1.56c-4.45-2.57-10.15-1.04-12.72,3.41l1.66.96c2.04-3.53,6.57-4.75,10.1-2.71l-.9,1.56h5.53Z"/>
    <path class="cls-2" d="M10.31,9.84l-1.66-4.38-1.83-1.18-.28-.37v-.39c.27-.37.44-.86.44-1.4C6.99.95,6.2,0,5.22,0s-1.77.95-1.77,2.12c0,.54.17,1.03.44,1.4v.39l-.27.37-1.83,1.18L0,9.21l.17,2,1.26.38.51-.21v.55s.04,0,.04,0l-.02.98-.84,9.09h3.36l.75-5.2.66,5.2h3.36l-.75-9.09v-.45s1.81-1.33,1.81-1.33v-1.29Z"/>
    <path class="cls-3" d="M5.22,0c-.2,0-.38.04-.56.11C4.84.04,5.03,0,5.22,0,6.2,0,6.99.95,6.99,2.13c0,.54-.17,1.03-.44,1.4v.39-.39c.27-.37.44-.86.44-1.4C6.99.95,6.2,0,5.22,0M6.83,4.29h0s.56.36.56.36h0s-.56-.36-.56-.36ZM3.62,4.29h0l-1.83,1.18-.56,1.17.56-1.17,1.83-1.18h0ZM0,9.21H0l.02.31L0,9.21ZM.17,11.21H.17l.22.07-.22-.07ZM1.94,11.38l-.07.03.07-.03ZM1.97,11.93h0s0,0,0,0ZM5.22,16.79l-.75,5.2.75-5.2h0ZM9.08,20h0s.16,1.99.16,1.99h0l-.16-1.99Z"/>
    <path class="cls-3" d="M5.22,0c-.19,0-.38.04-.56.11-.7.28-1.21,1.08-1.21,2.02,0,.54.17,1.02.44,1.4v.39l1.16.59-.57.79-.86-1.01h0s-1.83,1.18-1.83,1.18l-.56,1.17-1.23,2.57.03.31.14,1.69.22.07,1.04.31.44-.18.07-.03v.55s.03,0,.03,0h0l-.03.98-.84,9.09h3.36l.75-5.2h0s0,0,0,0l.4,3.14.65-7.03.03-.98h-.02s-.01-.47-.01-.47l-.18.15.02.75-.55.07-2.67-.56-.99-1.57,2.59.75-.02-.28-2.4-.76.03-.09,2.37.75-.02-.18-2.27-.77.03-.09,2.24.76-.02-.21-2.14-.78.03-.09,2.09.77-.07-.86.69-1.43-1.18-2.81.65.74.61-.88v2.77l.25-.53v-2.25l.62.88.09-.1.07-.14.13-.08.37-.42-.11.26.88-.57-.56-.36-.86,1.01-.57-.79,1.16-.59v-.39c.27-.37.44-.86.44-1.4C6.99.95,6.2,0,5.22,0M3.3,7.96l-.32-.02-.7-1.22.23-.13.79,1.38ZM3.97,9.42l-.39-.42-.19-.33h.3s.12.2.12.2l.16.56ZM9.08,20.01l-.29,1.99h-2.91,3.36l-.16-1.99Z"/>
  </g>
  <path class="cls-11" d="M2.3,9.3l-.03.09,2.14.78v-.11s-2.1-.77-2.1-.77ZM2.19,9.63l-.03.09,2.28.77v-.1s-2.24-.76-2.24-.76ZM2.08,9.92l-.03.09,2.4.76v-.1s-2.38-.75-2.38-.75ZM1.89,10.31l.99,1.57,2.67.56.55-.07-.02-.75.18-.15v-.08s-.12.05-.12.05l-.39.16-.97-.29-.29-.09v-.16s-2.6-.75-2.6-.75Z"/>
  <polygon class="cls-11" points="2.51 6.58 2.28 6.72 2.98 7.94 3.3 7.96 2.51 6.58"/>
  <polygon class="cls-11" points="3.39 8.66 3.58 9 3.97 9.42 3.81 8.86 3.69 8.65 3.39 8.66"/>
  <path class="cls-11" d="M3.62,4.29l.27-.37-.27.37Z"/>
  <polygon class="cls-11" points="3.89 3.92 3.89 3.92 3.62 4.29 4.48 5.3 5.06 4.51 3.89 3.92"/>
  <polygon class="cls-11" points="6.83 4.29 6.83 4.29 6.55 3.92 6.83 4.29"/>
  <polygon class="cls-11" points="6.55 3.92 5.39 4.51 5.97 5.3 6.83 4.29 6.55 3.92"/>
  <polygon class="cls-11" points="5.09 4.83 4.48 5.71 3.83 4.96 5.01 7.77 5.09 7.6 5.09 4.83"/>
  <path class="cls-11" d="M5.34,4.83v2.25l.21-.43.49-1.03-.09.1-.62-.88ZM6.61,4.96l-.37.42.26-.17.11-.26Z"/>
  <g>
    <path class="cls-2" d="M14.64,9.84l-1.66-4.38-1.83-1.18-.28-.37v-.39c.27-.37.44-.86.44-1.4C11.31.95,10.52,0,9.55,0s-1.77.95-1.77,2.12c0,.54.17,1.03.44,1.4v.39l-.27.37-1.83,1.18-1.79,3.74.17,2,1.26.38.51-.21v.55s.04,0,.04,0l-.02.98-.84,9.09h3.36l.75-5.2.66,5.2h3.37l-.75-9.09v-.45s1.81-1.33,1.81-1.33v-1.29Z"/>
    <path class="cls-7" d="M9.55,0c-.17,0-.33.03-.48.08C9.22.03,9.38,0,9.55,0,10.52,0,11.31.95,11.31,2.13c0,.54-.16,1.02-.44,1.4v.39-.39c.27-.37.44-.86.44-1.4C11.32.95,10.52,0,9.55,0M11.15,4.29h0s1.83,1.18,1.83,1.18l.13.33-.13-.33-1.83-1.18ZM13.79,7.61h0l.84,2.23v1.29l-1.83,1.33v.45s.76,9.09.76,9.09l-.75-9.09v-.45s1.81-1.33,1.81-1.33v-1.29l-.84-2.23Z"/>
    <polygon class="cls-1" points="13.11 5.8 13.11 5.8 13.79 7.61 13.79 7.61 13.11 5.8"/>
  </g>
  <path class="cls-7" d="M7.39,4.65l.56-.36-.56.36Z"/>
  <path class="cls-5" d="M6.12,5.47l-.07.14h0s.07-.14.07-.14ZM6.12,5.47l.12-.08h0l-.13.08ZM6.5,5.22l.89-.57-.89.57Z"/>
  <path class="cls-8" d="M5.55,6.64l.5-1.03h0s-.5,1.03-.5,1.03ZM6.24,5.39h0s.26-.17.26-.17l-.26.17Z"/>
  <path class="cls-5" d="M4.48,11.06l-.02-.28.02.28ZM4.44,10.67l-.02-.18.02.18ZM4.42,10.39l-.02-.21.02.21ZM4.39,10.07l-.07-.86.07.86Z"/>
  <path class="cls-8" d="M4.4,10.07v.11s0-.11,0-.11ZM4.42,10.38v.1s0-.1,0-.1ZM4.45,10.67v.1s0-.1,0-.1ZM4.48,11.05v.15s.31.09.31.09l-.29-.09v-.15ZM6.26,11.38l-.12.05.12-.05Z"/>
  <rect class="cls-7" x="7.69" y="18.4" width="3.24" height="0"/>
  <polygon class="cls-5" points="8.79 22 9.08 20.01 9.08 20 8.79 22"/>
  <g>
    <path class="cls-7" d="M9.55,0c-.17,0-.33.03-.48.08-.74.25-1.28,1.07-1.28,2.05,0,.54.16,1.02.44,1.4v.39l1.16.59-.57.79-.86-1.01-.56.36-.89.57-.26.17-.12.08-.07.14-.49,1.03-1.23,2.57.07.87v.11s.03.21.03.21v.1s.02.18.02.18v.1s.03.28.03.28v.15s.31.09.31.09l.97.29.39-.16.12-.05h0v.55s.03,0,.03,0h0l-.02.98-.84,9.09h3.36l.29-1.99h0s.46-3.21.46-3.21h0s0,0,0,0l.66,5.2h3.36l-.75-9.09v-.45s1.81-1.33,1.81-1.33v-1.29l-.84-2.23-.69-1.82-.13-.33-1.83-1.18-.86,1.01-.57-.79,1.16-.59v-.39c.27-.37.44-.86.44-1.4,0-1.17-.79-2.13-1.77-2.13M9.67,7.96v-3.14l.62.88.65-.74-1.26,3ZM8.8,5.71l.62-.88v3.14l-1.26-3,.65.74ZM7.62,7.96l-.32-.02-.7-1.22.23-.13.79,1.38ZM10.43,7h1.92v1.18h-1.92v-1.18ZM8.3,9.42l-.39-.42-.19-.33h.3s.12.2.12.2l.16.55ZM10.32,10.48l2.3-1.62.05.08-2.28,1.61.08.11,2.34-1.58.05.08-2.35,1.59c.05.12.08.22.09.26l2.52-1.73-.19.65-.49.68-1.58.61-.46.4.02.75-.55.07-2.67-.56-.99-1.57,3.12.9s-.01-.14,0-.26l-2.95-.93.03-.09,2.93.93.04-.15-2.89-.98.03-.09,2.89.98.06-.1.04-.05-2.91-1.07.03-.09,2.97,1.09c.06-.04.13-.06.2-.07.04,0,.07,0,.1,0,.19,0,.32.07.43.16M9.9,10.41s-.06,0-.09,0c-.11.01-.2.07-.27.15-.17.23-.11.64-.11.65l1.13-.18h-.04s-.1-.63-.62-.63"/>
    <path class="cls-10" d="M12.62,8.85l-2.3,1.62c-.1-.09-.24-.16-.43-.16-.03,0-.07,0-.1,0-.08,0-.14.03-.2.07l-2.97-1.09-.03.09,2.91,1.07-.04.05-.06.1-2.89-.98-.03.09,2.89.98-.04.15-2.93-.93-.03.09,2.95.93c0,.12,0,.21,0,.26l-3.12-.9.99,1.57,2.67.56.55-.07-.02-.75.46-.4,1.57-.61.49-.68.19-.65-2.52,1.73s-.03-.15-.09-.26l2.35-1.59-.05-.08-2.34,1.58-.08-.11,2.28-1.61-.06-.08ZM9.43,11.21s-.06-.42.11-.65c.06-.08.15-.13.27-.15.03,0,.06,0,.09,0,.51,0,.61.6.62.63h.04s-1.13.17-1.13.17ZM9.38,11.22h0,0Z"/>
  </g>
  <polygon class="cls-10" points="6.83 6.58 6.6 6.72 7.3 7.94 7.62 7.96 6.83 6.58"/>
  <polygon class="cls-10" points="7.71 8.66 7.9 9 8.3 9.42 8.13 8.86 8.01 8.65 7.71 8.66"/>
  <path class="cls-10" d="M7.94,4.29l.12-.17-.12.17Z"/>
  <polygon class="cls-10" points="8.22 3.92 8.22 3.92 8.06 4.13 7.94 4.29 8.81 5.3 9.38 4.51 8.22 3.92"/>
  <polygon class="cls-10" points="10.88 3.92 11.15 4.29 10.88 3.92 10.88 3.92"/>
  <polygon class="cls-10" points="10.88 3.92 9.72 4.51 10.29 5.3 11.15 4.29 10.88 3.92"/>
  <rect class="cls-10" x="10.43" y="7" width="1.92" height="1.18"/>
  <polygon class="cls-10" points="9.42 4.83 8.8 5.71 8.15 4.96 9.42 7.96 9.42 4.83"/>
  <polygon class="cls-10" points="9.67 4.83 9.67 7.96 10.93 4.96 10.28 5.71 9.67 4.83"/>
  <g>
    <path class="cls-6" d="M18.77,9.84l-1.66-4.38-1.83-1.18-.27-.37v-.39c.27-.37.44-.86.44-1.4C15.45.95,14.66,0,13.68,0s-1.77.95-1.77,2.13c0,.54.17,1.02.44,1.4v.39l-.27.37-1.83,1.18-1.79,3.74.17,2,1.26.38.51-.21v.55s.04,0,.04,0l-.02.98-.84,9.09h3.36l.75-5.2.66,5.2h3.36l-.75-9.09v-.45s1.81-1.33,1.81-1.33v-1.29Z"/>
    <path class="cls-4" d="M13.56,11.21s-.06-.42.11-.65c.06-.08.15-.13.27-.15.59-.08.7.6.71.63h.04s-1.13.17-1.13.17ZM13.51,11.22h0,0ZM14.74,11s-.03-.15-.09-.26l2.35-1.59-.05-.08-2.34,1.58-.08-.11,2.28-1.61-.05-.08-2.3,1.62c-.12-.11-.29-.19-.53-.16-.08.01-.14.04-.2.07l-2.97-1.09-.03.09,2.91,1.07-.04.05-.06.1-2.89-.98-.03.09,2.89.98-.04.15-2.93-.93-.03.09,2.95.94c0,.12,0,.21,0,.26l-3.12-.9.99,1.57,2.67.56.55-.07-.02-.75.46-.4,1.58-.61.49-.68.19-.65-2.52,1.73Z"/>
  </g>
  <polygon class="cls-4" points="11.76 7.96 11.44 7.94 10.74 6.72 10.97 6.59 11.76 7.96"/>
  <polygon class="cls-4" points="11.85 8.66 12.04 9 12.43 9.42 12.27 8.86 12.15 8.65 11.85 8.66"/>
  <polygon class="cls-4" points="12.35 3.92 13.51 4.51 12.94 5.3 12.08 4.29 12.35 3.92"/>
  <polygon class="cls-4" points="15.01 3.92 13.85 4.51 14.42 5.3 15.29 4.29 15.01 3.92"/>
  <rect class="cls-4" x="14.57" y="7" width="1.92" height="1.18"/>
  <polygon class="cls-4" points="12.29 4.96 12.94 5.71 13.55 4.83 13.55 7.96 12.29 4.96"/>
  <polygon class="cls-4" points="15.07 4.96 14.42 5.71 13.8 4.83 13.8 7.96 15.07 4.96"/>
  <g>
    <path class="cls-6" d="M33.83,15.54c-.57,0-1.05.26-1.37.5v1.97c.43.09.91.14,1.19.02.25-.15.64-1.4.43-2.18-.08-.31-.2-.31-.25-.31"/>
    <path class="cls-6" d="M34.01,18.91c-.24.1-.52.13-.81.13-.25,0-.51-.03-.74-.07v1.64h-.57l-.54.56h-4.47l-.54-.56h-.57v-6.35h6.71v.68c.38-.19.84-.34,1.37-.34.61,0,1.06.44,1.21,1.18.19,1-.16,2.79-1.03,3.14M27.36,10.56l.55-.3s.58,1.11,0,2.08c-.38.62,0,1.36,0,1.37l-.55.3s-.56-1.05,0-1.99c.41-.67,0-1.45,0-1.46M28.83,10.56l.55-.3s.58,1.11,0,2.08c-.38.62,0,1.36,0,1.37l-.55.3s-.56-1.05,0-1.99c.41-.67,0-1.45,0-1.46M30.29,10.56l.55-.3s.58,1.11,0,2.08c-.38.62,0,1.36,0,1.37l-.55.3s-.56-1.05,0-1.99c.41-.67,0-1.45,0-1.46M29.11,8.62l-7.57,3.88v9.49h15.14v-9.49l-7.57-3.88Z"/>
  </g>
</svg>