<?xml version="1.0" encoding="UTF-8"?>
<svg id="Layer_1" xmlns="http://www.w3.org/2000/svg" viewBox="0 0 129 24">
  <defs>
    <style>
      .cls-1 {
        fill: #fff;
      }

      .cls-2 {
        fill: #6d86aa;
      }

      .cls-3 {
        fill: #ceb28f;
      }

      .cls-4 {
        fill: none;
        stroke: #ceb28f;
        stroke-width: .43px;
      }
    </style>
  </defs>
  <path class="cls-3" d="M1.5.21h125.73c.71,0,1.28.57,1.28,1.28v20.46c0,.71-.57,1.28-1.28,1.28H1.5c-.71,0-1.28-.57-1.28-1.28V1.5C.21.79.79.21,1.5.21Z"/>
  <path class="cls-4" d="M1.5.21h125.73c.71,0,1.28.57,1.28,1.28v20.46c0,.71-.57,1.28-1.28,1.28H1.5c-.71,0-1.28-.57-1.28-1.28V1.5C.21.79.79.21,1.5.21Z"/>
  <path class="cls-1" d="M2.92,1.94h25.51c.71,0,1.28.57,1.28,1.28v8.67c0,.71-.57,1.28-1.28,1.28H2.92c-.71,0-1.28-.57-1.28-1.28V3.22c0-.71.57-1.28,1.28-1.28Z"/>
  <path class="cls-4" d="M2.92,1.94h25.51c.71,0,1.28.57,1.28,1.28v8.67c0,.71-.57,1.28-1.28,1.28H2.92c-.71,0-1.28-.57-1.28-1.28V3.22c0-.71.57-1.28,1.28-1.28Z"/>
  <path class="cls-1" d="M35.28,1.94h25.51c.71,0,1.28.57,1.28,1.28v8.67c0,.71-.57,1.28-1.28,1.28h-25.51c-.71,0-1.28-.57-1.28-1.28V3.22c0-.71.57-1.28,1.28-1.28Z"/>
  <path class="cls-4" d="M35.28,1.94h25.51c.71,0,1.28.57,1.28,1.28v8.67c0,.71-.57,1.28-1.28,1.28h-25.51c-.71,0-1.28-.57-1.28-1.28V3.22c0-.71.57-1.28,1.28-1.28Z"/>
  <path class="cls-1" d="M67.93,1.94h25.51c.71,0,1.28.57,1.28,1.28v8.67c0,.71-.57,1.28-1.28,1.28h-25.51c-.71,0-1.28-.57-1.28-1.28V3.22c0-.71.57-1.28,1.28-1.28Z"/>
  <path class="cls-4" d="M67.93,1.94h25.51c.71,0,1.28.57,1.28,1.28v8.67c0,.71-.57,1.28-1.28,1.28h-25.51c-.71,0-1.28-.57-1.28-1.28V3.22c0-.71.57-1.28,1.28-1.28Z"/>
  <path class="cls-1" d="M100.2,1.94h25.51c.71,0,1.28.57,1.28,1.28v8.67c0,.71-.57,1.28-1.28,1.28h-25.51c-.71,0-1.28-.57-1.28-1.28V3.22c0-.71.57-1.28,1.28-1.28Z"/>
  <path class="cls-4" d="M100.2,1.94h25.51c.71,0,1.28.57,1.28,1.28v8.67c0,.71-.57,1.28-1.28,1.28h-25.51c-.71,0-1.28-.57-1.28-1.28V3.22c0-.71.57-1.28,1.28-1.28Z"/>
  <path class="cls-2" d="M32.05,12.72c-.65,0-1.18.53-1.18,1.18v9.54h2.36v-9.54c0-.65-.53-1.18-1.18-1.18"/>
  <path class="cls-2" d="M64.36,12.72c-.65,0-1.18.53-1.18,1.18v9.54h2.36v-9.54c0-.65-.53-1.18-1.18-1.18"/>
  <path class="cls-2" d="M96.82,12.72c-.65,0-1.18.53-1.18,1.18v9.54h2.36v-9.54c0-.65-.53-1.18-1.18-1.18"/>
</svg>