<?xml version="1.0" encoding="UTF-8"?>
<svg id="Layer_1" data-name="Layer 1" xmlns="http://www.w3.org/2000/svg" viewBox="0 0 16.3 10.47">
  <defs>
    <style>
      .cls-1 {
        fill: #bf9a6b;
      }
    </style>
  </defs>
  <polygon class="cls-1" points="8.15 0 4.25 10.47 12.06 10.47 8.15 0"/>
  <polygon class="cls-1" points="11.87 8.44 12.48 10.08 13.42 9.1 13.84 7.28 11.87 8.44"/>
  <polygon class="cls-1" points="11.02 6.17 11.72 8.04 14.56 6.34 15.14 4.21 11.02 6.17"/>
  <polygon class="cls-1" points="10.12 3.76 10.87 5.76 15.72 3.39 16.3 1.27 10.12 3.76"/>
  <polygon class="cls-1" points="4.43 8.53 3.82 10.17 2.88 9.18 2.47 7.36 4.43 8.53"/>
  <polygon class="cls-1" points="5.28 6.25 4.59 8.12 1.74 6.42 1.16 4.3 5.28 6.25"/>
  <polygon class="cls-1" points="6.18 3.84 5.44 5.84 .58 3.47 0 1.35 6.18 3.84"/>
</svg>