<?xml version="1.0" encoding="UTF-8"?>
<svg id="Layer_1" data-name="Layer 1" xmlns="http://www.w3.org/2000/svg" viewBox="0 0 36.15 23.01">
  <defs>
    <style>
      .cls-1 {
        fill: #fff;
      }

      .cls-2 {
        fill: none;
        stroke: #000;
        stroke-miterlimit: 10;
        stroke-width: .48px;
      }

      .cls-3 {
        fill: #e7d9c7;
      }

      .cls-4 {
        fill: #bf9a6b;
      }

      .cls-5 {
        fill: #be1e2d;
      }

      .cls-6 {
        fill: #faa74a;
      }
    </style>
  </defs>
  <g>
    <path class="cls-1" d="M32.35,20.28h-8.91c-1.97,0-3.56-1.59-3.56-3.56V7.81c0-1.97,1.59-3.56,3.56-3.56h8.91c1.97,0,3.56,1.6,3.56,3.56v8.91c0,1.97-1.6,3.56-3.56,3.56"/>
    <rect class="cls-2" x="19.88" y="4.25" width="16.03" height="16.03" rx="3.56" ry="3.56"/>
    <path class="cls-1" d="M33.6,11.31c0-3.15-2.55-5.7-5.7-5.7s-5.7,2.55-5.7,5.7,2.55,5.7,5.7,5.7,5.7-2.55,5.7-5.7"/>
    <path class="cls-5" d="M32.74,11.31c0-2.67-2.17-4.84-4.84-4.84s-4.84,2.17-4.84,4.84,2.17,4.84,4.84,4.84,4.84-2.17,4.84-4.84"/>
  </g>
  <path class="cls-1" d="M30.85,13.69h-5.91v-1.44h5.91v1.44ZM30.85,10.36h-5.91v-1.44h5.91v1.44Z"/>
  <rect class="cls-1" x="24.05" y="10.79" width="7.69" height="1.03" transform="translate(6.31 32.29) rotate(-66.25)"/>
  <g>
    <path class="cls-1" d="M23.44,18.4c-.92,0-1.68-.75-1.68-1.68v-1.81h-1.89v1.81c0,1.97,1.6,3.56,3.56,3.56h1.57v-1.89h-1.57Z"/>
    <path class="cls-2" d="M23.44,18.4c-.92,0-1.68-.75-1.68-1.68v-1.81h-1.89v1.81c0,1.97,1.6,3.56,3.56,3.56h1.57v-1.89h-1.57Z"/>
    <path class="cls-1" d="M23.44,16.51c-.92,0-1.68-.75-1.68-1.67v-1.81h-1.89v1.81c0,1.97,1.6,3.56,3.56,3.56h1.57v-1.89h-1.57Z"/>
    <path class="cls-2" d="M23.44,16.51c-.92,0-1.68-.75-1.68-1.67v-1.81h-1.89v1.81c0,1.97,1.6,3.56,3.56,3.56h1.57v-1.89h-1.57Z"/>
    <path class="cls-1" d="M32.35,18.4c.92,0,1.67-.75,1.67-1.68v-1.81h1.89v1.81c0,1.97-1.6,3.56-3.56,3.56h-1.57v-1.89h1.57Z"/>
    <path class="cls-2" d="M32.35,18.4c.92,0,1.67-.75,1.67-1.68v-1.81h1.89v1.81c0,1.97-1.6,3.56-3.56,3.56h-1.57v-1.89h1.57Z"/>
    <path class="cls-1" d="M32.35,16.51c.92,0,1.67-.75,1.67-1.67v-1.81h1.89v1.81c0,1.97-1.6,3.56-3.56,3.56h-1.57v-1.89h1.57Z"/>
    <path class="cls-2" d="M32.35,16.51c.92,0,1.67-.75,1.67-1.67v-1.81h1.89v1.81c0,1.97-1.6,3.56-3.56,3.56h-1.57v-1.89h1.57Z"/>
    <path class="cls-1" d="M23.44,6.14c-.92,0-1.68.75-1.68,1.68v1.81h-1.89v-1.81c0-1.97,1.6-3.56,3.56-3.56h1.57v1.89h-1.57Z"/>
    <path class="cls-2" d="M23.44,6.14c-.92,0-1.68.75-1.68,1.68v1.81h-1.89v-1.81c0-1.97,1.6-3.56,3.56-3.56h1.57v1.89h-1.57Z"/>
    <path class="cls-1" d="M23.44,4.26c-.92,0-1.68.75-1.68,1.68v1.81h-1.89v-1.81c0-1.97,1.6-3.56,3.56-3.56h1.57v1.89h-1.57Z"/>
    <path class="cls-2" d="M23.44,4.26c-.92,0-1.68.75-1.68,1.68v1.81h-1.89v-1.81c0-1.97,1.6-3.56,3.56-3.56h1.57v1.89h-1.57Z"/>
    <path class="cls-1" d="M32.35,6.14c.92,0,1.67.75,1.67,1.68v1.81h1.89v-1.81c0-1.97-1.6-3.56-3.56-3.56h-1.57v1.89h1.57Z"/>
    <path class="cls-2" d="M32.35,6.14c.92,0,1.67.75,1.67,1.68v1.81h1.89v-1.81c0-1.97-1.6-3.56-3.56-3.56h-1.57v1.89h1.57Z"/>
    <path class="cls-1" d="M32.35,4.26c.92,0,1.67.75,1.67,1.68v1.81h1.89v-1.81c0-1.97-1.6-3.56-3.56-3.56h-1.57v1.89h1.57Z"/>
    <path class="cls-2" d="M32.35,4.26c.92,0,1.67.75,1.67,1.68v1.81h1.89v-1.81c0-1.97-1.6-3.56-3.56-3.56h-1.57v1.89h1.57Z"/>
    <path class="cls-6" d="M18.21,9.83l-2.89-5.01-.94,1.63c-4.65-2.68-10.62-1.09-13.31,3.57l1.74,1c2.13-3.69,6.87-4.96,10.57-2.83l-.94,1.63h5.78Z"/>
    <path class="cls-4" d="M10.79,10.29l-1.73-4.58-1.91-1.23-.29-.39v-.41c.29-.39.46-.9.46-1.46,0-1.23-.83-2.22-1.85-2.22s-1.85.99-1.85,2.22c0,.56.17,1.07.46,1.46v.41l-.29.39-1.91,1.23-1.87,3.91.17,2.1,1.32.4.54-.22v.58s.02,0,.04,0l-.03,1.02-.88,9.51h3.52l.79-5.44.69,5.44h3.52l-.78-9.51v-.47s1.9-1.39,1.9-1.39v-1.35Z"/>
    <path class="cls-3" d="M5.34,11.73s-.06-.44.12-.68c.07-.09.16-.14.28-.16.62-.08.74.62.74.65h.04s-1.18.18-1.18.18ZM5.29,11.74h0s0,0,0,0ZM6.57,11.51s-.04-.15-.09-.28l2.46-1.66-.06-.08-2.45,1.65s-.05-.08-.08-.11l2.39-1.69-.06-.08-2.4,1.7c-.13-.12-.31-.2-.56-.16-.08,0-.15.04-.21.07l-3.1-1.14-.03.09,3.04,1.11s-.03.03-.04.05c-.02.03-.05.07-.06.1l-3.03-1.02-.03.1,3.02,1.02c-.02.05-.03.11-.04.16l-3.06-.97-.03.1,3.08.98c0,.12,0,.22,0,.27l-3.26-.94,1.04,1.64,2.79.59.57-.07-.02-.79.48-.42,1.65-.64.51-.71.2-.68-2.64,1.81Z"/>
  </g>
  <polygon class="cls-3" points="3.45 8.33 3.11 8.31 2.38 7.02 2.62 6.89 3.45 8.33"/>
  <polygon class="cls-3" points="3.54 9.06 3.74 9.41 4.16 9.85 3.98 9.27 3.86 9.05 3.54 9.06"/>
  <polygon class="cls-3" points="4.07 4.1 4.95 4.86 4.59 5.72 3.78 4.49 4.07 4.1"/>
  <polygon class="cls-3" points="4.59 7.62 5 8.65 5.3 5.95 5 5.58 4.59 7.62"/>
  <polygon class="cls-3" points="6.85 4.1 5.97 4.86 6.34 5.72 7.14 4.49 6.85 4.1"/>
  <polygon class="cls-3" points="5.63 5.95 5.92 8.65 6.34 7.62 5.92 5.58 5.63 5.95"/>
  <g>
    <path class="cls-4" d="M10.79,10.29l-1.73-4.58-1.91-1.23-.29-.39v-.41c.29-.39.46-.9.46-1.46,0-1.23-.83-2.22-1.85-2.22s-1.85.99-1.85,2.22c0,.56.17,1.07.46,1.46v.41l-.29.39-1.91,1.23-1.87,3.91.17,2.1,1.32.4.54-.22v.58s.02,0,.04,0l-.03,1.02-.88,9.51h3.52l.79-5.44.69,5.44h3.52l-.78-9.51v-.47s1.9-1.39,1.9-1.39v-1.35Z"/>
    <path class="cls-3" d="M5.34,11.73s-.06-.44.12-.68c.07-.09.16-.14.28-.16.62-.08.74.62.74.65h.04s-1.18.18-1.18.18ZM5.29,11.74h0s0,0,0,0ZM6.57,11.51s-.04-.15-.09-.28l2.46-1.66-.06-.08-2.45,1.65s-.05-.08-.08-.11l2.39-1.69-.06-.08-2.4,1.7c-.13-.12-.31-.2-.56-.16-.08,0-.15.04-.21.07l-3.1-1.14-.03.09,3.04,1.11s-.03.03-.04.05c-.02.03-.05.07-.06.1l-3.03-1.02-.03.1,3.02,1.02c-.02.05-.03.11-.04.16l-3.06-.97-.03.1,3.08.98c0,.12,0,.22,0,.27l-3.26-.94,1.04,1.64,2.79.59.57-.07-.02-.79.48-.42,1.65-.64.51-.71.2-.68-2.64,1.81Z"/>
  </g>
  <polygon class="cls-3" points="3.45 8.33 3.11 8.31 2.38 7.02 2.62 6.89 3.45 8.33"/>
  <polygon class="cls-3" points="3.54 9.06 3.74 9.41 4.16 9.85 3.98 9.27 3.86 9.05 3.54 9.06"/>
  <polygon class="cls-3" points="4.07 4.1 5.29 4.71 4.69 5.54 3.78 4.49 4.07 4.1"/>
  <polygon class="cls-3" points="6.85 4.1 5.64 4.71 6.24 5.54 7.14 4.49 6.85 4.1"/>
  <rect class="cls-3" x="6.39" y="7.32" width="2.01" height="1.23"/>
  <polygon class="cls-3" points="4.01 5.19 4.68 5.97 5.33 5.05 5.33 8.33 4.01 5.19"/>
  <polygon class="cls-3" points="6.91 5.19 6.23 5.97 5.59 5.05 5.59 8.33 6.91 5.19"/>
</svg>