<?xml version="1.0" encoding="UTF-8"?>
<svg id="Layer_1" data-name="Layer 1" xmlns="http://www.w3.org/2000/svg" viewBox="0 0 16.51 28.61">
  <defs>
    <style>
      .cls-1 {
        fill: #fff;
      }

      .cls-2 {
        fill: none;
        stroke: #000;
        stroke-miterlimit: 10;
        stroke-width: .48px;
      }

      .cls-3 {
        fill: #e7d9c7;
      }

      .cls-4 {
        fill: #bf9a6b;
      }
    </style>
  </defs>
  <g>
    <path class="cls-1" d="M12.71,28.37H3.8c-1.97,0-3.56-1.59-3.56-3.56v-8.91c0-1.97,1.59-3.56,3.56-3.56h8.91c1.97,0,3.56,1.6,3.56,3.56v8.91c0,1.97-1.6,3.56-3.56,3.56"/>
    <rect class="cls-2" x=".24" y="12.34" width="16.03" height="16.03" rx="3.56" ry="3.56"/>
    <path class="cls-1" d="M3.8,26.49c-.92,0-1.68-.75-1.68-1.68v-1.81H.24v1.81c0,1.97,1.6,3.56,3.56,3.56h1.57v-1.89h-1.57Z"/>
    <path class="cls-2" d="M3.8,26.49c-.92,0-1.68-.75-1.68-1.68v-1.81H.24v1.81c0,1.97,1.6,3.56,3.56,3.56h1.57v-1.89h-1.57Z"/>
    <path class="cls-1" d="M3.8,24.6c-.92,0-1.68-.75-1.68-1.67v-1.81H.24v1.81c0,1.97,1.6,3.56,3.56,3.56h1.57v-1.89h-1.57Z"/>
    <path class="cls-2" d="M3.8,24.6c-.92,0-1.68-.75-1.68-1.67v-1.81H.24v1.81c0,1.97,1.6,3.56,3.56,3.56h1.57v-1.89h-1.57Z"/>
    <path class="cls-1" d="M12.71,26.49c.92,0,1.67-.75,1.67-1.68v-1.81h1.89v1.81c0,1.97-1.6,3.56-3.56,3.56h-1.57v-1.89h1.57Z"/>
    <path class="cls-2" d="M12.71,26.49c.92,0,1.67-.75,1.67-1.68v-1.81h1.89v1.81c0,1.97-1.6,3.56-3.56,3.56h-1.57v-1.89h1.57Z"/>
    <path class="cls-1" d="M12.71,24.6c.92,0,1.67-.75,1.67-1.67v-1.81h1.89v1.81c0,1.97-1.6,3.56-3.56,3.56h-1.57v-1.89h1.57Z"/>
    <path class="cls-2" d="M12.71,24.6c.92,0,1.67-.75,1.67-1.67v-1.81h1.89v1.81c0,1.97-1.6,3.56-3.56,3.56h-1.57v-1.89h1.57Z"/>
    <path class="cls-1" d="M3.8,14.23c-.92,0-1.68.75-1.68,1.68v1.81H.24v-1.81c0-1.97,1.6-3.56,3.56-3.56h1.57v1.89h-1.57Z"/>
    <path class="cls-2" d="M3.8,14.23c-.92,0-1.68.75-1.68,1.68v1.81H.24v-1.81c0-1.97,1.6-3.56,3.56-3.56h1.57v1.89h-1.57Z"/>
    <path class="cls-1" d="M3.8,12.35c-.92,0-1.68.75-1.68,1.68v1.81H.24v-1.81c0-1.97,1.6-3.56,3.56-3.56h1.57v1.89h-1.57Z"/>
    <path class="cls-2" d="M3.8,12.35c-.92,0-1.68.75-1.68,1.68v1.81H.24v-1.81c0-1.97,1.6-3.56,3.56-3.56h1.57v1.89h-1.57Z"/>
    <path class="cls-1" d="M12.71,14.23c.92,0,1.67.75,1.67,1.68v1.81h1.89v-1.81c0-1.97-1.6-3.56-3.56-3.56h-1.57v1.89h1.57Z"/>
    <path class="cls-2" d="M12.71,14.23c.92,0,1.67.75,1.67,1.68v1.81h1.89v-1.81c0-1.97-1.6-3.56-3.56-3.56h-1.57v1.89h1.57Z"/>
    <path class="cls-1" d="M12.71,12.35c.92,0,1.67.75,1.67,1.68v1.81h1.89v-1.81c0-1.97-1.6-3.56-3.56-3.56h-1.57v1.89h1.57Z"/>
    <path class="cls-2" d="M12.71,12.35c.92,0,1.67.75,1.67,1.68v1.81h1.89v-1.81c0-1.97-1.6-3.56-3.56-3.56h-1.57v1.89h1.57Z"/>
  </g>
  <g>
    <path class="cls-4" d="M13.54,10.29l-1.73-4.58-1.91-1.23-.29-.39v-.41c.29-.39.46-.9.46-1.46,0-1.23-.83-2.22-1.85-2.22s-1.85.99-1.85,2.22c0,.56.17,1.07.46,1.46v.41l-.29.39-1.91,1.23-1.87,3.91.17,2.1,1.32.4.54-.22v.58s.02,0,.04,0l-.03,1.02-.88,9.51h3.52l.79-5.44.69,5.44h3.52l-.78-9.51v-.47s1.9-1.39,1.9-1.39v-1.35Z"/>
    <path class="cls-3" d="M8.09,11.73s-.06-.44.12-.68c.07-.09.16-.14.28-.16.62-.08.74.62.74.65h.04s-1.18.18-1.18.18ZM8.04,11.74h0s0,0,0,0ZM9.32,11.51s-.04-.15-.09-.28l2.46-1.66-.06-.08-2.45,1.65s-.05-.08-.08-.11l2.39-1.69-.06-.08-2.4,1.7c-.13-.12-.31-.2-.56-.16-.08,0-.15.04-.21.07l-3.1-1.14-.03.09,3.04,1.11s-.03.03-.04.05c-.02.03-.05.07-.06.1l-3.03-1.02-.03.1,3.02,1.02c-.02.05-.03.11-.04.16l-3.06-.97-.03.1,3.08.98c0,.12,0,.22,0,.27l-3.26-.94,1.04,1.64,2.79.59.57-.07-.02-.79.48-.42,1.65-.64.51-.71.2-.68-2.64,1.81Z"/>
    <polygon class="cls-3" points="6.2 8.33 5.87 8.31 5.14 7.02 5.38 6.89 6.2 8.33"/>
    <polygon class="cls-3" points="6.3 9.06 6.5 9.41 6.91 9.85 6.74 9.27 6.61 9.05 6.3 9.06"/>
    <polygon class="cls-3" points="6.83 4.1 7.71 4.86 7.34 5.72 6.54 4.49 6.83 4.1"/>
    <polygon class="cls-3" points="7.34 7.62 7.76 8.65 8.05 5.95 7.76 5.58 7.34 7.62"/>
    <polygon class="cls-3" points="9.61 4.1 8.73 4.86 9.1 5.72 9.9 4.49 9.61 4.1"/>
    <polygon class="cls-3" points="8.39 5.95 8.68 8.65 9.1 7.62 8.68 5.58 8.39 5.95"/>
    <path class="cls-4" d="M13.54,10.29l-1.73-4.58-1.91-1.23-.29-.39v-.41c.29-.39.46-.9.46-1.46,0-1.23-.83-2.22-1.85-2.22s-1.85.99-1.85,2.22c0,.56.17,1.07.46,1.46v.41l-.29.39-1.91,1.23-1.87,3.91.17,2.1,1.32.4.54-.22v.58s.02,0,.04,0l-.03,1.02-.88,9.51h3.52l.79-5.44.69,5.44h3.52l-.78-9.51v-.47s1.9-1.39,1.9-1.39v-1.35Z"/>
    <path class="cls-3" d="M8.09,11.73s-.06-.44.12-.68c.07-.09.16-.14.28-.16.62-.08.74.62.74.65h.04s-1.18.18-1.18.18ZM8.04,11.74h0s0,0,0,0ZM9.32,11.51s-.04-.15-.09-.28l2.46-1.66-.06-.08-2.45,1.65s-.05-.08-.08-.11l2.39-1.69-.06-.08-2.4,1.7c-.13-.12-.31-.2-.56-.16-.08,0-.15.04-.21.07l-3.1-1.14-.03.09,3.04,1.11s-.03.03-.04.05c-.02.03-.05.07-.06.1l-3.03-1.02-.03.1,3.02,1.02c-.02.05-.03.11-.04.16l-3.06-.97-.03.1,3.08.98c0,.12,0,.22,0,.27l-3.26-.94,1.04,1.64,2.79.59.57-.07-.02-.79.48-.42,1.65-.64.51-.71.2-.68-2.64,1.81Z"/>
    <polygon class="cls-3" points="6.2 8.33 5.87 8.31 5.14 7.02 5.38 6.89 6.2 8.33"/>
    <polygon class="cls-3" points="6.3 9.06 6.5 9.41 6.91 9.85 6.74 9.27 6.61 9.05 6.3 9.06"/>
    <polygon class="cls-3" points="6.83 4.1 8.04 4.71 7.44 5.54 6.54 4.49 6.83 4.1"/>
    <polygon class="cls-3" points="9.61 4.1 8.39 4.71 8.99 5.54 9.9 4.49 9.61 4.1"/>
    <rect class="cls-3" x="9.15" y="7.32" width="2.01" height="1.23"/>
    <polygon class="cls-3" points="6.76 5.19 7.44 5.97 8.08 5.05 8.08 8.33 6.76 5.19"/>
    <polygon class="cls-3" points="9.66 5.19 8.99 5.97 8.34 5.05 8.34 8.33 9.66 5.19"/>
  </g>
</svg>