<?xml version="1.0" encoding="UTF-8"?>
<svg id="Layer_1" data-name="Layer 1" xmlns="http://www.w3.org/2000/svg" viewBox="0 0 61.01 28.79">
  <defs>
    <style>
      .cls-1 {
        fill: #fff;
      }

      .cls-2 {
        fill: none;
        stroke-width: .48px;
      }

      .cls-2, .cls-3 {
        stroke: #000;
        stroke-miterlimit: 10;
      }

      .cls-4 {
        fill: #e7d9c7;
      }

      .cls-5 {
        fill: #bf9a6b;
      }

      .cls-3 {
        stroke-width: .5px;
      }
    </style>
  </defs>
  <g>
    <path class="cls-1" d="M34.96,28.37h-8.91c-1.97,0-3.56-1.59-3.56-3.56v-8.91c0-1.97,1.59-3.56,3.56-3.56h8.91c1.97,0,3.56,1.6,3.56,3.56v8.91c0,1.97-1.6,3.56-3.56,3.56"/>
    <rect class="cls-2" x="22.49" y="12.34" width="16.03" height="16.03" rx="3.56" ry="3.56"/>
    <path class="cls-1" d="M26.05,26.49c-.92,0-1.68-.75-1.68-1.68v-1.81h-1.89v1.81c0,1.97,1.6,3.56,3.56,3.56h1.57v-1.89h-1.57Z"/>
    <path class="cls-2" d="M26.05,26.49c-.92,0-1.68-.75-1.68-1.68v-1.81h-1.89v1.81c0,1.97,1.6,3.56,3.56,3.56h1.57v-1.89h-1.57Z"/>
    <path class="cls-1" d="M26.05,24.6c-.92,0-1.68-.75-1.68-1.67v-1.81h-1.89v1.81c0,1.97,1.6,3.56,3.56,3.56h1.57v-1.89h-1.57Z"/>
    <path class="cls-2" d="M26.05,24.6c-.92,0-1.68-.75-1.68-1.67v-1.81h-1.89v1.81c0,1.97,1.6,3.56,3.56,3.56h1.57v-1.89h-1.57Z"/>
    <path class="cls-1" d="M34.96,26.49c.92,0,1.67-.75,1.67-1.68v-1.81h1.89v1.81c0,1.97-1.6,3.56-3.56,3.56h-1.57v-1.89h1.57Z"/>
    <path class="cls-2" d="M34.96,26.49c.92,0,1.67-.75,1.67-1.68v-1.81h1.89v1.81c0,1.97-1.6,3.56-3.56,3.56h-1.57v-1.89h1.57Z"/>
    <path class="cls-1" d="M34.96,24.6c.92,0,1.67-.75,1.67-1.67v-1.81h1.89v1.81c0,1.97-1.6,3.56-3.56,3.56h-1.57v-1.89h1.57Z"/>
    <path class="cls-2" d="M34.96,24.6c.92,0,1.67-.75,1.67-1.67v-1.81h1.89v1.81c0,1.97-1.6,3.56-3.56,3.56h-1.57v-1.89h1.57Z"/>
    <path class="cls-1" d="M26.05,14.23c-.92,0-1.68.75-1.68,1.68v1.81h-1.89v-1.81c0-1.97,1.6-3.56,3.56-3.56h1.57v1.89h-1.57Z"/>
    <path class="cls-2" d="M26.05,14.23c-.92,0-1.68.75-1.68,1.68v1.81h-1.89v-1.81c0-1.97,1.6-3.56,3.56-3.56h1.57v1.89h-1.57Z"/>
    <path class="cls-1" d="M26.05,12.35c-.92,0-1.68.75-1.68,1.68v1.81h-1.89v-1.81c0-1.97,1.6-3.56,3.56-3.56h1.57v1.89h-1.57Z"/>
    <path class="cls-2" d="M26.05,12.35c-.92,0-1.68.75-1.68,1.68v1.81h-1.89v-1.81c0-1.97,1.6-3.56,3.56-3.56h1.57v1.89h-1.57Z"/>
    <path class="cls-1" d="M34.96,14.23c.92,0,1.67.75,1.67,1.68v1.81h1.89v-1.81c0-1.97-1.6-3.56-3.56-3.56h-1.57v1.89h1.57Z"/>
    <path class="cls-2" d="M34.96,14.23c.92,0,1.67.75,1.67,1.68v1.81h1.89v-1.81c0-1.97-1.6-3.56-3.56-3.56h-1.57v1.89h1.57Z"/>
    <path class="cls-1" d="M34.96,12.35c.92,0,1.67.75,1.67,1.68v1.81h1.89v-1.81c0-1.97-1.6-3.56-3.56-3.56h-1.57v1.89h1.57Z"/>
    <path class="cls-2" d="M34.96,12.35c.92,0,1.67.75,1.67,1.68v1.81h1.89v-1.81c0-1.97-1.6-3.56-3.56-3.56h-1.57v1.89h1.57Z"/>
  </g>
  <g>
    <path class="cls-5" d="M35.79,10.29l-1.73-4.58-1.91-1.23-.29-.39v-.41c.29-.39.46-.9.46-1.46,0-1.23-.83-2.22-1.85-2.22s-1.85.99-1.85,2.22c0,.56.17,1.07.46,1.46v.41l-.29.39-1.91,1.23-1.87,3.91.17,2.1,1.32.4.54-.22v.58s.02,0,.04,0l-.03,1.02-.88,9.51h3.52l.79-5.44.69,5.44h3.52l-.78-9.51v-.47s1.9-1.39,1.9-1.39v-1.35Z"/>
    <path class="cls-4" d="M30.34,11.73s-.06-.44.12-.68c.07-.09.16-.14.28-.16.62-.08.74.62.74.65h.04s-1.18.18-1.18.18ZM30.29,11.74h0s0,0,0,0ZM31.57,11.51s-.04-.15-.09-.28l2.46-1.66-.06-.08-2.45,1.65s-.05-.08-.08-.11l2.39-1.69-.06-.08-2.4,1.7c-.13-.12-.31-.2-.56-.16-.08,0-.15.04-.21.07l-3.1-1.14-.03.09,3.04,1.11s-.03.03-.04.05c-.02.03-.05.07-.06.1l-3.03-1.02-.03.1,3.02,1.02c-.02.05-.03.11-.04.16l-3.06-.97-.03.1,3.08.98c0,.12,0,.22,0,.27l-3.26-.94,1.04,1.64,2.79.59.57-.07-.02-.79.48-.42,1.65-.64.51-.71.2-.68-2.64,1.81Z"/>
    <polygon class="cls-4" points="28.45 8.33 28.12 8.31 27.39 7.02 27.63 6.89 28.45 8.33"/>
    <polygon class="cls-4" points="28.55 9.06 28.75 9.41 29.16 9.85 28.99 9.27 28.86 9.05 28.55 9.06"/>
    <polygon class="cls-4" points="29.08 4.1 29.96 4.86 29.59 5.72 28.79 4.49 29.08 4.1"/>
    <polygon class="cls-4" points="29.59 7.62 30.01 8.65 30.3 5.95 30.01 5.58 29.59 7.62"/>
    <polygon class="cls-4" points="31.86 4.1 30.98 4.86 31.35 5.72 32.15 4.49 31.86 4.1"/>
    <polygon class="cls-4" points="30.64 5.95 30.93 8.65 31.35 7.62 30.93 5.58 30.64 5.95"/>
    <path class="cls-5" d="M35.79,10.29l-1.73-4.58-1.91-1.23-.29-.39v-.41c.29-.39.46-.9.46-1.46,0-1.23-.83-2.22-1.85-2.22s-1.85.99-1.85,2.22c0,.56.17,1.07.46,1.46v.41l-.29.39-1.91,1.23-1.87,3.91.17,2.1,1.32.4.54-.22v.58s.02,0,.04,0l-.03,1.02-.88,9.51h3.52l.79-5.44.69,5.44h3.52l-.78-9.51v-.47s1.9-1.39,1.9-1.39v-1.35Z"/>
    <path class="cls-4" d="M30.34,11.73s-.06-.44.12-.68c.07-.09.16-.14.28-.16.62-.08.74.62.74.65h.04s-1.18.18-1.18.18ZM30.29,11.74h0s0,0,0,0ZM31.57,11.51s-.04-.15-.09-.28l2.46-1.66-.06-.08-2.45,1.65s-.05-.08-.08-.11l2.39-1.69-.06-.08-2.4,1.7c-.13-.12-.31-.2-.56-.16-.08,0-.15.04-.21.07l-3.1-1.14-.03.09,3.04,1.11s-.03.03-.04.05c-.02.03-.05.07-.06.1l-3.03-1.02-.03.1,3.02,1.02c-.02.05-.03.11-.04.16l-3.06-.97-.03.1,3.08.98c0,.12,0,.22,0,.27l-3.26-.94,1.04,1.64,2.79.59.57-.07-.02-.79.48-.42,1.65-.64.51-.71.2-.68-2.64,1.81Z"/>
    <polygon class="cls-4" points="28.45 8.33 28.12 8.31 27.39 7.02 27.63 6.89 28.45 8.33"/>
    <polygon class="cls-4" points="28.55 9.06 28.75 9.41 29.16 9.85 28.99 9.27 28.86 9.05 28.55 9.06"/>
    <polygon class="cls-4" points="29.08 4.1 30.29 4.71 29.69 5.54 28.79 4.49 29.08 4.1"/>
    <polygon class="cls-4" points="31.86 4.1 30.64 4.71 31.24 5.54 32.15 4.49 31.86 4.1"/>
    <rect class="cls-4" x="31.4" y="7.32" width="2.01" height="1.23"/>
    <polygon class="cls-4" points="29.01 5.19 29.69 5.97 30.33 5.05 30.33 8.33 29.01 5.19"/>
    <polygon class="cls-4" points="31.91 5.19 31.24 5.97 30.59 5.05 30.59 8.33 31.91 5.19"/>
  </g>
  <g>
    <path class="cls-1" d="M12.71,28.55H3.8c-1.97,0-3.56-1.59-3.56-3.56v-8.91c0-1.97,1.59-3.56,3.56-3.56h8.91c1.97,0,3.56,1.6,3.56,3.56v8.91c0,1.97-1.6,3.56-3.56,3.56"/>
    <rect class="cls-2" x=".24" y="12.51" width="16.03" height="16.03" rx="3.56" ry="3.56"/>
    <path class="cls-1" d="M3.8,26.66c-.92,0-1.68-.75-1.68-1.68v-1.81H.24v1.81c0,1.97,1.6,3.56,3.56,3.56h1.57v-1.89h-1.57Z"/>
    <path class="cls-2" d="M3.8,26.66c-.92,0-1.68-.75-1.68-1.68v-1.81H.24v1.81c0,1.97,1.6,3.56,3.56,3.56h1.57v-1.89h-1.57Z"/>
    <path class="cls-1" d="M3.8,24.78c-.92,0-1.68-.75-1.68-1.67v-1.81H.24v1.81c0,1.97,1.6,3.56,3.56,3.56h1.57v-1.89h-1.57Z"/>
    <path class="cls-2" d="M3.8,24.78c-.92,0-1.68-.75-1.68-1.67v-1.81H.24v1.81c0,1.97,1.6,3.56,3.56,3.56h1.57v-1.89h-1.57Z"/>
    <path class="cls-1" d="M12.71,26.66c.92,0,1.67-.75,1.67-1.68v-1.81h1.89v1.81c0,1.97-1.6,3.56-3.56,3.56h-1.57v-1.89h1.57Z"/>
    <path class="cls-2" d="M12.71,26.66c.92,0,1.67-.75,1.67-1.68v-1.81h1.89v1.81c0,1.97-1.6,3.56-3.56,3.56h-1.57v-1.89h1.57Z"/>
    <path class="cls-1" d="M12.71,24.78c.92,0,1.67-.75,1.67-1.67v-1.81h1.89v1.81c0,1.97-1.6,3.56-3.56,3.56h-1.57v-1.89h1.57Z"/>
    <path class="cls-2" d="M12.71,24.78c.92,0,1.67-.75,1.67-1.67v-1.81h1.89v1.81c0,1.97-1.6,3.56-3.56,3.56h-1.57v-1.89h1.57Z"/>
    <path class="cls-1" d="M3.8,14.4c-.92,0-1.68.75-1.68,1.68v1.81H.24v-1.81c0-1.97,1.6-3.56,3.56-3.56h1.57v1.89h-1.57Z"/>
    <path class="cls-2" d="M3.8,14.4c-.92,0-1.68.75-1.68,1.68v1.81H.24v-1.81c0-1.97,1.6-3.56,3.56-3.56h1.57v1.89h-1.57Z"/>
    <path class="cls-1" d="M3.8,12.52c-.92,0-1.68.75-1.68,1.68v1.81H.24v-1.81c0-1.97,1.6-3.56,3.56-3.56h1.57v1.89h-1.57Z"/>
    <path class="cls-2" d="M3.8,12.52c-.92,0-1.68.75-1.68,1.68v1.81H.24v-1.81c0-1.97,1.6-3.56,3.56-3.56h1.57v1.89h-1.57Z"/>
    <path class="cls-1" d="M12.71,14.4c.92,0,1.67.75,1.67,1.68v1.81h1.89v-1.81c0-1.97-1.6-3.56-3.56-3.56h-1.57v1.89h1.57Z"/>
    <path class="cls-2" d="M12.71,14.4c.92,0,1.67.75,1.67,1.68v1.81h1.89v-1.81c0-1.97-1.6-3.56-3.56-3.56h-1.57v1.89h1.57Z"/>
    <path class="cls-1" d="M12.71,12.52c.92,0,1.67.75,1.67,1.68v1.81h1.89v-1.81c0-1.97-1.6-3.56-3.56-3.56h-1.57v1.89h1.57Z"/>
    <path class="cls-2" d="M12.71,12.52c.92,0,1.67.75,1.67,1.68v1.81h1.89v-1.81c0-1.97-1.6-3.56-3.56-3.56h-1.57v1.89h1.57Z"/>
  </g>
  <g>
    <path class="cls-1" d="M57.21,28.55h-8.91c-1.97,0-3.56-1.59-3.56-3.56v-8.91c0-1.97,1.59-3.56,3.56-3.56h8.91c1.97,0,3.56,1.6,3.56,3.56v8.91c0,1.97-1.6,3.56-3.56,3.56"/>
    <rect class="cls-2" x="44.74" y="12.51" width="16.03" height="16.03" rx="3.56" ry="3.56"/>
    <path class="cls-1" d="M48.3,26.66c-.92,0-1.68-.75-1.68-1.68v-1.81h-1.89v1.81c0,1.97,1.6,3.56,3.56,3.56h1.57v-1.89h-1.57Z"/>
    <path class="cls-2" d="M48.3,26.66c-.92,0-1.68-.75-1.68-1.68v-1.81h-1.89v1.81c0,1.97,1.6,3.56,3.56,3.56h1.57v-1.89h-1.57Z"/>
    <path class="cls-1" d="M48.3,24.78c-.92,0-1.68-.75-1.68-1.67v-1.81h-1.89v1.81c0,1.97,1.6,3.56,3.56,3.56h1.57v-1.89h-1.57Z"/>
    <path class="cls-2" d="M48.3,24.78c-.92,0-1.68-.75-1.68-1.67v-1.81h-1.89v1.81c0,1.97,1.6,3.56,3.56,3.56h1.57v-1.89h-1.57Z"/>
    <path class="cls-1" d="M57.21,26.66c.92,0,1.67-.75,1.67-1.68v-1.81h1.89v1.81c0,1.97-1.6,3.56-3.56,3.56h-1.57v-1.89h1.57Z"/>
    <path class="cls-2" d="M57.21,26.66c.92,0,1.67-.75,1.67-1.68v-1.81h1.89v1.81c0,1.97-1.6,3.56-3.56,3.56h-1.57v-1.89h1.57Z"/>
    <path class="cls-1" d="M57.21,24.78c.92,0,1.67-.75,1.67-1.67v-1.81h1.89v1.81c0,1.97-1.6,3.56-3.56,3.56h-1.57v-1.89h1.57Z"/>
    <path class="cls-2" d="M57.21,24.78c.92,0,1.67-.75,1.67-1.67v-1.81h1.89v1.81c0,1.97-1.6,3.56-3.56,3.56h-1.57v-1.89h1.57Z"/>
    <path class="cls-1" d="M48.3,14.4c-.92,0-1.68.75-1.68,1.68v1.81h-1.89v-1.81c0-1.97,1.6-3.56,3.56-3.56h1.57v1.89h-1.57Z"/>
    <path class="cls-2" d="M48.3,14.4c-.92,0-1.68.75-1.68,1.68v1.81h-1.89v-1.81c0-1.97,1.6-3.56,3.56-3.56h1.57v1.89h-1.57Z"/>
    <path class="cls-1" d="M48.3,12.52c-.92,0-1.68.75-1.68,1.68v1.81h-1.89v-1.81c0-1.97,1.6-3.56,3.56-3.56h1.57v1.89h-1.57Z"/>
    <path class="cls-2" d="M48.3,12.52c-.92,0-1.68.75-1.68,1.68v1.81h-1.89v-1.81c0-1.97,1.6-3.56,3.56-3.56h1.57v1.89h-1.57Z"/>
    <path class="cls-1" d="M57.21,14.4c.92,0,1.67.75,1.67,1.68v1.81h1.89v-1.81c0-1.97-1.6-3.56-3.56-3.56h-1.57v1.89h1.57Z"/>
    <path class="cls-2" d="M57.21,14.4c.92,0,1.67.75,1.67,1.68v1.81h1.89v-1.81c0-1.97-1.6-3.56-3.56-3.56h-1.57v1.89h1.57Z"/>
    <path class="cls-1" d="M57.21,12.52c.92,0,1.67.75,1.67,1.68v1.81h1.89v-1.81c0-1.97-1.6-3.56-3.56-3.56h-1.57v1.89h1.57Z"/>
    <path class="cls-2" d="M57.21,12.52c.92,0,1.67.75,1.67,1.68v1.81h1.89v-1.81c0-1.97-1.6-3.56-3.56-3.56h-1.57v1.89h1.57Z"/>
  </g>
  <path class="cls-3" d="M17.73,19.45h3.3"/>
  <path class="cls-3" d="M39.98,19.45h3.3"/>
</svg>