<?xml version="1.0" encoding="UTF-8"?>
<svg id="Layer_1" data-name="Layer 1" xmlns="http://www.w3.org/2000/svg" viewBox="0 0 36.02 27.16">
  <defs>
    <style>
      .cls-1 {
        fill: #f58220;
      }

      .cls-2 {
        fill: #81659c;
      }

      .cls-3 {
        fill: #0082c7;
      }

      .cls-4 {
        fill: #fff;
      }

      .cls-5 {
        fill: #1c449c;
      }

      .cls-6 {
        fill: #50bfb7;
      }

      .cls-7 {
        fill: #dbc5aa;
      }

      .cls-8 {
        fill: #e7d9c7;
      }

      .cls-9 {
        fill: #f15a29;
      }

      .cls-10 {
        fill: #bf9a6b;
      }

      .cls-11 {
        fill: #262262;
      }

      .cls-12 {
        fill: #faa74a;
      }

      .cls-13 {
        fill: #00bcf2;
      }
    </style>
  </defs>
  <path class="cls-12" d="M9.16,4.71c-.97-1.08-2.37-1.74-3.9-1.74-.24,0-.48.02-.72.05l.16,1.19c.19-.02.37-.04.55-.04,1.17,0,2.26.51,3,1.35l.89-.8Z"/>
  <polygon class="cls-12" points="9.7 3.52 10.44 7.03 7.03 5.91 9.7 3.52"/>
  <g>
    <path class="cls-10" d="M6.24,5.86l-.99-2.61-1.09-.7-.16-.22v-.23c.16-.22.26-.52.26-.83,0-.7-.47-1.27-1.05-1.27s-1.05.57-1.05,1.27c0,.32.1.61.26.83v.23l-.16.22-1.09.7L.1,5.48l.1,1.19.75.22.3-.12v.33h.02v.58s-.52,5.42-.52,5.42h2l.45-3.1.39,3.1h2.01l-.45-5.42v-.27s1.08-.79,1.08-.79v-.77Z"/>
    <path class="cls-8" d="M3.14,6.68s-.04-.25.07-.39c.04-.05.09-.08.16-.09.36-.05.42.36.42.37h.02s-.67.1-.67.1ZM3.11,6.69h0,0ZM3.84,6.56s-.02-.09-.05-.16l1.4-.94-.03-.05-1.39.94-.05-.07,1.36-.96-.03-.05-1.37.97c-.07-.07-.17-.11-.32-.09-.05,0-.09.02-.12.04l-1.77-.65-.02.05,1.73.63-.02.03-.04.06-1.72-.58-.02.05,1.72.58-.02.09-1.74-.55-.02.05,1.76.56c0,.07,0,.13,0,.15l-1.86-.54.59.93,1.59.34.33-.04v-.45s.27-.24.27-.24l.94-.36.29-.4.11-.39-1.5,1.03Z"/>
  </g>
  <polygon class="cls-8" points="1.45 4 1.87 4.73 2.06 4.74 1.59 3.92 1.45 4"/>
  <polygon class="cls-8" points="2.12 5.16 2.23 5.36 2.46 5.61 2.37 5.28 2.29 5.15 2.12 5.16"/>
  <polygon class="cls-8" points="2.25 2.56 2.71 3.26 2.92 2.77 2.42 2.33 2.25 2.56"/>
  <polygon class="cls-8" points="2.71 4.34 2.95 4.92 3.11 3.39 2.95 3.18 2.71 4.34"/>
  <polygon class="cls-8" points="3.5 2.77 3.71 3.26 4.17 2.56 4 2.33 3.5 2.77"/>
  <polygon class="cls-8" points="3.3 3.39 3.47 4.92 3.71 4.34 3.47 3.18 3.3 3.39"/>
  <g>
    <path class="cls-11" d="M34.22,27.16H1.81c-.99,0-1.8-.81-1.8-1.8v-9.6c0-.99.81-1.8,1.8-1.8h32.4c.99,0,1.8.81,1.8,1.8v9.6c0,.99-.81,1.8-1.8,1.8"/>
    <path class="cls-9" d="M0,19.76c0,.17,0,.34,0,.52,0,.36,0,.72.01,1.08h20.89v-1.59H0Z"/>
  </g>
  <polygon class="cls-7" points="29.45 20.56 20.04 16.62 20.04 24.5 29.45 20.56"/>
  <rect class="cls-2" x="10.15" y="8.21" width="6.67" height="2.21" transform="translate(-2.64 12.27) rotate(-45.01)"/>
  <g>
    <path class="cls-1" d="M15.03,6.15c-.86-.86-2.25-.86-3.11,0l-1.6,1.6c-.86.86-.86,2.26,0,3.12l.03.03,4.71-4.71-.03-.03Z"/>
    <path class="cls-6" d="M16.62,7.74l-4.71,4.72h0c.86.86,2.25.86,3.11,0l1.6-1.6c.86-.86.86-2.25,0-3.11h0Z"/>
    <path class="cls-4" d="M13.68,11.63c1.19-.07,2.09-1.13,2.11-2.11-.06,0-.11-.02-.17-.03v-.39c.06,0,.11-.01.17-.02,0-1.05-1.06-2.11-2.11-2.1,0,.05,0,.1-.01.16h-.39c0-.07-.01-.12-.02-.17-1.2.05-2.12,1.2-2.09,2.11.05,0,.11.01.16.01v.4c-.06,0-.11.01-.16.02,0,1,.98,2.08,2.1,2.11,0-.06.01-.11.02-.17h.39c0,.06,0,.11.01.18M13.47,12.08c-1.53-.01-2.78-1.23-2.78-2.78,0-1.54,1.23-2.78,2.78-2.77,1.55,0,2.78,1.25,2.77,2.79,0,1.55-1.25,2.76-2.77,2.77"/>
    <path class="cls-4" d="M13.79,9.3c0-.17-.15-.32-.32-.32-.17,0-.33.15-.32.33,0,.17.15.31.33.31.17,0,.31-.15.31-.32M12.17,10.6c.26-.6.51-1.17.76-1.73l.1-.1c.57-.25,1.14-.5,1.71-.74h.02c-.09.22-.18.44-.28.66-.15.34-.3.68-.45,1.03-.02.05-.04.11-.11.14-.58.25-1.15.5-1.75.76"/>
    <path class="cls-11" d="M21.14,12.46l-1.6-1.6c-.86-.86-.86-2.25,0-3.11l1.6-1.6c.86-.86,2.25-.86,3.11,0l1.6,1.6c.86.86.86,2.25,0,3.11l-1.6,1.6c-.86.86-2.26.86-3.11,0"/>
    <path class="cls-4" d="M23.02,7.26c0-.18-.14-.32-.32-.32s-.32.15-.32.32.14.32.32.32.32-.15.32-.32"/>
    <path class="cls-4" d="M23.62,11.41c0-.18-.14-.32-.32-.32s-.32.15-.32.32.14.32.32.32.32-.15.32-.32"/>
    <path class="cls-4" d="M24.79,8.74c0-.27-.22-.5-.5-.5s-.5.22-.5.5.22.5.5.5.5-.22.5-.5"/>
    <path class="cls-4" d="M21.2,10.12c0-.22-.18-.4-.4-.4s-.4.18-.4.4.18.4.4.4.4-.18.4-.4"/>
    <path class="cls-4" d="M19.18,9.65l-.07-.03v-.13c.06-.05.12-.1.19-.15h.13s-.01.14-.01.14c-.06.05-.12.1-.17.15l-.06.02Z"/>
    <path class="cls-4" d="M22.17,8.95h-.04c-.15-.08-.3-.13-.46-.17-.05-.01-.08-.06-.07-.11.01-.05.06-.08.11-.07.17.04.34.1.5.17.05.02.07.08.04.12l-.08.05ZM20.21,8.97l-.08-.06s0-.1.05-.12c.17-.07.33-.13.49-.17.05-.01.1.02.11.07.01.05-.02.1-.07.11-.15.04-.31.09-.46.16h-.04ZM23.44,9.77h-.04c-.15-.09-.3-.17-.45-.27l-.02-.13.13-.03c.14.09.28.18.43.25.04.02.06.08.04.12l-.08.05ZM24.91,10.15h0c-.17,0-.35-.03-.52-.06-.05,0-.08-.06-.07-.11,0-.05.06-.08.11-.07.16.03.33.05.49.06.05,0,.09.04.09.1,0,.05-.04.09-.09.09"/>
    <path class="cls-4" d="M25.92,10.05s-.08-.03-.09-.07c-.01-.05.02-.1.07-.11.07-.02.15-.04.22-.06.05-.01.1.01.11.06.02.05-.01.1-.06.11-.08.02-.15.04-.23.06h-.02Z"/>
  </g>
  <polygon points="16.94 12.45 16.38 12.45 19.23 6.16 19.78 6.16 16.94 12.45"/>
  <polygon points="26.16 12.45 25.61 12.45 28.45 6.16 29.01 6.16 26.16 12.45"/>
  <g>
    <path class="cls-11" d="M30.36,12.46l-1.6-1.6c-.86-.86-.86-2.26,0-3.12l1.6-1.6c.86-.86,2.25-.86,3.11,0l1.6,1.6c.86.86.86,2.26,0,3.12l-1.6,1.6c-.86.86-2.26.86-3.11,0"/>
    <path class="cls-5" d="M35.29,9.3c0-.07,0-.14-.01-.21h0c-1.06-.48-2.19-.72-3.36-.72s-2.3.24-3.36.72h0c0,.07-.01.14-.01.21,0,.47.18.92.52,1.26l1.6,1.6c.34.33.78.52,1.26.52s.92-.18,1.25-.52l1.6-1.6c.33-.34.52-.78.52-1.26"/>
    <path class="cls-3" d="M35.23,9.77l-.17-.08c-.99-.46-2.05-.69-3.14-.69s-2.15.23-3.14.69l-.17.08c.08.29.23.56.46.79l1.6,1.6c.34.34.78.52,1.25.52s.92-.18,1.26-.52l1.6-1.6c.22-.22.38-.49.46-.79"/>
    <path class="cls-4" d="M31.5,6.74s-.09-.03-.09-.08c0-.05.03-.1.08-.11.14-.02.28-.03.43-.03h.05c.05,0,.09.04.09.09,0,.05-.04.09-.09.09h-.05c-.13,0-.27,0-.4.03h-.01ZM33.3,7.07h-.05c-.13-.08-.27-.15-.41-.2-.05-.02-.07-.07-.06-.12.02-.05.07-.07.12-.06.15.05.3.12.44.2.04.03.06.08.03.13l-.08.05ZM30.24,7.28l-.07-.04.02-.13c.12-.1.26-.19.4-.26.05-.02.1,0,.12.04.02.04,0,.1-.04.12-.13.07-.26.15-.37.24l-.06.02ZM34.23,8.07l-.08-.05c-.06-.13-.14-.26-.23-.38l.02-.13.13.02c.1.13.18.27.25.41.02.05,0,.1-.05.12h-.04ZM29.49,8.41h-.02c-.05-.01-.08-.07-.07-.11.04-.16.09-.31.17-.46.02-.04.08-.06.12-.04.05.02.06.08.04.12-.07.13-.12.27-.15.41l-.09.07ZM34.3,9.42h-.03s-.07-.07-.06-.12c.05-.14.08-.29.09-.43,0-.05.05-.09.1-.09s.09.05.09.1c-.01.16-.04.32-.1.48l-.09.06ZM29.68,9.76l-.08-.05c-.08-.14-.14-.29-.19-.45-.01-.05.01-.1.06-.11.05-.01.1.01.11.06.04.14.1.28.17.4.02.05,0,.1-.04.13h-.05ZM30.7,10.68h-.04c-.15-.08-.28-.16-.41-.26l-.02-.13.13-.02c.12.09.25.16.38.23.05.02.07.08.04.12l-.08.05ZM31.92,10.95c-.12,0-.23,0-.35-.02-.05,0-.09-.05-.08-.1,0-.05.05-.09.1-.08.11.01.22.02.33.02.05,0,.09.04.09.09s-.04.09-.09.09"/>
  </g>
  <polygon class="cls-4" points="34.86 9.35 34.05 10.06 33.84 9.01 34.86 9.35"/>
  <g>
    <path class="cls-13" d="M31.92,10.29c-.92,0-1.78.2-2.57.55l1.31,1.31c.13.12.27.23.42.31.53.25,1.14.25,1.67,0,.15-.08.29-.19.42-.31l1.31-1.31c-.78-.35-1.65-.55-2.57-.55"/>
    <path class="cls-10" d="M6.24,5.86l-.99-2.61-1.09-.7-.16-.22v-.23c.16-.22.26-.52.26-.83,0-.7-.47-1.27-1.05-1.27s-1.05.57-1.05,1.27c0,.32.1.61.26.83v.23l-.16.22-1.09.7L.1,5.48l.1,1.19.75.22.3-.12v.33h.02v.58s-.52,5.42-.52,5.42h2l.45-3.1.39,3.1h2.01l-.45-5.42v-.27s1.08-.79,1.08-.79v-.77Z"/>
    <path class="cls-8" d="M3.14,6.68s-.04-.25.07-.39c.04-.05.09-.08.16-.09.36-.05.42.36.42.37h.02s-.67.1-.67.1ZM3.11,6.69h0,0ZM3.84,6.56s-.02-.09-.05-.16l1.4-.94-.03-.05-1.39.94-.05-.07,1.36-.96-.03-.05-1.37.97c-.07-.07-.17-.11-.32-.09-.05,0-.09.02-.12.04l-1.77-.65-.02.05,1.73.63-.02.03-.04.06-1.72-.58-.02.05,1.72.58-.02.09-1.74-.55-.02.05,1.76.56c0,.07,0,.13,0,.15l-1.86-.54.59.93,1.59.34.33-.04v-.45s.27-.24.27-.24l.94-.36.29-.4.11-.39-1.5,1.03Z"/>
  </g>
  <polygon class="cls-8" points="1.45 4 1.87 4.73 2.06 4.74 1.59 3.92 1.45 4"/>
  <polygon class="cls-8" points="2.12 5.16 2.23 5.36 2.46 5.61 2.37 5.28 2.29 5.15 2.12 5.16"/>
  <polygon class="cls-8" points="2.25 2.56 2.77 3.15 3.11 2.68 2.42 2.33 2.25 2.56"/>
  <polygon class="cls-8" points="3.31 2.68 3.65 3.16 4.17 2.56 4 2.33 3.31 2.68"/>
  <rect class="cls-8" x="3.74" y="4.17" width="1.15" height=".7"/>
  <polygon class="cls-8" points="2.76 3.4 2.38 2.96 3.13 4.75 3.13 2.88 2.76 3.4"/>
  <polygon class="cls-8" points="3.28 4.74 4.03 2.96 3.65 3.4 3.28 2.88 3.28 4.74"/>
</svg>