<?xml version="1.0" encoding="UTF-8"?>
<svg id="Layer_1" xmlns="http://www.w3.org/2000/svg" viewBox="0 0 47.92 50.5">
  <defs>
    <style>
      .cls-1 {
        fill: #dbc5aa;
      }

      .cls-2 {
        fill: #e7d9c7;
      }

      .cls-3 {
        fill: #f15a29;
      }

      .cls-4 {
        fill: #bf9a6b;
      }

      .cls-5 {
        fill: #262262;
      }

      .cls-6 {
        fill: #faa74a;
      }
    </style>
  </defs>
  <path class="cls-6" d="M28.17,32.4h-3.39c0-6.3-5.12-11.42-11.42-11.42v-3.39c5.69,0,10.63,3.22,13.11,7.94,2.48-4.71,7.43-7.94,13.11-7.94v3.39c-6.3,0-11.42,5.12-11.42,11.42"/>
  <polygon class="cls-6" points="47.92 19.29 39.47 14.41 39.47 24.17 47.92 19.29"/>
  <g>
    <path class="cls-5" d="M46.15,48.19c0,1.27-1.03,2.31-2.31,2.31H2.32C1.05,50.5.01,49.47.01,48.19v-12.3c0-1.27,1.03-2.31,2.31-2.31h41.52c1.27,0,2.31,1.03,2.31,2.31"/>
    <path class="cls-3" d="M0,41.02c0,.22,0,.44,0,.66,0,.47,0,.92.01,1.38h26.78v-2.04H0Z"/>
  </g>
  <polygon class="cls-1" points="37.74 42.04 25.67 36.99 25.67 47.09 37.74 42.04"/>
  <g>
    <path class="cls-4" d="M16.08,14.43l-2.43-6.41-2.68-1.72-.4-.55v-.58c.4-.55.64-1.27.64-2.05,0-1.72-1.16-3.12-2.59-3.12s-2.59,1.4-2.59,3.12c0,.79.24,1.5.64,2.05v.58l-.4.55-2.68,1.72L.96,13.49l.25,2.94,1.85.55.75-.3.02.8s.01,0,.03,0l-.04,1.43-1.24,13.32h4.93l1.1-7.63.96,7.63h4.93l-1.09-13.32-.02-.66,2.68-1.94v-1.89Z"/>
    <path class="cls-2" d="M8.44,16.44s-.09-.61.16-.95c.09-.12.23-.2.39-.22.87-.11,1.03.88,1.04.92h.06s-1.66.25-1.66.25ZM8.37,16.45h0,0ZM10.17,16.13c-.01-.06-.05-.22-.13-.39l3.44-2.33-.08-.12-3.43,2.32c-.03-.05-.07-.11-.11-.16l3.35-2.36-.08-.12-3.36,2.38c-.18-.16-.43-.27-.78-.23-.11.01-.21.05-.3.1l-4.35-1.59-.05.13,4.27,1.56s-.04.04-.06.07c-.03.05-.06.1-.09.15l-4.24-1.43-.04.13,4.24,1.43c-.02.07-.04.15-.05.23l-4.29-1.36-.04.14,4.32,1.37c-.01.17,0,.32.01.38l-4.57-1.32,1.45,2.3,3.91.83.81-.1-.02-1.1.68-.58,2.31-.89.72-1,.28-.96-3.69,2.53Z"/>
  </g>
  <polygon class="cls-2" points="5.79 11.67 5.33 11.64 4.3 9.84 4.64 9.65 5.79 11.67"/>
  <polygon class="cls-2" points="5.93 12.7 6.21 13.19 6.79 13.81 6.55 12.99 6.37 12.68 5.93 12.7"/>
  <polygon class="cls-2" points="6.67 5.74 8.37 6.61 7.53 7.76 6.27 6.29 6.67 5.74"/>
  <polygon class="cls-2" points="10.57 5.74 8.87 6.61 9.71 7.76 10.97 6.29 10.57 5.74"/>
  <rect class="cls-2" x="9.92" y="10.26" width="2.82" height="1.72"/>
  <polygon class="cls-2" points="6.58 7.28 7.52 8.37 8.43 7.08 8.43 11.67 6.58 7.28"/>
  <polygon class="cls-2" points="10.65 7.28 9.7 8.37 8.8 7.08 8.8 11.67 10.65 7.28"/>
</svg>