<?xml version="1.0" encoding="UTF-8"?>
<svg id="Layer_1" xmlns="http://www.w3.org/2000/svg" viewBox="0 0 104.5 21.5">
  <defs>
    <style>
      .cls-1 {
        fill: #f58220;
      }

      .cls-2 {
        fill: #817566;
      }

      .cls-3 {
        fill: #81659c;
      }

      .cls-4 {
        fill: #9e88b1;
      }

      .cls-5 {
        fill: #c4b6d0;
      }

      .cls-6 {
        fill: #bde3e0;
      }

      .cls-7 {
        fill: #fff;
      }

      .cls-8 {
        fill: #89cfc9;
      }

      .cls-9 {
        fill: #927aa8;
      }

      .cls-10 {
        fill: #50bfb7;
      }

      .cls-11 {
        fill: #dbc5aa;
      }

      .cls-12 {
        fill: #73c8c2;
      }

      .cls-13 {
        fill: #90c1ae;
      }

      .cls-14 {
        fill: #f89644;
      }

      .cls-15 {
        fill: #bf9a6b;
      }

      .cls-16 {
        fill: #009444;
      }

      .cls-17 {
        fill: #725c3e;
      }

      .cls-18 {
        fill: #fdc99b;
      }

      .cls-19 {
        fill: #262262;
      }

      .cls-20 {
        fill: #939598;
      }

      .cls-21 {
        fill: #58595b;
      }

      .cls-22 {
        fill: #e79159;
      }

      .cls-23 {
        fill: #faa74a;
      }

      .cls-24 {
        fill: #f9a45e;
      }

      .cls-25 {
        fill: #0a003a;
      }
    </style>
  </defs>
  <g>
    <path class="cls-19" d="M5.66,18.67L1.63,14.64c-2.17-2.17-2.17-5.68,0-7.85L5.66,2.75c2.17-2.17,5.68-2.17,7.85,0l4.03,4.03c2.17,2.17,2.17,5.68,0,7.85l-4.03,4.03c-2.17,2.17-5.68,2.17-7.85,0"/>
    <path class="cls-7" d="M10.4,5.55c0-.45-.36-.81-.81-.81s-.81.36-.81.81.36.81.81.81.81-.36.81-.81"/>
    <path class="cls-7" d="M11.92,16.03c0-.45-.36-.81-.81-.81s-.81.36-.81.81.36.81.81.81.81-.36.81-.81"/>
    <path class="cls-7" d="M14.86,9.3c0-.69-.56-1.25-1.25-1.25s-1.25.56-1.25,1.25.56,1.25,1.25,1.25,1.25-.56,1.25-1.25"/>
    <path class="cls-7" d="M5.82,12.77c0-.56-.45-1.01-1.01-1.01s-1.01.45-1.01,1.01.45,1.01,1.01,1.01,1.01-.45,1.01-1.01"/>
    <path class="cls-7" d="M.71,11.59c-.06,0-.13-.03-.17-.08-.09-.1-.08-.24.02-.33.15-.13.3-.26.45-.39.1-.08.25-.07.33.03.08.1.07.25-.03.33-.16.13-.31.26-.43.37l-.16.06Z"/>
    <path class="cls-7" d="M8.26,9.82l-.1-.02c-.38-.18-.76-.31-1.15-.4-.13-.03-.21-.15-.18-.28.03-.13.15-.2.28-.18.43.09.85.24,1.25.43.12.06.17.2.11.31-.04.08-.12.13-.21.13M3.31,9.86c-.09,0-.18-.05-.21-.14-.05-.12,0-.26.12-.31.42-.18.84-.33,1.25-.43.13-.03.25.05.28.17.03.12-.05.25-.17.28-.38.09-.78.23-1.17.4l-.1.02ZM11.47,11.88l-.1-.02c-.39-.19-.76-.41-1.13-.66-.11-.07-.14-.22-.06-.32.07-.11.22-.14.32-.06.35.23.71.44,1.08.63.11.06.16.2.1.31-.04.08-.12.13-.21.13M15.16,12.84h-.01c-.44-.02-.87-.07-1.3-.15-.13-.02-.21-.15-.19-.27.02-.13.15-.21.27-.19.41.08.82.12,1.24.14.13,0,.23.11.22.24,0,.13-.11.22-.23.22"/>
    <path class="cls-7" d="M17.7,12.6c-.11,0-.2-.07-.23-.18-.03-.12.05-.25.17-.28.18-.04.37-.09.55-.15.12-.04.25.03.29.16.04.12-.03.25-.16.29-.19.06-.39.11-.58.15h-.05Z"/>
    <path d="M18.59.74v4.89l4.11,4.11c.34.34.51.79.51,1.24s-.17.89-.51,1.24l-4.11,4.11v4.36h.34v-4.22l4.01-4.01c.41-.41.61-.94.61-1.48s-.2-1.07-.61-1.47l-4.01-4.01V.74h-.34Z"/>
    <path class="cls-19" d="M90.16,6.69V.48c0-.26-.21-.48-.48-.48h-9.39c-.26,0-.48.21-.48.48v20.54c0,.26.21.48.48.48h9.39c.26,0,.48-.21.48-.48V6.69Z"/>
    <path class="cls-11" d="M88.86,14.33V6.3c0-2.4-2.2-5.67-3.88-5.67s-3.88,3.28-3.88,5.67v8.03h7.75Z"/>
    <path class="cls-15" d="M82.3,4.56s.62-1.38,2.68-1.38,2.68,1.38,2.68,1.38c0,0-.62-2.23-2.68-2.23s-2.68,2.23-2.68,2.23"/>
    <path class="cls-15" d="M83.22,14.33V5.99c0-1.72.62-3.78,1.44-5.33-1.62.37-3.56,3.39-3.56,5.64v8.03"/>
    <path class="cls-15" d="M83.86,14.63s-1.72,1.41-1.9,1.62c-.18.21-.17.43-.17.77v3.04c0,.13.13.17.23.07,0,0,.31-2.06.35-2.33.04-.27,1.43-1.12,1.43-1.12l.05-2.04Z"/>
    <path class="cls-11" d="M86.03,14.63s1.72,1.41,1.9,1.62c.18.21.17.43.17.77v3.04c0,.13-.13.17-.23.07,0,0-.31-2.06-.35-2.33-.04-.27-1.43-1.12-1.43-1.12l-.05-2.04Z"/>
    <path class="cls-15" d="M88.14,14.7s-.72,3.94-3.16,3.94-3.16-3.94-3.16-3.94h6.31Z"/>
    <path class="cls-11" d="M86.25,15.8c-.23.9-.6,2.02-1.16,2.83,1.67-.08,2.5-2.03,2.85-3.15-.42.12-.99.25-1.69.32"/>
    <path class="cls-15" d="M87.2,14.8s1.72,2.08,1.9,2.29c.18.21.17.43.17.77v3.03c0,.13-.13.17-.23.07,0,0-.31-1.89-.35-2.16-.04-.27-2.18-1.33-2.18-1.33l.69-2.67Z"/>
    <path class="cls-11" d="M88.7,14.33h-7.59v.3s1.37.73,3.88.73,3.88-.73,3.88-.73v-.3h-.16Z"/>
    <path class="cls-11" d="M82.17,15.53c-.51.62-1.19,1.44-1.3,1.56-.18.21-.17.43-.17.77v3.03c0,.13.13.17.23.07,0,0,.31-1.89.35-2.16.04-.27,2.18-1.33,2.18-1.33l-.45-1.75c-.32-.05-.6-.12-.84-.18"/>
    <path class="cls-15" d="M83.22,15.23v-.9s-1.97,0-1.97,0h-.12c-.01.1-.02.2-.02.3.03.02.77.39,2.11.6"/>
    <path class="cls-15" d="M85.7,7.82c-.01-.84-.72-1.13-.72-1.13,0,0-.7.3-.71,1.13-.01.84.55,7.17.55,7.17h.33s.56-6.33.55-7.17"/>
    <path class="cls-20" d="M95.41,4.46c-1.3,0-2.6.43-3.59,1.29l-1.66,1.43v9.78l1.65,1.43h0c.99.87,2.29,1.3,3.59,1.3V4.46Z"/>
    <path class="cls-25" d="M90.16,7.18l-1.3,1.12v6.32s-.26.14-.77.3c-.01.06-.03.13-.05.2.02.02.05.04.07.07l.08.07,1.97,1.7V7.18Z"/>
    <path class="cls-2" d="M88.86,8.31l-.75.65c-1.68,1.46-1.94,3.68-.78,5.38h1.52v-6.03Z"/>
    <path class="cls-17" d="M88.09,14.92c-.06.02-.13.04-.2.06.05.05.1.1.15.14.02-.08.04-.15.05-.2"/>
    <path class="cls-2" d="M88.86,14.33h-1.53c.16.23.34.45.55.65.07-.02.14-.04.2-.06.51-.16.77-.3.77-.3v-.3Z"/>
  </g>
  <rect class="cls-3" x="88.77" y="9.89" width="13.36" height="4.42" transform="translate(19.4 71.04) rotate(-45)"/>
  <g>
    <path class="cls-1" d="M98.54,5.75c-1.72-1.72-4.52-1.72-6.24,0l-3.21,3.21c-1.72,1.72-1.72,4.52,0,6.24l.07.07,9.45-9.45-.07-.07Z"/>
    <path class="cls-10" d="M101.74,8.95l-9.45,9.45h0c1.72,1.73,4.52,1.73,6.24,0l3.21-3.21c1.72-1.72,1.72-4.52,0-6.24h0Z"/>
    <path class="cls-7" d="M95.84,16.74c2.38-.13,4.19-2.26,4.23-4.23-.11-.02-.23-.03-.35-.05v-.78c.12-.01.23-.02.33-.03,0-2.11-2.12-4.22-4.22-4.2,0,.1-.02.21-.03.31h-.79c-.02-.13-.03-.24-.04-.34-2.41.1-4.24,2.4-4.2,4.23.1.01.21.02.31.03v.79c-.12.01-.22.02-.32.03-.01,2,1.95,4.17,4.21,4.23,0-.11.02-.23.03-.34h.79c0,.12.02.23.03.36M95.42,17.64c-3.07-.02-5.57-2.46-5.57-5.57,0-3.09,2.47-5.56,5.58-5.56,3.11,0,5.56,2.51,5.55,5.58-.01,3.1-2.51,5.52-5.56,5.55"/>
    <path class="cls-7" d="M96.06,12.07c0-.34-.29-.64-.63-.64-.35,0-.65.31-.65.66,0,.34.31.62.65.62.35,0,.63-.29.63-.64M92.82,14.68c.52-1.2,1.02-2.34,1.52-3.48.04-.08.12-.17.2-.2,1.14-.5,2.28-.99,3.42-1.49l.04.02c-.19.43-.37.86-.56,1.3-.3.69-.6,1.37-.89,2.06-.05.11-.08.22-.22.27-1.15.49-2.3,1-3.51,1.52"/>
    <path class="cls-7" d="M104.5,17.35c0-2.22-1.8-4.02-4.02-4.02s-4.02,1.8-4.02,4.02,1.8,4.02,4.02,4.02,4.02-1.8,4.02-4.02"/>
    <path class="cls-16" d="M103.9,17.35c0-1.89-1.53-3.42-3.42-3.42s-3.42,1.53-3.42,3.42,1.53,3.42,3.42,3.42,3.42-1.53,3.42-3.42"/>
  </g>
  <path class="cls-7" d="M102.57,19.04h-4.17v-1.02h4.17v1.02ZM102.57,16.69h-4.17v-1.02h4.17v1.02Z"/>
  <g>
    <path class="cls-23" d="M59.51,4.16l-.47-4.07c.34-.04.69-.07,1.04-.09l.23,4.09c-.27.01-.53.04-.79.07M62.7,4.16c-.26-.03-.53-.05-.79-.07L62.14,0c.35.02.7.05,1.04.09l-.48,4.07ZM57.25,4.66l-1.32-3.88c.33-.11.68-.22,1.04-.31l1.01,3.97c-.25.06-.49.14-.72.21M64.96,4.66c-.23-.08-.47-.15-.72-.21l1.02-3.97c.36.09.7.2,1.04.31l-1.33,3.88Z"/>
    <path class="cls-21" d="M66.28,16.46h-10.23c-.44,0-.82-.28-.96-.69l-2.41-7.18h-2.65c-.56,0-1.01-.45-1.01-1.01s.45-1.02,1.01-1.02h3.38c.44,0,.82.28.96.69l2.41,7.17h8.71l1.29-4.95c.14-.54.7-.87,1.24-.73.54.14.87.7.73,1.24l-1.49,5.71c-.12.45-.52.76-.98.76"/>
    <path class="cls-21" d="M58.84,19.11c0-1.1-.89-1.99-1.99-1.99s-1.99.89-1.99,1.99.89,1.99,1.99,1.99,1.99-.89,1.99-1.99"/>
    <path class="cls-21" d="M67.35,19.11c0-1.1-.89-1.99-1.99-1.99s-1.99.89-1.99,1.99.89,1.99,1.99,1.99,1.99-.89,1.99-1.99"/>
    <path class="cls-7" d="M65.36,9.3c0-2.35-1.91-4.25-4.26-4.25s-4.26,1.9-4.26,4.25,1.9,4.26,4.26,4.26,4.26-1.9,4.26-4.26"/>
    <path class="cls-16" d="M64.72,9.3c0-2-1.62-3.62-3.62-3.62s-3.62,1.62-3.62,3.62,1.62,3.62,3.62,3.62,3.62-1.62,3.62-3.62"/>
  </g>
  <path class="cls-7" d="M63.32,11.08h-4.42v-1.08h4.42v1.08ZM63.32,8.59h-4.42v-1.08h4.42v1.08Z"/>
  <polygon points="74.26 14.39 75.97 12.67 76.31 13.01 74.6 14.72 76.31 16.43 75.98 16.77 74.27 15.06 72.56 16.78 72.21 16.43 73.93 14.72 72.22 13.01 72.56 12.68 74.26 14.39"/>
  <g>
    <path class="cls-7" d="M33.61,10.62c-.13-.61-.35-1.8-.52-2.74-.06-.35-.21-.68-.42-.96-.29-.39-.7-.68-1.18-.82l-.47-.14-.23-.27v-.29c.23-.27.36-.79.36-1.17,0-.85-.65-1.54-1.46-1.54s-1.46.69-1.46,1.54c0,.39.14.9.36,1.17v.29l-.23.27-.47.14c-.83.24-1.45.93-1.6,1.78-.08.45-.17.95-.26,1.42-.1.52-.19,1-.26,1.32-.24,1.12,1.21,1.59,1.21,1.59l-.24,2.54-.38,4.06h2.89l.43-3.12.43,3.12h2.89l-.57-6.1-.05-.5s1.46-.48,1.21-1.59"/>
    <path class="cls-6" d="M29.7,2.69c-.81,0-1.46.69-1.46,1.54h0c0-.85.65-1.54,1.46-1.54s1.46.69,1.46,1.54h0c0-.85-.65-1.54-1.46-1.54M31,5.05c-.05.14-.12.26-.2.36v.28-.28c.08-.09.15-.22.2-.36M28.4,5.05c.05.14.12.26.2.36-.08-.09-.14-.22-.2-.36M30.8,5.69h0l.23.27.47.14s.02,0,.03,0c0,0-.02,0-.03,0l-.47-.14-.23-.27ZM28.6,5.69h0l-.23.27-.47.14.47-.14.23-.27ZM27.04,6.57c-.38.33-.65.79-.74,1.31-.02.12-.04.25-.07.37.02-.13.04-.25.07-.37.09-.52.36-.98.74-1.31M26.1,9c-.02.1-.04.2-.06.3.02-.1.04-.2.06-.3"/>
    <path class="cls-6" d="M29.7,2.69c-.81,0-1.46.69-1.46,1.54,0,.25.06.56.16.82.05.14.12.26.2.35v.29l-.23.27-.47.14c-.32.09-.61.26-.86.47-.38.33-.65.79-.74,1.31-.02.12-.04.25-.07.37-.04.25-.09.5-.14.75-.02.1-.04.2-.06.3l3.91-1.4s0-.01,0-.02c.08-.47.31-.9.64-1.22.26-.25.57-.44.93-.55,0,0-.02,0-.03,0l-.47-.14-.23-.27v-.29c.08-.09.14-.22.2-.35.1-.26.16-.57.16-.82,0-.85-.65-1.54-1.46-1.54"/>
  </g>
  <path class="cls-5" d="M29.7,15.69h0l.37,2.7-.37-2.7ZM26.4,18.51l-.03.3.03-.3Z"/>
  <path class="cls-5" d="M30.54,13.4l-3.78,1.36-.35,3.76-.03.3h2.89l.43-3.12.37,2.7.34-3.63.13-1.36ZM32.98,18.39l-.06.42h.1l-.04-.42Z"/>
  <g>
    <path class="cls-18" d="M26.04,9.3h0c-.04.19-.07.37-.1.55.03-.17.07-.36.1-.55ZM25.78,10.62h0c-.24,1.11,1.21,1.59,1.21,1.59,0,0-1.46-.48-1.21-1.59"/>
    <path class="cls-18" d="M29.95,7.9l-3.91,1.4c-.04.19-.07.37-.1.55-.06.3-.11.57-.16.77-.24,1.11,1.21,1.59,1.21,1.59l-.24,2.54,3.78-1.36.07-.71.05-.47s-.71-.23-1.05-.75c-.11-.17-.19-.37-.19-.6,0-.08,0-.16.03-.25.07-.32.16-.8.26-1.32.06-.33.13-.68.19-1.01.02-.13.05-.26.07-.39"/>
    <path class="cls-7" d="M37.27,10.62c-.13-.61-.35-1.8-.52-2.74-.06-.35-.21-.68-.42-.96-.29-.39-.7-.68-1.18-.82l-.47-.14-.23-.27v-.29c.22-.27.36-.79.36-1.17,0-.85-.65-1.54-1.46-1.54s-1.46.69-1.46,1.54c0,.39.14.9.36,1.17v.29l-.23.27-.47.14c-.83.24-1.45.93-1.6,1.78-.08.45-.17.95-.26,1.42-.1.52-.19,1-.26,1.32-.24,1.12,1.21,1.59,1.21,1.59l-.24,2.54-.38,4.06h2.89l.43-3.12.43,3.12h2.89l-.57-6.1-.05-.5s1.46-.48,1.21-1.59"/>
    <path class="cls-8" d="M33.35,2.69c-.81,0-1.46.69-1.46,1.54,0-.85.65-1.54,1.46-1.54.56,0,1.05.33,1.29.82-.24-.49-.73-.82-1.29-.82M34.67,4.99c-.06.16-.13.31-.22.41v.29-.29c.09-.11.16-.25.22-.41M32.05,5.05c.05.14.12.26.2.35-.08-.09-.14-.22-.2-.35M32.25,5.69l-.23.27-.47.14.47-.14.23-.27ZM34.45,5.69h0l.23.27.47.14c.48.14.89.43,1.18.82-.29-.39-.7-.68-1.18-.82l-.47-.14-.23-.27Z"/>
    <path class="cls-12" d="M30.6,6.66c-.33.32-.56.75-.65,1.22,0,0,0,.01,0,.02,0,0,0-.01,0-.02.08-.47.32-.9.65-1.22"/>
    <path class="cls-13" d="M29.95,7.9h0c-.02.13-.05.26-.07.39.02-.13.05-.26.07-.39"/>
    <path class="cls-8" d="M33.35,2.69c-.81,0-1.46.69-1.46,1.54,0,.25.06.56.16.82.05.14.12.26.2.35v.29l-.23.27-.47.14c-.37.11-.69.3-.95.56-.33.32-.56.75-.64,1.22,0,0,0,.01,0,.02-.02.12-.05.26-.07.39-.06.33-.12.68-.18,1.01l6.64-2.38c-.29-.39-.7-.68-1.18-.82l-.47-.14-.23-.27v-.29c.09-.11.16-.25.22-.41.09-.24.14-.53.14-.76,0-.26-.06-.5-.17-.72-.24-.49-.73-.82-1.29-.82"/>
  </g>
  <polygon class="cls-4" points="30.03 18.81 30.07 18.39 30.07 18.39 30.03 18.81"/>
  <polygon class="cls-9" points="30.07 18.39 30.07 18.39 30.41 14.75 30.07 18.39"/>
  <path class="cls-4" d="M33.35,15.69l-.29,2.08.29-2.08.08.61-.08-.61ZM36.48,16.78l.19,2.03-.19-2.03Z"/>
  <polygon class="cls-4" points="36.1 12.71 30.41 14.75 30.07 18.39 30.03 18.81 32.92 18.81 33.06 17.77 33.35 15.69 33.43 16.29 33.78 18.81 36.67 18.81 36.48 16.77 36.1 12.71"/>
  <g>
    <path class="cls-24" d="M36.33,6.92h0c.21.28.35.6.42.96.13.73.29,1.6.42,2.24-.13-.64-.29-1.52-.42-2.25-.06-.36-.21-.68-.42-.96"/>
    <path class="cls-14" d="M29.43,10.62h0c-.02.09-.03.17-.03.25,0-.08,0-.16.03-.25M29.59,11.46c.35.52,1.05.75,1.05.75,0,0-.7-.23-1.05-.75"/>
    <path class="cls-24" d="M36.7,11.87c-.32.23-.64.34-.64.34h0s.33-.11.64-.34"/>
  </g>
  <path class="cls-22" d="M30.41,14.75l.13-1.36-.13,1.36Z"/>
  <path class="cls-14" d="M30.54,13.4l.07-.71-.07.71Z"/>
  <g>
    <path class="cls-24" d="M36.33,6.92l-6.64,2.38c-.1.52-.19,1-.26,1.32-.02.09-.03.17-.03.25,0,.23.08.43.19.6.35.52,1.05.75,1.05.75h0s-.04.48-.04.48l-.07.71-.13,1.36,5.69-2.04-.05-.5h0s.33-.11.64-.34c.35-.26.7-.67.57-1.26-.03-.14-.07-.31-.1-.49-.13-.64-.29-1.52-.42-2.24-.06-.36-.21-.68-.42-.96"/>
    <path class="cls-10" d="M38.8,6.1l-.47-.14-.23-.27v-.29c.23-.27.36-.79.36-1.17,0-.85-.65-1.54-1.46-1.54s-1.46.69-1.46,1.54c0,.39.14.9.36,1.17v.29h0l-.23.27-.47.14c-.83.24-1.45.93-1.6,1.78-.08.45-.17.95-.26,1.42l6.64-2.38c-.29-.39-.7-.68-1.18-.82"/>
  </g>
  <polygon class="cls-3" points="34.06 14.75 33.68 18.81 36.57 18.81 37 15.69 37.43 18.81 40.32 18.81 39.75 12.71 34.06 14.75"/>
  <g>
    <path class="cls-1" d="M39.71,12.21s1.46-.48,1.21-1.59c-.14-.61-.35-1.8-.52-2.74-.06-.35-.21-.68-.42-.96l-6.64,2.38c-.1.52-.19,1-.26,1.32-.24,1.12,1.21,1.59,1.21,1.59l-.24,2.54,5.69-2.04-.05-.5Z"/>
    <path d="M45.4,12.8c0,.5-.39.89-.91.89s-.91-.38-.91-.91.38-.9.92-.9.9.38.9.92M45.4,8.74c0,.51-.39.89-.91.89s-.91-.38-.91-.91.38-.9.92-.9.9.38.9.92"/>
    <path class="cls-20" d="M19.76,6.32l3.18,3.18c.41.41.61.94.61,1.48s-.2,1.07-.61,1.47l-3.18,3.18,4.33-3.3c.98-.75.98-1.96,0-2.71l-4.33-3.3Z"/>
    <path d="M18.76,5.56l4.06,4.06c.75.75.75,1.96,0,2.71l-4.06,4.06,1-.76,3.18-3.18c.41-.41.61-.94.61-1.48s-.2-1.07-.61-1.47l-3.18-3.18-1-.76Z"/>
  </g>
</svg>