<?xml version="1.0" encoding="UTF-8"?>
<svg xmlns="http://www.w3.org/2000/svg" version="1.1" viewBox="0 0 69.9 20">
  <defs>
    <style>
      .cls-1 {
        fill: #f58220;
      }

      .cls-2 {
        fill: #81659c;
      }

      .cls-3 {
        fill: #a3c260;
      }

      .cls-4 {
        fill: #9e88b1;
      }

      .cls-5 {
        fill: #c4b6d0;
      }

      .cls-6 {
        fill: #bde3e0;
      }

      .cls-7 {
        fill: #fff;
      }

      .cls-8 {
        fill: #89cfc9;
      }

      .cls-9 {
        fill: #927aa8;
      }

      .cls-10 {
        fill: #50bfb7;
      }

      .cls-11 {
        fill: #4a5e29;
      }

      .cls-12 {
        fill: #73c8c2;
      }

      .cls-13 {
        fill: #bcbec0;
      }

      .cls-14 {
        fill: #90c1ae;
      }

      .cls-15 {
        fill: #f89644;
      }

      .cls-16 {
        fill: #bf9a6b;
      }

      .cls-17 {
        fill: #725c3e;
      }

      .cls-18 {
        fill: #fdc99b;
      }

      .cls-19 {
        fill: #00a88e;
      }

      .cls-20 {
        fill: #262262;
      }

      .cls-21 {
        fill: #939598;
      }

      .cls-22 {
        fill: #e79159;
      }

      .cls-23 {
        fill: #065;
      }

      .cls-24 {
        fill: #ece2d6;
      }

      .cls-25 {
        fill: #00a76d;
      }

      .cls-26 {
        fill: #f9a45e;
      }

      .cls-27 {
        fill: #7a9448;
      }

      .cls-28 {
        fill: #5e7637;
      }
    </style>
  </defs>
  <!-- Generator: Adobe Illustrator 28.7.10, SVG Export Plug-In . SVG Version: 1.2.0 Build 236)  -->
  <g>
    <g id="Layer_1">
      <path class="cls-20" d="M5.7,17.9L1.6,13.9c-2.2-2.2-2.2-5.7,0-7.8L5.7,2C7.8-.2,11.3-.2,13.5,2l4,4c2.2,2.2,2.2,5.7,0,7.8l-4,4c-2.2,2.2-5.7,2.2-7.8,0"/>
      <path class="cls-7" d="M10.4,4.8c0-.4-.4-.8-.8-.8s-.8.4-.8.8.4.8.8.8.8-.4.8-.8"/>
      <path class="cls-7" d="M11.9,15.3c0-.4-.4-.8-.8-.8s-.8.4-.8.8.4.8.8.8.8-.4.8-.8"/>
      <path class="cls-7" d="M14.9,8.6c0-.7-.6-1.2-1.2-1.2s-1.2.6-1.2,1.2.6,1.2,1.2,1.2,1.2-.6,1.2-1.2"/>
      <path class="cls-7" d="M5.8,12c0-.6-.4-1-1-1s-1,.4-1,1,.5,1,1,1,1-.4,1-1"/>
      <path class="cls-7" d="M.7,10.9c0,0-.1,0-.2,0,0-.1,0-.2,0-.3.1-.1.3-.3.5-.4.1,0,.2,0,.3,0,0,.1,0,.2,0,.3-.2.1-.3.3-.4.4h-.2c0,0,0,0,0,0Z"/>
      <path class="cls-7" d="M8.3,9.1h-.1c-.4-.2-.8-.3-1.2-.4-.1,0-.2-.1-.2-.3s.2-.2.3-.2c.4,0,.8.2,1.3.4.1,0,.2.2.1.3,0,0-.1.1-.2.1M3.3,9.1c0,0-.2,0-.2-.1,0-.1,0-.3.1-.3.4-.2.8-.3,1.2-.4.1,0,.2,0,.3.2s0,.2-.2.3c-.4,0-.8.2-1.2.4h0ZM11.5,11.1h-.1c-.4-.2-.8-.4-1.1-.7-.1,0-.1-.2,0-.3,0-.1.2-.1.3,0,.4.2.7.4,1.1.6.1,0,.2.2.1.3,0,0-.1.1-.2.1M15.2,12.1h0c-.4,0-.9,0-1.3-.1-.1,0-.2-.1-.2-.3,0-.1.1-.2.3-.2.4,0,.8.1,1.2.1.1,0,.2.1.2.2,0,.1-.1.2-.2.2"/>
      <path class="cls-7" d="M17.7,11.9c-.1,0-.2,0-.2-.2,0-.1,0-.2.2-.3.2,0,.4,0,.5-.1.1,0,.2,0,.3.2,0,.1,0,.2-.2.3-.2,0-.4.1-.6.1h0,0Z"/>
      <path d="M18.6,0v4.9l4.1,4.1c.3.3.5.8.5,1.2s-.2.9-.5,1.2l-4.1,4.1v4.4h.3v-4.2l4-4c.4-.4.6-.9.6-1.5s-.2-1.1-.6-1.5l-4-4V0h-.3Z"/>
      <g>
        <path class="cls-7" d="M33.6,9.9c-.1-.6-.3-1.8-.5-2.7,0-.3-.2-.7-.4-1-.3-.4-.7-.7-1.2-.8h-.5c0-.1-.2-.4-.2-.4v-.3c.2-.3.4-.8.4-1.2,0-.8-.6-1.5-1.5-1.5s-1.5.7-1.5,1.5.1.9.4,1.2v.3l-.2.3h-.5c-.8.4-1.5,1.1-1.6,1.9,0,.4-.2.9-.3,1.4-.1.5-.2,1-.3,1.3-.2,1.1,1.2,1.6,1.2,1.6l-.2,2.5-.4,4.1h2.9l.4-3.1.4,3.1h2.9l-.6-6.1v-.5s1.4-.5,1.2-1.6"/>
        <path class="cls-6" d="M29.7,2c-.8,0-1.5.7-1.5,1.5h0c0-.8.6-1.5,1.5-1.5s1.5.7,1.5,1.5h0c0-.8-.6-1.5-1.5-1.5M31,4.3c0,.1-.1.3-.2.4v.3-.3c0,0,.1-.2.2-.4M28.4,4.3c0,.1.1.3.2.4,0,0-.1-.2-.2-.4M30.8,5h0l.2.3h.5c0,.1,0,.1,0,.1h-.5c0-.1-.2-.4-.2-.4ZM28.6,5h0l-.2.3h-.5c0,.1.5,0,.5,0l.2-.3ZM27,5.8c-.4.3-.6.8-.7,1.3,0,.1,0,.2,0,.4,0-.1,0-.2,0-.4,0-.5.4-1,.7-1.3M26.1,8.3c0,.1,0,.2,0,.3,0-.1,0-.2,0-.3"/>
        <path class="cls-6" d="M29.7,2c-.8,0-1.5.7-1.5,1.5s0,.6.2.8c0,.1.1.3.2.3v.3l-.2.3h-.5c-.3.2-.6.4-.9.6-.4.3-.6.8-.7,1.3,0,.1,0,.2,0,.4,0,.2,0,.5-.1.8,0,.1,0,.2,0,.3l3.9-1.4h0c0-.5.3-.9.6-1.2.3-.2.6-.4.9-.6h-.5c0-.1-.2-.4-.2-.4v-.3c0,0,.1-.2.2-.3.1-.3.2-.6.2-.8,0-.8-.6-1.5-1.5-1.5"/>
      </g>
      <path class="cls-5" d="M29.7,14.9h0l.4,2.7-.4-2.7ZM26.4,17.8v.3s0-.3,0-.3Z"/>
      <path class="cls-5" d="M30.5,12.7l-3.8,1.4-.4,3.8v.3s2.9,0,2.9,0l.4-3.1.4,2.7.3-3.6v-1.4c.1,0,.1,0,.1,0ZM33,17.6v.4c0,0,0,0,0,0,0,0,0-.4,0-.4Z"/>
      <g>
        <path class="cls-18" d="M26,8.6h0c0,.2,0,.4-.1.6,0-.2,0-.4.1-.6ZM25.8,9.9h0c-.2,1.1,1.2,1.6,1.2,1.6,0,0-1.5-.5-1.2-1.6"/>
        <path class="cls-18" d="M29.9,7.2l-3.9,1.4c0,.2,0,.4-.1.6,0,.3-.1.6-.2.8-.2,1.1,1.2,1.6,1.2,1.6l-.2,2.5,3.8-1.4v-.7c0,0,.1-.5.1-.5,0,0-.7-.2-1-.8-.1-.2-.2-.4-.2-.6s0-.2,0-.2c0-.3.2-.8.3-1.3,0-.3.1-.7.2-1,0-.1,0-.3,0-.4"/>
        <path class="cls-7" d="M37.3,9.9c-.1-.6-.3-1.8-.5-2.7,0-.3-.2-.7-.4-1-.3-.4-.7-.7-1.2-.8h-.5c0-.1-.2-.4-.2-.4v-.3c.2-.3.4-.8.4-1.2,0-.8-.7-1.5-1.5-1.5s-1.5.7-1.5,1.5.1.9.4,1.2v.3l-.2.3h-.5c-.8.4-1.5,1.1-1.6,1.9,0,.4-.2.9-.3,1.4-.1.5-.2,1-.3,1.3-.2,1.1,1.2,1.6,1.2,1.6l-.2,2.5-.4,4.1h2.9l.4-3.1.4,3.1h2.9l-.6-6.1v-.5s1.4-.5,1.2-1.6"/>
        <path class="cls-8" d="M33.3,2c-.8,0-1.5.7-1.5,1.5,0-.8.7-1.5,1.5-1.5s1,.3,1.3.8c-.2-.5-.7-.8-1.3-.8M34.7,4.2c0,.2-.1.3-.2.4v.3-.3c0-.1.2-.2.2-.4M32,4.3c0,.1.1.3.2.3,0,0-.1-.2-.2-.3M32.2,5l-.2.3h-.5c0,.1.5,0,.5,0l.2-.3ZM34.4,5h0l.2.3h.5c.5.3.9.6,1.2,1-.3-.4-.7-.7-1.2-.8h-.5c0-.1-.2-.4-.2-.4Z"/>
        <path class="cls-12" d="M30.6,5.9c-.3.3-.6.8-.6,1.2h0s0,0,0,0c0-.5.3-.9.6-1.2"/>
        <path class="cls-14" d="M29.9,7.2h0c0,.1,0,.3,0,.4,0-.1,0-.3,0-.4"/>
        <path class="cls-8" d="M33.3,2c-.8,0-1.5.7-1.5,1.5s0,.6.2.8c0,.1.1.3.2.3v.3l-.2.3h-.5c-.4.2-.7.4-1,.7-.3.3-.6.8-.6,1.2h0c0,.1,0,.3,0,.4,0,.3-.1.7-.2,1l6.6-2.4c-.3-.4-.7-.7-1.2-.8h-.5c0-.1-.2-.4-.2-.4v-.3c0-.1.2-.2.2-.4,0-.2.1-.5.1-.8s0-.5-.2-.7c-.2-.5-.7-.8-1.3-.8"/>
      </g>
      <polygon class="cls-4" points="30 18.1 30.1 17.6 30.1 17.6 30 18.1"/>
      <polygon class="cls-9" points="30.1 17.6 30.1 17.6 30.4 14 30.1 17.6"/>
      <path class="cls-4" d="M33.3,14.9l-.3,2.1.3-2.1v.6c0,0,0-.6,0-.6ZM36.5,16l.2,2-.2-2Z"/>
      <polygon class="cls-4" points="36.1 12 30.4 14 30.1 17.6 30 18.1 32.9 18.1 33.1 17 33.3 14.9 33.4 15.6 33.8 18.1 36.7 18.1 36.5 16 36.1 12"/>
      <g>
        <path class="cls-26" d="M36.3,6.2h0c.2.3.3.6.4,1,.1.7.3,1.6.4,2.2-.1-.6-.3-1.5-.4-2.2,0-.4-.2-.7-.4-1"/>
        <path class="cls-15" d="M29.4,9.9h0c0,0,0,.2,0,.2,0,0,0-.2,0-.2M29.6,10.7c.4.5,1,.8,1,.8,0,0-.7-.2-1-.8"/>
        <path class="cls-26" d="M36.7,11.1c-.3.2-.6.3-.6.3h0s.3-.1.6-.3"/>
      </g>
      <path class="cls-22" d="M30.4,14v-1.4c.1,0,0,1.4,0,1.4Z"/>
      <path class="cls-15" d="M30.5,12.7v-.7c0,0,0,.7,0,.7Z"/>
      <g>
        <path class="cls-26" d="M36.3,6.2l-6.6,2.4c-.1.5-.2,1-.3,1.3,0,0,0,.2,0,.2,0,.2,0,.4.2.6.4.5,1,.8,1,.8h0v.5s-.1.7-.1.7v1.4c-.1,0,5.6-2,5.6-2v-.5h0s.3-.1.6-.3c.3-.3.7-.7.6-1.3,0-.1,0-.3,0-.5-.1-.6-.3-1.5-.4-2.2,0-.4-.2-.7-.4-1"/>
        <path class="cls-10" d="M38.8,5.4h-.5c0-.1-.2-.4-.2-.4v-.3c.2-.3.4-.8.4-1.2,0-.8-.7-1.5-1.5-1.5s-1.5.7-1.5,1.5.1.9.4,1.2v.3h0l-.2.3h-.5c-.8.4-1.5,1.1-1.6,1.9,0,.4-.2.9-.3,1.4l6.6-2.4c-.3-.4-.7-.7-1.2-.8"/>
      </g>
      <polygon class="cls-2" points="34.1 14 33.7 18.1 36.6 18.1 37 14.9 37.4 18.1 40.3 18.1 39.7 12 34.1 14"/>
      <g>
        <path class="cls-1" d="M39.7,11.5s1.5-.5,1.2-1.6c-.1-.6-.3-1.8-.5-2.7,0-.3-.2-.7-.4-1l-6.6,2.4c0,.5-.2,1-.3,1.3-.2,1.1,1.2,1.6,1.2,1.6l-.2,2.5,5.7-2v-.5s0,0,0,0Z"/>
        <path d="M45.4,12.1c0,.5-.4.9-.9.9s-.9-.4-.9-.9.4-.9.9-.9.9.4.9.9M45.4,8c0,.5-.4.9-.9.9s-.9-.4-.9-.9.4-.9.9-.9.9.4.9.9"/>
        <path class="cls-21" d="M19.8,5.6l3.2,3.2c.4.4.6.9.6,1.5s-.2,1.1-.6,1.5l-3.2,3.2,4.3-3.3c1-.8,1-2,0-2.7,0,0-4.3-3.3-4.3-3.3Z"/>
        <path d="M18.8,4.8l4.1,4.1c.8.8.8,2,0,2.7l-4.1,4.1,1-.8,3.2-3.2c.4-.4.6-.9.6-1.5s-.2-1.1-.6-1.5l-3.2-3.2s-1-.8-1-.8Z"/>
      </g>
      <g>
        <path class="cls-19" d="M53.1,14.9c-2.6,0-4.7-2.1-4.7-4.7s2.1-4.7,4.7-4.7,4.7,2.1,4.7,4.7-2.1,4.7-4.7,4.7"/>
        <path class="cls-16" d="M53.1,5.9c2.4,0,4.4,2,4.4,4.4s-2,4.4-4.4,4.4-4.4-2-4.4-4.4,2-4.4,4.4-4.4M53.1,5.3c-2.7,0-4.9,2.2-4.9,4.9s2.2,4.9,4.9,4.9,4.9-2.2,4.9-4.9-2.2-4.9-4.9-4.9"/>
        <path class="cls-3" d="M60.9,2.5l-5.8,4.2c-.7.5-1,1.4-.7,2.2l2.2,6.9c.2.8,1,1.3,1.9,1.3h7.2c.8,0,1.6-.5,1.9-1.3l2.2-6.9c.2-.8,0-1.7-.7-2.2l-5.8-4.2c-.7-.5-1.6-.5-2.3,0"/>
        <path class="cls-13" d="M56.6,15.8c.2.8,1,1.3,1.8,1.3-.8,0-1.5-.6-1.8-1.3M67.5,15.8c-.2.8-1,1.3-1.8,1.3.8,0,1.6-.5,1.8-1.3M69,11.2l-1.5,4.5,1.5-4.5"/>
        <path class="cls-27" d="M58.9,10.5c-.2,0-.3,0-.5,0-.1,1.4-1,2.7-2.4,3.4l.6,1.9c.2.8,1,1.3,1.8,1.3h7.3c.8,0,1.5-.6,1.8-1.3l1.5-4.5c-1.1-.4-2.4-.6-3.8-.8l-.7.7.6,3.3-3-1.6-3,1.6.6-3.3-.7-.7h0Z"/>
        <polygon class="cls-7" points="59.6 11.2 57.2 8.8 60.6 8.3 62.1 5.3 63.6 8.3 66.9 8.8 64.5 11.2 65.1 14.5 62.1 13 59.1 14.5 59.6 11.2"/>
        <g>
          <path class="cls-23" d="M53.1,5.9h-.2c0,.1,0,.2,0,.3v8.2s0,.2,0,.3h.2c1.1,0,2.1-.4,2.8-1l-1.5-4.7c-.2-.8,0-1.7.7-2.2l.3-.2c-.7-.4-1.5-.7-2.3-.7"/>
          <path class="cls-17" d="M55.9,13.6c-.8.6-1.7,1-2.8,1,1.1,0,2.1-.3,2.9-.7v-.3c-.1,0-.1,0-.1,0ZM53.1,5.9h0c.9,0,1.6.2,2.3.7h.2c-.7-.5-1.6-.7-2.5-.7"/>
          <path class="cls-28" d="M55.6,6.4h-.2c0,.1-.3.4-.3.4-.7.5-1,1.4-.7,2.2l1.5,4.7v.3c.1,0-.8-2.7-.8-2.7,1-.3,2.1-.6,3.3-.7v-.6l-1.2-1.2h.9c-.5-1.1-1.4-1.9-2.5-2.4"/>
          <path class="cls-11" d="M58.4,10.5c-1.2.2-2.3.4-3.3.7l.9,2.7c1.4-.7,2.3-2,2.4-3.4"/>
          <path class="cls-21" d="M58.1,8.7h-.9c0,.1,1.2,1.3,1.2,1.3,0-.5-.1-.9-.3-1.3"/>
          <path class="cls-25" d="M57.5,10.3c0,2.4-2,4.4-4.4,4.4s-4.4-2-4.4-4.4,2-4.4,4.4-4.4,4.4,2,4.4,4.4"/>
          <path class="cls-24" d="M57,10.3c0,2.2-1.8,4-4,4s-4-1.8-4-4,1.8-4,4-4,4,1.8,4,4"/>
        </g>
        <polygon class="cls-25" points="55.7 9.5 53.9 9.5 53.9 7.6 52.3 7.6 52.3 9.5 50.5 9.5 50.5 11.1 52.3 11.1 52.3 12.9 53.9 12.9 53.9 11.1 55.7 11.1 55.7 9.5"/>
      </g>
    </g>
  </g>
</svg>