<?xml version="1.0" encoding="UTF-8"?>
<svg xmlns="http://www.w3.org/2000/svg" version="1.1" viewBox="0 0 114.3 21.2">
  <defs>
    <style>
      .cls-1 {
        fill: #f58220;
      }

      .cls-2 {
        fill: #81659c;
      }

      .cls-3 {
        fill: #9e88b1;
      }

      .cls-4 {
        fill: #c4b6d0;
      }

      .cls-5 {
        fill: #39b54a;
      }

      .cls-6 {
        fill: #bde3e0;
      }

      .cls-7 {
        fill: #005017;
      }

      .cls-8 {
        fill: #7a6a55;
      }

      .cls-9, .cls-10 {
        fill: #fff;
      }

      .cls-11 {
        fill: #89cfc9;
      }

      .cls-12 {
        fill: #927aa8;
      }

      .cls-13 {
        fill: #50bfb7;
      }

      .cls-14 {
        fill: #716759;
      }

      .cls-15 {
        fill: #dbc5aa;
      }

      .cls-16 {
        fill: #73c8c2;
      }

      .cls-17 {
        fill: #030032;
      }

      .cls-18 {
        fill: #8b7961;
      }

      .cls-19 {
        fill: #864e16;
      }

      .cls-20 {
        fill: #90c1ae;
      }

      .cls-21, .cls-10 {
        isolation: isolate;
      }

      .cls-10 {
        font-family: ArialNarrow, Arial;
        font-size: 10.5px;
      }

      .cls-22 {
        fill: #f89644;
      }

      .cls-23 {
        fill: #bf9a6b;
      }

      .cls-24 {
        fill: #009444;
      }

      .cls-25 {
        fill: #635034;
      }

      .cls-26 {
        fill: #725c3e;
      }

      .cls-27 {
        fill: #fdc99b;
      }

      .cls-28 {
        fill: #e78937;
      }

      .cls-29 {
        fill: #00a88e;
      }

      .cls-30 {
        fill: #464547;
      }

      .cls-31 {
        fill: #262262;
      }

      .cls-32 {
        fill: #939598;
      }

      .cls-33 {
        fill: #58595b;
      }

      .cls-34 {
        fill: #e79159;
      }

      .cls-35 {
        fill: #065;
      }

      .cls-36 {
        fill: #ceb28f;
      }

      .cls-37 {
        fill: #ece2d6;
      }

      .cls-38 {
        fill: #faa74a;
      }

      .cls-39 {
        fill: #00a76d;
      }

      .cls-40 {
        fill: #f9a45e;
      }

      .cls-41 {
        fill: #197b30;
      }
    </style>
  </defs>
  <!-- Generator: Adobe Illustrator 28.7.10, SVG Export Plug-In . SVG Version: 1.2.0 Build 236)  -->
  <g>
    <g id="Layer_1">
      <rect class="cls-2" x="1.1" y="7.5" width="15.6" height="5.2" transform="translate(-4.5 9.3) rotate(-45)"/>
      <g>
        <path class="cls-1" d="M12.5,2.6c-2-2-5.3-2-7.3,0l-3.7,3.7c-2,2-2,5.3,0,7.3h0c0,0,11-10.9,11-10.9h0Z"/>
        <path class="cls-13" d="M16.3,6.4l-11,11h0c2,2,5.3,2,7.3,0l3.7-3.7c2-2,2-5.3,0-7.3h0Z"/>
        <path class="cls-9" d="M9.4,15.4c2.8-.2,4.9-2.6,4.9-4.9-.1,0-.3,0-.4,0v-.9c.1,0,.3,0,.4,0,0-2.5-2.5-4.9-4.9-4.9,0,.1,0,.2,0,.4h-.9c0-.2,0-.3,0-.4-2.8.1-4.9,2.8-4.9,4.9.1,0,.2,0,.4,0v.9c-.1,0-.3,0-.4,0,0,2.3,2.3,4.9,4.9,4.9,0-.1,0-.3,0-.4h.9c0,.1,0,.3,0,.4M8.9,16.5c-3.6,0-6.5-2.9-6.5-6.5s2.9-6.5,6.5-6.5,6.5,2.9,6.5,6.5c0,3.6-2.9,6.4-6.5,6.5"/>
        <path class="cls-9" d="M9.6,10c0-.4-.3-.7-.7-.8-.4,0-.8.4-.8.8,0,.4.4.7.8.7s.7-.3.7-.8M5.8,13.1c.6-1.4,1.2-2.7,1.8-4.1,0-.1.1-.2.2-.2,1.3-.6,2.7-1.2,4-1.7h0c-.2.5-.4,1-.6,1.5-.4.8-.7,1.6-1,2.4,0,.1-.1.2-.2.3-1.3.6-2.7,1.2-4.1,1.8"/>
        <path d="M93.7,15.3c0,.3-.2.6-.6.6s-.6-.2-.6-.6.2-.6.6-.6.6.2.6.6M93.7,12.7c0,.3-.2.6-.6.6s-.6-.2-.6-.6.2-.6.6-.6.6.2.6.6"/>
        <path class="cls-29" d="M98.3,14.2c-2,0-3.6-1.6-3.6-3.6s1.6-3.6,3.6-3.6,3.6,1.6,3.6,3.6-1.6,3.6-3.6,3.6"/>
        <path class="cls-23" d="M98.3,6.9c-2.1,0-3.7,1.7-3.7,3.7s1.7,3.7,3.7,3.7,3.7-1.7,3.7-3.7-1.7-3.7-3.7-3.7M98.3,7.3c1.8,0,3.3,1.5,3.3,3.3s-1.5,3.3-3.3,3.3-3.3-1.5-3.3-3.4,1.5-3.3,3.3-3.3"/>
        <path class="cls-23" d="M109.9,12.9c-.6-2.9-3.4-4.7-6.3-4.1-2.9.6-4.7,3.4-4.1,6.3.6,2.9,3.4,4.7,6.3,4.1,2.9-.6,4.7-3.4,4.1-6.3"/>
        <path class="cls-36" d="M102.1,13.8c-.4-1.9.3-3.8,1.6-5h0c-2.9.6-4.7,3.4-4.1,6.3.6,2.9,3.4,4.7,6.3,4.1,1-.2,1.8-.7,2.5-1.3-2.8.6-5.6-1.2-6.2-4.1"/>
      </g>
      <polygon class="cls-28" points="110.3 14 114.3 14.3 114 12.7 110.3 14"/>
      <path class="cls-28" d="M111.4,14.1c-1.2.8-3.1,1.6-5.2,2-3.9.8-7.3.4-7.6-.9,0-.5.2-1,.8-1.5,0-.5.1-1,.3-1.4-2.2,1.1-3.6,2.4-3.3,3.4.4,1.8,4.8,2.3,10,1.2,2.9-.6,5.3-1.6,6.9-2.7h-1.8c0-.1,0-.1,0-.1Z"/>
      <g class="cls-21">
        <text class="cls-10" transform="translate(102.9 17.8)"><tspan x="0" y="0">?</tspan></text>
      </g>
      <g>
        <path class="cls-32" d="M101.3,8.4c.3.4.5.7.6,1.2,0,0,.1,0,.2-.1-.2-.4-.5-.8-.8-1.1"/>
        <path class="cls-35" d="M98.3,7.3h-.2c0,0,0,.2,0,.2v5.6c.5-.3,1-.6,1.6-.9.3-1,1-1.9,1.8-2.5-.4-1.4-1.7-2.5-3.2-2.5M99.4,13.7c0,0-.2.1-.2.2,0,0,.1,0,.2,0h0"/>
        <path class="cls-26" d="M98.3,7.3h0c1.6,0,2.8,1,3.2,2.5.1,0,.2-.2.3-.2-.1-.4-.3-.8-.6-1.2-.7-.7-1.8-1.1-3-1.1M99.4,13.8c0,0-.1,0-.2,0,0,0,0,0,0,0,0,0,.2,0,.2,0h0"/>
        <path class="cls-26" d="M102.1,9.4c0,0-.1,0-.2.1-.1,0-.2.1-.3.2-.8.6-1.5,1.5-1.8,2.5.4-1.2,1.3-2.2,2.4-2.8M102.4,10.6c-.2.4-.3.9-.4,1.4.2-.4.4-.9.4-1.4M99.4,13.7h0v.2-.2"/>
        <path class="cls-8" d="M102.1,9.4c-1.1.6-1.9,1.6-2.4,2.8q-.3.8,0,0c-.2.4-.3.9-.3,1.4h0c0,0,0,.1,0,.2,1.2-.3,2.1-.9,2.6-1.8,0-.5.2-1,.4-1.4h0c0-.5,0-.9-.3-1.2"/>
        <path class="cls-19" d="M99.7,12.2h0c-.6.3-1.1.6-1.6.9v.6c0,0,0,.1,0,.2h.2c.3,0,.6,0,.8,0,0,0,0,0,0,0,0,0,.1-.1.2-.2h0c0-.5.1-1,.3-1.4"/>
        <path class="cls-39" d="M101.7,10.6c0,1.9-1.5,3.3-3.3,3.3s-3.3-1.5-3.3-3.4,1.5-3.3,3.3-3.3,3.3,1.5,3.3,3.3"/>
        <path class="cls-37" d="M101.3,10.6c0,1.7-1.3,3-3,3s-3-1.4-3-3,1.3-3,3-3,3,1.3,3,3"/>
      </g>
      <polygon class="cls-39" points="100.3 10 98.9 10 98.9 8.6 97.7 8.6 97.7 10 96.3 10 96.3 11.3 97.7 11.3 97.7 12.6 98.9 12.6 98.9 11.3 100.3 11.3 100.3 10"/>
      <polygon class="cls-23" points="67.7 21.2 68.2 21.2 67.9 .4 67.7 21.2"/>
      <g>
        <path class="cls-31" d="M34.4,19.3h-10.2c-.3,0-.5-.2-.5-.5v-6.8c0-.3.2-.5.5-.5h10.2c.3,0,.5.2.5.5v6.8c0,.3-.2.5-.5.5"/>
        <path class="cls-23" d="M28,11.8s-1.9,1.5-2.1,1.8c-.2.2-.2.5-.2.8v3.3c0,.1.1.2.2,0,0,0,.3-2.2.4-2.5,0-.3,1.6-1.2,1.6-1.2,0,0,0-2.2,0-2.2Z"/>
        <path class="cls-15" d="M30.4,11.8s1.9,1.5,2.1,1.8c.2.2.2.5.2.8v3.3c0,.1-.1.2-.2,0,0,0-.3-2.2-.4-2.5s-1.6-1.2-1.6-1.2c0,0,0-2.2,0-2.2Z"/>
        <path class="cls-23" d="M32.7,11.9s-.8,4.3-3.4,4.3-3.4-4.3-3.4-4.3h6.9Z"/>
        <path class="cls-15" d="M30.6,13.1c-.2,1-.6,2.2-1.3,3.1,1.8,0,2.7-2.2,3.1-3.4-.5.1-1.1.3-1.8.4"/>
        <path class="cls-23" d="M31.7,12s1.9,2.3,2.1,2.5.2.5.2.8v3.3c0,.1-.1.2-.2,0,0,0-.3-2.1-.4-2.4,0-.3-2.4-1.4-2.4-1.4l.8-2.9h0Z"/>
        <path class="cls-15" d="M33.3,11.5h-8.3v.3s1.5.8,4.2.8,4.2-.8,4.2-.8v-.3h-.2Z"/>
        <path class="cls-15" d="M26.2,12.8c-.6.7-1.3,1.6-1.4,1.7-.2.2-.2.5-.2.8v3.3c0,.1.1.2.3,0,0,0,.3-2.1.4-2.4,0-.3,2.4-1.4,2.4-1.4l-.5-1.9c-.4,0-.7-.1-.9-.2"/>
        <path class="cls-23" d="M27.3,12.5v-1h-2.3c0,.1,0,.2,0,.3,0,0,.8.4,2.3.6"/>
        <path class="cls-17" d="M25.7,12.1v.2c0,.3,0,.7.1,1,.1-.1.2-.2.3-.4-.1-.3-.2-.6-.2-.8,0,0-.1,0-.2,0M31.3,15.1c-.2.3-.5.5-.8.7h1.6c0-.1,0-.2,0-.3-.3-.1-.5-.3-.8-.4M27.2,15.1s0,0,0,0c.1,0,.2.1.3.2,0,0-.1-.2-.2-.3"/>
        <path class="cls-14" d="M32,15.5c0,0,0,.2,0,.3h.5c-.2-.1-.4-.2-.6-.3"/>
        <path class="cls-25" d="M25.9,12.1c0,.2.1.5.2.8,0,0,0,0,.1-.1.3,0,.6.1.9.2l.5,1.9s-.2,0-.4.2c0,0,.1.2.2.3.5.3,1.1.5,1.8.5h.4c.3-.5.6-1.1.8-1.7h-1.1c-.9,0-1.7-.7-1.8-1.6-.6,0-1.2-.2-1.6-.4M31.3,15.1c-.2.3-.5.5-.8.7.3-.2.6-.4.8-.7"/>
        <path class="cls-14" d="M31.1,14.1h-.8c-.2.6-.4,1.2-.8,1.7h.9c.3-.2.6-.4.8-.7-.2-.1-.4-.2-.4-.2,0,0,.2-.8.2-.8Z"/>
        <path class="cls-17" d="M34.9,14.1h-1.5c.2.2.3.4.3.4.2.2.2.5.2.8v.5h1v-1.7Z"/>
        <path class="cls-25" d="M33.4,14.1h-2.3l-.2.8s.2,0,.4.2c.2.1.5.2.7.4.2.1.4.2.6.3h1.3v-.5c0-.4,0-.6-.2-.8,0,0-.2-.2-.3-.4"/>
        <path class="cls-14" d="M27.4,11.5h-.1v1c-.7-.1-1.3-.3-1.7-.4,0,0,.1,0,.2,0,.4.1.9.2,1.6.4h0v-1h0Z"/>
        <path class="cls-14" d="M26.2,12.8s0,0-.1.1c-.1.1-.2.2-.3.4.2.8.7,1.4,1.3,1.9,0,0,0,0,0,0,.2-.1.4-.2.4-.2l-.5-1.9c-.4,0-.7-.1-.9-.2"/>
        <path class="cls-25" d="M27.3,11.5h-1.7v.6c.4.1,1,.3,1.7.4v-1Z"/>
        <path class="cls-38" d="M48.8,6.1l-1.4-3.7-.8,1c-2.8-2.4-7-2-9.4.8l1,.9c1.9-2.2,5.2-2.5,7.5-.7l-.8,1,3.9.7h0Z"/>
        <path class="cls-36" d="M39.8,14.1h-10.6c-1,0-1.8-.8-1.8-1.8V1.8C27.4.8,28.2,0,29.2,0h10.6C40.7,0,41.5.8,41.5,1.8v10.6c0,1-.8,1.8-1.8,1.8"/>
        <path d="M34.5,12c2.7,0,5-2.2,5-4.9s-2.2-4.9-5-4.9-5,2.2-5,4.9,2.2,4.9,5,4.9"/>
        <path class="cls-33" d="M34.5,11.6c2.5,0,4.5-2,4.5-4.5s-2-4.5-4.5-4.5-4.5,2-4.5,4.5,2,4.5,4.5,4.5"/>
      </g>
      <polygon points="34.5 6.6 34.9 2.1 34.6 6.6 35.6 2.2 34.6 6.6 36.4 2.5 34.7 6.6 37.1 2.8 34.8 6.7 37.7 3.3 34.8 6.7 38.3 3.8 34.9 6.8 38.7 4.4 34.9 6.8 39.1 5.2 35 6.9 39.3 5.9 35 7 39.4 6.7 35 7.1 39.4 7.4 35 7.1 39.3 8.2 35 7.2 39.1 8.9 34.9 7.3 38.7 9.6 34.9 7.3 38.3 10.3 34.8 7.4 37.7 10.8 34.8 7.4 37.1 11.3 34.7 7.5 36.4 11.6 34.6 7.5 35.6 11.9 34.6 7.5 34.9 12 34.5 7.5 34.1 12 34.4 7.5 33.3 11.9 34.3 7.5 32.6 11.6 34.3 7.5 31.9 11.3 34.2 7.4 31.3 10.8 34.1 7.4 30.7 10.3 34.1 7.3 30.2 9.6 34 7.3 29.9 8.9 34 7.2 29.7 8.2 34 7.1 29.5 7.4 34 7.1 29.5 6.7 34 7 29.7 5.9 34 6.9 29.9 5.2 34 6.8 30.2 4.4 34.1 6.8 30.7 3.8 34.1 6.7 31.3 3.3 34.2 6.7 31.9 2.8 34.3 6.6 32.6 2.5 34.3 6.6 33.3 2.2 34.4 6.6 34.1 2.1 34.5 6.6"/>
      <rect x="33.9" y="11.6" width="1.2" height="2.5"/>
      <rect class="cls-5" x="34.1" y="11.6" width=".8" height="2.5"/>
      <rect x="33.9" y="6.7" width="1.2" height="5.3"/>
      <g>
        <path class="cls-5" d="M34.5,10.5c1.9,0,3.5-1.5,3.5-3.4s-1.5-3.5-3.5-3.5-3.5,1.5-3.5,3.5,1.5,3.4,3.5,3.4"/>
        <path d="M34.5,3.4c-2,0-3.7,1.6-3.7,3.7s1.6,3.7,3.7,3.7,3.7-1.6,3.7-3.7-1.6-3.7-3.7-3.7M34.5,3.6c1.9,0,3.5,1.5,3.5,3.5s-1.5,3.4-3.5,3.4-3.5-1.5-3.5-3.4,1.5-3.5,3.5-3.5"/>
      </g>
      <rect class="cls-5" x="34.1" y="9.9" width=".8" height="2.1"/>
      <g>
        <path class="cls-18" d="M31.2,3.4c-1,.2-1.8,1.1-1.8,2.1s0,.6.2.9c0-.2,0-.3,0-.5h0,0c0-.2,0-.3.1-.4,0-.6.3-1.1.7-1.4,0,0,.1-.2.2-.2h0,0c.1-.2.3-.3.5-.5"/>
        <path d="M31.5,3.3h-.2l.2.2c0,0,.2-.2.3-.2-.1,0-.2,0-.3,0M31.3,3.4c0,0-.1,0-.2,0-.2.1-.3.3-.4.5h0c.2,0,.4,0,.5,0,0,0,.1-.1.2-.2l-.2-.2h0ZM30.7,3.8c0,0-.1.2-.2.2,0,0,.2-.1.3-.2h0ZM29.8,5.5c0,.1,0,.3-.1.4h.2c0,0,0-.3,0-.4h0M29.7,5.9c0,.2,0,.3,0,.5,0,.1.1.2.2.3h.2c0-.1,0-.2,0-.3,0-.1-.1-.2-.1-.4h-.2c0,0,0,0,0,0ZM29.8,6.7c0,0,.1.2.2.2,0,0,0-.2,0-.2,0,0-.2,0-.2,0Z"/>
        <path class="cls-30" d="M31.8,3.4c-.1,0-.2.2-.3.2v.2c.4,0,.7.1.9.3,0,0,0,0,.1,0l-.3-.5c-.2,0-.3,0-.5-.1M32.3,3.5l.3.4c0,0,.2,0,.2-.1-.2-.1-.3-.2-.5-.3M31.5,3.6c0,0-.1,0-.2.2h.3v-.2ZM30,6.3c0,.1,0,.2,0,.4h.4c-.1,0-.2-.2-.3-.4M30,6.7c0,0,0,.2,0,.2,0,0,.1.1.2.2,0,0,0,.2-.1.3h.7c0,0,0-.2.1-.2h0c-.2-.2-.4-.3-.5-.5h-.4s0,0,0,0ZM30.7,7.3h-.6c0,.2,0,.4,0,.6,0,0,0,0,0,.2h.6c0-.1,0-.2,0-.3,0-.2,0-.3,0-.5M30.7,8h-.6c0,.3.2.5.4.7l.5-.2s0-.1,0-.1c-.2,0-.3-.2-.4-.3M31.1,8.5l-.5.2c.2.1.4.2.7.3h.1c-.1-.2-.2-.4-.2-.6M31.4,9h0c0,0,0,0,.1,0,0,0,0,0,0,0"/>
        <path d="M31.3,3.4h0l.2.2v.2h.1v-.2c-.1,0-.3-.2-.3-.2h0ZM32.3,3.5l.3.5s0,0,0,0l-.3-.4h0M30.7,3.8h.1c0,0,0,0,0,0h0ZM29.7,5.9h.2c0,0-.2,0-.2,0h0ZM29.8,6.7h.2s.4,0,.4,0c0,0,0,0,0,0h-.4s-.2,0-.2,0h0ZM30.7,7.3h-.7c0,0,.6,0,.6,0,0,0,0,0,0,0M30.7,7.9h-.6c0,.1.6,0,.6,0h0M31.1,8.4l-.5.2h0l.5-.2h0M31.4,8.9h-.1c0,0,0,0,0,0h0c0,0,0,0,0,0"/>
        <path class="cls-30" d="M33,3.9c0,0-.2.1-.3.2,0,0,.2-.1.3-.2M32.7,4.1s0,0,0,0c0,0,0,0,0,0"/>
        <path d="M32.7,4.1s0,0,0,0c0,0,0,0,0,0"/>
        <path class="cls-18" d="M39.4,6.5s0,0,0,.1h0,0c0-.1,0-.1,0-.1ZM39.4,6.7h0c0,.1,0,.3,0,.4s0,.3,0,.4h0,0c0,0,.1-.2,0-.3v-.4h0Z"/>
        <path d="M38.9,5.9s0,0,0,.1h.2c0,0-.2-.1-.2-.1M39.1,5.9h-.2c0,.3,0,.5.1.7h.4s0-.1,0-.2v-.2c0-.2-.2-.3-.3-.4M39.4,6.7h-.4c0,.2,0,.3,0,.4s0,.2,0,.3h.4c0,0,0-.2,0-.3s0-.3,0-.4M39,7.4c0,.1,0,.2,0,.4.2,0,.3,0,.4-.2,0,0,0,0,0,0h0c0,0-.4-.1-.4-.1h0Z"/>
        <path class="cls-30" d="M38.8,5.9c0,0-.1,0-.2,0l-.6.2s0,0,0,0l.8-.2s0,0,0-.1h0M38.9,6l-.8.2c0,.2,0,.4,0,.5h.9c0-.3,0-.5-.1-.8M39,6.7h-.9c0,.2,0,.3,0,.4h0c0,0,.3,0,.3,0,0,0-.2.1-.3.2h.9s0-.2,0-.3,0-.2,0-.3M38.1,7.3c0,.2,0,.4,0,.5h.2c.1,0,.2,0,.3-.1h.3s0,0,0,0h0c0-.1,0-.2,0-.4h-.9c0,0,0,0,0,0ZM38,7.9s0,0,0,.1c0,0,.1,0,.2,0,0,0-.2,0-.2,0Z"/>
        <path d="M39.1,5.9h-.2s-.8.2-.8.2h0s.8-.2.8-.2h.2M39.4,6.7h-.4s-.9,0-.9,0h0s.9,0,.9,0h.4s0,0,0,0h0ZM38.1,7.3h0s.9,0,.9,0h.4s0,0,0,0h-.4s-.9-.1-.9-.1h0ZM38,7.9h0s.2,0,.2,0c0,0,0,0,0,0h-.2c0,0,0,0,0,0Z"/>
        <path class="cls-30" d="M37.8,6.2h0s0,0,0,0c0,0,0,0,0,0M37.8,6.3h0c0,.2,0,.3,0,.5,0-.2,0-.3,0-.5M37.9,6.8h0v.3h0v-.3"/>
        <path d="M37.8,6.2h0s0,0,0,0M37.9,6.8h0s0,0,0,0"/>
        <path class="cls-41" d="M33,3.9c0,0-.2.1-.3.2,0,0,0,0,0,0,0,0,0,0,0,0,0,0,.2.2.3.3.2.1.3.3.4.5.2-.1.5-.2.7-.3.2,0,.3,0,.5,0,1.1,0,2.2.8,2.4,1.9,0,.3,0,.6,0,.9.3-.1.5-.2.7-.4h.3s0,0,0,0v-.3h0c0-.2,0-.4,0-.5h0c0,0,0,0,0,0h-.4c-.3-1.2-1.6-2.2-2.9-2.2s-.4,0-.6,0h0c0,0-.2,0-.3,0,0,0-.2,0-.3,0,0-.1-.2-.2-.3-.3M32,7.1c0,0-.2,0-.3,0,0,.1-.1.3,0,.4,0,.2.3.4.6.5,0-.2-.1-.3-.2-.5,0-.1,0-.3,0-.4M37.9,7.4c-.3.2-.7.3-1.1.5-.3.7-.9,1.3-1.8,1.5h0c-.2,0-.3,0-.5,0-.7,0-1.4-.3-1.9-.9-.5,0-1,0-1.3-.2.1.3.2.5.4.7.2,0,.4,0,.6,0,.5.5,1.1.8,1.7.9h0c0-.1.8-.1.8-.1h0c0,0,.2,0,.2,0,.1,0,.2,0,.4-.1h0c0,0,.2-.1.3-.2h0c.2-.1.4-.3.6-.4h0s0,0,0,0c.3-.2.5-.5.6-.9.2,0,.4-.1.5-.2,0-.2.1-.5.2-.7"/>
        <path d="M32.8,3.8c0,0-.2,0-.2.1,0,0,0,0,0,0,0,0,0,0-.1,0,0,0,.1,0,.2.1,0,0,0,0,0,0,0,0,0,0,0,0,0,0,.2-.1.3-.2,0,0-.1,0-.2-.2M38,6.1h-.2c0,0,0,.1,0,.1h0c0,.2,0,.4,0,.5h0v.3h0c0,0,.2,0,.2,0h0c0-.1,0-.2,0-.3h0c0-.2,0-.4,0-.6h0c0,0,0,0,0-.1M30.8,7.1h0c0,0,0,0,0,0,0,0,0,0,0,0M38.1,7.3c0,0-.1,0-.2.1,0,.2,0,.5-.2.7,0,0,.2,0,.2-.1,0,0,0,0,0-.1h0c0-.2,0-.4,0-.6h0M31,8.3s0,.1,0,.1h0c0,.2.2.4.2.5,0,0,0,0,0,0,0,0,0,0,0,0,0,0,.2,0,.3,0-.2-.2-.3-.5-.4-.7-.1,0-.2,0-.3-.1"/>
        <path class="cls-41" d="M34.9,9.9h-.8c.1.1.3.1.4.1h0c.1,0,.3,0,.4,0,0,0,0-.1,0-.1Z"/>
        <path class="cls-29" d="M31.5,7.1c-.9,0-1.6-.7-1.6-1.6s.7-1.6,1.6-1.6,1.6.7,1.6,1.6-.7,1.6-1.6,1.6"/>
        <path class="cls-23" d="M31.5,3.8c-1,0-1.7.8-1.7,1.7s.8,1.7,1.7,1.7,1.7-.8,1.7-1.7-.8-1.7-1.7-1.7M31.5,3.9c.9,0,1.6.7,1.6,1.5s-.7,1.5-1.5,1.5-1.5-.7-1.5-1.6.7-1.5,1.5-1.5"/>
        <path class="cls-23" d="M36.9,6.5c-.3-1.3-1.6-2.2-2.9-1.9-1.3.3-2.2,1.6-1.9,2.9.3,1.3,1.6,2.2,2.9,1.9,1.3-.3,2.2-1.6,1.9-2.9"/>
        <path class="cls-36" d="M33.3,7c-.2-.9.1-1.8.7-2.3h0c-1.3.3-2.2,1.6-1.9,2.9.3,1.3,1.6,2.2,2.9,1.9.4-.1.8-.3,1.2-.6-1.3.3-2.6-.6-2.9-1.9"/>
      </g>
      <polygon class="cls-28" points="37.1 7.1 38.9 7.2 38.8 6.4 37.1 7.1"/>
      <path class="cls-28" d="M37.6,7.1c-.5.4-1.4.7-2.4.9-1.8.4-3.4.2-3.5-.4,0-.2,0-.5.4-.7,0-.2,0-.4.1-.7-1,.5-1.6,1.1-1.5,1.6.2.8,2.2,1.1,4.6.6,1.3-.3,2.5-.7,3.2-1.2h-.8c0,0,0,0,0,0Z"/>
      <polygon class="cls-9" points="34.3 5.3 33.8 5.7 33.8 6.2 34.3 5.9 34.3 8.8 34.8 8.8 34.8 5.3 34.3 5.3"/>
      <g>
        <path class="cls-7" d="M32.9,4.4c.1.2.2.3.3.5,0,0,0,0,0,0,0-.2-.2-.3-.4-.5"/>
        <path class="cls-35" d="M31.5,3.9h0v2.7c.2-.1.5-.3.7-.4.2-.5.5-.9.8-1.2-.2-.7-.8-1.1-1.5-1.1M32,6.9s0,0-.1,0c0,0,0,0,.1,0h0"/>
        <path class="cls-26" d="M31.5,3.9h0c.7,0,1.3.5,1.5,1.1,0,0,0,0,.2-.1,0-.2-.2-.4-.3-.5-.3-.3-.8-.5-1.4-.5M32,6.9s0,0-.1,0c0,0,0,0,0,0,0,0,0,0,.1,0h0"/>
        <path class="cls-26" d="M33.3,4.9s0,0,0,0c0,0-.1,0-.2.1-.4.3-.7.7-.8,1.2.2-.6.6-1,1.1-1.3M33.4,5.5c0,.2-.2.4-.2.7.1-.2.2-.4.2-.7M32,6.9h0c0,0,0,0,0,0"/>
        <path class="cls-8" d="M33.3,4.9c-.5.3-.9.8-1.1,1.3h0c0,.2-.1.4-.1.7h0c.5,0,1-.3,1.2-.8,0-.2,0-.4.2-.7h0c0-.2,0-.4-.1-.6"/>
        <path class="cls-19" d="M32.2,6.2h0c-.3.1-.5.3-.7.4v.4h0c.1,0,.3,0,.4,0,0,0,0,0,0,0,0,0,0,0,.1,0h0c0-.2,0-.4.1-.7"/>
        <path class="cls-39" d="M33.1,5.5c0,.9-.7,1.5-1.5,1.5s-1.5-.7-1.5-1.6.7-1.5,1.5-1.5,1.5.7,1.5,1.5"/>
        <path class="cls-37" d="M32.9,5.5c0,.8-.6,1.4-1.4,1.4s-1.4-.6-1.4-1.4.6-1.4,1.4-1.4,1.4.6,1.4,1.4"/>
      </g>
      <polygon class="cls-39" points="32.5 5.2 31.8 5.2 31.8 4.6 31.2 4.6 31.2 5.2 30.6 5.2 30.6 5.8 31.2 5.8 31.2 6.4 31.8 6.4 31.8 5.8 32.5 5.8 32.5 5.2"/>
      <rect class="cls-2" x="48.5" y="8.2" width="12.4" height="4.1" transform="translate(8.8 41.7) rotate(-45)"/>
      <g>
        <path class="cls-1" d="M57.6,4.3c-1.6-1.6-4.2-1.6-5.8,0l-3,3c-1.6,1.6-1.6,4.2,0,5.8h0c0,0,8.8-8.7,8.8-8.7h0Z"/>
        <path class="cls-13" d="M60.5,7.3l-8.8,8.8h0c1.6,1.6,4.2,1.6,5.8,0l3-3c1.6-1.6,1.6-4.2,0-5.8h0Z"/>
        <path class="cls-9" d="M55.1,14.5c2.2-.1,3.9-2.1,3.9-3.9-.1,0-.2,0-.3,0v-.7c.1,0,.2,0,.3,0,0-1.9-2-3.9-3.9-3.9,0,0,0,.2,0,.3h-.7c0-.1,0-.2,0-.3-2.2,0-3.9,2.2-3.9,3.9,0,0,.2,0,.3,0v.7c-.1,0-.2,0-.3,0,0,1.9,1.8,3.9,3.9,3.9,0-.1,0-.2,0-.3h.7c0,.1,0,.2,0,.3M54.7,15.4c-2.8,0-5.2-2.3-5.2-5.2,0-2.9,2.3-5.2,5.2-5.2s5.2,2.3,5.2,5.2c0,2.9-2.3,5.1-5.2,5.1"/>
        <path class="cls-9" d="M55.3,10.2c0-.3-.3-.6-.6-.6s-.6.3-.6.6c0,.3.3.6.6.6.3,0,.6-.3.6-.6M52.2,12.6c.5-1.1.9-2.2,1.4-3.2,0,0,.1-.2.2-.2,1-.5,2.1-.9,3.2-1.4h0c-.2.4-.3.8-.5,1.2-.3.6-.5,1.3-.8,1.9,0,.1,0,.2-.2.2-1.1.5-2.1.9-3.3,1.4"/>
        <path class="cls-9" d="M63.1,15.1c0-2.1-1.7-3.7-3.7-3.7s-3.7,1.7-3.7,3.7,1.7,3.7,3.7,3.7,3.7-1.7,3.7-3.7"/>
        <path class="cls-24" d="M62.5,15.1c0-1.8-1.4-3.2-3.2-3.2s-3.2,1.4-3.2,3.2,1.4,3.2,3.2,3.2,3.2-1.4,3.2-3.2"/>
      </g>
      <path class="cls-9" d="M61.3,16.6h-3.9v-.9h3.9v.9ZM61.3,14.5h-3.9v-.9h3.9v.9Z"/>
      <g>
        <path d="M17.2.5v4.5l3.8,3.8c.3.3.5.7.5,1.1s-.2.8-.5,1.1l-3.8,3.8v4h.3v-3.9l3.7-3.7c.4-.4.6-.9.6-1.4s-.2-1-.6-1.4l-3.7-3.7V.5h-.3Z"/>
        <path class="cls-32" d="M18.3,5.7l3,2.9c.4.4.6.9.6,1.4s-.2,1-.6,1.4l-3,2.9,4-3.1c.9-.7.9-1.8,0-2.5,0,0-4-3.1-4-3.1Z"/>
        <path d="M17.4,5l3.8,3.8c.7.7.7,1.8,0,2.5l-3.8,3.8.9-.7,3-2.9c.4-.4.6-.9.6-1.4s-.2-1-.6-1.4l-3-2.9-.9-.7h0Z"/>
      </g>
      <g>
        <path class="cls-9" d="M82.5,11c-.1-.6-.3-1.8-.5-2.7,0-.3-.2-.7-.4-1-.3-.4-.7-.7-1.2-.8h-.5c0-.1-.2-.4-.2-.4v-.3c.2-.3.4-.8.4-1.2,0-.8-.6-1.5-1.5-1.5s-1.5.7-1.5,1.5.1.9.4,1.2v.3l-.2.3h-.5c-.8.4-1.5,1.1-1.6,1.9,0,.4-.2.9-.3,1.4-.1.5-.2,1-.3,1.3-.2,1.1,1.2,1.6,1.2,1.6l-.2,2.5-.4,4.1h2.9l.4-3.1.4,3.1h2.9l-.6-6.1v-.5s1.4-.5,1.2-1.6"/>
        <path class="cls-6" d="M78.6,3.1c-.8,0-1.5.7-1.5,1.5h0c0-.8.6-1.5,1.5-1.5s1.5.7,1.5,1.5h0c0-.8-.6-1.5-1.5-1.5M79.9,5.4c0,.1-.1.3-.2.4v.3-.3c0,0,.1-.2.2-.4M77.3,5.4c0,.1.1.3.2.4,0,0-.1-.2-.2-.4M79.7,6.1h0l.2.3h.5c0,.1,0,.1,0,.1h-.5c0-.1-.2-.4-.2-.4ZM77.5,6.1h0l-.2.3h-.5c0,.1.5,0,.5,0l.2-.3ZM75.9,7c-.4.3-.6.8-.7,1.3,0,.1,0,.2,0,.4,0-.1,0-.2,0-.4,0-.5.4-1,.7-1.3M75,9.4c0,.1,0,.2,0,.3,0-.1,0-.2,0-.3"/>
        <path class="cls-6" d="M78.6,3.1c-.8,0-1.5.7-1.5,1.5s0,.6.2.8c0,.1.1.3.2.3v.3l-.2.3h-.5c-.3.2-.6.4-.9.6-.4.3-.6.8-.7,1.3,0,.1,0,.2,0,.4,0,.2,0,.5-.1.8,0,.1,0,.2,0,.3l3.9-1.4h0c0-.5.3-.9.6-1.2.3-.2.6-.4.9-.6h-.5c0-.1-.2-.4-.2-.4v-.3c0,0,.1-.2.2-.3.1-.3.2-.6.2-.8,0-.8-.6-1.5-1.5-1.5"/>
      </g>
      <path class="cls-4" d="M78.6,16.1h0l.4,2.7-.4-2.7ZM75.3,18.9v.3s0-.3,0-.3Z"/>
      <path class="cls-4" d="M79.4,13.8l-3.8,1.4-.4,3.8v.3s2.9,0,2.9,0l.4-3.1.4,2.7.3-3.6v-1.4c.1,0,.1,0,.1,0ZM81.9,18.8v.4c0,0,0,0,0,0,0,0,0-.4,0-.4Z"/>
      <g>
        <path class="cls-27" d="M74.9,9.7h0c0,.2,0,.4-.1.6,0-.2,0-.4.1-.6ZM74.7,11h0c-.2,1.1,1.2,1.6,1.2,1.6,0,0-1.5-.5-1.2-1.6"/>
        <path class="cls-27" d="M78.9,8.3l-3.9,1.4c0,.2,0,.4-.1.6,0,.3-.1.6-.2.8-.2,1.1,1.2,1.6,1.2,1.6l-.2,2.5,3.8-1.4v-.7c0,0,.1-.5.1-.5,0,0-.7-.2-1-.8-.1-.2-.2-.4-.2-.6s0-.2,0-.2c0-.3.2-.8.3-1.3,0-.3.1-.7.2-1,0-.1,0-.3,0-.4"/>
        <path class="cls-9" d="M86.2,11c-.1-.6-.3-1.8-.5-2.7,0-.3-.2-.7-.4-1-.3-.4-.7-.7-1.2-.8h-.5c0-.1-.2-.4-.2-.4v-.3c.2-.3.4-.8.4-1.2,0-.8-.7-1.5-1.5-1.5s-1.5.7-1.5,1.5.1.9.4,1.2v.3l-.2.3h-.5c-.8.4-1.5,1.1-1.6,1.9,0,.4-.2.9-.3,1.4-.1.5-.2,1-.3,1.3-.2,1.1,1.2,1.6,1.2,1.6l-.2,2.5-.4,4.1h2.9l.4-3.1.4,3.1h2.9l-.6-6.1v-.5s1.4-.5,1.2-1.6"/>
        <path class="cls-11" d="M82.3,3.1c-.8,0-1.5.7-1.5,1.5,0-.8.7-1.5,1.5-1.5s1,.3,1.3.8c-.2-.5-.7-.8-1.3-.8M83.6,5.4c0,.2-.1.3-.2.4v.3-.3c0-.1.2-.2.2-.4M81,5.4c0,.1.1.3.2.3,0,0-.1-.2-.2-.3M81.2,6.1l-.2.3h-.5c0,.1.5,0,.5,0l.2-.3ZM83.4,6.1h0l.2.3h.5c.5.3.9.6,1.2,1-.3-.4-.7-.7-1.2-.8h-.5c0-.1-.2-.4-.2-.4Z"/>
        <path class="cls-16" d="M79.5,7.1c-.3.3-.6.8-.6,1.2h0s0,0,0,0c0-.5.3-.9.6-1.2"/>
        <path class="cls-20" d="M78.9,8.3h0c0,.1,0,.3,0,.4,0-.1,0-.3,0-.4"/>
        <path class="cls-11" d="M82.3,3.1c-.8,0-1.5.7-1.5,1.5s0,.6.2.8c0,.1.1.3.2.3v.3l-.2.3h-.5c-.4.2-.7.4-1,.7-.3.3-.6.8-.6,1.2h0c0,.1,0,.3,0,.4,0,.3-.1.7-.2,1l6.6-2.4c-.3-.4-.7-.7-1.2-.8h-.5c0-.1-.2-.4-.2-.4v-.3c0-.1.2-.2.2-.4,0-.2.1-.5.1-.8s0-.5-.2-.7c-.2-.5-.7-.8-1.3-.8"/>
      </g>
      <polygon class="cls-3" points="78.9 19.2 79 18.8 79 18.8 78.9 19.2"/>
      <polygon class="cls-12" points="79 18.8 79 18.8 79.3 15.1 79 18.8"/>
      <path class="cls-3" d="M82.3,16.1l-.3,2.1.3-2.1v.6c0,0,0-.6,0-.6ZM85.4,17.2l.2,2-.2-2Z"/>
      <polygon class="cls-3" points="85 13.1 79.3 15.1 79 18.8 78.9 19.2 81.8 19.2 82 18.2 82.3 16.1 82.3 16.7 82.7 19.2 85.6 19.2 85.4 17.2 85 13.1"/>
      <g>
        <path class="cls-40" d="M85.2,7.3h0c.2.3.3.6.4,1,.1.7.3,1.6.4,2.2-.1-.6-.3-1.5-.4-2.2,0-.4-.2-.7-.4-1"/>
        <path class="cls-22" d="M78.3,11h0c0,0,0,.2,0,.2,0,0,0-.2,0-.2M78.5,11.9c.4.5,1,.8,1,.8,0,0-.7-.2-1-.8"/>
        <path class="cls-40" d="M85.6,12.3c-.3.2-.6.3-.6.3h0s.3-.1.6-.3"/>
      </g>
      <path class="cls-34" d="M79.3,15.1v-1.4c.1,0,0,1.4,0,1.4Z"/>
      <path class="cls-22" d="M79.4,13.8v-.7c0,0,0,.7,0,.7Z"/>
      <g>
        <path class="cls-40" d="M85.2,7.3l-6.6,2.4c-.1.5-.2,1-.3,1.3,0,0,0,.2,0,.2,0,.2,0,.4.2.6.4.5,1,.8,1,.8h0v.5s-.1.7-.1.7v1.4c-.1,0,5.6-2,5.6-2v-.5h0s.3-.1.6-.3c.3-.3.7-.7.6-1.3,0-.1,0-.3,0-.5-.1-.6-.3-1.5-.4-2.2,0-.4-.2-.7-.4-1"/>
        <path class="cls-13" d="M87.7,6.5h-.5c0-.1-.2-.4-.2-.4v-.3c.2-.3.4-.8.4-1.2,0-.8-.7-1.5-1.5-1.5s-1.5.7-1.5,1.5.1.9.4,1.2v.3h0l-.2.3h-.5c-.8.4-1.5,1.1-1.6,1.9,0,.4-.2.9-.3,1.4l6.6-2.4c-.3-.4-.7-.7-1.2-.8"/>
      </g>
      <polygon class="cls-2" points="83 15.1 82.6 19.2 85.5 19.2 85.9 16.1 86.3 19.2 89.2 19.2 88.7 13.1 83 15.1"/>
      <path class="cls-1" d="M88.6,12.6s1.5-.5,1.2-1.6c-.1-.6-.3-1.8-.5-2.7,0-.3-.2-.7-.4-1l-6.6,2.4c0,.5-.2,1-.3,1.3-.2,1.1,1.2,1.6,1.2,1.6l-.2,2.5,5.7-2v-.5s0,0,0,0Z"/>
    </g>
  </g>
</svg>