<?xml version="1.0" encoding="UTF-8"?>
<svg id="Layer_1" xmlns="http://www.w3.org/2000/svg" viewBox="0 0 114.35 21.22">
  <defs>
    <style>
      .cls-1 {
        fill: #f58220;
      }

      .cls-2 {
        fill: #81659c;
      }

      .cls-3 {
        fill: #39b54a;
      }

      .cls-4 {
        fill: #005017;
      }

      .cls-5 {
        fill: #7a6a55;
      }

      .cls-6, .cls-7 {
        fill: #fff;
      }

      .cls-8 {
        fill: #8f4e82;
      }

      .cls-9 {
        fill: #50bfb7;
      }

      .cls-10 {
        fill: #bd6aab;
      }

      .cls-11 {
        fill: #716759;
      }

      .cls-12 {
        fill: #dbc5aa;
      }

      .cls-13 {
        fill: #030032;
      }

      .cls-14 {
        fill: #808285;
      }

      .cls-15 {
        fill: #8b7961;
      }

      .cls-16 {
        fill: #864e16;
      }

      .cls-17 {
        fill: #bcbec0;
      }

      .cls-7 {
        font-family: ArialNarrow, Arial;
        font-size: 10.46px;
      }

      .cls-18 {
        fill: #ed1651;
      }

      .cls-19 {
        fill: #5b2b51;
      }

      .cls-20 {
        fill: #623058;
      }

      .cls-21 {
        fill: #9e588f;
      }

      .cls-22 {
        fill: #bf9a6b;
      }

      .cls-23 {
        fill: #009444;
      }

      .cls-24 {
        fill: #635034;
      }

      .cls-25 {
        fill: #725c3e;
      }

      .cls-26 {
        fill: #e78937;
      }

      .cls-27 {
        fill: #00a88e;
      }

      .cls-28 {
        fill: #464547;
      }

      .cls-29 {
        fill: #262262;
      }

      .cls-30 {
        fill: #939598;
      }

      .cls-31 {
        fill: #58595b;
      }

      .cls-32 {
        fill: #065;
      }

      .cls-33 {
        fill: #ceb28f;
      }

      .cls-34 {
        fill: #ece2d6;
      }

      .cls-35 {
        fill: #8b0029;
      }

      .cls-36 {
        fill: #faa74a;
      }

      .cls-37 {
        fill: #00a76d;
      }

      .cls-38 {
        fill: #77787b;
      }

      .cls-39 {
        fill: #713a66;
      }

      .cls-40 {
        fill: #197b30;
      }

      .cls-41 {
        fill: #d1d3d4;
      }
    </style>
  </defs>
  <rect class="cls-2" x="1.13" y="7.47" width="15.59" height="5.16" transform="translate(-4.49 9.25) rotate(-45)"/>
  <g>
    <path class="cls-1" d="M12.53,2.63c-2.01-2.01-5.27-2.01-7.28,0l-3.74,3.74c-2.01,2.01-2.01,5.27,0,7.28l.08.08L12.61,2.71l-.08-.08Z"/>
    <path class="cls-9" d="M16.26,6.36l-11.02,11.02h0c2.01,2.02,5.27,2.02,7.28.01l3.74-3.74c2.01-2.01,2.01-5.27,0-7.28h0Z"/>
    <path class="cls-6" d="M9.38,15.45c2.77-.16,4.89-2.64,4.94-4.94-.13-.02-.27-.04-.4-.06v-.91c.14-.01.27-.03.39-.04,0-2.46-2.47-4.93-4.92-4.91-.01.12-.02.25-.03.37h-.92c-.02-.15-.04-.27-.05-.4-2.81.12-4.95,2.8-4.9,4.94.12.01.25.02.37.03v.92c-.14.02-.26.03-.37.04-.01,2.33,2.28,4.87,4.92,4.93.01-.13.02-.27.03-.4h.92c.01.14.02.27.03.42M8.89,16.51c-3.58-.03-6.5-2.87-6.5-6.5,0-3.61,2.89-6.49,6.5-6.49,3.63,0,6.49,2.93,6.48,6.51-.01,3.62-2.92,6.45-6.49,6.48"/>
    <path class="cls-6" d="M9.64,10.01c0-.4-.34-.74-.74-.75-.41,0-.76.36-.75.77.01.4.36.73.76.72s.74-.34.73-.75M5.85,13.05c.61-1.4,1.19-2.73,1.77-4.06.04-.1.14-.2.23-.24,1.33-.58,2.66-1.16,3.99-1.73l.05.02c-.22.51-.43,1.01-.65,1.52-.35.8-.7,1.6-1.04,2.4-.06.13-.1.25-.25.32-1.34.58-2.68,1.16-4.1,1.78"/>
    <path d="M93.73,15.28c0,.32-.25.56-.57.56s-.57-.24-.57-.57.24-.56.58-.56.56.24.56.58M93.73,12.72c0,.32-.25.56-.57.56s-.57-.24-.57-.57.24-.57.58-.57.56.24.56.58"/>
    <path class="cls-27" d="M98.33,14.18c-1.96,0-3.55-1.59-3.55-3.55s1.59-3.55,3.55-3.55,3.55,1.59,3.55,3.55-1.59,3.55-3.55,3.55"/>
    <path class="cls-22" d="M98.33,6.89c-2.07,0-3.74,1.68-3.74,3.74s1.68,3.74,3.74,3.74,3.74-1.68,3.74-3.74-1.68-3.74-3.74-3.74M98.33,7.28c1.85,0,3.35,1.5,3.35,3.35s-1.5,3.35-3.35,3.35-3.35-1.5-3.35-3.35,1.5-3.35,3.35-3.35"/>
    <path class="cls-22" d="M109.91,12.9c-.62-2.87-3.44-4.69-6.3-4.07-2.87.62-4.69,3.44-4.08,6.3.62,2.87,3.44,4.69,6.3,4.08,2.87-.62,4.69-3.44,4.08-6.3"/>
    <path class="cls-33" d="M102.07,13.84c-.41-1.9.26-3.79,1.6-5.02h-.06c-2.87.63-4.69,3.45-4.08,6.32.62,2.87,3.44,4.69,6.3,4.08.96-.21,1.81-.66,2.48-1.28-2.84.58-5.63-1.24-6.24-4.09"/>
  </g>
  <polygon class="cls-26" points="110.29 14.02 114.35 14.34 114.04 12.72 110.29 14.02"/>
  <path class="cls-26" d="M111.45,14.07c-1.19.81-3.06,1.57-5.24,2.03-3.91.84-7.31.43-7.6-.91-.1-.48.2-1.01.82-1.53.03-.49.13-.97.3-1.42-2.24,1.08-3.57,2.36-3.34,3.43.38,1.76,4.85,2.3,10,1.19,2.86-.61,5.33-1.61,6.89-2.67l-1.81-.12Z"/>
  <text class="cls-7" transform="translate(102.87 17.77)"><tspan x="0" y="0">?</tspan></text>
  <g>
    <path class="cls-30" d="M101.29,8.35c.27.35.47.74.61,1.17.06-.04.13-.08.19-.12-.19-.39-.46-.75-.8-1.05"/>
    <path class="cls-32" d="M98.33,7.28h0c-.06,0-.12,0-.18,0-.01.07-.02.15-.02.22v5.64c.46-.31.99-.62,1.59-.91.35-.99.99-1.86,1.84-2.49-.38-1.42-1.69-2.47-3.23-2.47M99.42,13.67c-.08.07-.15.13-.22.2.07-.02.14-.04.21-.07,0-.04,0-.09,0-.13"/>
    <path class="cls-25" d="M98.33,7.28h0c1.55,0,2.85,1.05,3.23,2.47.11-.08.22-.16.34-.23-.13-.43-.34-.82-.61-1.17-.74-.66-1.8-1.07-2.97-1.07M99.42,13.8c-.07.02-.14.05-.21.06-.02.02-.03.03-.05.05.09-.01.17-.03.25-.05,0-.02,0-.04,0-.06"/>
    <path class="cls-25" d="M102.1,9.4c-.07.04-.13.08-.19.12-.12.07-.23.15-.34.23-.85.63-1.49,1.5-1.84,2.49.42-1.19,1.26-2.2,2.38-2.84M102.38,10.65c-.19.44-.32.91-.38,1.4.24-.43.38-.9.38-1.4M99.42,13.67h0s0,.09,0,.13c0,.02,0,.04,0,.06,0-.07,0-.13,0-.19"/>
    <path class="cls-5" d="M102.1,9.4c-1.12.64-1.95,1.65-2.38,2.84t0,0c-.16.45-.26.93-.3,1.42,0,0,0,0,0,0,0,.06,0,.13-.01.19,1.15-.26,2.09-.93,2.58-1.81.06-.49.19-.96.38-1.4,0,0,0-.01,0-.02,0-.43-.1-.85-.28-1.23"/>
    <path class="cls-16" d="M99.72,12.24s0,0,0,0c-.6.29-1.14.6-1.59.91v.6c0,.08,0,.15.02.22.06,0,.12,0,.18,0,.29,0,.57-.03.84-.07.01-.01.03-.03.05-.05.07-.07.14-.13.22-.2,0,0,0,0,0,0,.03-.49.13-.97.29-1.42"/>
    <path class="cls-37" d="M101.68,10.63c0,1.85-1.5,3.35-3.35,3.35s-3.35-1.5-3.35-3.35,1.5-3.35,3.35-3.35,3.35,1.5,3.35,3.35"/>
    <path class="cls-34" d="M101.35,10.63c0,1.67-1.35,3.02-3.02,3.02s-3.02-1.35-3.02-3.02,1.35-3.02,3.02-3.02,3.02,1.35,3.02,3.02"/>
  </g>
  <polygon class="cls-37" points="100.31 10.02 98.94 10.02 98.94 8.65 97.71 8.65 97.71 10.02 96.34 10.02 96.34 11.25 97.71 11.25 97.71 12.62 98.94 12.62 98.94 11.25 100.31 11.25 100.31 10.02"/>
  <polygon class="cls-18" points="74.9 17.54 72.82 15.46 72.82 12.52 74.9 10.44 77.84 10.44 79.92 12.52 79.92 15.46 77.84 17.54 74.9 17.54"/>
  <path class="cls-22" d="M77.92,10.24h-3.1l-.11.11-1.96,1.96-.11.11v3.1l.11.12,1.96,1.96.11.12h3.1l.11-.12,1.96-1.96.12-.12v-3.1l-.12-.11-1.96-1.96-.11-.11ZM77.76,10.64l1.96,1.96v2.78l-1.96,1.96h-2.78l-1.96-1.96v-2.78l1.96-1.96h2.78Z"/>
  <g>
    <rect class="cls-6" x="72.52" y="1.69" width="13.5" height="10.1" rx="2.6" ry="2.6" transform="translate(3.55 31.14) rotate(-22.72)"/>
    <path class="cls-10" d="M80.39,4c-.19-.08-.41.01-.49.21-.08.19.01.41.2.49.55.22.98.65,1.2,1.19.23.55.23,1.15,0,1.7-.08.19.01.41.2.49.1.04.2.04.29,0,.09-.04.16-.11.2-.2.3-.73.3-1.54,0-2.27-.31-.73-.88-1.3-1.61-1.6"/>
    <path class="cls-10" d="M80.43,2.91c-.08.19.01.41.2.49.89.37,1.59,1.06,1.96,1.95.37.89.38,1.87,0,2.77-.08.19.01.41.21.49.1.04.2.04.29,0,.09-.04.16-.11.2-.2.44-1.08.44-2.26-.01-3.34-.45-1.08-1.29-1.91-2.37-2.35-.19-.08-.41.01-.49.2"/>
    <path class="cls-10" d="M76.53,5.62c-.3.73-.3,1.54,0,2.27.31.73.88,1.3,1.61,1.6.1.04.2.04.29,0,.09-.04.16-.11.2-.2.08-.19-.01-.41-.2-.49-.55-.22-.98-.65-1.2-1.19-.23-.55-.23-1.15,0-1.7.08-.19-.01-.41-.2-.49-.19-.08-.41.01-.49.2"/>
    <path class="cls-10" d="M75.94,8.14c-.37-.89-.38-1.87-.01-2.76.08-.19-.01-.41-.21-.49-.19-.08-.41.01-.49.21-.44,1.08-.44,2.26.01,3.34.45,1.07,1.29,1.91,2.37,2.35.1.04.2.04.29,0,.09-.04.16-.11.2-.2.08-.19-.01-.41-.21-.49-.89-.36-1.59-1.06-1.96-1.95"/>
    <path class="cls-10" d="M85.23,6.9c.28.66-.04,1.42-.69,1.69l-2.45,1.03-1.63-2.01c.29-.4.38-.94.17-1.43-.31-.75-1.17-1.1-1.92-.79-.75.31-1.1,1.17-.79,1.92.21.49.65.81,1.14.88l.29,2.57-2.45,1.03c-.66.28-1.42-.04-1.69-.69l-1.89-4.51c-.28-.66.04-1.42.69-1.69l7.65-3.2c.66-.28,1.42.04,1.69.69l1.89,4.51ZM79.83,8.1l.04-.02,1.49,1.84-1.31.55-.26-2.36h.04ZM81.36,1l-7.65,3.2c-1.04.43-1.53,1.64-1.1,2.67l1.89,4.51c.44,1.04,1.64,1.53,2.67,1.1l7.65-3.2c1.04-.43,1.53-1.64,1.1-2.67l-1.89-4.51c-.44-1.04-1.64-1.53-2.67-1.1"/>
    <path class="cls-17" d="M82.14.28c-.33,0-.67.07-1,.2l-7.65,3.2c-.99.42-1.6,1.38-1.6,2.4,0,.34.06.68.2,1.01l1.89,4.51c.39.92,1.25,1.51,2.18,1.59v-.56c-.72-.08-1.37-.53-1.67-1.24l-1.89-4.51c-.43-1.04.06-2.24,1.1-2.67l7.65-3.2c.26-.11.52-.16.79-.16.8,0,1.56.47,1.89,1.25l.93,2.23.57-.09-.98-2.35c-.42-1-1.38-1.6-2.4-1.6M82.15,1.59c-.17,0-.34.03-.5.1l-7.65,3.2c-.66.28-.97,1.03-.69,1.69l1.89,4.52c.18.42.55.7.98.77v-.65l-.29-1.73c-.26-.32-.47-.68-.64-1.07-.45-1.08-.45-2.26-.01-3.34.06-.15.2-.23.35-.23.05,0,.1,0,.14.03.19.08.28.3.2.49-.28.69-.35,1.43-.19,2.15.1-.43.3-.83.59-1.16.03-.25.1-.5.2-.74.06-.14.2-.23.35-.23.05,0,.1,0,.14.03.12.05.2.16.23.27.19-.08.4-.15.61-.18l.95-.16c.15-.05.29-.07.44-.07l1.43-.24c-.17-.14-.36-.26-.57-.34-.19-.08-.28-.3-.21-.49.06-.14.2-.23.35-.23.05,0,.1,0,.14.03.47.19.88.5,1.19.89l.71-.12c-.4-.61-.97-1.08-1.66-1.37-.19-.08-.28-.3-.21-.49.06-.15.2-.23.35-.23.05,0,.1,0,.14.03.93.38,1.69,1.06,2.17,1.93l1.12-.19-.86-2.06c-.21-.49-.69-.79-1.19-.79"/>
    <path class="cls-8" d="M80.25,3.97c-.15,0-.29.09-.35.23-.08.19.01.41.2.49.21.09.4.2.57.34l.9-.15c-.31-.39-.72-.69-1.19-.89-.05-.02-.1-.03-.14-.03"/>
    <path class="cls-8" d="M80.78,2.68c-.15,0-.29.09-.35.23-.08.19.01.41.2.49.69.28,1.26.76,1.65,1.37l.8-.13c-.48-.87-1.23-1.55-2.17-1.93-.05-.02-.1-.03-.14-.03"/>
    <path class="cls-8" d="M76.87,5.38c-.15,0-.29.09-.35.23-.1.24-.17.49-.2.74.25-.28.56-.51.91-.67-.02-.12-.11-.23-.23-.28-.05-.02-.1-.03-.14-.03"/>
    <path class="cls-8" d="M75.58,4.85c-.15,0-.29.09-.35.23-.44,1.08-.44,2.26.01,3.34.16.39.38.75.64,1.07l-.17-.99c-.02-.14-.04-.29-.04-.43,0-.19.02-.37.06-.55-.16-.71-.1-1.46.19-2.15.08-.19-.01-.41-.2-.49-.05-.02-.1-.03-.14-.03"/>
    <path class="cls-8" d="M82.14.84c-.26,0-.53.05-.79.16l-7.65,3.2c-1.04.43-1.53,1.63-1.1,2.67l1.89,4.51c.3.71.95,1.16,1.67,1.24v-.76c-.42-.07-.8-.35-.98-.78l-1.89-4.51c-.28-.66.04-1.42.69-1.69l7.65-3.2c.16-.07.33-.1.5-.1.51,0,.99.3,1.19.79l.86,2.06.76-.13-.93-2.23c-.33-.78-1.09-1.25-1.89-1.25M79.25,5.27c-.15,0-.3.03-.44.07l.44-.07Z"/>
    <path class="cls-6" d="M78.63,4.75h8.29c1.44,0,2.6,1.17,2.6,2.6v4.89c0,1.44-1.17,2.6-2.6,2.6h-8.29c-1.44,0-2.6-1.17-2.6-2.6v-4.89c0-1.44,1.17-2.6,2.6-2.6Z" transform="translate(-.48 13.75) rotate(-9.47)"/>
    <path class="cls-10" d="M84.5,7.39c-.17-.12-.4-.08-.52.09-.12.17-.08.4.09.52.48.34.8.85.9,1.44.1.58-.04,1.17-.38,1.65-.12.17-.08.4.09.52.08.06.18.08.28.06.09-.02.18-.07.24-.15.46-.64.64-1.43.51-2.21-.13-.78-.56-1.47-1.2-1.93"/>
    <path class="cls-10" d="M84.79,6.34c-.12.17-.08.4.09.52.79.56,1.31,1.39,1.46,2.35.16.95-.06,1.91-.62,2.69-.12.17-.08.4.09.52.08.06.18.08.28.06.1-.02.18-.07.24-.15.68-.95.94-2.1.75-3.25-.19-1.15-.82-2.16-1.77-2.83-.17-.12-.4-.08-.52.09"/>
    <path class="cls-10" d="M80.36,8.08c-.46.65-.64,1.43-.51,2.21.13.78.56,1.46,1.2,1.92.08.06.19.08.28.06.1-.02.18-.07.24-.15.12-.17.08-.4-.09-.52-.48-.34-.8-.85-.9-1.44-.1-.58.04-1.17.38-1.65.12-.17.08-.4-.09-.52-.17-.12-.4-.08-.52.09"/>
    <path class="cls-10" d="M79.21,10.4c-.16-.95.06-1.91.62-2.69.12-.17.08-.4-.09-.52-.17-.12-.4-.08-.52.09-.68.95-.95,2.1-.75,3.25.19,1.15.82,2.16,1.77,2.83.08.06.18.08.28.07.1-.02.18-.07.24-.15.12-.17.08-.4-.09-.52-.79-.56-1.3-1.39-1.46-2.35"/>
    <path class="cls-10" d="M88.54,11.32c.12.7-.36,1.37-1.06,1.49l-2.62.44-1.13-2.33c.38-.32.58-.83.49-1.35-.13-.8-.89-1.34-1.69-1.21-.8.13-1.34.89-1.21,1.69.09.53.45.94.91,1.12l-.31,2.57-2.62.44c-.7.12-1.37-.36-1.49-1.06l-.81-4.83c-.12-.7.36-1.37,1.06-1.49l8.18-1.36c.7-.12,1.37.36,1.49,1.06l.8,4.83ZM83.02,11.25h.04s1.03,2.12,1.03,2.12l-1.4.23.29-2.35h.04ZM86.13,4.69l-8.18,1.37c-1.11.18-1.86,1.24-1.68,2.35l.8,4.83c.19,1.11,1.24,1.86,2.35,1.68l8.18-1.36c1.11-.18,1.86-1.24,1.68-2.35l-.81-4.83c-.18-1.11-1.24-1.86-2.35-1.68"/>
    <path class="cls-41" d="M86.47,4.1c-.14,0-.29.01-.43.04l-1.07.18-.76.13-1.12.19-.79.13-.71.12-.9.15-2.82.47c-.22.04-.42.1-.61.18-.35.16-.66.39-.91.67-.29.33-.49.73-.59,1.16-.04.18-.06.36-.06.55,0,.14.01.28.04.43l.45,2.72v-.35c0-.08,0-.16.02-.23h.45l-.37-2.23c-.18-1.11.57-2.17,1.68-2.35l8.18-1.36c.11-.02.23-.03.34-.03.98,0,1.85.71,2.01,1.71l.39,2.35c.2.02.4.06.59.12l-.43-2.57c-.21-1.27-1.32-2.17-2.56-2.17M86.46,5.41c-.07,0-.14,0-.21.02l-8.18,1.37c-.7.12-1.18.78-1.06,1.49l.39,2.36h.16c.17-.49.48-.93.87-1.26.07-.75.34-1.48.79-2.11.07-.1.19-.16.31-.16.08,0,.15.02.22.07.17.12.21.35.09.52-.26.36-.45.76-.56,1.18.23-.09.48-.14.73-.17.09-.22.21-.44.35-.64.07-.1.19-.16.31-.16.07,0,.15.02.22.07.17.12.21.35.09.52-.04.06-.08.12-.12.19h.95c.2-.18.45-.3.74-.35.08-.01.16-.02.24-.02.37,0,.71.14.98.37h.95c-.16-.28-.37-.52-.64-.71-.17-.12-.21-.35-.09-.52.07-.1.19-.16.31-.16.08,0,.15.02.22.07.47.34.82.79,1.03,1.32h.69c-.23-.74-.7-1.38-1.34-1.84-.17-.12-.21-.35-.09-.52.07-.1.19-.16.3-.16.08,0,.15.02.22.07.84.6,1.43,1.46,1.69,2.45h1.11l-.37-2.21c-.11-.63-.65-1.08-1.27-1.08"/>
    <path class="cls-21" d="M84.28,7.32c-.12,0-.23.06-.31.16-.12.17-.08.4.09.52.27.19.48.43.64.71h.83c-.21-.53-.56-.98-1.03-1.32-.07-.05-.14-.07-.22-.07"/>
    <path class="cls-21" d="M85.09,6.18c-.12,0-.23.06-.31.16-.12.17-.08.4.09.52.64.46,1.11,1.1,1.34,1.84h.78c-.26-.99-.85-1.85-1.69-2.45-.07-.05-.14-.07-.22-.07"/>
    <path class="cls-21" d="M80.67,7.92c-.12,0-.23.06-.31.16-.14.2-.26.41-.35.64.09,0,.18-.01.27-.01h.57c.04-.07.08-.13.12-.19.12-.17.08-.4-.09-.52-.07-.05-.14-.07-.22-.07"/>
    <path class="cls-21" d="M79.53,7.11c-.12,0-.23.06-.31.16-.45.63-.72,1.36-.79,2.11.25-.21.54-.38.85-.49.11-.42.3-.82.56-1.18.12-.17.08-.4-.09-.52-.07-.05-.14-.07-.22-.07"/>
    <path class="cls-21" d="M86.46,4.66c-.11,0-.22,0-.34.03l-8.18,1.36c-1.11.19-1.86,1.24-1.68,2.35l.37,2.23h.76l-.39-2.35c-.12-.7.36-1.37,1.06-1.49l8.18-1.36c.07-.01.14-.02.21-.02.62,0,1.17.45,1.27,1.08l.37,2.21h.47c.1,0,.2,0,.29.02l-.39-2.35c-.17-1-1.03-1.71-2.01-1.71M82.78,8.33c-.08,0-.16,0-.24.02-.29.05-.54.17-.74.35h1.95c-.26-.23-.61-.37-.97-.37"/>
    <path class="cls-6" d="M80.28,8.71h8.29c1.59,0,2.88,1.29,2.88,2.88v4.89c0,1.59-1.29,2.88-2.88,2.88h-8.29c-1.59,0-2.88-1.29-2.88-2.88v-4.89c0-1.59,1.29-2.88,2.88-2.88Z"/>
    <path class="cls-10" d="M86.53,11.94c-.15-.15-.38-.15-.53,0-.15.15-.15.38,0,.53.42.42.65.97.65,1.57s-.23,1.15-.65,1.57c-.15.15-.15.38,0,.53.07.07.17.11.27.11s.19-.04.27-.11c.56-.56.87-1.31.87-2.1s-.31-1.54-.87-2.1"/>
    <path class="cls-10" d="M86.98,10.95c-.15.15-.15.38,0,.53.68.68,1.06,1.59,1.06,2.55s-.38,1.87-1.06,2.55c-.15.15-.15.38,0,.53.07.07.17.11.26.11s.19-.04.27-.11c.82-.82,1.28-1.92,1.28-3.08s-.45-2.26-1.28-3.08c-.15-.15-.38-.15-.53,0"/>
    <path class="cls-10" d="M82.34,11.94c-.56.56-.87,1.3-.87,2.1s.31,1.54.87,2.1c.07.07.17.11.26.11s.19-.04.27-.11c.15-.15.15-.38,0-.53-.42-.42-.65-.97-.65-1.57s.23-1.15.65-1.57c.15-.15.15-.38,0-.53-.15-.15-.38-.15-.53,0"/>
    <path class="cls-10" d="M80.82,14.03c0-.96.38-1.87,1.06-2.55.15-.15.15-.38,0-.53-.15-.15-.38-.15-.53,0-.83.82-1.28,1.92-1.28,3.08s.45,2.26,1.28,3.09c.07.07.17.11.27.11s.19-.04.27-.11c.15-.15.15-.38,0-.53-.68-.68-1.06-1.59-1.06-2.55"/>
    <path class="cls-10" d="M89.87,16.48c0,.71-.58,1.29-1.29,1.29h-2.66l-.73-2.48c.42-.26.71-.72.71-1.26,0-.81-.66-1.47-1.47-1.47s-1.47.66-1.47,1.47c0,.53.29,1,.71,1.26l-.73,2.48h-2.66c-.71,0-1.29-.58-1.29-1.29v-4.89c0-.71.58-1.29,1.29-1.29h8.29c.71,0,1.29.58,1.29,1.29v4.89ZM84.43,15.5h.04s.67,2.27.67,2.27h-1.42l.67-2.27h.04ZM88.58,9.54h-8.29c-1.13,0-2.04.92-2.04,2.04v4.89c0,1.13.92,2.04,2.04,2.04h8.29c1.13,0,2.04-.92,2.04-2.04v-4.89c0-1.13-.92-2.04-2.04-2.04"/>
    <path class="cls-35" d="M76.17,13.19v3.92c0,.08,0,.15.02.23h1.34c-.08-.27-.13-.56-.13-.86v-1.6c-.45-.38-.78-.92-.88-1.55l-.02-.13s-.07,0-.11,0c-.07,0-.15,0-.22,0"/>
    <path class="cls-38" d="M76.17,11.22v.65s.07.01.11.01l-.11-.67ZM76.17,12.63v.56c.07,0,.15,0,.22,0,.04,0,.07,0,.11,0l-.09-.56h-.02c-.07,0-.15,0-.22-.01"/>
    <path class="cls-19" d="M76.17,11.87v.76c.07,0,.15.01.22.01h.02l-.12-.75s-.08,0-.11-.01"/>
    <path class="cls-14" d="M77.56,10.64h-.16l.06.37c.02-.13.06-.25.1-.37M76.64,10.64h-.45c-.01.08-.02.15-.02.23v.35l.35,2.11c.11.63.43,1.17.88,1.55v-.83c-.16-.24-.28-.51-.33-.82l-.43-2.6Z"/>
    <path class="cls-20" d="M77.4,10.64h-.76l.43,2.6c.05.3.17.58.33.82v-2.47c0-.2.02-.39.06-.58l-.06-.37Z"/>
    <path class="cls-30" d="M77.76,10.64h-.19c-.04.12-.08.24-.1.37-.04.19-.06.38-.06.58v4.89c0,.3.05.59.13.86h.22l.53-.41c-.03-.15-.05-.3-.05-.45v-4.89c0-.18.02-.36.07-.53l-.55-.42ZM78.99,11.58h0v4.82l1.3-.99c-.14-.44-.22-.9-.22-1.38,0-.5.08-.99.24-1.45l-1.32-1.01Z"/>
    <path class="cls-39" d="M80.31,12.59c-.16.46-.24.95-.24,1.45,0,.47.08.94.22,1.38l.04-.03v-2.78h-.02Z"/>
    <path class="cls-39" d="M78.31,11.06c-.05.17-.07.34-.07.53v4.89c0,.16.02.31.05.45l.7-.53v-4.81h0s-.68-.53-.68-.53Z"/>
  </g>
  <polygon class="cls-18" points="77.76 10.64 74.98 10.64 73.02 12.6 73.02 15.38 74.98 17.34 77.76 17.34 79.72 15.38 79.72 12.6 77.76 10.64"/>
  <polygon class="cls-34" points="77.61 10.99 75.13 10.99 73.37 12.75 73.37 15.23 75.13 16.98 77.61 16.98 79.36 15.23 79.36 12.75 77.61 10.99"/>
  <polygon class="cls-18" points="75.75 14.6 74.38 14.6 74.38 13.37 75.75 13.37 76.98 13.37 78.35 13.37 78.35 14.6 76.98 14.6 75.75 14.6"/>
  <polygon class="cls-22" points="67.7 21.22 68.17 21.22 67.93 .36 67.7 21.22"/>
  <g>
    <path class="cls-29" d="M34.37,19.3h-10.24c-.29,0-.52-.23-.52-.52v-6.77c0-.29.23-.52.52-.52h10.24c.29,0,.52.23.52.52v6.77c0,.29-.23.52-.52.52"/>
    <path class="cls-22" d="M28.03,11.82s-1.87,1.54-2.07,1.76c-.2.23-.18.47-.18.84v3.31c0,.14.14.18.25.07,0,0,.34-2.24.38-2.54.04-.3,1.56-1.22,1.56-1.22l.06-2.22Z"/>
    <path class="cls-12" d="M30.39,11.82s1.87,1.54,2.07,1.76c.2.23.18.47.18.84v3.31c0,.14-.14.18-.25.07,0,0-.34-2.24-.38-2.54-.04-.3-1.56-1.22-1.56-1.22l-.06-2.22Z"/>
    <path class="cls-22" d="M32.69,11.89s-.79,4.29-3.44,4.29-3.44-4.29-3.44-4.29h6.88Z"/>
    <path class="cls-12" d="M30.64,13.1c-.25.98-.65,2.2-1.27,3.09,1.82-.09,2.73-2.21,3.11-3.44-.46.13-1.08.27-1.84.35"/>
    <path class="cls-22" d="M31.67,12s1.87,2.27,2.07,2.5c.2.23.18.47.18.84v3.31c0,.14-.14.18-.25.07,0,0-.34-2.06-.38-2.36-.04-.3-2.37-1.45-2.37-1.45l.76-2.91Z"/>
    <path class="cls-12" d="M33.3,11.49h-8.28v.32s1.49.79,4.23.79,4.22-.79,4.22-.79v-.32h-.17Z"/>
    <path class="cls-12" d="M26.18,12.8c-.56.68-1.29,1.56-1.41,1.7-.2.23-.18.47-.18.84v3.31c0,.14.14.18.26.07,0,0,.34-2.06.38-2.36.04-.3,2.37-1.45,2.37-1.45l-.5-1.91c-.35-.06-.66-.13-.92-.2"/>
    <path class="cls-22" d="M27.34,12.47v-.98s-2.15,0-2.15,0h-.13c-.01.11-.02.22-.02.33.03.02.83.43,2.3.65"/>
    <path class="cls-13" d="M25.66,12.07v.22c0,.34.05.66.14.97.1-.12.2-.24.29-.35-.1-.32-.18-.59-.22-.78-.07-.02-.14-.05-.21-.07M31.3,15.11c-.23.29-.5.54-.8.73h1.6c-.02-.12-.04-.24-.05-.33-.27-.15-.54-.29-.75-.4M27.21,15.11s-.06.03-.09.05c.1.07.21.14.32.21-.08-.08-.15-.17-.23-.26"/>
    <path class="cls-11" d="M32.04,15.5c.01.09.03.21.05.33h.52c-.18-.11-.38-.22-.57-.33"/>
    <path class="cls-24" d="M25.87,12.14c.04.18.11.46.22.78.03-.04.06-.08.1-.12.26.07.57.14.92.2l.5,1.91s-.16.08-.39.2c.07.09.15.17.23.26.52.3,1.12.47,1.76.47h.4c.31-.53.56-1.14.75-1.73h-1.15c-.92,0-1.68-.71-1.76-1.61-.65-.09-1.18-.22-1.58-.35M31.3,15.11c-.23.29-.5.54-.8.73.3-.19.57-.44.8-.73"/>
    <path class="cls-11" d="M31.12,14.09h-.77c-.2.59-.44,1.2-.75,1.74h.9c.31-.19.57-.44.8-.73-.23-.12-.39-.2-.39-.2l.21-.81Z"/>
    <path class="cls-13" d="M34.88,14.09h-1.48c.17.2.3.35.34.41.2.23.18.47.18.84v.49h.96v-1.74Z"/>
    <path class="cls-24" d="M33.4,14.09h-2.28l-.21.81s.16.08.39.2c.21.11.47.25.74.4.2.11.39.22.57.33h1.31v-.49c0-.37.01-.61-.18-.84-.04-.05-.17-.2-.34-.41"/>
    <path class="cls-11" d="M27.44,11.49h-.1v.12s0,.85,0,.85c-.73-.11-1.29-.27-1.68-.4.07.02.13.04.21.07.39.12.92.25,1.58.35,0-.05,0-.1,0-.15v-.84Z"/>
    <path class="cls-11" d="M26.18,12.8s-.06.08-.1.12c-.1.11-.19.23-.29.35.22.77.69,1.43,1.32,1.89.03-.02.06-.03.09-.05.23-.12.39-.2.39-.2l-.5-1.91c-.35-.06-.66-.13-.92-.2"/>
    <path class="cls-24" d="M27.34,11.49h-1.68v.58c.39.13.95.29,1.68.4v-.98Z"/>
    <path class="cls-36" d="M48.76,6.11l-1.36-3.72-.83.99c-2.82-2.36-7.03-1.98-9.39.84l1.05.88c1.87-2.24,5.22-2.54,7.46-.67l-.83.99,3.9.68Z"/>
    <path class="cls-33" d="M39.77,14.09h-10.57c-.97,0-1.76-.79-1.76-1.76V1.76c0-.97.79-1.76,1.76-1.76h10.57c.97,0,1.76.79,1.76,1.76v10.57c0,.97-.79,1.76-1.76,1.76"/>
    <path d="M34.49,11.99c2.73,0,4.95-2.21,4.95-4.95s-2.21-4.95-4.95-4.95-4.95,2.21-4.95,4.95,2.22,4.95,4.95,4.95"/>
    <path class="cls-31" d="M34.49,11.58c2.5,0,4.53-2.03,4.53-4.53s-2.03-4.53-4.53-4.53-4.53,2.03-4.53,4.53,2.03,4.53,4.53,4.53"/>
  </g>
  <polygon points="34.49 6.55 34.88 2.1 34.56 6.56 35.64 2.22 34.64 6.58 36.39 2.46 34.71 6.61 37.08 2.82 34.78 6.65 37.71 3.27 34.84 6.7 38.26 3.82 34.89 6.76 38.72 4.45 34.93 6.82 39.07 5.15 34.96 6.89 39.31 5.89 34.98 6.97 39.43 6.66 34.98 7.05 39.43 7.44 34.98 7.13 39.31 8.21 34.96 7.2 39.07 8.95 34.93 7.27 38.72 9.64 34.89 7.34 38.26 10.27 34.84 7.4 37.71 10.82 34.78 7.45 37.08 11.28 34.71 7.49 36.39 11.63 34.64 7.52 35.64 11.87 34.56 7.54 34.88 12 34.49 7.54 34.1 12 34.41 7.54 33.33 11.87 34.33 7.52 32.59 11.63 34.26 7.49 31.89 11.28 34.19 7.45 31.26 10.82 34.14 7.4 30.71 10.27 34.08 7.34 30.25 9.64 34.04 7.27 29.9 8.95 34.01 7.2 29.66 8.21 34 7.13 29.54 7.44 33.99 7.05 29.54 6.66 34 6.97 29.66 5.89 34.01 6.89 29.9 5.15 34.04 6.82 30.25 4.45 34.08 6.76 30.71 3.82 34.14 6.7 31.26 3.27 34.19 6.65 31.89 2.82 34.26 6.61 32.59 2.46 34.33 6.58 33.33 2.22 34.41 6.56 34.1 2.1 34.49 6.55"/>
  <rect x="33.86" y="11.58" width="1.24" height="2.52"/>
  <rect class="cls-3" x="34.07" y="11.58" width=".83" height="2.52"/>
  <rect x="33.86" y="6.7" width="1.24" height="5.3"/>
  <g>
    <path class="cls-3" d="M34.49,10.5c1.91,0,3.45-1.54,3.45-3.45s-1.54-3.45-3.45-3.45-3.45,1.54-3.45,3.45,1.54,3.45,3.45,3.45"/>
    <path d="M34.49,3.39c-2.02,0-3.66,1.64-3.66,3.66s1.64,3.66,3.66,3.66,3.66-1.64,3.66-3.66-1.64-3.66-3.66-3.66M34.49,3.6c1.91,0,3.45,1.55,3.45,3.45s-1.54,3.45-3.45,3.45-3.45-1.54-3.45-3.45,1.54-3.45,3.45-3.45"/>
  </g>
  <rect class="cls-3" x="34.07" y="9.95" width=".83" height="2.05"/>
  <g>
    <path class="cls-15" d="M31.17,3.38c-1.01.17-1.78,1.05-1.78,2.11,0,.31.07.61.19.89.02-.16.05-.32.09-.47h-.01s.01,0,.01,0c.04-.15.08-.29.13-.43,0-.58.3-1.09.74-1.4.06-.08.12-.15.18-.23h-.01s.01,0,.01,0c.14-.16.29-.31.45-.46"/>
    <path d="M31.53,3.35c-.07,0-.13,0-.2,0l.21.24c.09-.08.19-.16.29-.23-.1-.01-.2-.02-.31-.02M31.33,3.36c-.06,0-.11.01-.16.02-.16.14-.31.3-.44.46l.09.07c.17-.08.36-.13.55-.15.06-.05.11-.11.17-.16l-.21-.25ZM30.72,3.83c-.06.08-.12.15-.18.23.08-.06.18-.11.27-.16l-.09-.07ZM29.8,5.46c-.05.14-.09.29-.12.43l.19.04c-.04-.14-.06-.3-.06-.45v-.02M29.67,5.89c-.04.16-.07.31-.09.47.05.11.11.21.17.31l.21.02c0-.13.02-.25.04-.37-.07-.12-.12-.24-.15-.38l-.19-.05ZM29.76,6.68c.06.09.12.17.2.25,0-.08,0-.15.01-.23l-.21-.02Z"/>
    <path class="cls-28" d="M31.84,3.37c-.1.07-.2.15-.29.23l.14.16c.28.02.54.11.76.26.04-.03.08-.05.12-.08l-.27-.45c-.15-.06-.3-.1-.46-.12M32.32,3.5l.27.43c.08-.05.16-.09.24-.14-.15-.12-.33-.22-.51-.29M31.54,3.6c-.06.05-.12.1-.17.15.05,0,.11,0,.16,0,.05,0,.09,0,.14,0l-.13-.15ZM30.01,6.31c-.02.12-.03.25-.04.37l.35.03c-.12-.12-.22-.25-.3-.4M29.97,6.7c0,.08,0,.15-.01.23.07.07.14.14.22.2-.04.09-.08.18-.1.26l.66-.06s.06-.1.1-.15c0-.04,0-.08,0-.12-.19-.08-.35-.2-.5-.34l-.36-.03ZM30.72,7.35l-.65.04c-.05.21-.05.39-.01.54.01.05.03.1.05.16l.58-.14s-.04-.09-.05-.14c-.03-.15,0-.3.09-.46M30.69,7.97l-.59.13c.07.19.21.39.44.57l.55-.23s-.04-.1-.06-.15c-.16-.09-.29-.2-.36-.32M31.11,8.46l-.55.22c.17.13.4.24.7.33l.1-.06c-.1-.16-.18-.32-.25-.49M31.37,8.97l-.09.05s.09.03.14.04c-.02-.03-.04-.06-.06-.09"/>
    <path d="M31.33,3.36h0l.21.25.13.15s.01,0,.02,0l-.14-.16-.21-.24ZM32.3,3.49l.27.45s.01,0,.02-.01l-.27-.42s-.01,0-.02,0M30.71,3.82h.01s.09.08.09.08c0,0,0,0,0,0l-.09-.07h-.01ZM29.66,5.89h.01s.19.05.19.05c0,0,0,0,0,0l-.18-.04h-.01ZM29.76,6.67s0,0,0,0l.21.02.36.03s-.01-.01-.02-.02l-.35-.02-.21-.02ZM30.73,7.33l-.66.06s0,0,0,0l.65-.05s0-.01.01-.02M30.68,7.95l-.58.14s0,0,0,0l.58-.14s0-.01,0-.02M31.1,8.44l-.55.23s0,0,.01,0l.55-.22s0-.01,0-.02M31.36,8.95l-.1.06s.02,0,.03,0l.09-.05s0-.01-.01-.02"/>
    <path class="cls-28" d="M33,3.93c-.1.05-.21.1-.3.16.1-.06.2-.11.3-.16M32.67,4.11s-.03.02-.05.03c.02-.01.03-.02.05-.03"/>
    <path d="M32.69,4.1s-.02,0-.02.01c0,0,.01,0,.02-.01"/>
    <path class="cls-15" d="M39.41,6.53s0,.09.01.13h.01s-.03-.13-.03-.13ZM39.43,6.66h-.01c0,.13.01.26.01.39s0,.26-.01.39h.01s-.01,0-.01,0c0,.03,0,.07,0,.1.1-.13.13-.29.1-.45l-.08-.43Z"/>
    <path d="M38.86,5.87s.02.08.03.12l.2-.04c-.07-.04-.15-.07-.23-.08M39.09,5.94l-.2.05c.05.23.09.46.11.69l.41-.03s0-.09-.01-.13l-.04-.19c-.03-.17-.13-.31-.28-.4M39.42,6.66l-.41.04c0,.12.01.23.01.35s0,.23-.01.35l.41.04c.01-.13.02-.26.02-.39s0-.26-.02-.39M39,7.41c-.01.13-.03.25-.05.38.16,0,.31-.08.41-.19.01-.02.03-.03.04-.05,0-.03,0-.07,0-.1l-.41-.03Z"/>
    <path class="cls-28" d="M38.79,5.86c-.07,0-.13.01-.19.03l-.58.2s.01.06.02.09l.85-.2s-.02-.08-.03-.12c-.02,0-.05,0-.07,0M38.9,5.99l-.85.21c.04.18.07.36.09.54l.87-.06c-.02-.24-.05-.47-.11-.7M39.01,6.7l-.87.08c0,.09.01.18.01.28v.06l.29.02c-.09.06-.19.13-.3.19h0s.87.08.87.08c0-.12.01-.23.01-.35s0-.24-.01-.35M38.13,7.35c-.01.19-.04.37-.09.54l.18.04c.11-.06.22-.12.32-.18l.34.03h.05s.02,0,.02,0c.02-.12.04-.25.05-.38l-.87-.06ZM38.04,7.91s-.02.09-.04.14c.07-.03.14-.07.2-.1l-.16-.04Z"/>
    <path d="M39.09,5.94l-.2.04-.85.2s0,.01,0,.02l.85-.21.2-.05s0,0,0,0c0,0,0,0,0,0M39.43,6.66h-.01s-.41.03-.41.03l-.87.06s0,.02,0,.02l.87-.08.41-.04h.01ZM38.13,7.32s0,.02,0,.02l.87.06.41.03h.01s-.01,0-.01,0l-.41-.04-.87-.08ZM38.05,7.89s0,.02,0,.02l.16.04s.02-.01.03-.01l-.18-.05Z"/>
    <path class="cls-28" d="M37.82,6.16h0s.01.04.02.07c0-.02-.01-.04-.02-.07M37.85,6.25h0c.04.16.07.34.08.51-.01-.17-.04-.34-.08-.51M37.93,6.79h0c0,.09,0,.17,0,.26h0c0-.09,0-.17,0-.26"/>
    <path d="M37.84,6.23h0s0,.02,0,.03c0,0,0-.02,0-.03M37.93,6.76h0s0,.02,0,.03c0,0,0-.02,0-.03"/>
    <path class="cls-40" d="M33,3.93c-.1.05-.21.1-.3.16,0,0-.01,0-.02.01-.02,0-.03.02-.05.03.1.09.2.18.28.29.16.14.28.3.37.49.21-.12.45-.21.7-.27.17-.04.35-.05.52-.05,1.13,0,2.15.79,2.4,1.94.07.31.07.62.02.92.26-.12.5-.25.69-.38l.34.02v-.05c0-.09,0-.17,0-.26,0,0,0-.02,0-.03-.01-.17-.04-.34-.08-.51,0,0,0-.02,0-.03,0-.02-.01-.04-.02-.06l-.39.13c-.34-1.33-1.56-2.29-2.94-2.29-.19,0-.38.02-.57.05h-.07c-.1.04-.2.06-.3.09-.09.03-.18.06-.27.1-.08-.12-.18-.23-.28-.32M32.03,7.14c-.09.03-.18.05-.28.06-.09.14-.12.27-.09.39.04.21.26.37.6.48-.07-.16-.13-.33-.17-.51-.03-.14-.05-.29-.05-.42M37.91,7.44c-.33.18-.72.34-1.14.5-.29.74-.92,1.32-1.75,1.51h0s0,0,0,0h0s0,0,0,0c-.17.04-.35.05-.52.05-.73,0-1.42-.33-1.88-.88-.51-.02-.96-.09-1.29-.21.11.26.25.49.41.71.18.03.38.06.61.07.47.47,1.08.78,1.74.87v-.11h.83v.11c.07-.01.15-.02.23-.04.11-.02.23-.06.36-.1l.1-.04c.09-.03.18-.07.27-.12l.07-.03c.21-.11.4-.25.58-.41l.04-.03.04-.04c.26-.24.47-.53.62-.85.19-.07.37-.15.54-.22.08-.23.14-.48.17-.73"/>
    <path d="M32.83,3.79c-.08.04-.16.09-.24.14,0,0-.01,0-.02.01-.04.03-.08.05-.12.08.06.04.12.08.18.13.02-.01.03-.02.05-.03,0,0,.01,0,.02-.01.1-.06.2-.11.3-.16-.05-.05-.11-.1-.17-.15M38.02,6.1l-.2.07s.01.04.02.07c0,0,0,.02,0,.03.04.16.07.33.08.51,0,0,0,.02,0,.03,0,.09,0,.17,0,.26v.05h.21v-.05c0-.09,0-.18-.01-.28,0,0,0-.02,0-.02-.01-.19-.04-.37-.09-.54,0,0,0-.01,0-.02,0-.03-.01-.06-.02-.09M30.83,7.06s0,.08,0,.12c.02-.03.05-.06.07-.09-.03-.01-.05-.02-.08-.03M38.13,7.32c-.07.04-.14.08-.22.12-.03.25-.09.5-.17.73.09-.04.17-.08.25-.12.01-.05.03-.09.04-.14,0,0,0-.01,0-.02.04-.18.07-.36.09-.54,0,0,0-.02,0-.02,0,0,0,0,0,0M31.05,8.29s.04.1.06.15c0,0,0,.01,0,.02.07.17.16.33.25.49,0,0,0,.01.01.02.02.03.04.06.06.09.09.02.19.04.3.06-.16-.22-.3-.46-.41-.71-.1-.04-.19-.08-.27-.12"/>
    <path class="cls-40" d="M34.9,9.95h-.83v.11c.14.02.27.03.41.03h.03c.13,0,.26-.01.39-.03v-.11Z"/>
    <path class="cls-27" d="M31.53,7.12c-.9,0-1.64-.74-1.64-1.64s.74-1.64,1.64-1.64,1.64.74,1.64,1.64-.74,1.64-1.64,1.64"/>
    <path class="cls-22" d="M31.53,3.75c-.95,0-1.73.78-1.73,1.73s.78,1.73,1.73,1.73,1.73-.78,1.73-1.73-.78-1.73-1.73-1.73M31.53,3.93c.85,0,1.55.69,1.55,1.55s-.69,1.55-1.55,1.55-1.55-.69-1.55-1.55.69-1.55,1.55-1.55"/>
    <path class="cls-22" d="M36.88,6.53c-.29-1.32-1.59-2.17-2.91-1.88-1.32.28-2.17,1.59-1.88,2.91.28,1.33,1.59,2.17,2.91,1.88,1.32-.28,2.17-1.59,1.88-2.91"/>
    <path class="cls-33" d="M33.26,6.96c-.19-.88.12-1.75.74-2.32h-.03c-1.33.29-2.17,1.59-1.88,2.92.28,1.32,1.59,2.17,2.91,1.88.44-.1.83-.31,1.15-.59-1.32.27-2.6-.57-2.88-1.89"/>
  </g>
  <polygon class="cls-26" points="37.06 7.05 38.93 7.2 38.79 6.45 37.06 7.05"/>
  <path class="cls-26" d="M37.6,7.07c-.55.37-1.41.72-2.42.94-1.81.39-3.38.2-3.51-.42-.05-.22.09-.47.38-.71.01-.23.06-.45.14-.66-1.03.5-1.65,1.09-1.54,1.59.18.82,2.24,1.06,4.62.55,1.32-.28,2.46-.74,3.18-1.24l-.84-.06Z"/>
  <polygon class="cls-6" points="34.34 5.34 33.84 5.7 33.84 6.23 34.34 5.86 34.34 8.78 34.83 8.78 34.83 5.34 34.34 5.34"/>
  <g>
    <path class="cls-4" d="M32.9,4.43c.12.16.22.34.28.54.03-.02.06-.04.09-.05-.09-.18-.21-.35-.37-.49"/>
    <path class="cls-32" d="M31.53,3.93h-.08s0,.11,0,.11v2.61c.21-.14.46-.29.74-.42.16-.46.46-.86.85-1.15-.18-.66-.78-1.14-1.5-1.14M32.04,6.88s-.07.06-.1.09c.03,0,.07-.02.1-.03,0-.02,0-.04,0-.06"/>
    <path class="cls-25" d="M31.53,3.93h0c.71,0,1.32.48,1.49,1.14.05-.04.1-.07.16-.11-.06-.2-.16-.38-.28-.54-.34-.3-.83-.49-1.37-.49M32.03,6.95s-.06.02-.1.03c0,0-.01.01-.02.02.04,0,.08-.02.12-.02,0,0,0-.02,0-.03"/>
    <path class="cls-25" d="M33.27,4.91s-.06.03-.09.05c-.05.03-.11.07-.16.11-.39.29-.69.69-.85,1.15.2-.55.58-1.02,1.1-1.31M33.4,5.49c-.09.21-.15.42-.18.65.11-.2.17-.42.18-.65M32.04,6.88h0s0,.04,0,.06c0,0,0,.02,0,.03,0-.03,0-.06,0-.09"/>
    <path class="cls-5" d="M33.27,4.91c-.52.29-.9.76-1.1,1.31h0c-.07.21-.12.43-.14.66h0s0,.06,0,.09c.53-.12.96-.43,1.19-.84.03-.22.09-.44.18-.65h0c0-.21-.05-.4-.13-.58"/>
    <path class="cls-16" d="M32.17,6.23h0c-.28.14-.53.28-.74.42v.38s.09,0,.09,0c.13,0,.26-.01.39-.03,0,0,.01-.01.02-.02.03-.03.07-.06.1-.09h0c.01-.23.06-.45.14-.66"/>
    <path class="cls-37" d="M33.08,5.48c0,.86-.69,1.55-1.55,1.55s-1.55-.69-1.55-1.55.69-1.55,1.55-1.55,1.55.69,1.55,1.55"/>
    <path class="cls-34" d="M32.93,5.48c0,.77-.62,1.4-1.4,1.4s-1.39-.62-1.39-1.4.62-1.4,1.39-1.4,1.4.62,1.4,1.4"/>
  </g>
  <polygon class="cls-37" points="32.45 5.2 31.81 5.2 31.81 4.56 31.25 4.56 31.25 5.2 30.61 5.2 30.61 5.77 31.25 5.77 31.25 6.4 31.81 6.4 31.81 5.77 32.45 5.77 32.45 5.2"/>
  <rect class="cls-2" x="48.5" y="8.17" width="12.39" height="4.1" transform="translate(8.79 41.67) rotate(-45)"/>
  <g>
    <path class="cls-1" d="M57.56,4.32c-1.6-1.6-4.19-1.6-5.79,0l-2.97,2.97c-1.6,1.6-1.6,4.19,0,5.79l.06.06,8.76-8.76-.06-.06Z"/>
    <path class="cls-9" d="M60.52,7.29l-8.76,8.76h0c1.6,1.61,4.19,1.61,5.79,0l2.97-2.97c1.6-1.6,1.6-4.19,0-5.79h0Z"/>
    <path class="cls-6" d="M55.06,14.52c2.21-.12,3.89-2.1,3.92-3.92-.11-.02-.21-.03-.32-.05v-.72c.11-.01.21-.02.31-.03,0-1.95-1.96-3.92-3.91-3.9,0,.1-.02.2-.03.29h-.73c-.01-.12-.03-.22-.04-.31-2.24.09-3.93,2.23-3.89,3.92.1,0,.2.02.29.03v.73c-.11.01-.21.02-.3.03-.01,1.85,1.81,3.87,3.91,3.92,0-.11.02-.21.03-.32h.73c0,.11.02.21.03.33M54.67,15.35c-2.85-.02-5.17-2.28-5.16-5.17,0-2.87,2.3-5.16,5.17-5.16,2.89,0,5.16,2.33,5.15,5.18-.01,2.87-2.32,5.12-5.16,5.15"/>
    <path class="cls-6" d="M55.26,10.18c0-.32-.27-.59-.59-.59-.32,0-.61.29-.6.61,0,.32.29.58.61.57.32,0,.58-.27.58-.59M52.25,12.6c.48-1.11.94-2.17,1.41-3.22.03-.08.11-.16.18-.19,1.05-.46,2.11-.92,3.17-1.38l.04.02c-.17.4-.35.8-.52,1.2-.28.64-.55,1.27-.83,1.91-.04.1-.08.2-.2.25-1.07.46-2.13.92-3.26,1.41"/>
    <path class="cls-6" d="M63.09,15.09c0-2.06-1.67-3.73-3.73-3.73s-3.73,1.67-3.73,3.73,1.67,3.73,3.73,3.73,3.73-1.67,3.73-3.73"/>
    <path class="cls-23" d="M62.53,15.09c0-1.75-1.42-3.17-3.17-3.17s-3.17,1.42-3.17,3.17,1.42,3.17,3.17,3.17,3.17-1.42,3.17-3.17"/>
  </g>
  <path class="cls-6" d="M61.29,16.65h-3.87v-.94h3.87v.94ZM61.29,14.47h-3.87v-.94h3.87v.94Z"/>
  <g>
    <path d="M17.25.52v4.53l3.81,3.81c.32.32.47.73.47,1.15s-.16.83-.47,1.15l-3.81,3.81v4.04h.31v-3.91l3.72-3.72c.38-.38.57-.87.57-1.37s-.19-.99-.57-1.37l-3.72-3.72V.52h-.31Z"/>
    <path class="cls-30" d="M18.33,5.7l2.95,2.95c.38.38.57.87.57,1.37s-.19.99-.57,1.37l-2.95,2.95,4.02-3.06c.91-.7.91-1.82,0-2.52l-4.02-3.06Z"/>
    <path d="M17.4,4.99l3.77,3.77c.7.7.7,1.82,0,2.51l-3.77,3.77.93-.71,2.95-2.95c.38-.38.57-.87.57-1.37s-.19-.99-.57-1.37l-2.95-2.95-.93-.71Z"/>
  </g>
</svg>