<?xml version="1.0" encoding="UTF-8"?>
<svg id="Layer_1" xmlns="http://www.w3.org/2000/svg" viewBox="0 0 114.27 21.19">
  <defs>
    <style>
      .cls-1 {
        fill: #f58220;
      }

      .cls-2 {
        fill: #81659c;
      }

      .cls-3 {
        fill: #9e88b1;
      }

      .cls-4 {
        fill: #ed1d24;
      }

      .cls-5 {
        fill: #c4b6d0;
      }

      .cls-6 {
        fill: #0082c7;
      }

      .cls-7 {
        fill: #bde3e0;
      }

      .cls-8 {
        fill: #fff;
      }

      .cls-9 {
        fill: #89cfc9;
      }

      .cls-10 {
        fill: #1c449c;
      }

      .cls-11 {
        fill: #927aa8;
      }

      .cls-12 {
        fill: #50bfb7;
      }

      .cls-13 {
        fill: #dbc5aa;
      }

      .cls-14 {
        fill: #e7d9c7;
      }

      .cls-15 {
        fill: #73c8c2;
      }

      .cls-16 {
        fill: #90c1ae;
      }

      .cls-17 {
        fill: #f89644;
      }

      .cls-18 {
        fill: #f15a29;
      }

      .cls-19 {
        fill: #bf9a6b;
      }

      .cls-20 {
        fill: #fdc99b;
      }

      .cls-21 {
        fill: #262262;
      }

      .cls-22 {
        fill: #939598;
      }

      .cls-23 {
        fill: #e79159;
      }

      .cls-24 {
        fill: #faa74a;
      }

      .cls-25 {
        fill: #f9a45e;
      }

      .cls-26 {
        fill: #00bcf2;
      }
    </style>
  </defs>
  <path d="M17.87,2.03v4.7l3.95,3.95c.33.33.49.76.49,1.19s-.16.86-.49,1.19l-3.95,3.95v4.19h.32v-4.05l3.86-3.86c.39-.39.59-.9.59-1.42s-.2-1.03-.59-1.42l-3.86-3.86V2.03h-.32Z"/>
  <polygon class="cls-19" points="61.71 0 61.95 21.19 62.19 0 61.71 0"/>
  <g>
    <path class="cls-22" d="M19.29,7.68l2.76,2.76c.39.39.59.9.59,1.42s-.2,1.03-.59,1.42l-3.35,3.35,4.46-3.4c.95-.72.95-1.89,0-2.61l-3.87-2.95Z"/>
    <path d="M18.04,6.73l3.9,3.9c.72.72.72,1.89,0,2.61l-3.9,3.9.67-.51,3.35-3.35c.39-.39.59-.9.59-1.42s-.2-1.03-.59-1.42l-2.76-2.76-1.26-.96Z"/>
    <path class="cls-21" d="M92.44,16.31h-20.48c-.63,0-1.14-.51-1.14-1.14v-6.07c0-.63.51-1.14,1.14-1.14h20.48c.63,0,1.14.51,1.14,1.14v6.07c0,.63-.51,1.14-1.14,1.14"/>
    <path class="cls-18" d="M70.82,11.63c0,.11,0,.22,0,.33,0,.23,0,.46,0,.68h13.2v-1.01h-13.21Z"/>
  </g>
  <polygon class="cls-13" points="89.42 12.14 83.48 9.65 83.48 14.63 89.42 12.14"/>
  <rect class="cls-4" x="68.38" y="10.2" width="27.63" height="3.09" transform="translate(5.14 42.67) rotate(-30)"/>
  <g>
    <path class="cls-8" d="M105.14,11.61c-.14-.62-.36-1.82-.53-2.78-.06-.36-.21-.69-.42-.97-.29-.39-.71-.69-1.2-.83l-.48-.14-.23-.27h0v-.29c.23-.27.37-.8.37-1.19,0-.86-.66-1.56-1.48-1.56s-1.48.7-1.48,1.56c0,.39.14.92.37,1.19v.29l-.23.27-.48.14c-.84.24-1.47.94-1.62,1.8-.08.45-.17.96-.26,1.44-.1.53-.19,1.01-.26,1.34-.25,1.13,1.23,1.62,1.23,1.62l-.24,2.57-.39,4.11h2.93l.43-3.16.43,3.16h2.93l-.58-6.18-.05-.51s1.48-.49,1.23-1.62"/>
    <path class="cls-7" d="M101.17,3.58c-.82,0-1.48.7-1.48,1.56,0-.86.66-1.56,1.48-1.56s1.48.7,1.48,1.56c0-.86-.66-1.56-1.48-1.56M102.44,6.07c-.05.1-.1.19-.16.26v.29-.29c.06-.07.11-.16.16-.26M99.89,6.07c.05.1.1.19.16.26-.06-.07-.11-.16-.16-.26M102.28,6.62h0l.23.27.48.14s.02,0,.03,0c-.01,0-.02,0-.03,0l-.48-.14-.23-.27ZM100.05,6.62l-.23.27-.48.14.48-.14.23-.27ZM98.53,7.47c-.42.34-.71.82-.8,1.37-.02.1-.04.21-.06.31.02-.11.04-.21.06-.31.1-.55.39-1.03.8-1.37M97.47,10.22s0,.04-.01.06c0-.02,0-.04.01-.06"/>
    <path class="cls-7" d="M101.17,3.58c-.82,0-1.48.7-1.48,1.56,0,.29.07.65.21.93.05.1.1.19.16.26v.29h0s-.23.27-.23.27l-.48.14c-.3.09-.58.24-.82.43-.42.34-.71.82-.8,1.37-.02.1-.04.21-.06.31-.06.35-.13.72-.2,1.07,0,.02,0,.04-.01.06l3.96-1.42s0-.01,0-.02c.08-.47.31-.89.63-1.21h0c.26-.27.59-.47.97-.58,0,0-.02,0-.03,0l-.48-.14-.23-.27h0v-.29c.06-.07.11-.16.16-.26.13-.28.2-.64.2-.93,0-.86-.66-1.56-1.48-1.56"/>
  </g>
  <path class="cls-5" d="M101.17,16.75l-.29,2.11.29-2.11.29,2.11-.29-2.11ZM97.93,18.55l-.13,1.37.13-1.37Z"/>
  <path class="cls-5" d="M102.01,14.43l-3.83,1.38-.26,2.74-.13,1.37h2.93l.14-1.06.29-2.11.29,2.11.09.63.35-3.68.13-1.38ZM104.49,19.49l-.06.43h.1l-.04-.43Z"/>
  <g>
    <path class="cls-20" d="M97.17,11.9h0s0,0,0,0ZM97.17,11.91c.04.92,1.24,1.32,1.26,1.32h0s-1.22-.4-1.26-1.32"/>
    <path class="cls-20" d="M101.42,8.86l-3.96,1.42c-.03.17-.07.34-.1.51-.06.32-.12.61-.17.83-.02.1-.03.19-.03.28h0c.04.93,1.26,1.33,1.26,1.33h0s-.24,2.58-.24,2.58l3.83-1.37.05-.54.06-.66s-.68-.22-1.04-.71c-.17-.24-.27-.54-.19-.9.07-.33.17-.81.26-1.34.07-.35.13-.72.2-1.07.02-.12.04-.24.06-.35"/>
    <path class="cls-20" d="M97.46,10.28h0c-.03.17-.07.34-.1.51.03-.16.06-.33.1-.51Z"/>
    <path class="cls-8" d="M108.84,11.61c-.14-.62-.36-1.82-.53-2.78-.06-.36-.21-.69-.42-.97-.29-.39-.71-.69-1.2-.83l-.48-.14-.23-.27v-.29c.23-.27.37-.8.37-1.19,0-.86-.66-1.56-1.48-1.56s-1.48.7-1.48,1.56c0,.39.14.92.37,1.19v.29l-.23.27-.48.14c-.84.24-1.47.94-1.62,1.8-.08.45-.17.96-.26,1.44-.1.53-.19,1.01-.26,1.34-.25,1.13,1.23,1.62,1.23,1.62l-.24,2.57-.39,4.11h2.93l.43-3.16.43,3.16h2.93l-.58-6.18-.05-.51s1.48-.49,1.23-1.62"/>
    <path class="cls-9" d="M104.87,3.58c-.82,0-1.48.7-1.48,1.56,0,.39.14.92.37,1.19-.23-.27-.37-.8-.37-1.19,0-.86.66-1.56,1.48-1.56.57,0,1.06.34,1.31.83-.25-.5-.74-.83-1.31-.83M106.18,4.42s0,0,0,0c0,0,0,0,0,0M106.18,5.98h0M106.18,5.98c-.05.14-.12.26-.2.35v.29-.29c.08-.09.14-.21.2-.35M105.98,6.62h0l.23.27.48.14c.35.1.66.28.91.52-.26-.24-.57-.41-.91-.52l-.48-.14-.23-.27ZM103.75,6.62l-.23.27-.48.14.48-.14.23-.27ZM107.6,7.55h0"/>
    <path class="cls-15" d="M102.05,7.63h0ZM102.05,7.63c-.32.33-.54.74-.63,1.21,0,0,0,.01,0,.02,0,0,0-.01,0-.02.08-.47.31-.89.63-1.21"/>
    <path class="cls-16" d="M101.42,8.86h0c-.02.11-.04.23-.06.35.02-.12.04-.24.06-.35"/>
    <path class="cls-9" d="M104.87,3.58c-.82,0-1.48.7-1.48,1.56,0,.39.14.92.37,1.19v.29h0s-.23.27-.23.27l-.48.14c-.38.11-.72.32-.99.59,0,0,0,0,0,0-.32.32-.54.74-.63,1.21,0,0,0,.01,0,.02-.02.11-.04.23-.06.35-.06.35-.13.72-.2,1.07l6.73-2.41c-.08-.11-.18-.22-.28-.32h0c-.26-.24-.57-.42-.91-.52l-.48-.14-.23-.27h0v-.29c.08-.09.15-.22.2-.35h0c.11-.26.17-.58.17-.84s-.06-.51-.16-.72c0,0,0,0,0,0,0,0,0,0,0,0-.25-.5-.74-.84-1.31-.84"/>
  </g>
  <path class="cls-3" d="M101.5,19.92l.04-.43-.04.43Z"/>
  <path class="cls-11" d="M101.54,19.49l.34-3.68-.34,3.68Z"/>
  <path class="cls-3" d="M104.87,16.75l-.23,1.67.23-1.67ZM108.19,19.46l.04.45-.04-.45Z"/>
  <polygon class="cls-3" points="107.66 13.73 101.89 15.8 101.54 19.49 101.5 19.92 104.43 19.92 104.64 18.42 104.87 16.75 105.3 19.92 108.23 19.92 108.19 19.46 107.66 13.73"/>
  <g>
    <path class="cls-25" d="M108.01,8.05c.15.24.25.51.3.79.13.75.3,1.64.43,2.3-.13-.65-.29-1.55-.43-2.3-.05-.29-.15-.55-.3-.79"/>
    <path class="cls-17" d="M101.09,12.52c.36.49,1.03.71,1.03.71,0,0-.67-.22-1.03-.71"/>
    <path class="cls-25" d="M108.6,12.57c-.37.45-.99.66-.99.66,0,0,.62-.21.99-.66"/>
  </g>
  <path class="cls-23" d="M101.89,15.8l.13-1.37-.13,1.37Z"/>
  <path class="cls-17" d="M102.01,14.43l.05-.54-.05.54Z"/>
  <g>
    <path class="cls-25" d="M107.89,7.87h0l-6.73,2.41c-.1.53-.19,1.01-.26,1.34-.08.37.02.67.19.9.36.49,1.04.71,1.04.71l-.06.66-.05.54-.13,1.37,5.77-2.07-.05-.5h0s.62-.21.99-.66c.2-.24.32-.56.24-.96-.03-.14-.06-.3-.1-.48-.13-.65-.29-1.55-.43-2.3-.05-.29-.15-.55-.3-.79-.04-.06-.08-.12-.12-.18"/>
    <path class="cls-12" d="M110.39,7.03l-.48-.14-.23-.27v-.29c.23-.28.37-.8.37-1.19,0-.86-.66-1.56-1.48-1.56s-1.48.7-1.48,1.56c0,.39.14.92.37,1.19v.29l-.23.27-.48.14c-.84.25-1.47.94-1.62,1.8-.08.46-.17.96-.26,1.44l6.73-2.41c-.29-.39-.71-.69-1.2-.83"/>
  </g>
  <polygon class="cls-2" points="105.59 15.8 105.2 19.91 108.14 19.91 108.57 16.75 109 19.91 111.94 19.91 111.36 13.73 105.59 15.8"/>
  <path class="cls-1" d="M111.31,13.23s1.48-.48,1.23-1.62c-.14-.62-.36-1.82-.53-2.78-.06-.36-.21-.69-.42-.97l-6.73,2.41c-.1.53-.19,1.01-.26,1.34-.25,1.13,1.23,1.62,1.23,1.62l-.24,2.57,5.77-2.07-.05-.5Z"/>
  <rect class="cls-4" x="94.9" y="11.13" width="19.94" height="3.09" transform="translate(7.71 54.13) rotate(-30)"/>
  <g>
    <path class="cls-24" d="M44.41,9.52l-2.32-4.01-.76,1.31c-3.73-2.15-8.51-.87-10.66,2.86l1.39.8c1.71-2.96,5.5-3.98,8.46-2.27l-.76,1.31h4.63Z"/>
    <path class="cls-19" d="M38.46,10.11l-1.39-3.67-1.53-.98-.23-.31v-.33c.23-.31.37-.72.37-1.17,0-.98-.66-1.78-1.48-1.78s-1.48.8-1.48,1.78c0,.45.14.86.37,1.17v.33l-.23.31-1.53.98-1.5,3.13.14,1.68,1.05.32.43-.17v.46s.03,0,.03,0l-.02.82-.71,7.61h2.82l.63-4.36.55,4.36h2.82l-.63-7.61v-.38s1.52-1.11,1.52-1.11v-1.08Z"/>
    <path class="cls-14" d="M34.1,11.26s-.05-.35.09-.54c.05-.07.13-.11.22-.12.5-.06.59.5.59.52h.04s-.95.15-.95.15ZM34.06,11.26h0,0ZM35.09,11.08s-.03-.12-.08-.22l1.97-1.33-.05-.07-1.96,1.32-.07-.09,1.91-1.35-.05-.07-1.92,1.36c-.1-.09-.24-.16-.44-.13-.06,0-.12.03-.17.06l-2.48-.91-.03.08,2.44.89-.04.04-.05.08-2.42-.82-.03.08,2.42.82-.03.13-2.45-.78-.03.08,2.47.78c0,.1,0,.18,0,.21l-2.61-.75.83,1.31,2.24.47.46-.06v-.63s.37-.33.37-.33l1.32-.51.41-.57.16-.55-2.11,1.45Z"/>
  </g>
  <polygon class="cls-14" points="31.73 7.49 32.32 8.51 32.59 8.53 31.93 7.38 31.73 7.49"/>
  <polygon class="cls-14" points="32.66 9.12 32.82 9.4 33.15 9.75 33.02 9.29 32.91 9.11 32.66 9.12"/>
  <polygon class="cls-14" points="32.86 5.46 33.5 6.44 33.79 5.75 33.09 5.14 32.86 5.46"/>
  <polygon class="cls-14" points="33.5 7.96 33.83 8.79 34.07 6.63 33.83 6.33 33.5 7.96"/>
  <polygon class="cls-14" points="34.61 5.75 34.9 6.44 35.54 5.46 35.31 5.14 34.61 5.75"/>
  <polygon class="cls-14" points="34.33 6.63 34.57 8.79 34.9 7.97 34.57 6.33 34.33 6.63"/>
  <g>
    <path class="cls-19" d="M51.08,14.88c-.48,0-.88.22-1.15.42v1.65c.36.08.76.11,1,.02.21-.12.53-1.17.36-1.83-.07-.26-.17-.26-.21-.26"/>
    <path class="cls-19" d="M51.22,17.7c-.2.08-.44.11-.67.11-.21,0-.43-.03-.62-.06v1.37h-.48l-.46.47h-3.75l-.45-.47h-.48v-5.32h5.62v.57c.32-.16.71-.28,1.15-.28.51,0,.89.37,1.01.99.16.83-.14,2.34-.86,2.63M45.66,10.71l.46-.25s.49.93,0,1.74c-.32.52,0,1.14,0,1.14l-.46.25s-.47-.88,0-1.67c.34-.56,0-1.21,0-1.22M46.89,10.71l.46-.25s.49.93,0,1.74c-.32.52,0,1.14,0,1.14l-.46.25s-.47-.88,0-1.67c.34-.56,0-1.21,0-1.22M48.11,10.71l.46-.25s.49.93,0,1.74c-.32.52,0,1.14,0,1.14l-.46.25s-.47-.88,0-1.67c.34-.56,0-1.21,0-1.22M47.12,9.08l-6.34,3.25v7.95h12.68v-7.95l-6.34-3.25Z"/>
    <path class="cls-21" d="M5.44,19.26l-3.88-3.88c-2.08-2.08-2.08-5.46,0-7.55l3.88-3.88c2.08-2.08,5.46-2.08,7.55,0l3.88,3.88c2.08,2.08,2.08,5.46,0,7.55l-3.88,3.88c-2.08,2.08-5.46,2.08-7.55,0"/>
    <path class="cls-10" d="M17.39,11.61c0-.17-.01-.35-.03-.52h0c-2.57-1.16-5.31-1.75-8.14-1.75s-5.56.59-8.14,1.75h0c-.02.17-.03.34-.03.52,0,1.15.45,2.23,1.26,3.04l3.88,3.88c.81.81,1.89,1.26,3.04,1.26s2.23-.45,3.04-1.26l3.88-3.88c.81-.81,1.26-1.89,1.26-3.04"/>
    <path class="cls-6" d="M17.23,12.74l-.41-.19c-2.4-1.1-4.96-1.66-7.61-1.66s-5.21.56-7.61,1.66l-.41.19c.19.71.57,1.37,1.1,1.9l3.88,3.88c.81.81,1.89,1.26,3.04,1.26s2.23-.45,3.04-1.26l3.88-3.88c.54-.54.91-1.19,1.1-1.9"/>
    <path class="cls-8" d="M8.21,5.41c-.11,0-.21-.08-.22-.19-.02-.12.07-.24.19-.25.34-.05.69-.07,1.03-.07h.12c.12,0,.22.11.22.23,0,.12-.1.22-.22.22h-.12c-.32,0-.65.02-.97.07h-.03ZM12.55,6.2l-.11-.03c-.31-.18-.64-.33-.98-.45-.12-.04-.18-.17-.14-.29.04-.12.17-.18.29-.13.37.13.72.29,1.05.48.11.06.15.2.08.31-.04.07-.12.11-.2.11M5.14,6.69c-.07,0-.13-.03-.18-.09-.08-.1-.06-.24.04-.32.3-.24.63-.45.98-.63.11-.06.24-.01.3.1.06.11.01.25-.09.3-.32.17-.63.37-.91.58l-.14.05ZM14.82,8.61c-.09,0-.17-.05-.21-.13-.15-.32-.33-.63-.55-.92-.07-.1-.06-.24.04-.32.1-.07.24-.06.32.04.24.31.45.65.6,1,.05.11,0,.25-.11.3l-.09.02ZM3.32,9.45h-.05c-.12-.03-.2-.15-.17-.28.09-.38.23-.75.41-1.1.06-.11.19-.15.3-.1.11.06.15.19.1.3-.16.32-.29.66-.37,1-.02.1-.12.17-.22.17M14.99,11.89h-.07c-.12-.05-.18-.18-.14-.3.11-.34.18-.69.21-1.04,0-.12.11-.22.24-.21.12,0,.22.12.21.24-.03.39-.11.78-.23,1.15-.03.09-.12.15-.21.15M3.8,12.7c-.08,0-.15-.04-.2-.11-.2-.35-.35-.71-.45-1.08-.03-.12.04-.24.16-.28.12-.03.24.04.28.15.1.34.23.67.41.98.06.11.02.24-.08.31l-.11.03ZM6.25,14.93l-.1-.02c-.35-.17-.69-.37-1-.6-.1-.07-.12-.21-.05-.31.07-.1.21-.12.31-.05.29.21.6.4.93.56.11.05.16.19.1.3-.04.08-.12.13-.2.13M9.21,15.6c-.28,0-.56-.02-.84-.05-.12-.01-.21-.13-.2-.25.01-.12.13-.21.25-.2.26.03.52.05.79.05.12,0,.22.1.22.22s-.1.22-.22.22"/>
  </g>
  <polygon class="cls-8" points="16.34 11.73 14.39 13.44 13.88 10.89 16.34 11.73"/>
  <g>
    <path class="cls-26" d="M9.21,14.01c-2.22,0-4.32.48-6.22,1.34l3.18,3.18c.3.3.64.56,1.01.75,1.28.61,2.77.61,4.05,0,.37-.2.71-.45,1.01-.75l3.18-3.18c-1.9-.86-4-1.34-6.22-1.34"/>
    <path class="cls-24" d="M44.41,9.52l-2.32-4.01-.76,1.31c-3.73-2.15-8.51-.87-10.66,2.86l1.39.8c1.71-2.96,5.5-3.98,8.46-2.27l-.76,1.31h4.63Z"/>
    <path class="cls-19" d="M38.46,10.11l-1.39-3.67-1.53-.98-.23-.31v-.33c.23-.31.37-.72.37-1.17,0-.98-.66-1.78-1.48-1.78s-1.48.8-1.48,1.78c0,.45.14.86.37,1.17v.33l-.23.31-1.53.98-1.5,3.13.14,1.68,1.05.32.43-.17v.46s.03,0,.03,0l-.02.82-.71,7.61h2.82l.63-4.36.55,4.36h2.82l-.63-7.61v-.38s1.52-1.11,1.52-1.11v-1.08Z"/>
    <path class="cls-14" d="M34.1,11.26s-.05-.35.09-.54c.05-.07.13-.11.22-.12.5-.06.59.5.59.52h.04s-.95.15-.95.15ZM34.06,11.26h0,0ZM35.09,11.08s-.03-.12-.08-.22l1.97-1.33-.05-.07-1.96,1.32-.07-.09,1.91-1.35-.05-.07-1.92,1.36c-.1-.09-.24-.16-.44-.13-.06,0-.12.03-.17.06l-2.48-.91-.03.08,2.44.89-.04.04-.05.08-2.42-.82-.03.08,2.42.82-.03.13-2.45-.78-.02.08,2.47.78c0,.1,0,.18,0,.21l-2.61-.75.83,1.31,2.24.47.46-.06v-.63s.37-.33.37-.33l1.32-.51.41-.57.16-.55-2.11,1.45Z"/>
  </g>
  <polygon class="cls-14" points="31.73 7.49 32.32 8.52 32.59 8.53 31.93 7.38 31.73 7.49"/>
  <polygon class="cls-14" points="32.66 9.12 32.82 9.4 33.15 9.75 33.02 9.29 32.91 9.11 32.66 9.12"/>
  <polygon class="cls-14" points="33.09 5.14 34.06 5.64 33.58 6.3 32.86 5.46 33.09 5.14"/>
  <polygon class="cls-14" points="35.31 5.14 34.34 5.64 34.82 6.3 35.54 5.46 35.31 5.14"/>
  <rect class="cls-14" x="34.94" y="7.73" width="1.61" height=".98"/>
  <polygon class="cls-14" points="33.03 6.02 33.58 6.64 34.09 5.91 34.09 8.53 33.03 6.02"/>
  <polygon class="cls-14" points="35.36 6.02 34.82 6.64 34.3 5.91 34.3 8.53 35.36 6.02"/>
  <g>
    <path class="cls-19" d="M51.08,14.88c-.48,0-.88.22-1.15.42v1.65c.36.08.76.11,1,.02.21-.12.53-1.17.36-1.83-.07-.26-.17-.26-.21-.26"/>
    <path class="cls-19" d="M51.22,17.7c-.2.08-.44.11-.67.11-.21,0-.43-.03-.62-.06v1.37h-.48l-.46.47h-3.75l-.45-.47h-.48v-5.32h5.62v.57c.32-.16.71-.28,1.15-.28.51,0,.89.37,1.01.99.16.83-.14,2.34-.86,2.63M45.66,10.7l.46-.25s.49.93,0,1.74c-.32.52,0,1.14,0,1.14l-.46.25s-.47-.89,0-1.67c.34-.56,0-1.21,0-1.22M46.89,10.7l.46-.25s.49.93,0,1.74c-.32.52,0,1.14,0,1.14l-.46.25s-.47-.89,0-1.67c.34-.56,0-1.21,0-1.22M48.11,10.7l.46-.25s.49.93,0,1.74c-.32.52,0,1.14,0,1.14l-.46.25s-.47-.89,0-1.67c.34-.56,0-1.21,0-1.22M47.12,9.08l-6.34,3.25v7.95h12.68v-7.95l-6.34-3.25Z"/>
  </g>
</svg>