<?xml version="1.0" encoding="UTF-8"?>
<svg id="Layer_1" xmlns="http://www.w3.org/2000/svg" viewBox="0 0 32.69 40.13">
  <defs>
    <style>
      .cls-1 {
        fill: #817566;
      }

      .cls-2 {
        fill: #dbc5aa;
      }

      .cls-3 {
        fill: #bf9a6b;
      }

      .cls-4 {
        fill: #725c3e;
      }

      .cls-5 {
        fill: #00a88e;
      }

      .cls-6 {
        fill: #262262;
      }

      .cls-7 {
        fill: #939598;
      }

      .cls-8 {
        fill: #065;
      }

      .cls-9 {
        fill: #ece2d6;
      }

      .cls-10 {
        fill: #00a76d;
      }

      .cls-11 {
        fill: #0a003a;
      }
    </style>
  </defs>
  <g>
    <path class="cls-5" d="M5.05,24.85c-2.64,0-4.78-2.15-4.78-4.78s2.15-4.78,4.78-4.78,4.78,2.15,4.78,4.78-2.15,4.78-4.78,4.78"/>
    <path class="cls-3" d="M5.05,15.02c-2.78,0-5.05,2.26-5.05,5.05s2.26,5.05,5.05,5.05,5.05-2.27,5.05-5.05-2.26-5.05-5.05-5.05M5.05,15.55c2.49,0,4.52,2.02,4.52,4.52s-2.02,4.52-4.52,4.52S.53,22.56.53,20.07s2.02-4.52,4.52-4.52"/>
    <path class="cls-6" d="M31.42,19.14H6.33c-.7,0-1.28-.57-1.28-1.28V1.28c0-.7.57-1.28,1.28-1.28h25.09c.7,0,1.28.57,1.28,1.28v16.59c0,.7-.57,1.28-1.28,1.28"/>
    <path class="cls-2" d="M29.23,19.14v-2.31c0-6.41-5.87-15.16-10.36-15.16s-10.36,8.75-10.36,15.16v2.31h20.71Z"/>
    <path class="cls-3" d="M11.7,12.18s1.65-3.69,7.17-3.69,7.17,3.69,7.17,3.69c0,0-1.65-5.96-7.17-5.96s-7.17,5.96-7.17,5.96Z"/>
    <path class="cls-3" d="M14.17,19.13v-3.13c0-4.6,1.64-10.09,3.86-14.23-4.34.98-9.51,9.05-9.51,15.06v2.31h20.71s-15.06,0-15.06,0Z"/>
    <path class="cls-6" d="M31.42,40.13H6.33c-.7,0-1.28-.57-1.28-1.28v-16.59c0-.7.57-1.28,1.28-1.28h25.09c.7,0,1.28.57,1.28,1.28v16.59c0,.7-.57,1.28-1.28,1.28"/>
    <path class="cls-3" d="M15.88,21.79s-4.59,3.77-5.08,4.32c-.49.56-.45,1.15-.45,2.05v8.11c0,.35.35.45.63.17,0,0,.83-5.5.94-6.23.1-.73,3.83-2.99,3.83-2.99l.14-5.44Z"/>
    <path class="cls-2" d="M21.65,21.79s4.59,3.77,5.08,4.32c.49.56.45,1.15.45,2.05v8.11c0,.35-.35.45-.63.17,0,0-.83-5.5-.94-6.23-.1-.73-3.83-2.99-3.83-2.99l-.14-5.44Z"/>
    <path class="cls-3" d="M27.3,21.97s-1.93,10.53-8.43,10.53-8.43-10.53-8.43-10.53h16.86Z"/>
    <path class="cls-2" d="M22.26,24.92c-.61,2.39-1.6,5.4-3.11,7.57,4.45-.21,6.69-5.42,7.61-8.42-1.13.33-2.64.66-4.51.85"/>
    <path class="cls-3" d="M24.78,22.24s4.59,5.57,5.08,6.12.45,1.15.45,2.05v8.11c0,.35-.35.45-.63.17,0,0-.83-5.05-.94-5.78-.1-.73-5.82-3.55-5.82-3.55l1.85-7.13Z"/>
    <path class="cls-2" d="M28.8,20.99H8.52v.8s3.66,1.94,10.35,1.94,10.36-1.94,10.36-1.94v-.8h-.43Z"/>
    <path class="cls-2" d="M11.35,24.19c-1.37,1.66-3.17,3.83-3.47,4.17-.49.56-.45,1.15-.45,2.05v8.11c0,.35.35.45.63.17,0,0,.83-5.05.94-5.78.11-.73,5.82-3.55,5.82-3.55l-1.22-4.68c-.85-.15-1.61-.32-2.25-.49"/>
    <path class="cls-3" d="M14.17,23.39v-2.09c0-.1,0-.2,0-.3h-5.6c-.03.27-.04.54-.05.8.09.04,2.05,1.05,5.65,1.59"/>
    <path class="cls-7" d="M10.4,19.14h-.38c.06.3.09.61.09.93s-.03.63-.09.93h.38c.07-.3.11-.61.11-.93s-.04-.63-.11-.93"/>
    <path class="cls-8" d="M5.05,15.55h0c-.08,0-.16,0-.24.01-.02.1-.03.2-.03.3v8.42c0,.1.01.2.03.3.08,0,.16,0,.24,0v-2.32c0-.7.57-1.28,1.28-1.28h3.15c.06-.3.1-.61.1-.93s-.03-.63-.1-.93h-.95v.02-.02h-2.19c-.7,0-1.28-.57-1.28-1.28v-2.32Z"/>
    <path class="cls-4" d="M5.05,15.55,10.01,19.14h-.54c.06.3.1.61.1.93s-.03.63-.1.93h.54c.06-.3.08-.61.08-.93s-.03-.63-.08-.93"/>
    <path class="cls-11" d="M5.05,15.55h0v2.32c0,.71.57,1.28,1.28,1.28h2.19v-2.32h0v-.02h0v-.02h0v-.02h0v-.02h0v-.02h0v-.02h0s0-.02,0-.02h0v-.02h0v-.02h0v-.02h0s0-.02,0-.02h0v-.02h0s0-.01,0-.01c-.94-.64-2.15-1.03-3.47-1.03"/>
    <path class="cls-1" d="M8.52,16.59h0s0,0,0,0M8.52,16.61h0s0,0,0,0M8.52,16.62h0s0,0,0,0M8.52,16.64s0,0,0,0c0,0,0,0,0,0M8.52,16.66h0s0,0,0,0M8.52,16.68h0s0,0,0,0M8.52,16.7h0s0,0,0,0M8.52,16.71h0s0,0,0,0M8.52,16.73h0s0,0,0,0M8.52,16.75h0s0,0,0,0M8.52,16.77h0s0,0,0,0M8.52,16.79h0s0,0,0,0M8.52,16.81h0s0,0,0,0M8.52,16.83h0v2.32-.02h1.88-1.88v-2.31"/>
    <path class="cls-4" d="M8.52,16.58h0v.02s0,0,0,.01h0v.02h0v.02s0,0,0,0h0v.02h0v.02h0v.02h0v.02s0,0,0,0h0v.02h0v.02h0v.02h0v.02h0v2.33h1.88c-.26-1.02-.93-1.92-1.88-2.56"/>
    <path class="cls-11" d="M8.52,20.99h-2.19c-.7,0-1.28.57-1.28,1.28v2.32c2.03,0,3.79-.91,4.74-2.27-.52-.19-.88-.34-1.08-.44-.09-.04-.14-.07-.17-.08-.01,0-.02,0-.02,0v-.8Z"/>
    <path class="cls-1" d="M8.57,20.99h-.06v.8s0,0,.02,0c0,0,0,0-.01,0,0-.26.03-.53.05-.8M8.7,21.88c.2.09.56.25,1.08.44-.52-.19-.88-.35-1.08-.44"/>
    <path class="cls-4" d="M10.4,20.99h-1.82c-.03.27-.04.54-.05.8,0,0,0,0,.01,0,.02.01.08.04.17.08.2.09.56.25,1.08.44.28-.41.49-.85.61-1.32"/>
    <path class="cls-10" d="M9.57,20.07c0,2.5-2.02,4.52-4.52,4.52S.53,22.56.53,20.07s2.02-4.52,4.52-4.52,4.52,2.02,4.52,4.52"/>
    <path class="cls-9" d="M9.12,20.07c0,2.25-1.82,4.07-4.07,4.07s-4.07-1.82-4.07-4.07,1.82-4.07,4.07-4.07,4.07,1.82,4.07,4.07"/>
  </g>
  <polygon class="cls-10" points="7.73 19.24 5.88 19.24 5.88 17.39 4.22 17.39 4.22 19.24 2.37 19.24 2.37 20.9 4.22 20.9 4.22 22.74 5.88 22.74 5.88 20.9 7.73 20.9 7.73 19.24"/>
</svg>