<?xml version="1.0" encoding="UTF-8"?>
<svg id="Layer_1" xmlns="http://www.w3.org/2000/svg" viewBox="0 0 57.1 32.36">
  <defs>
    <style>
      .cls-1 {
        fill: #132361;
      }

      .cls-2 {
        fill: #c7eafb;
      }

      .cls-3 {
        fill: #fff;
      }

      .cls-4 {
        fill: #25408f;
      }

      .cls-5 {
        fill: #366f84;
      }

      .cls-6 {
        fill: #748a96;
      }

      .cls-7 {
        fill: #bf9a6b;
      }

      .cls-8 {
        fill: #00a88e;
      }

      .cls-9 {
        fill: #849daa;
      }

      .cls-10 {
        fill: #065;
      }

      .cls-11 {
        fill: #ece2d6;
      }

      .cls-12 {
        fill: #0c1b55;
      }

      .cls-13 {
        fill: #00a76d;
      }

      .cls-14 {
        fill: #2d6175;
      }

      .cls-15 {
        fill: #54a3c1;
      }
    </style>
  </defs>
  <path class="cls-15" d="M55.54,32.36h-30.82c-.87,0-1.57-.7-1.57-1.57V10.42c0-.87.7-1.57,1.57-1.57h30.82c.86,0,1.57.7,1.57,1.57v20.37c0,.86-.7,1.57-1.57,1.57"/>
  <rect class="cls-2" x="27.41" y="8.86" width="25.43" height="23.5"/>
  <rect class="cls-4" x="52.62" y="8.86" width=".45" height="23.5"/>
  <rect class="cls-4" x="27.19" y="8.86" width=".45" height="23.5"/>
  <polygon class="cls-4" points="28.27 8.86 28.27 12.07 28.27 12.29 35.37 12.29 35.37 10.67 35.37 8.86 34.92 8.86 34.92 10.67 34.92 11.85 28.5 11.85 28.5 12.07 28.72 12.07 28.72 8.86 28.27 8.86"/>
  <polygon class="cls-4" points="36.58 8.86 36.58 12.29 36.8 12.29 36.8 11.85 36.8 12.29 43.68 12.29 43.68 8.86 43.23 8.86 43.23 11.85 36.8 11.85 36.8 12.29 36.8 11.85 36.8 12.07 37.03 12.07 37.03 8.86 36.58 8.86"/>
  <polygon class="cls-4" points="43.68 32.36 43.68 28.92 42.53 28.92 37.73 28.92 36.58 28.92 36.58 32.36 37.03 32.36 37.03 29.37 37.73 29.37 42.53 29.37 43.23 29.37 43.23 32.36 43.68 32.36"/>
  <path class="cls-4" d="M45.81,13.64h-11.36c-1.09,0-2.11.34-2.95.91-1.37.94-2.28,2.52-2.28,4.31v9.4h21.81v-9.4c0-2.88-2.34-5.22-5.22-5.22M45.81,14.42c2.45,0,4.44,1.99,4.44,4.44v8.61h-20.24v-8.61c0-1.47.72-2.84,1.94-3.67.74-.51,1.6-.77,2.5-.77h11.36Z"/>
  <path class="cls-9" d="M42.75,8.86h-1.67v2.99h1.67v-2.99ZM42.75,12.29h-1.67v1.34h1.67v-1.34Z"/>
  <rect class="cls-1" x="41.07" y="11.85" width="1.68" height=".45"/>
  <path class="cls-9" d="M42.75,14.42h-1.68v8.44c0,1.37-1.12,2.49-2.49,2.49h-8.58v1.68h8.58c2.3,0,4.16-1.87,4.16-4.16v-8.44Z"/>
  <rect class="cls-5" x="23.15" y="25.35" width="4.03" height="1.68"/>
  <rect class="cls-9" x="27.64" y="25.35" width="1.59" height="1.68"/>
  <rect class="cls-1" x="27.19" y="25.35" width=".45" height="1.68"/>
  <path class="cls-1" d="M42.75,13.64h-1.67v.78h1.67v-.78ZM30.01,25.35h-.78v1.68h.78v-1.68Z"/>
  <g>
    <path class="cls-3" d="M7.77,0h30.81c1.37,0,2.49,1.12,2.49,2.49v20.37c0,1.37-1.11,2.49-2.49,2.49H7.77c-1.37,0-2.49-1.11-2.49-2.49V2.49c0-1.37,1.12-2.49,2.49-2.49Z"/>
    <path class="cls-8" d="M6.2,18.55c-3.24,0-5.87-2.63-5.87-5.87s2.63-5.87,5.87-5.87,5.87,2.64,5.87,5.87-2.64,5.87-5.87,5.87"/>
    <path class="cls-7" d="M6.2,6.47c-3.42,0-6.2,2.78-6.2,6.2s2.78,6.2,6.2,6.2,6.2-2.78,6.2-6.2-2.78-6.2-6.2-6.2M6.2,7.13c3.06,0,5.55,2.48,5.55,5.55s-2.48,5.55-5.55,5.55S.65,15.74.65,12.67s2.48-5.55,5.55-5.55"/>
    <path class="cls-15" d="M38.58,24.42H7.77c-.87,0-1.57-.7-1.57-1.57V2.49c0-.87.7-1.57,1.57-1.57h30.82c.86,0,1.57.7,1.57,1.57v20.37c0,.86-.7,1.57-1.57,1.57"/>
  </g>
  <rect class="cls-2" x="10.46" y=".92" width="25.43" height="23.5"/>
  <rect class="cls-4" x="35.67" y=".92" width=".45" height="23.5"/>
  <rect class="cls-4" x="10.23" y=".92" width=".45" height="23.5"/>
  <polygon class="cls-4" points="19.63 .92 19.63 4.36 19.85 4.36 19.85 3.91 19.85 4.36 26.72 4.36 26.72 .92 26.27 .92 26.27 3.91 19.85 3.91 19.85 4.36 19.85 3.91 19.85 4.14 20.07 4.14 20.07 .92 19.63 .92"/>
  <polygon class="cls-4" points="26.72 24.42 26.72 20.99 25.58 20.99 20.77 20.99 19.63 20.99 19.63 24.42 20.08 24.42 20.08 21.43 20.77 21.43 25.58 21.43 26.27 21.43 26.27 24.42 26.72 24.42"/>
  <g>
    <path class="cls-4" d="M28.86,5.71h-11.36c-1.09,0-2.11.34-2.95.91-1.37.94-2.28,2.52-2.28,4.31v9.4h21.81v-9.4c0-2.88-2.34-5.22-5.22-5.22M28.86,6.49c2.45,0,4.44,1.99,4.44,4.44v8.61H13.05v-8.61c0-1.47.72-2.84,1.94-3.67.74-.51,1.6-.77,2.5-.77h11.36Z"/>
    <path class="cls-10" d="M6.2,7.13h0c-.1,0-.2,0-.3.01-.02.12-.03.24-.03.37v10.34c0,.12.01.25.03.37.1,0,.2.01.3.01V7.13Z"/>
    <path class="cls-14" d="M6.2,7.13h0v11.1c1.51,0,2.91-.41,4.03-1.11v-8.87c-1.12-.7-2.52-1.12-4.03-1.12"/>
    <path class="cls-6" d="M10.68,8.55v8.26c.66-.49,1.2-1.09,1.59-1.76v-4.11c0-.19.01-.38.03-.57-.39-.7-.94-1.31-1.62-1.82"/>
    <path class="cls-12" d="M10.23,8.24v8.87c.15-.1.3-.2.45-.3v-8.26c-.14-.11-.29-.21-.45-.31"/>
    <path class="cls-12" d="M12.3,10.36c-.02.19-.03.37-.03.57v4.11c.41-.72.64-1.52.64-2.36s-.22-1.61-.61-2.31"/>
    <path class="cls-13" d="M11.75,12.67c0,3.06-2.48,5.55-5.55,5.55S.65,15.74.65,12.67s2.48-5.55,5.55-5.55,5.55,2.48,5.55,5.55"/>
    <path class="cls-11" d="M11.2,12.67c0,2.76-2.24,5-5,5S1.2,15.44,1.2,12.67s2.24-5,5-5,5,2.24,5,5"/>
  </g>
  <polygon class="cls-13" points="9.49 11.65 7.22 11.65 7.22 9.39 5.18 9.39 5.18 11.65 2.91 11.65 2.91 13.69 5.18 13.69 5.18 15.96 7.22 15.96 7.22 13.69 9.49 13.69 9.49 11.65"/>
</svg>