<?xml version="1.0" encoding="UTF-8"?>
<svg id="Layer_1" xmlns="http://www.w3.org/2000/svg" viewBox="0 0 62.75 37.96">
  <defs>
    <style>
      .cls-1 {
        fill: #f58220;
      }

      .cls-2 {
        fill: #81659c;
      }

      .cls-3 {
        fill: #9e88b1;
      }

      .cls-4 {
        fill: #408899;
      }

      .cls-5 {
        fill: #fff;
      }

      .cls-6 {
        fill: #89cfc9;
      }

      .cls-7 {
        fill: #50bfb7;
      }

      .cls-8 {
        fill: #dbc5aa;
      }

      .cls-9 {
        fill: #f15a29;
      }

      .cls-10 {
        fill: #ad5e47;
      }

      .cls-11 {
        fill: #262262;
      }

      .cls-12 {
        fill: #f9a45e;
      }

      .cls-13 {
        fill: #644f87;
      }
    </style>
  </defs>
  <g>
    <path class="cls-1" d="M54.93,16.85c-.07-.32-.15-.73-.24-1.18-.27-1.35-.59-3.14-.86-4.65-.12-.7-.41-1.35-.8-1.91l-.09-.13c-.08-.1-.17-.19-.25-.29-.59-.67-1.36-1.19-2.25-1.45l-1.01-.29-.48-.57v-.61c.16-.19.29-.44.4-.71.23-.56.36-1.23.36-1.79,0-.68-.2-1.31-.53-1.83C48.63.57,47.68,0,46.61,0c-1.71,0-3.1,1.47-3.1,3.28,0,.21.02.43.05.66.01.09.03.19.05.28v.06c.02.06.04.13.06.19l.04.15h0c.13.45.33.87.56,1.16v.61l-.48.57-1.01.29-.1.04c-.73.23-1.37.62-1.89,1.13-.71.69-1.22,1.59-1.4,2.61-.06.32-.12.65-.18.99-.12.67-.25,1.37-.37,2.04-.21,1.1-.4,2.12-.55,2.8-.16.71.02,1.3.33,1.78.73,1.11,2.24,1.61,2.24,1.61l-.12,1.27-.39,4.13-.81,5.2v-.45.45h6.15l.51-.31.4-2.91.02.17.89,3.05h6.15v-.45l-.57-2.26-.64-6.83-.1-1.06s.98-.32,1.75-1.03c.59-.55,1.06-1.32.83-2.36"/>
    <path class="cls-5" d="M46.61,0c1.07,0,2.01.57,2.57,1.44.33.52.53,1.16.53,1.83,0,.56-.13,1.23-.36,1.79-.11.27-.25.52-.4.71v.61l.48.57,1.01.29c.9.26,1.66.78,2.26,1.45.08.1.18.19.25.29l.09.13c.39.56.67,1.21.8,1.91.27,1.5.6,3.29.86,4.65.09.45.17.85.24,1.18.23,1.04-.24,1.81-.83,2.36-.76.7-1.74,1.02-1.74,1.02l.1,1.06.64,6.83.57,2.26v.45h-6.15l-.89-3.05-.02-.17-.4,2.91-.51.31h-6.15l.81-5.2.39-4.13.12-1.27s-1.51-.5-2.25-1.61c-.31-.48-.49-1.06-.33-1.77.15-.68.35-1.7.55-2.8.12-.67.25-1.36.37-2.03.06-.34.12-.67.18-.99.18-1.02.69-1.92,1.4-2.61.53-.51,1.17-.9,1.89-1.13l.1-.04,1.01-.29.48-.57v-.61c-.24-.29-.43-.71-.56-1.15l-.04-.15c-.02-.06-.03-.13-.05-.19v-.06c-.03-.09-.05-.19-.07-.28-.04-.23-.05-.45-.05-.66,0-1.81,1.39-3.28,3.1-3.28M39.55,30.38v.45-.45Z"/>
    <path class="cls-11" d="M54.93,16.85c-.29-1.3-.75-3.82-1.1-5.82-.13-.75-.45-1.45-.89-2.04-.61-.82-1.48-1.44-2.51-1.74l-1.01-.29-.48-.57v-.61c.48-.58.77-1.67.77-2.5C49.71,1.47,48.32,0,46.61,0s-3.1,1.47-3.1,3.28c0,.83.29,1.92.77,2.5v.61l-.48.57-1.01.29c-1.76.51-3.07,1.98-3.4,3.78-.17.95-.36,2.02-.55,3.02-.21,1.1-.4,2.12-.55,2.8-.52,2.37,2.57,3.39,2.57,3.39l-.5,5.4-.81,8.62h6.15l.91-6.63.91,6.63h6.15l-1.21-12.96-.1-1.06s3.1-1.02,2.58-3.39"/>
    <path class="cls-6" d="M49.05,1.25s0,0,0,0c0,0,0,0,0,0M49.04,1.24s0,0,0,0c0,0,0,0,0,0M49.03,1.22h0,0M49.01,1.19s0,0,0,0c0,0,0,0,0,0M48.99,1.17s0,0,0,0c0,0,0,0,0,0M48.98,1.16s0,0,0,0c0,0,0,0,0,0M48.96,1.14s0,0,0,0c0,0,0,0,0,0M48.94,1.12s0,0,0,0c0,0,0,0,0,0M48.93,1.1s0,0,0,0c0,0,0,0,0,0M48.92,1.08s0,0,0,.01c0,0,0,0,0-.01M48.9,1.06s0,0,.01.02c0,0,0-.01-.01-.02M48.88,1.04s0,.01.01.01c0,0,0,0-.01-.01M48.87,1.03s0,0,0,.01c0,0,0,0,0-.01M48.85,1.01s0,0,.01.01c0,0,0,0-.01-.01M48.82.97s.02.02.03.03c0-.01-.02-.02-.03-.03M48.8.96s0,0,.01.01c0,0,0,0-.01-.01M48.78.94s0,0,.01.01c0,0,0,0-.01-.01M48.75.9s.02.02.03.03c-.01-.01-.02-.02-.03-.03M48.73.89s0,0,.01.01c0,0,0,0-.01-.01M48.72.87s0,0,.01.01c0,0,0,0-.01-.01M48.68.84s.02.02.03.03c-.01,0-.02-.02-.03-.03M48.66.82s.01.01.01.02c0,0,0,0-.01-.02M48.65.8s.01,0,.01.02c0,0-.01-.01-.01-.02M48.61.77s.02.02.04.03c-.01,0-.02-.02-.04-.03M48.59.76s.01.01.02.02c0,0,0-.01-.02-.02M48.58.74s.01,0,.02.01c0,0-.01-.01-.02-.01M48.54.71s.02.02.04.03c-.01-.01-.02-.02-.04-.03M48.52.7h.02s-.02,0-.02,0M48.5.68s.01,0,.02.01c0,0-.01,0-.02-.01M48.46.65s.02.02.04.03c-.01,0-.02-.02-.04-.03M48.45.63s.01.01.02.01c0,0-.01-.01-.02-.01M48.43.62h.02s-.02,0-.02,0M48.39.59s.03.02.04.03c-.01-.01-.03-.02-.04-.03M48.37.58s.01,0,.02.01c0,0-.01,0-.02-.01M48.35.56h.02s-.02,0-.02,0M48.31.54s.03.02.04.03c-.01-.01-.03-.02-.04-.03M48.29.52s.01,0,.02.01c0,0-.01,0-.02-.01M48.27.51s.01,0,.02.01c0,0-.01,0-.02-.01M48.23.48s.03.02.04.02c-.01,0-.03-.02-.04-.02M48.21.47s.01,0,.02.01c0,0-.01,0-.02-.01M48.19.46s.01,0,.02.01c0,0-.01,0-.02-.01M48.15.43s.03.02.04.03c-.01,0-.03-.02-.04-.03M48.13.42s.01,0,.02.01c0,0-.01,0-.02-.01M48.11.41s.01,0,.02,0c0,0-.01,0-.02,0M48.07.38s.03.02.04.02c-.01,0-.03-.02-.04-.02M48.05.37s.01,0,.02,0h-.02ZM48.03.36s0,0,.02,0c0,0-.01,0-.02,0M47.99.34s.03.01.04.02c-.01,0-.03-.01-.04-.02M47.97.33s.01,0,.01,0c0,0-.01,0-.01,0M47.95.32s.01,0,.02,0c0,0,0,0-.02,0M47.9.3s.03.01.04.02c-.01,0-.03-.01-.04-.02M47.88.29s.01,0,.01,0c0,0,0,0-.01,0M47.86.28s0,0,.01,0c0,0,0,0-.01,0M47.82.26l.04.02-.04-.02M47.8.25s0,0,.01,0c0,0,0,0-.01,0M47.78.24s0,0,.01,0c0,0,0,0-.01,0M47.75.23s.01,0,.02,0c0,0-.01,0-.02,0M47.73.22s.01,0,.02,0c0,0-.01,0-.02,0M47.71.21s.01,0,.02,0c0,0-.01,0-.02,0M47.69.2s.01,0,.02,0c0,0,0,0-.02,0M47.64.18s.03.01.04.02c-.01,0-.03-.01-.04-.02M47.62.18s0,0,.01,0c0,0,0,0-.01,0M47.6.17s0,0,.01,0c0,0,0,0-.01,0M47.57.16s.01,0,.02,0c0,0-.01,0-.02,0M47.55.15s.01,0,.02,0c0,0-.01,0-.02,0M47.53.15s0,0,.01,0c0,0,0,0-.01,0M47.51.14s.01,0,.01,0c0,0-.01,0-.01,0M47.48.13s.01,0,.02,0c0,0-.01,0-.02,0M47.46.12s.01,0,.02,0c0,0-.01,0-.02,0M47.44.12s0,0,.01,0c0,0,0,0-.01,0M47.42.11s0,0,.01,0c0,0,0,0-.01,0M47.39.1s.01,0,.02,0c0,0-.01,0-.02,0M47.37.1s.01,0,.02,0c0,0-.01,0-.02,0M47.34.09s0,0,.01,0c0,0,0,0-.01,0M47.32.09s0,0,.01,0c0,0,0,0-.01,0M47.3.08s.01,0,.02,0c0,0-.01,0-.02,0M47.27.07s.01,0,.02,0c0,0-.01,0-.02,0M47.25.07s.01,0,.02,0c0,0-.01,0-.02,0M47.23.07s0,0,.01,0c0,0,0,0-.01,0M47.2.06s.01,0,.02,0c0,0-.01,0-.02,0M47.18.06s.01,0,.02,0c0,0-.01,0-.02,0M47.16.05s0,0,.01,0c0,0,0,0-.01,0M47.13.05s0,0,.01,0c0,0,0,0-.01,0M47.11.04s.01,0,.02,0c0,0-.01,0-.02,0M47.08.04s.01,0,.02,0c0,0-.01,0-.02,0M47.06.03s0,0,.01,0c0,0,0,0-.01,0M47.04.03s.01,0,.02,0c0,0-.01,0-.02,0M47.01.03s.02,0,.02,0c0,0-.01,0-.02,0M46.99.02s.01,0,.02,0c0,0-.01,0-.02,0M46.96.02s.01,0,.02,0c0,0-.01,0-.02,0M46.94.02s.01,0,.02,0c0,0-.01,0-.02,0M46.91.01s.01,0,.02,0c0,0-.01,0-.02,0M46.89.01s.01,0,.02,0c0,0-.01,0-.02,0M46.86.01s.01,0,.02,0c0,0-.01,0-.02,0M46.84,0s.01,0,.02,0c0,0-.01,0-.02,0M46.79,0s.03,0,.05,0c-.02,0-.03,0-.05,0M46.77,0h.01-.01M46.74,0h.02-.02M46.69,0s.03,0,.04,0c-.01,0-.03,0-.04,0M46.67,0s.01,0,.02,0c0,0-.01,0-.02,0M46.64,0h.02-.02M46.61,0c-1.71,0-3.1,1.47-3.1,3.28C43.51,1.47,44.9,0,46.61,0h.02-.02"/>
    <path class="cls-6" d="M46.61,0c-1.71,0-3.1,1.47-3.1,3.28C43.51,1.47,44.9,0,46.61,0c1.03,0,1.94.53,2.51,1.35-.02-.03-.04-.06-.07-.09t0,0s0,0-.01-.01c0,0,0,0,0,0,0,0,0-.01,0-.01,0,0,0,0,0,0,0,0-.01-.02-.02-.03,0,0,0,0,0,0,0,0,0,0,0-.01,0,0,0,0,0,0,0,0,0,0,0-.01,0,0,0,0,0,0,0,0,0,0,0,0,0,0,0,0,0,0,0,0,0-.01-.01-.02,0,0,0,0,0,0,0,0,0,0,0,0,0,0,0,0,0,0,0,0,0,0,0,0,0,0,0,0,0-.01,0,0,0,0,0,0,0,0,0-.01-.01-.02,0,0,0,0,0,0,0,0,0,0-.01-.01,0,0,0,0,0,0,0,0,0,0-.01-.01,0,0,0,0,0,0,0,0,0,0-.01-.01,0,0,0,0,0,0,0-.01-.02-.02-.03-.03,0,0,0,0,0,0,0,0,0,0-.01-.01,0,0,0,0,0,0h-.01s0-.02,0-.02c0-.01-.02-.02-.03-.03,0,0,0,0,0,0,0,0,0,0-.01-.01,0,0,0,0,0,0,0,0-.01,0-.01-.01,0,0,0,0,0,0-.01,0-.02-.02-.03-.03,0,0,0,0,0,0,0,0,0,0-.01-.02,0,0,0,0,0,0,0,0-.01-.01-.01-.02h0s-.02-.02-.04-.03h0s0-.01-.02-.02h0s-.01-.01-.02-.01c0,0,0,0,0,0-.01-.01-.02-.02-.04-.03,0,0-.01,0-.02-.01,0,0,0,0,0,0h-.02s0-.02,0-.02c-.01,0-.02-.02-.04-.03,0,0-.01-.01-.02-.01,0,0,0,0,0,0h-.02s0-.01,0-.01c-.01-.01-.03-.02-.04-.03h-.02s0-.01,0-.01h-.02s0-.01,0-.01c-.01-.01-.03-.02-.04-.03,0,0,0,0,0,0,0,0-.01,0-.02-.01,0,0,0,0,0,0,0,0-.01,0-.02-.01t0,0s-.03-.02-.04-.02c0,0,0,0,0,0,0,0-.01,0-.02-.01,0,0,0,0,0,0,0,0-.01,0-.02-.01t0,0s-.03-.02-.04-.03h0s-.01,0-.02-.01c0,0,0,0,0,0,0,0-.01,0-.02,0t0,0s-.03-.02-.04-.02c0,0,0,0,0,0,0,0-.01,0-.01,0,0,0,0,0,0,0,0,0-.01,0-.01,0,0,0,0,0,0,0-.01,0-.03-.01-.04-.02,0,0,0,0,0,0,0,0,0,0-.01,0,0,0,0,0,0,0,0,0,0,0-.01,0h0s-.03-.02-.04-.02c0,0,0,0,0,0,0,0-.01,0-.02,0,0,0,0,0,0,0,0,0,0,0-.01,0,0,0,0,0,0,0-.01,0-.03-.01-.04-.02,0,0,0,0,0,0,0,0,0,0-.01,0,0,0,0,0,0,0,0,0,0,0-.01,0,0,0,0,0,0,0,0,0-.01,0-.02,0h0s-.01,0-.02,0c0,0,0,0,0,0,0,0,0,0-.02,0,0,0,0,0,0,0,0,0,0,0-.01,0,0,0,0,0,0,0-.01,0-.03-.01-.04-.02,0,0,0,0,0,0,0,0,0,0-.01,0,0,0,0,0,0,0,0,0-.01,0-.01,0,0,0,0,0,0,0,0,0-.01,0-.02,0h0s-.01,0-.02,0c0,0,0,0,0,0,0,0,0,0-.01,0,0,0,0,0,0,0,0,0,0,0-.01,0,0,0,0,0,0,0,0,0-.01,0-.02,0,0,0,0,0,0,0,0,0-.01,0-.02,0,0,0,0,0,0,0,0,0-.01,0-.02,0,0,0,0,0,0,0,0,0-.01,0-.02,0,0,0,0,0,0,0,0,0-.01,0-.02,0,0,0,0,0,0,0,0,0-.01,0-.02,0,0,0,0,0,0,0,0,0,0,0-.01,0,0,0,0,0,0,0,0,0,0,0-.01,0,0,0,0,0,0,0,0,0-.01,0-.02,0h0s-.01,0-.02,0c0,0,0,0,0,0,0,0,0,0-.01,0,0,0,0,0,0,0,0,0-.01,0-.01,0,0,0,0,0,0,0,0,0-.01,0-.02,0,0,0,0,0,0,0,0,0-.01,0-.02,0,0,0,0,0,0,0,0,0-.01,0-.01,0,0,0,0,0,0,0,0,0,0,0-.01,0,0,0,0,0,0,0,0,0-.01,0-.02,0h0s-.01,0-.02,0c0,0,0,0,0,0,0,0-.01,0-.01,0h0s-.01,0-.01,0c0,0,0,0,0,0,0,0-.02,0-.02,0h0s-.01,0-.02,0h0s-.01,0-.02,0h0s-.01,0-.02,0h0s-.01,0-.02,0c0,0-.01,0-.02,0,0,0,0,0,0,0,0,0,0,0-.02,0h0s-.01,0-.02,0h0s-.03,0-.05,0c0,0,0,0,0,0h-.02s0,0,0,0h-.02s-.03,0-.05,0h0s0,0-.02,0h-.05Z"/>
    <path class="cls-6" d="M43.61,4.18c.12.61.36,1.22.67,1.6-.15-.18-.29-.42-.4-.69-.12-.28-.21-.6-.27-.91"/>
    <path class="cls-6" d="M43.88,5.09c.11.27.24.5.4.69-.15-.18-.28-.42-.4-.69"/>
    <path class="cls-6" d="M49.29,5.2c-.08.18-.18.35-.28.49-.02.02-.04.05-.05.07.13-.16.24-.35.34-.56"/>
    <path class="cls-6" d="M49.01,5.69s-.04.06-.06.08c0,0,0,0,0-.01.02-.02.04-.05.06-.07"/>
  </g>
  <path class="cls-6" d="M42.79,7.25l1.01-.29-1.01.29ZM43.8,6.95l.48-.57h0s-.48.57-.48.57Z"/>
  <path class="cls-6" d="M43.8,6.95l-1.01.29,1.01-.29.48-.57-.48.57ZM44.28,6.38h0s0,0,0,0Z"/>
  <g>
    <path class="cls-6" d="M50.5,7.27s.05.02.08.02c0,0,0,0,0,0,.95.31,1.76.91,2.35,1.68-.6-.8-1.44-1.4-2.43-1.71M50.48,7.26s.01,0,.02,0c0,0-.01,0-.02,0M50.46,7.26s0,0,0,0c0,0,0,0,0,0"/>
    <path class="cls-6" d="M52.93,8.97s0,.01.01.02c0,0,0-.01-.01-.02M50.58,7.29h0,0ZM48.95,6.38h0l.48.57,1.01.29s.09.03.14.04c-.03,0-.05-.02-.08-.02h0s-.01,0-.02,0c0,0,0,0-.01,0,0,0,0,0-.01,0,0,0-.02,0-.02,0l-1.01-.29-.48-.57Z"/>
    <path class="cls-6" d="M39.4,11s0,.02,0,.02c0,.06-.02.12-.03.19.01-.06.02-.13.03-.19,0,0,0-.02,0-.02M39.4,10.98s0,.01,0,.02c0,0,0-.01,0-.02M39.41,10.96s0,.01,0,.02c0,0,0-.01,0-.02M40.76,8.44c-.68.67-1.16,1.54-1.35,2.52,0-.02,0-.04.01-.05h0s0-.02,0-.02c.2-.95.67-1.79,1.34-2.45"/>
    <path class="cls-6" d="M39.42,10.9s0,.03-.01.05h0s0,.02,0,.02c0,0,0,0,0,0,0,0,0,.01,0,.02,0,0,0,0,0,0,0,0,0,.02,0,.02-.01.06-.02.12-.03.19-.06.32-.12.65-.18.98.07-.4.14-.79.21-1.17,0-.04.02-.09.02-.12M39.42,10.88s0,0,0,0c0,0,0,0,0,0"/>
    <path class="cls-6" d="M38.94,13.53c-.03.17-.06.35-.1.52.02-.13.05-.26.07-.4,0-.04.02-.08.02-.12"/>
    <path class="cls-6" d="M38.99,13.27c-.02.09-.03.18-.05.26,0,.04-.02.08-.02.12.02-.13.05-.26.07-.39"/>
    <path class="cls-4" d="M46.61,0c-1.71,0-3.1,1.47-3.1,3.28,0,.28.03.58.1.89h0s0,0,0,0c.06.32.15.63.27.91.11.26.24.5.4.68h0v.61l-.48.57-1.01.29c-.78.23-1.47.64-2.03,1.19-.67.66-1.14,1.5-1.33,2.45,0,0,0,0,0,0h0c0,.05-.02.09-.02.14-.07.38-.14.77-.21,1.17-.06.35-.13.71-.19,1.07-.02.13-.05.26-.07.39-.02.13-.05.26-.07.4l14.1-5.06s0-.01-.01-.02c-.58-.77-1.4-1.37-2.35-1.68,0,0,0,0,0,0-.05-.01-.09-.03-.14-.04l-1.01-.29-.48-.57v-.61h0s.04-.05.07-.08c.11-.14.2-.31.29-.49.27-.58.42-1.32.42-1.92,0-.72-.22-1.39-.6-1.93C48.55.53,47.64,0,46.61,0"/>
  </g>
  <path class="cls-3" d="M39.56,34.25l.32-3.42-.32,3.42Z"/>
  <path class="cls-3" d="M39.88,30.83l.49-5.2-.49,5.2Z"/>
  <path class="cls-3" d="M46.63,27.79l.89,6.46-.89-6.46ZM46.61,27.62l-.34,2.46-.57,4.18.91-6.64Z"/>
  <path class="cls-3" d="M46.63,27.79h0s-.01-.09-.01-.09v.09ZM46.28,30.07l.34-2.45v.08s0-.09,0-.09l-.34,2.46Z"/>
  <polygon class="cls-13" points="52.46 21.29 40.36 25.63 39.87 30.83 39.56 34.25 45.7 34.25 46.28 30.07 46.61 27.62 46.63 27.79 47.52 34.25 53.67 34.25 52.46 21.29"/>
  <g>
    <path class="cls-12" d="M53.95,11.69c.17.94.35,1.95.53,2.87-.17-.92-.36-1.93-.53-2.87M53.94,11.63s0,.02,0,.03c0-.01,0-.02,0-.03M53.92,11.55s0,.02,0,.02c0,0,0-.02,0-.02M53.9,11.41s0,.01,0,.02c0,0,0-.01,0-.02M53.84,11.06s0,0,0,0c0,0,0,0,0,0"/>
    <path class="cls-12" d="M53.83,11.03c.27,1.52.6,3.33.87,4.69-.07-.36-.15-.75-.22-1.15-.17-.92-.36-1.93-.53-2.87,0,0,0-.02,0-.03,0-.01,0-.02,0-.03,0-.02,0-.04,0-.06,0,0,0-.02,0-.02,0-.04-.02-.08-.02-.12,0,0,0-.01,0-.02-.02-.12-.04-.23-.06-.34,0,0,0,0,0,0v-.03ZM52.94,8.99h0s0,0,0,0c0,0,0,0,0,0"/>
    <path class="cls-12" d="M38.93,19.02c.74.8,1.82,1.18,1.93,1.22-.02,0-.09-.03-.2-.08-.37-.15-1.15-.52-1.73-1.14"/>
    <path class="cls-12" d="M40.66,20.16c.11.04.18.07.2.08,0,0,0,0,0,0h0s-.08-.03-.21-.08"/>
    <path class="cls-12" d="M53.11,19.9h0,0ZM53.12,19.89s0,0,0,0c0,0,0,0,0,0M53.14,19.89s0,0,0,0c0,0,0,0,0,0M53.15,19.88h0,0ZM53.16,19.88s0,0,0,0c0,0,0,0,0,0M53.17,19.87s0,0,0,0c0,0,0,0,0,0M53.17,19.87s0,0,0,0c0,0,0,0,0,0M53.18,19.86s0,0,0,0c0,0,0,0,0,0M53.19,19.86h0,0M53.23,19.84s0,0,0,0c0,0,0,0,0,0M53.24,19.83h0s0,0,0,0M53.25,19.83s0,0,0,0c0,0,0,0,0,0M53.26,19.82s0,0,0,0c0,0,0,0,0,0M53.28,19.81s0,0-.01,0c0,0,0,0,.01,0M53.29,19.8s0,0,0,0c0,0,0,0,0,0M53.3,19.79s0,0,0,0c0,0,0,0,0,0M53.31,19.79s0,0,0,0c0,0,0,0,0,0M53.32,19.78s0,0,0,0c0,0,0,0,0,0M53.33,19.78s0,0,0,0c0,0,0,0,0,0M53.34,19.77s0,0,0,0c0,0,0,0,0,0M53.35,19.77s0,0,0,0c0,0,0,0,0,0M53.38,19.75s0,0,0,0c0,0,0,0,0,0M53.38,19.74s0,0,0,0c0,0,0,0,0,0M53.39,19.74s0,0,0,0c0,0,0,0,0,0M53.4,19.74h0,0M53.41,19.73s0,0,0,0c0,0,0,0,0,0M53.44,19.71s0,0,0,0c0,0,0,0,0,0M53.45,19.71h0,0ZM53.46,19.7s0,0,0,0t0,0"/>
    <path class="cls-12" d="M40.78,21.16l-.42,4.47h0l.42-4.47ZM53.82,19.45c-.7.54-1.46.78-1.46.78,0,0,.33-.11.74-.33h0s0,0,.02,0c0,0,0,0,0,0,0,0,0,0,0,0,0,0,0,0,0,0,0,0,0,0,.01,0,0,0,0,0,0,0,0,0,0,0,0,0,0,0,0,0,0,0,0,0,0,0,0,0t0,0s0,0,0,0c0,0,0,0,0,0,0,0,0,0,0,0,0,0,0,0,0,0,0,0,0,0,0,0,0,0,0,0,0,0,.01,0,.02-.01.04-.02,0,0,0,0,0,0,0,0,0,0,0,0t0,0s0,0,0,0c0,0,0,0,0,0,0,0,0,0,.01,0,0,0,0,0,0,0,0,0,0,0,0,0,0,0,0,0,.01,0,0,0,0,0,0,0,0,0,0,0,0,0,0,0,0,0,0,0,0,0,0,0,0,0t0,0s0,0,0,0c0,0,0,0,0,0,0,0,0,0,0,0,0,0,0,0,0,0,0,0,0,0,0,0,0,0,0,0,0,0,0,0,0,0,0,0,0,0,0,0,0,0,0,0,0,0,0,0,0,0,.01,0,.02-.01,0,0,0,0,0,0,0,0,0,0,0,0h0s0,0,0,0c0,0,0,0,0,0,0,0,0,0,0,0h0s0,0,0,0c0,0,0,0,0,0,0,0,0,0,0,0,0,0,.02-.01.03-.02,0,0,0,0,0,0,0,0,0,0,0,0h0s0,0,0,0t0,0c.12-.07.24-.16.36-.25"/>
    <path class="cls-12" d="M38.84,14.05h0c-.1.55-.2,1.08-.3,1.56.09-.48.19-1.01.3-1.56"/>
    <path class="cls-10" d="M52.94,8.99l-14.1,5.06h0c-.1.55-.2,1.08-.3,1.56-.09.48-.18.9-.26,1.24-.2.92.14,1.64.64,2.17.58.62,1.36.99,1.73,1.14.13.05.21.08.21.08h0s-.09.92-.09.92l-.42,4.47,12.09-4.34-.1-1.06h0s.76-.25,1.46-.79c.72-.55,1.38-1.4,1.12-2.6-.07-.31-.15-.7-.23-1.13-.27-1.36-.6-3.17-.87-4.69-.13-.75-.45-1.45-.89-2.04h0Z"/>
    <path class="cls-11" d="M51.17,34.81H2.71c-1.49,0-2.69-1.21-2.69-2.69v-14.36c0-1.49,1.21-2.69,2.69-2.69h48.46c1.49,0,2.69,1.21,2.69,2.69v14.36c0,1.49-1.21,2.69-2.69,2.69"/>
    <path class="cls-9" d="M0,23.75c0,.26,0,.51,0,.77,0,.54,0,1.08.02,1.61h31.25v-2.38H0Z"/>
  </g>
  <polygon class="cls-8" points="44.04 24.94 29.97 19.04 29.97 30.83 44.04 24.94"/>
  <g>
    <path class="cls-1" d="M62.69,20.55c-.28-1.3-.75-3.82-1.1-5.82-.13-.75-.45-1.45-.89-2.04-.61-.82-1.48-1.44-2.51-1.74l-1.01-.29-.48-.57v-.61c.48-.58.77-1.67.77-2.5,0-1.81-1.39-3.28-3.1-3.28s-3.1,1.47-3.1,3.28c0,.83.29,1.92.77,2.5v.61l-.48.57-1.01.29c-1.76.51-3.07,1.98-3.4,3.78-.17.95-.36,2.02-.55,3.02-.21,1.1-.4,2.12-.55,2.8-.52,2.37,2.57,3.39,2.57,3.39l-.51,5.4-.81,8.62h6.15l.91-6.63.91,6.63h6.15l-1.21-12.96-.1-1.06s3.1-1.02,2.58-3.39"/>
    <path class="cls-5" d="M54.37,3.7c1.71,0,3.1,1.47,3.1,3.28,0,.83-.29,1.92-.77,2.5v.61l.48.57,1.01.29c1.02.3,1.89.92,2.51,1.74.44.59.75,1.28.89,2.04.36,2,.82,4.52,1.1,5.82.52,2.37-2.58,3.39-2.58,3.39l.1,1.06,1.21,12.96h-6.15l-.91-6.64-.91,6.64h-6.15l.81-8.62.51-5.4s-3.1-1.02-2.58-3.39c.15-.68.35-1.7.55-2.8.19-1,.38-2.07.55-3.02.32-1.8,1.64-3.27,3.4-3.78l1.01-.29.48-.57h0v-.61c-.48-.58-.77-1.67-.77-2.5,0-1.81,1.39-3.28,3.1-3.28"/>
    <path class="cls-7" d="M58.19,10.95l-1.01-.29-.48-.57v-.61c.48-.58.77-1.67.77-2.5,0-1.81-1.39-3.27-3.1-3.27s-3.1,1.47-3.1,3.27c0,.83.29,1.92.77,2.5v.61l-.48.57-1.01.29c-1.76.51-3.07,1.98-3.4,3.78-.17.95-.36,2.02-.55,3.02l14.1-5.06c-.61-.82-1.49-1.44-2.51-1.74"/>
  </g>
  <polygon class="cls-2" points="48.12 29.34 47.32 37.95 53.46 37.95 54.37 31.32 55.28 37.95 61.43 37.95 60.22 25 48.12 29.34"/>
  <path class="cls-1" d="M60.12,23.94s3.09-1.02,2.58-3.39c-.29-1.3-.75-3.82-1.1-5.82-.14-.75-.45-1.45-.89-2.04l-14.1,5.06c-.21,1.1-.4,2.12-.55,2.8-.52,2.37,2.58,3.39,2.58,3.39l-.5,5.4,12.1-4.34-.1-1.06Z"/>
</svg>