<?xml version="1.0" encoding="UTF-8"?>
<svg id="Layer_1" xmlns="http://www.w3.org/2000/svg" viewBox="0 0 64.59 40.33">
  <defs>
    <style>
      .cls-1 {
        fill: #fff;
      }

      .cls-2 {
        fill: #e7d9c7;
      }

      .cls-3 {
        fill: #816847;
      }

      .cls-4 {
        fill: #8b7961;
      }

      .cls-5 {
        fill: #6d6e71;
      }

      .cls-6 {
        fill: #bf9a6b;
      }

      .cls-7 {
        fill: #a7a9ac;
      }

      .cls-8 {
        fill: #262262;
      }

      .cls-9 {
        fill: #ceb28f;
      }

      .cls-10 {
        fill: #120742;
      }

      .cls-11 {
        fill: #9b9388;
      }
    </style>
  </defs>
  <path class="cls-8" d="M62.63,40.33H24.23c-1.08,0-1.95-.87-1.95-1.95V12.99c0-1.08.87-1.95,1.95-1.95h38.4c1.08,0,1.95.88,1.95,1.95v25.39c0,1.08-.87,1.95-1.95,1.95"/>
  <rect class="cls-6" x="27.58" y="11.04" width="31.7" height="29.29"/>
  <rect class="cls-6" x="28.94" y="16.14" width="28.99" height="19.07"/>
  <polygon class="cls-9" points="37.22 11.04 30.64 11.04 28.94 11.04 28.94 15.04 37.22 15.04 37.22 13.29 37.22 11.04"/>
  <polygon class="cls-9" points="40.44 11.04 39.29 11.04 39.29 15.04 47.57 15.04 47.57 11.04 46.43 11.04 40.44 11.04"/>
  <polygon class="cls-9" points="40.44 36.32 39.29 36.32 39.29 40.33 40.44 40.33 46.43 40.33 47.57 40.33 47.57 36.32 46.43 36.32 40.44 36.32"/>
  <g>
    <path class="cls-2" d="M50.51,17h-14.16c-1.36,0-2.63.42-3.67,1.14-1.71,1.17-2.84,3.14-2.84,5.37v11.71h27.18v-11.71c0-3.6-2.91-6.51-6.51-6.51"/>
    <path class="cls-7" d="M46.7,11.04h-22.47c-.51,0-.97.19-1.31.51.35-.32.81-.51,1.31-.51h22.47Z"/>
    <path class="cls-10" d="M27.58,11.04h-3.35c-.51,0-.97.19-1.31.51-.39.36-.64.87-.64,1.45v20.69h5.31V11.04Z"/>
  </g>
  <polygon class="cls-3" points="39.29 11.04 37.22 11.04 37.22 13.29 37.22 15.04 28.94 15.04 28.94 11.04 27.58 11.04 27.58 33.68 28.94 33.68 28.94 16.15 46.7 16.15 46.7 15.04 39.29 15.04 39.29 11.04"/>
  <path class="cls-3" d="M46.7,16.15h-17.76v17.53h.91v-10.17c0-2.23,1.12-4.2,2.84-5.38,1.05-.71,2.31-1.13,3.67-1.13h10.34v-.85Z"/>
  <polygon class="cls-4" points="37.22 11.04 30.64 11.04 28.94 11.04 28.94 15.04 37.22 15.04 37.22 13.29 37.22 11.04"/>
  <polygon class="cls-4" points="46.7 11.04 46.43 11.04 40.44 11.04 39.29 11.04 39.29 15.04 39.29 15.04 39.29 15.04 46.7 15.04 46.7 11.04"/>
  <g>
    <path class="cls-11" d="M46.7,17h-10.34c-1.36,0-2.63.42-3.67,1.14-1.71,1.17-2.84,3.14-2.84,5.37v10.17h11.66c2.86,0,5.19-2.33,5.19-5.19v-11.49Z"/>
    <path class="cls-1" d="M3.1,0h38.41c1.71,0,3.1,1.39,3.1,3.1v25.39c0,1.71-1.39,3.1-3.1,3.1H3.1c-1.71,0-3.1-1.39-3.1-3.1V3.1C0,1.39,1.39,0,3.1,0Z"/>
    <path class="cls-8" d="M41.51,30.44H3.1c-1.08,0-1.95-.87-1.95-1.95V3.1c0-1.08.87-1.95,1.95-1.95h38.4c1.08,0,1.95.88,1.95,1.95v25.39c0,1.08-.88,1.95-1.95,1.95"/>
  </g>
  <rect class="cls-6" x="6.46" y="1.15" width="31.7" height="29.29"/>
  <rect class="cls-6" x="7.81" y="6.26" width="28.99" height="19.07"/>
  <polygon class="cls-9" points="19.31 1.15 18.16 1.15 18.16 5.15 26.45 5.15 26.45 1.15 25.3 1.15 19.31 1.15"/>
  <polygon class="cls-9" points="19.31 26.43 18.16 26.43 18.16 30.44 19.31 30.44 25.3 30.44 26.45 30.44 26.45 26.43 25.3 26.43 19.31 26.43"/>
  <g>
    <path class="cls-2" d="M29.38,7.11h-14.16c-1.36,0-2.63.42-3.67,1.14-1.71,1.17-2.84,3.14-2.84,5.37v11.71h27.18v-11.71c0-3.6-2.91-6.51-6.51-6.51"/>
    <path class="cls-1" d="M42.61,12.27l-2.82,2.82-2-.43-.43-2,2.82-2.82c.23-.23.32-.56.24-.87-.08-.31-.31-.57-.62-.66l-3.43-1.09c-.33-.1-.69-.02-.93.23l-4.34,4.34c-.2.2-.3.49-.26.78l.44,3.33-11.03,11.03c-1.26,1.26-1.26,3.32,0,4.58l.7.7c1.26,1.26,3.32,1.26,4.58,0l11.03-11.03,3.33.44c.29.04.57-.06.78-.26l4.34-4.34c.25-.24.33-.6.23-.93l-1.09-3.43c-.1-.31-.35-.54-.66-.62-.31-.08-.65.02-.87.24"/>
    <path class="cls-5" d="M31.01,20.55l-8.33,8.33c-.05.05-.05.14,0,.19l.7.7c.05.05.14.05.19,0l8.33-8.33c.05-.05.05-.14,0-.19l-.69-.7c-.05-.05-.14-.05-.19,0"/>
    <path class="cls-5" d="M32.36,20.79c.31.31.31.81,0,1.12l-8.33,8.33c-.31.31-.81.31-1.12,0l-.69-.69c-.31-.31-.31-.81,0-1.12l8.33-8.33c.31-.31.81-.31,1.12,0l.69.69ZM37.01,15.45l-.66-3.08,3.17-3.17-3.43-1.09-4.34,4.34.5,3.78-11.35,11.35c-.9.9-.9,2.37,0,3.27l.35.35.35.35c.9.9,2.37.9,3.27,0l11.35-11.35,3.78.5,4.34-4.34-1.09-3.43-3.18,3.17-3.08-.66Z"/>
  </g>
</svg>