<?xml version="1.0" encoding="UTF-8"?>
<svg id="Layer_1" xmlns="http://www.w3.org/2000/svg" viewBox="0 0 49.7 36.92">
  <defs>
    <style>
      .cls-1 {
        fill: #a3c260;
      }

      .cls-2 {
        fill: #fff;
      }

      .cls-3 {
        fill: #4a5e29;
      }

      .cls-4 {
        fill: #e1ceb8;
      }

      .cls-5 {
        fill: #bcbec0;
      }

      .cls-6 {
        fill: #6d6e71;
      }

      .cls-7 {
        fill: #bf9a6b;
      }

      .cls-8 {
        fill: #725c3e;
      }

      .cls-9 {
        fill: #00a88e;
      }

      .cls-10 {
        fill: #939598;
      }

      .cls-11 {
        fill: #065;
      }

      .cls-12 {
        fill: #ceb28f;
      }

      .cls-13 {
        fill: #ece2d6;
      }

      .cls-14 {
        fill: #00a76d;
      }

      .cls-15 {
        fill: #7a9448;
      }

      .cls-16 {
        fill: #5e7637;
      }
    </style>
  </defs>
  <g>
    <path class="cls-12" d="M24.83,5.68c-.28,0-.54-.08-.76-.21l-1.8,1.7c.15.21.24.47.24.75,0,.75-.65,1.36-1.44,1.36s-1.44-.63-1.44-1.38c0-.64.47-1.15,1.1-1.3V0h-1.35c-1.12,1.06-1.75,1.66-2.88,2.72v8.42h6.97c.15-.6.72-1.04,1.4-1.04.28,0,.54.08.76.21l1.8-1.7c-.15-.21-.24-.47-.24-.75,0-.75.65-1.36,1.44-1.36s1.44.61,1.44,1.36c0,.64-.47,1.17-1.1,1.32v6.59h-.68v-6.59c-.13-.03-.25-.08-.36-.14l-1.82,1.72c.13.2.21.44.21.69,0,.75-.65,1.36-1.44,1.36-.68,0-1.24-.45-1.4-1.04h-6.97v1.28c1.12,1.06,1.75,1.66,2.88,2.72h10.94c1.12-1.06,1.75-1.66,2.88-2.72V4.64h-6.97c-.15.6-.72,1.04-1.4,1.04"/>
    <path class="cls-12" d="M30.32,0h-8.91v6.59c.13.03.25.08.36.14l1.82-1.72c-.13-.2-.21-.44-.21-.69,0-.75.65-1.36,1.44-1.36.68,0,1.24.45,1.4,1.04h6.97v-1.28C32.07,1.66,31.44,1.06,30.32,0"/>
    <path class="cls-4" d="M17.42,27.22c0-.59-.06-1.16-.18-1.71l1.43-.93c-.44-1.57-1.27-2.98-2.38-4.12l-1.52.77c-.84-.76-1.85-1.35-2.96-1.71l-.09-1.71c-.76-.19-1.56-.29-2.38-.29s-1.62.1-2.38.29l-.09,1.71c-1.11.36-2.11.94-2.96,1.71l-1.52-.77c-1.11,1.14-1.94,2.55-2.38,4.12l1.43.93c-.12.55-.18,1.12-.18,1.71s.06,1.16.18,1.71l-1.43.93c.45,1.57,1.27,2.98,2.38,4.12l1.52-.77c.84.76,1.85,1.35,2.96,1.71l.09,1.71c.76.19,1.56.29,2.38.29s1.62-.1,2.38-.29l.09-1.71c1.11-.35,2.11-.94,2.96-1.71l1.52.77c1.11-1.14,1.94-2.55,2.38-4.12l-1.43-.93c.12-.55.18-1.12.18-1.71M9.34,31.09c-2.14,0-3.87-1.73-3.87-3.87s1.73-3.87,3.87-3.87,3.87,1.73,3.87,3.87-1.73,3.87-3.87,3.87"/>
    <path class="cls-2" d="M25.17,22.43l-1.83,1.83-1.3-.28-.28-1.3,1.83-1.83c.15-.15.21-.36.16-.57-.05-.2-.2-.37-.4-.43l-2.23-.71c-.21-.07-.45-.01-.61.15l-2.82,2.82c-.13.13-.2.32-.17.5l.29,2.16-7.17,7.17c-.82.82-.82,2.15,0,2.98l.45.45c.82.82,2.16.82,2.98,0l7.17-7.17,2.16.29c.19.02.37-.04.51-.17l2.82-2.82c.16-.16.22-.39.15-.61l-.71-2.23c-.06-.2-.23-.35-.43-.4-.2-.05-.42.01-.57.16"/>
    <path class="cls-6" d="M17.64,27.82l-5.41,5.41s-.03.09,0,.12l.45.45s.09.04.13,0l5.41-5.41s.03-.09,0-.12l-.45-.45s-.09-.03-.12,0"/>
    <path class="cls-6" d="M21.53,24.5l-.43-2,2.06-2.06-2.23-.71-2.82,2.82.33,2.46-7.38,7.38c-.59.59-.59,1.54,0,2.13l.23.23.23.23c.59.59,1.54.59,2.13,0l7.38-7.38,2.46.33,2.82-2.82-.71-2.23-2.06,2.06-2-.43ZM18.51,27.97c.2.2.2.53,0,.73l-5.41,5.41c-.2.2-.52.2-.73,0l-.45-.45c-.2-.2-.2-.53,0-.73l5.41-5.41c.2-.2.52-.2.72,0l.45.45Z"/>
    <path class="cls-4" d="M45.77,27.22c0-.39-.04-.77-.12-1.14l.96-.63c-.3-1.05-.85-2-1.6-2.76l-1.02.52c-.56-.51-1.24-.9-1.98-1.14l-.06-1.14c-.51-.13-1.04-.2-1.59-.2s-1.08.07-1.59.2l-.06,1.14c-.74.24-1.42.63-1.98,1.14l-1.02-.52c-.74.76-1.3,1.71-1.6,2.76l.96.63c-.08.37-.12.75-.12,1.14s.04.77.12,1.14l-.96.63c.3,1.05.85,2,1.6,2.76l1.02-.52c.56.51,1.24.91,1.98,1.14l.06,1.15c.51.13,1.04.2,1.59.2s1.08-.07,1.59-.2l.06-1.15c.74-.24,1.42-.63,1.98-1.14l1.02.52c.74-.76,1.3-1.71,1.6-2.76l-.96-.63c.08-.37.12-.75.12-1.14M40.36,29.81c-1.43,0-2.59-1.16-2.59-2.59s1.16-2.59,2.59-2.59,2.59,1.16,2.59,2.59-1.16,2.59-2.59,2.59"/>
    <path class="cls-10" d="M32.85,32.45c-1.36-1.56-1.99-3.2-1.99-5.15s.7-3.82,1.99-5.31l.36.41c-1.19,1.42-1.8,3.07-1.8,4.84s.67,3.53,1.8,4.81l-.36.4Z"/>
    <path class="cls-10" d="M47.69,21.99c1.37,1.56,2.01,3.2,2.01,5.15s-.7,3.82-2.01,5.31l-.35-.41c1.18-1.42,1.8-3.07,1.8-4.83s-.67-3.53-1.8-4.82l.35-.4Z"/>
    <path class="cls-9" d="M36.04,29.3c-1.24,0-2.24-1-2.24-2.24s1.01-2.24,2.24-2.24,2.24,1,2.24,2.24-1.01,2.24-2.24,2.24"/>
    <path class="cls-7" d="M36.04,24.94c1.17,0,2.11.95,2.11,2.11s-.95,2.11-2.11,2.11-2.12-.95-2.12-2.11.95-2.11,2.12-2.11M36.04,24.7c-1.3,0-2.36,1.06-2.36,2.36s1.06,2.36,2.36,2.36,2.36-1.06,2.36-2.36-1.06-2.36-2.36-2.36"/>
    <path class="cls-1" d="M39.81,23.33l-2.81,2.04c-.33.24-.46.66-.34,1.04l1.07,3.3c.12.38.48.64.88.64h3.47c.4,0,.76-.26.88-.64l1.07-3.3c.12-.38-.01-.8-.34-1.04l-2.81-2.04c-.33-.24-.77-.24-1.09,0"/>
    <path class="cls-5" d="M37.74,29.71c.12.38.47.63.86.64-.39,0-.74-.26-.86-.64M42.98,29.71c-.12.38-.47.63-.87.64.4,0,.74-.26.87-.64M43.68,27.53l-.71,2.18.71-2.18"/>
    <path class="cls-15" d="M38.84,27.15c-.08.01-.16.02-.24.03-.05.69-.49,1.29-1.15,1.64l.29.88c.12.38.47.64.87.64h3.51c.39,0,.74-.26.86-.64l.71-2.18c-.55-.17-1.16-.3-1.81-.38l-.35.35.28,1.61-1.44-.76-1.44.76.28-1.61-.35-.35Z"/>
  </g>
  <polygon class="cls-2" points="39.19 27.5 38.02 26.36 39.64 26.13 40.36 24.66 41.08 26.13 42.69 26.36 41.52 27.5 41.8 29.1 40.36 28.35 38.91 29.1 39.19 27.5"/>
  <g>
    <path class="cls-11" d="M36.04,24.94h0s-.08,0-.11,0c0,.05-.01.09-.01.14v3.94s0,.09.01.14c.04,0,.07,0,.11,0,.52,0,.99-.18,1.36-.49l-.74-2.27c-.12-.38.01-.8.34-1.04l.15-.11c-.32-.2-.7-.32-1.11-.32"/>
    <path class="cls-8" d="M37.4,28.68c-.37.31-.84.49-1.36.49.52,0,1-.13,1.4-.35l-.05-.14ZM36.04,24.94h0c.41,0,.79.12,1.11.32l.09-.07c-.36-.16-.77-.25-1.2-.25"/>
    <path class="cls-16" d="M37.25,25.19l-.09.07-.15.11c-.33.24-.46.66-.34,1.04l.74,2.27.05.15-.42-1.29c.48-.15,1.01-.27,1.57-.35,0-.04,0-.08,0-.12,0-.05,0-.09,0-.14l-.57-.56.41-.06c-.22-.48-.65-.87-1.18-1.11"/>
    <path class="cls-3" d="M38.6,27.18c-.56.08-1.09.2-1.57.35l.42,1.3c.65-.36,1.1-.96,1.15-1.64"/>
    <path class="cls-10" d="M38.43,26.3l-.41.06.57.56c-.02-.22-.07-.43-.16-.62"/>
    <path class="cls-14" d="M38.16,27.06c0,1.17-.95,2.12-2.12,2.12s-2.11-.95-2.11-2.12.95-2.11,2.11-2.11,2.12.95,2.12,2.11"/>
    <path class="cls-13" d="M37.95,27.06c0,1.05-.85,1.91-1.91,1.91s-1.91-.85-1.91-1.91.85-1.91,1.91-1.91,1.91.85,1.91,1.91"/>
  </g>
  <polygon class="cls-14" points="37.3 26.67 36.43 26.67 36.43 25.81 35.66 25.81 35.66 26.67 34.79 26.67 34.79 27.45 35.66 27.45 35.66 28.31 36.43 28.31 36.43 27.45 37.3 27.45 37.3 26.67"/>
</svg>