<?xml version="1.0" encoding="UTF-8"?>
<svg id="Layer_1" xmlns="http://www.w3.org/2000/svg" viewBox="0 0 52.16 37.62">
  <defs>
    <style>
      .cls-1 {
        fill: #fff;
      }

      .cls-2 {
        fill: #6d6e71;
      }

      .cls-3 {
        fill: #ceb28f;
      }
    </style>
  </defs>
  <path class="cls-3" d="M33.77,18.81c0-1.14-.12-2.24-.35-3.31l2.78-1.81c-.86-3.05-2.47-5.78-4.62-7.99l-2.95,1.5c-1.63-1.48-3.58-2.62-5.73-3.31l-.18-3.31c-1.48-.37-3.02-.57-4.61-.57s-3.14.2-4.61.57l-.18,3.31c-2.15.69-4.1,1.83-5.73,3.31l-2.95-1.5C2.47,7.91.86,10.64,0,13.69l2.78,1.81c-.23,1.07-.35,2.17-.35,3.31s.12,2.24.35,3.31l-2.78,1.81c.86,3.05,2.47,5.78,4.62,7.99l2.95-1.5c1.63,1.48,3.58,2.62,5.73,3.31l.18,3.31c1.48.37,3.02.57,4.61.57s3.14-.2,4.61-.57l.18-3.31c2.15-.69,4.1-1.83,5.73-3.31l2.95,1.5c2.15-2.21,3.76-4.94,4.62-7.99l-2.78-1.81c.23-1.07.35-2.17.35-3.31M18.1,26.31c-4.14,0-7.5-3.36-7.5-7.5s3.36-7.5,7.5-7.5,7.5,3.36,7.5,7.5-3.36,7.5-7.5,7.5"/>
  <path class="cls-1" d="M48.8,9.53l-3.55,3.55-2.52-.54-.54-2.52,3.55-3.55c.29-.29.41-.7.31-1.1s-.39-.71-.78-.84l-4.32-1.37c-.41-.13-.87-.02-1.18.29l-5.46,5.46c-.26.26-.38.62-.33.98l.56,4.19-13.89,13.89c-1.59,1.59-1.59,4.18,0,5.77l.88.88c1.59,1.59,4.18,1.59,5.77,0l13.89-13.89,4.19.56c.36.05.72-.07.98-.33l5.46-5.46c.31-.31.42-.76.29-1.18l-1.37-4.32c-.12-.39-.44-.68-.83-.78-.4-.1-.81.02-1.1.31"/>
  <path class="cls-2" d="M34.19,19.96l-10.5,10.5c-.07.07-.07.18,0,.24l.88.88c.07.07.18.07.24,0l10.49-10.49c.07-.07.07-.18,0-.24l-.88-.88c-.07-.07-.18-.07-.24,0"/>
  <path class="cls-2" d="M41.74,13.53l-.83-3.88,4-4-4.32-1.37-5.46,5.46.63,4.76-14.3,14.3c-1.14,1.14-1.14,2.98,0,4.12l.44.44.44.44c1.14,1.14,2.98,1.14,4.12,0l14.3-14.3,4.76.64,5.46-5.47-1.37-4.32-4,4-3.88-.83ZM35.89,20.26c.39.39.39,1.02,0,1.41l-10.5,10.49c-.39.39-1.02.39-1.41,0l-.88-.88c-.39-.39-.39-1.02,0-1.4l10.49-10.5c.39-.39,1.02-.39,1.41,0l.88.88Z"/>
</svg>