<?xml version="1.0" encoding="UTF-8"?>
<svg id="Layer_1" xmlns="http://www.w3.org/2000/svg" viewBox="0 0 49.82 36.78">
  <defs>
    <style>
      .cls-1 {
        fill: #a3c260;
      }

      .cls-2 {
        fill: #fff;
      }

      .cls-3 {
        fill: #4a5e29;
      }

      .cls-4 {
        fill: #e1ceb8;
      }

      .cls-5 {
        fill: #8b7961;
      }

      .cls-6 {
        fill: #bcbec0;
      }

      .cls-7 {
        fill: #6d6e71;
      }

      .cls-8 {
        fill: #bf9a6b;
      }

      .cls-9 {
        fill: #725c3e;
      }

      .cls-10 {
        fill: #00a88e;
      }

      .cls-11 {
        fill: #939598;
      }

      .cls-12 {
        fill: #065;
      }

      .cls-13 {
        fill: #ceb28f;
      }

      .cls-14 {
        fill: #ece2d6;
      }

      .cls-15 {
        fill: #00a76d;
      }

      .cls-16 {
        fill: #dbc5ab;
      }

      .cls-17 {
        fill: #7a9448;
      }

      .cls-18 {
        fill: #5e7637;
      }
    </style>
  </defs>
  <g>
    <path class="cls-4" d="M17.46,27.05c0-.59-.06-1.16-.18-1.71l1.44-.94c-.44-1.58-1.28-2.99-2.39-4.13l-1.53.77c-.85-.77-1.85-1.35-2.96-1.71l-.09-1.71c-.76-.19-1.56-.3-2.39-.3s-1.62.1-2.39.3l-.09,1.71c-1.11.36-2.12.95-2.96,1.71l-1.53-.77c-1.11,1.14-1.94,2.55-2.39,4.13l1.43.94c-.12.55-.18,1.12-.18,1.71s.06,1.16.18,1.71l-1.43.94c.45,1.58,1.28,2.99,2.39,4.13l1.53-.77c.85.77,1.85,1.36,2.96,1.71l.09,1.71c.76.19,1.56.3,2.39.3s1.62-.1,2.39-.3l.09-1.71c1.11-.36,2.12-.95,2.96-1.71l1.53.77c1.11-1.14,1.94-2.55,2.39-4.13l-1.44-.94c.12-.55.18-1.12.18-1.71M9.36,30.93c-2.14,0-3.88-1.74-3.88-3.88s1.74-3.88,3.88-3.88,3.88,1.74,3.88,3.88-1.74,3.88-3.88,3.88"/>
    <path class="cls-2" d="M25.23,22.25l-1.84,1.84-1.3-.28-.28-1.3,1.84-1.84c.15-.15.21-.36.16-.57-.05-.2-.2-.37-.4-.43l-2.23-.71c-.21-.07-.45-.01-.61.15l-2.83,2.83c-.13.13-.2.32-.17.51l.29,2.17-7.18,7.18c-.82.82-.82,2.16,0,2.98l.45.45c.82.82,2.16.82,2.98,0l7.18-7.18,2.17.29c.19.03.37-.04.51-.17l2.82-2.83c.16-.16.22-.39.15-.61l-.71-2.23c-.06-.2-.23-.35-.43-.4-.2-.05-.42.01-.57.16"/>
    <path class="cls-7" d="M17.68,27.65l-5.43,5.43s-.03.09,0,.12l.45.45s.09.04.13,0l5.43-5.43s.04-.09,0-.12l-.45-.45s-.09-.03-.13,0"/>
    <path class="cls-7" d="M21.58,24.32l-.43-2.01,2.07-2.07-2.23-.71-2.82,2.82.33,2.46-7.39,7.4c-.59.59-.59,1.54,0,2.13l.23.23.23.23c.59.59,1.54.59,2.13,0l7.39-7.39,2.46.33,2.82-2.83-.71-2.23-2.07,2.07-2.01-.43ZM18.56,27.8c.2.2.2.53,0,.73l-5.43,5.43c-.2.2-.53.2-.73,0l-.45-.45c-.2-.2-.2-.53,0-.73l5.43-5.43c.2-.2.53-.2.73,0l.45.45Z"/>
    <path class="cls-4" d="M45.89,27.05c0-.39-.04-.78-.12-1.15l.96-.63c-.3-1.06-.86-2-1.6-2.77l-1.02.52c-.57-.51-1.24-.91-1.99-1.15l-.06-1.15c-.51-.13-1.05-.2-1.6-.2s-1.09.07-1.6.2l-.06,1.15c-.74.24-1.42.63-1.99,1.15l-1.02-.52c-.74.77-1.3,1.71-1.6,2.77l.96.63c-.08.37-.12.75-.12,1.15s.04.78.12,1.15l-.96.63c.3,1.06.86,2,1.6,2.77l1.02-.52c.57.51,1.24.91,1.99,1.15l.06,1.15c.51.13,1.05.2,1.6.2s1.09-.07,1.6-.2l.06-1.15c.74-.24,1.42-.63,1.99-1.15l1.02.52c.74-.77,1.3-1.71,1.6-2.77l-.96-.63c.08-.37.12-.75.12-1.15M40.46,29.65c-1.44,0-2.6-1.16-2.6-2.6s1.16-2.6,2.6-2.6,2.6,1.16,2.6,2.6-1.16,2.6-2.6,2.6"/>
    <path class="cls-11" d="M32.93,32.3c-1.36-1.56-2-3.21-2-5.16s.7-3.83,2-5.33l.36.41c-1.19,1.43-1.8,3.07-1.8,4.86s.67,3.54,1.8,4.82l-.36.4Z"/>
    <path class="cls-11" d="M47.81,21.81c1.37,1.57,2.01,3.21,2.01,5.17s-.7,3.83-2.01,5.33l-.35-.41c1.19-1.43,1.8-3.07,1.8-4.84s-.67-3.54-1.8-4.83l.35-.4Z"/>
    <path class="cls-5" d="M34.43,7.01h-2.96c-.3,0-.54-.24-.54-.54v-2.39h4.04v2.39c0,.3-.24.54-.54.54"/>
    <path class="cls-5" d="M34.81,6.09h-3.73c-.3,0-.54-.24-.54-.54v-3h4.8v3c0,.3-.24.54-.54.54"/>
    <path class="cls-16" d="M34.81,4.8h-3.73c-.3,0-.54-.24-.54-.54V.54c0-.3.24-.54.54-.54h3.73c.3,0,.54.24.54.54v3.73c0,.3-.24.54-.54.54"/>
    <path class="cls-5" d="M26.39,7.01h-2.96c-.3,0-.54-.24-.54-.54v-2.39h4.04v2.39c0,.3-.24.54-.54.54"/>
    <path class="cls-5" d="M26.77,6.09h-3.73c-.3,0-.54-.24-.54-.54v-3h4.8v3c0,.3-.24.54-.54.54"/>
    <path class="cls-16" d="M26.77,4.8h-3.73c-.3,0-.54-.24-.54-.54V.54c0-.3.24-.54.54-.54h3.73c.3,0,.54.24.54.54v3.73c0,.3-.24.54-.54.54"/>
    <path class="cls-5" d="M18.35,7.01h-2.96c-.3,0-.54-.24-.54-.54v-2.39h4.04v2.39c0,.3-.24.54-.54.54"/>
    <path class="cls-5" d="M18.73,6.09h-3.73c-.3,0-.54-.24-.54-.54v-3h4.8v3c0,.3-.24.54-.54.54"/>
    <path class="cls-16" d="M18.73,4.8h-3.73c-.3,0-.54-.24-.54-.54V.54c0-.3.24-.54.54-.54h3.73c.3,0,.54.24.54.54v3.73c0,.3-.24.54-.54.54"/>
  </g>
  <rect class="cls-5" x="19.27" y="1.71" width="3.23" height="3.23"/>
  <rect class="cls-13" x="19.27" y="1" width="3.23" height="3.16"/>
  <rect class="cls-5" x="27.31" y="1.71" width="3.23" height="3.23"/>
  <rect class="cls-13" x="27.31" y="1" width="3.23" height="3.16"/>
  <rect class="cls-5" x="27.31" y="10.38" width="3.23" height="3.23"/>
  <rect class="cls-13" x="27.31" y="9.67" width="3.23" height="3.16"/>
  <rect class="cls-5" x="19.27" y="10.38" width="3.23" height="3.23"/>
  <rect class="cls-13" x="19.27" y="9.67" width="3.23" height="3.16"/>
  <rect class="cls-2" x="31.33" y="6.11" width="3.23" height="3.23"/>
  <rect class="cls-13" x="31.33" y="5.4" width="3.23" height="3.16"/>
  <rect class="cls-2" x="15.25" y="6.11" width="3.23" height="3.23"/>
  <rect class="cls-13" x="15.25" y="5.4" width="3.23" height="3.16"/>
  <g>
    <path class="cls-5" d="M18.35,15.58h-2.96c-.3,0-.54-.24-.54-.54v-2.39h4.04v2.39c0,.3-.24.54-.54.54"/>
    <path class="cls-5" d="M18.73,14.66h-3.73c-.3,0-.54-.24-.54-.54v-3h4.8v3c0,.3-.24.54-.54.54"/>
    <path class="cls-16" d="M18.73,13.37h-3.73c-.3,0-.54-.24-.54-.54v-3.73c0-.3.24-.54.54-.54h3.73c.3,0,.54.24.54.54v3.73c0,.3-.24.54-.54.54"/>
    <path class="cls-5" d="M26.39,15.58h-2.96c-.3,0-.54-.24-.54-.54v-2.39h4.04v2.39c0,.3-.24.54-.54.54"/>
    <path class="cls-5" d="M26.77,14.66h-3.73c-.3,0-.54-.24-.54-.54v-3h4.8v3c0,.3-.24.54-.54.54"/>
    <path class="cls-16" d="M26.77,13.37h-3.73c-.3,0-.54-.24-.54-.54v-3.73c0-.3.24-.54.54-.54h3.73c.3,0,.54.24.54.54v3.73c0,.3-.24.54-.54.54"/>
    <path class="cls-5" d="M34.43,15.58h-2.96c-.3,0-.54-.24-.54-.54v-2.39h4.04v2.39c0,.3-.24.54-.54.54"/>
    <path class="cls-5" d="M34.81,14.66h-3.73c-.3,0-.54-.24-.54-.54v-3h4.8v3c0,.3-.24.54-.54.54"/>
    <path class="cls-16" d="M34.81,13.37h-3.73c-.3,0-.54-.24-.54-.54v-3.73c0-.3.24-.54.54-.54h3.73c.3,0,.54.24.54.54v3.73c0,.3-.24.54-.54.54"/>
    <path class="cls-10" d="M36.13,29.13c-1.24,0-2.25-1.01-2.25-2.24s1.01-2.24,2.25-2.24,2.24,1.01,2.24,2.24-1.01,2.24-2.24,2.24"/>
    <path class="cls-8" d="M36.13,24.77c1.17,0,2.12.95,2.12,2.12s-.95,2.12-2.12,2.12-2.12-.95-2.12-2.12.95-2.12,2.12-2.12M36.13,24.52c-1.31,0-2.37,1.06-2.37,2.37s1.06,2.37,2.37,2.37,2.37-1.06,2.37-2.37-1.06-2.37-2.37-2.37"/>
    <path class="cls-1" d="M39.91,23.15l-2.81,2.04c-.33.24-.46.66-.34,1.04l1.08,3.31c.12.38.48.64.89.64h3.48c.4,0,.76-.26.89-.64l1.08-3.31c.12-.38-.01-.81-.34-1.04l-2.81-2.04c-.33-.24-.77-.24-1.1,0"/>
    <path class="cls-6" d="M37.83,29.55c.12.38.47.64.87.64-.4,0-.74-.27-.87-.64M43.08,29.55c-.12.38-.47.64-.87.64.4,0,.75-.26.87-.64M43.79,27.36l-.71,2.18.71-2.18"/>
    <path class="cls-17" d="M38.93,26.98c-.08.01-.16.02-.24.03-.05.69-.49,1.29-1.15,1.65l.29.89c.12.38.47.64.87.64h3.52c.4,0,.74-.27.87-.64l.71-2.18c-.55-.17-1.16-.3-1.81-.38l-.36.35.28,1.61-1.45-.76-1.45.76.28-1.61-.35-.35Z"/>
  </g>
  <polygon class="cls-2" points="39.29 27.33 38.12 26.19 39.73 25.95 40.46 24.49 41.18 25.95 42.79 26.19 41.62 27.33 41.9 28.94 40.46 28.18 39.01 28.94 39.29 27.33"/>
  <g>
    <path class="cls-12" d="M36.13,24.77h0s-.08,0-.11,0c0,.05-.01.09-.01.14v3.95s0,.09.01.14c.04,0,.07,0,.11,0,.52,0,.99-.19,1.36-.49l-.74-2.28c-.12-.38.01-.8.34-1.04l.15-.11c-.32-.2-.71-.32-1.11-.32"/>
    <path class="cls-9" d="M37.49,28.51c-.37.31-.84.49-1.36.49.52,0,1-.13,1.41-.35l-.05-.15ZM36.13,24.77h0c.41,0,.79.12,1.11.32l.09-.07c-.36-.16-.77-.25-1.21-.25"/>
    <path class="cls-18" d="M37.34,25.02l-.09.07-.15.11c-.33.24-.46.66-.34,1.04l.74,2.28.05.15-.42-1.3c.48-.15,1.01-.27,1.57-.35,0-.04,0-.08,0-.13,0-.05,0-.09,0-.14l-.58-.56.41-.06c-.22-.48-.65-.87-1.19-1.11"/>
    <path class="cls-3" d="M38.69,27.01c-.56.08-1.09.2-1.57.35l.42,1.3c.66-.36,1.1-.96,1.15-1.65"/>
    <path class="cls-11" d="M38.53,26.13l-.41.06.58.56c-.02-.22-.07-.43-.16-.62"/>
    <path class="cls-15" d="M38.25,26.89c0,1.17-.95,2.12-2.12,2.12s-2.12-.95-2.12-2.12.95-2.12,2.12-2.12,2.12.95,2.12,2.12"/>
    <path class="cls-14" d="M38.04,26.89c0,1.06-.86,1.91-1.91,1.91s-1.91-.86-1.91-1.91.86-1.91,1.91-1.91,1.91.86,1.91,1.91"/>
  </g>
  <polygon class="cls-15" points="37.39 26.5 36.52 26.5 36.52 25.63 35.74 25.63 35.74 26.5 34.88 26.5 34.88 27.28 35.74 27.28 35.74 28.14 36.52 28.14 36.52 27.28 37.39 27.28 37.39 26.5"/>
</svg>