<?xml version="1.0" encoding="UTF-8"?>
<svg id="Layer_1" xmlns="http://www.w3.org/2000/svg" viewBox="0 0 62.05 34.58">
  <defs>
    <style>
      .cls-1 {
        fill: #7a6a55;
      }

      .cls-2 {
        fill: #fff;
      }

      .cls-3 {
        fill: #8b7961;
      }

      .cls-4 {
        fill: #bf9a6b;
      }

      .cls-5 {
        fill: #a7a9ac;
      }

      .cls-6 {
        fill: #00a88e;
      }

      .cls-7 {
        fill: #939598;
      }

      .cls-8 {
        fill: #065;
      }

      .cls-9 {
        fill: #ceb28f;
      }

      .cls-10 {
        fill: #ece2d6;
      }

      .cls-11 {
        fill: #00a76d;
      }
    </style>
  </defs>
  <g>
    <path class="cls-9" d="M60.83,34.58H27.06c-.68,0-1.22-.55-1.22-1.22V9.93c0-.68.55-1.22,1.22-1.22h33.77c.67,0,1.22.55,1.22,1.22v23.42c0,.68-.55,1.22-1.22,1.22"/>
    <path class="cls-2" d="M54.79,16.68v-2.38c0-1.02-.83-1.85-1.85-1.85h-2.48v1.62c0,.54-.44.98-.98.98s-.98-.44-.98-.98v-1.62h-9.12v1.62c0,.54-.44.98-.98.98s-.98-.44-.98-.98v-1.62h-2.48c-1.02,0-1.85.83-1.85,1.85v2.38h21.69Z"/>
    <path class="cls-2" d="M33.09,18.64v10.34c0,1.02.83,1.85,1.85,1.85h17.99c1.02,0,1.85-.83,1.85-1.85v-10.34h-21.69ZM39.06,27.45h-2.22c-.54,0-.98-.44-.98-.98s.44-.98.98-.98h2.22c.54,0,.98.44.98.98s-.44.98-.98.98M39.06,23.05h-2.22c-.54,0-.98-.44-.98-.98s.44-.98.98-.98h2.22c.54,0,.98.44.98.98s-.44.98-.98.98M45.05,27.45h-2.22c-.54,0-.98-.44-.98-.98s.44-.98.98-.98h2.22c.54,0,.98.44.98.98s-.44.98-.98.98M45.05,23.05h-2.22c-.54,0-.98-.44-.98-.98s.44-.98.98-.98h2.22c.54,0,.98.44.98.98s-.44.98-.98.98M51.05,27.45h-2.22c-.54,0-.98-.44-.98-.98s.44-.98.98-.98h2.22c.54,0,.98.44.98.98s-.44.98-.98.98M51.05,23.05h-2.22c-.54,0-.98-.44-.98-.98s.44-.98.98-.98h2.22c.54,0,.98.44.98.98s-.44.98-.98.98"/>
    <path class="cls-3" d="M33.09,25.87h-7.26v2.85h7.26v-2.85ZM39.82,25.87h-3.76c-.13.17-.21.38-.21.61,0,.54.44.98.98.98h2.22c.54,0,.98-.44.98-.98,0-.23-.08-.44-.21-.61M45.05,25.49h-2.22c-.05,0-.1,0-.15.01-.16.16-.36.28-.59.33-.15.17-.24.4-.24.64,0,.54.44.98.98.98h1.93c.45-.47.78-1.05.97-1.68-.18-.17-.42-.28-.68-.28M45.05,21.09h-2.02v1.96h2.02c.35,0,.67-.19.84-.47v-1.02c-.17-.28-.48-.47-.84-.47M45.89,16.68h-2.85v1.96h2.85v-1.96ZM45.89,8.71h-2.85v3.74h2.85v-3.74Z"/>
  </g>
  <rect class="cls-5" x="43.04" y="12.45" width="2.85" height="4.23"/>
  <g>
    <path class="cls-5" d="M42.09,25.83c-.09.02-.18.03-.28.03h-1.99c.13.17.21.38.21.61,0,.54-.44.98-.98.98h-2.22c-.54,0-.98-.44-.98-.98,0-.23.08-.44.21-.61h-2.97v2.85h8.72c1.16,0,2.21-.49,2.95-1.27h-1.93c-.54,0-.98-.44-.98-.98,0-.24.09-.47.24-.64M45.89,22.57c-.17.28-.48.47-.84.47h-2.02v1.6c0,.34-.14.64-.36.86.05,0,.1-.01.15-.01h2.22c.26,0,.5.1.68.27.1-.36.16-.73.16-1.12v-2.07ZM45.89,18.64h-2.85v2.45h2.02c.36,0,.67.19.84.47v-2.92Z"/>
    <path class="cls-6" d="M6.82,19.4c-3.57,0-6.47-2.9-6.47-6.46s2.9-6.47,6.47-6.47,6.46,2.9,6.46,6.47-2.9,6.46-6.46,6.46"/>
    <path class="cls-4" d="M6.82,6.83c3.37,0,6.11,2.73,6.11,6.11s-2.73,6.11-6.11,6.11S.72,16.3.72,12.93s2.73-6.11,6.11-6.11M6.82,6.11c-3.76,0-6.82,3.06-6.82,6.82s3.06,6.82,6.82,6.82,6.82-3.06,6.82-6.82-3.06-6.82-6.82-6.82"/>
    <path class="cls-9" d="M41.81,25.87H8.05c-.68,0-1.22-.55-1.22-1.22V1.22c0-.68.55-1.22,1.22-1.22h33.77c.67,0,1.22.55,1.22,1.22v23.42c0,.67-.55,1.22-1.22,1.22"/>
    <path class="cls-2" d="M35.78,7.97v-2.38c0-1.02-.83-1.85-1.85-1.85h-2.48v1.62c0,.54-.44.98-.98.98s-.98-.44-.98-.98v-1.62h-9.12v1.62c0,.54-.44.98-.98.98s-.98-.44-.98-.98v-1.62h-2.48c-1.02,0-1.85.83-1.85,1.85v2.38h21.69Z"/>
    <path class="cls-2" d="M14.08,9.93v10.34c0,1.02.83,1.85,1.85,1.85h17.99c1.02,0,1.85-.83,1.85-1.85v-10.34H14.08ZM20.04,18.74h-2.22c-.54,0-.98-.44-.98-.98s.44-.98.98-.98h2.22c.54,0,.98.44.98.98s-.44.98-.98.98M20.04,14.34h-2.22c-.54,0-.98-.44-.98-.98s.44-.98.98-.98h2.22c.54,0,.98.44.98.98s-.44.98-.98.98M26.04,18.74h-2.22c-.54,0-.98-.44-.98-.98s.44-.98.98-.98h2.22c.54,0,.98.44.98.98s-.44.98-.98.98M26.04,14.34h-2.22c-.54,0-.98-.44-.98-.98s.44-.98.98-.98h2.22c.54,0,.98.44.98.98s-.44.98-.98.98M32.04,18.74h-2.22c-.54,0-.98-.44-.98-.98s.44-.98.98-.98h2.22c.54,0,.98.44.98.98s-.44.98-.98.98M32.04,14.34h-2.22c-.54,0-.98-.44-.98-.98s.44-.98.98-.98h2.22c.54,0,.98.44.98.98s-.44.98-.98.98"/>
    <path class="cls-8" d="M6.82,6.83h0c-.11,0-.22.01-.33.01-.02.13-.04.27-.04.4v11.38c0,.14.01.27.04.4.11,0,.22.01.33.01V6.83Z"/>
    <path class="cls-1" d="M6.82,6.83h0v12.21c3.62,0,6.63-2.15,7.26-4.99v-2.23c-.63-2.84-3.64-4.99-7.26-4.99"/>
    <path class="cls-7" d="M14.08,11.82v2.23c.08-.36.12-.73.12-1.11s-.04-.75-.12-1.12"/>
    <path class="cls-11" d="M12.93,12.93c0,3.37-2.73,6.11-6.11,6.11S.72,16.3.72,12.93s2.73-6.1,6.11-6.1,6.11,2.73,6.11,6.1"/>
    <path class="cls-10" d="M12.33,12.93c0,3.04-2.46,5.5-5.5,5.5S1.32,15.97,1.32,12.93s2.46-5.5,5.5-5.5,5.5,2.47,5.5,5.5"/>
  </g>
  <polygon class="cls-11" points="10.44 11.81 7.95 11.81 7.95 9.32 5.7 9.32 5.7 11.81 3.21 11.81 3.21 14.06 5.7 14.06 5.7 16.55 7.95 16.55 7.95 14.06 10.44 14.06 10.44 11.81"/>
</svg>