<?xml version="1.0" encoding="UTF-8"?>
<svg id="Layer_1" xmlns="http://www.w3.org/2000/svg" viewBox="0 0 77.13 39.1">
  <defs>
    <style>
      .cls-1 {
        fill: #820024;
      }

      .cls-2 {
        fill: #bba371;
      }

      .cls-3 {
        fill: #fff;
      }

      .cls-4 {
        fill: #776846;
      }

      .cls-5 {
        fill: #bf9a6b;
      }

      .cls-6 {
        fill: #725c3e;
      }

      .cls-7 {
        fill: #0089cf;
      }

      .cls-8 {
        fill: #00a88e;
      }

      .cls-9 {
        fill: #939598;
      }

      .cls-10 {
        fill: #065;
      }

      .cls-11 {
        fill: #ceb28f;
      }

      .cls-12 {
        fill: #d71249;
      }

      .cls-13 {
        fill: #ece2d6;
      }

      .cls-14 {
        fill: #00a76d;
      }
    </style>
  </defs>
  <path class="cls-11" d="M30.94,0H6.55C2.93,0,0,2.93,0,6.55v24.3h37.5V6.55c0-3.62-2.93-6.55-6.55-6.55"/>
  <rect class="cls-3" x="5.89" y="6.73" width="25.72" height="24.12"/>
  <g>
    <path class="cls-5" d="M29.32,28.25H8.18c-.36,0-.66.29-.66.66v1.29c0,.36.29.66.66.66h21.15c.36,0,.65-.29.65-.66v-1.29c0-.36-.29-.66-.65-.66"/>
    <path class="cls-5" d="M29.32,23.33H8.18c-.36,0-.66.29-.66.66v1.29c0,.36.29.66.66.66h21.15c.36,0,.65-.29.65-.66v-1.29c0-.36-.29-.66-.65-.66"/>
    <path class="cls-5" d="M29.32,18.4H8.18c-.36,0-.66.29-.66.66v1.29c0,.36.29.66.66.66h21.15c.36,0,.65-.29.65-.66v-1.29c0-.36-.29-.66-.65-.66"/>
    <path class="cls-5" d="M29.32,13.47H8.18c-.36,0-.66.29-.66.66v1.29c0,.36.29.66.66.66h21.15c.36,0,.65-.29.65-.66v-1.29c0-.36-.29-.66-.65-.66"/>
    <path class="cls-5" d="M29.32,8.55H8.18c-.36,0-.66.29-.66.66v1.29c0,.36.29.66.66.66h21.15c.36,0,.65-.29.65-.66v-1.29c0-.36-.29-.66-.65-.66"/>
    <path class="cls-3" d="M77.13,26.8c0-6.79-5.5-12.29-12.29-12.29s-12.29,5.5-12.29,12.29,5.5,12.29,12.29,12.29,12.29-5.5,12.29-12.29"/>
    <path class="cls-2" d="M64.58,37.68v-10.72l-9.28-5.36c-.87,1.6-1.33,3.4-1.33,5.21,0,5.91,4.74,10.74,10.62,10.88"/>
    <path class="cls-3" d="M61.65,29.16c.62,1.28,1.25,2.55,1.87,3.83.11.23.16.45-.04.66-.27.27-.65.2-.82-.17-.57-1.25-1.14-2.5-1.71-3.75-.08-.17-.15-.26-.36-.28-.34-.03-.56-.29-.72-.57-.54-.93-.94-1.91-1.11-2.98-.03-.17-.02-.34,0-.51.03-.24.14-.44.4-.49.28-.05.45.09.57.33.43.89.87,1.78,1.31,2.67.21.42.41.84.62,1.26"/>
    <path class="cls-3" d="M58.5,29.88c.34.71.67,1.4,1.02,2.08.41.82.84,1.63,1.26,2.44.15.3.07.57-.2.7-.27.13-.52.03-.67-.29-.67-1.42-1.33-2.85-1.99-4.28-.09-.21-.18-.32-.44-.26-.31.07-.57-.09-.7-.37-.47-.98-.92-1.97-1.37-2.96-.03-.06,0-.15.02-.23.06.05.15.08.18.14.32.6.63,1.2.95,1.8.06.11.1.23.18.32.05.07.15.1.23.15,0-.09.05-.2.02-.27-.14-.33-.29-.64-.44-.96-.19-.4-.39-.81-.57-1.22-.03-.07.01-.17.02-.25.06.05.15.08.18.14.37.68.73,1.36,1.09,2.04l.08.15c.05.04.12.06.18.08.02-.07.08-.14.06-.19-.06-.17-.14-.33-.22-.5-.27-.59-.54-1.18-.79-1.78-.03-.07.01-.16.02-.24.06.05.15.08.18.15.35.66.68,1.32,1.02,1.98l.07.12c.07.07.15.12.23.18,0-.1.05-.21.02-.29-.28-.65-.58-1.29-.87-1.93-.04-.08-.09-.15-.1-.23-.01-.08.01-.16.02-.25.06.05.14.09.18.15.33.63.66,1.27.99,1.9.12.23.23.46.35.69.33.64.3.78-.18,1.27"/>
    <path class="cls-12" d="M64.84,26.5l9.28-5.36c-1.97-3.22-5.5-5.22-9.28-5.22s-7.31,1.99-9.28,5.22l9.28,5.36Z"/>
    <path class="cls-7" d="M74.39,21.59l-9.28,5.36v10.73c5.88-.14,10.62-4.97,10.62-10.88,0-1.82-.46-3.61-1.33-5.21"/>
    <path class="cls-3" d="M64.84,24.18c-.85,0-1.54-.65-1.54-.92s.69-.48,1.54-.48,1.54.21,1.54.48-.69.92-1.54.92M64.84,17.23s-2.24,3.85-2.24,5.09,1.01,2.24,2.24,2.24,2.24-1,2.24-2.24-2.24-5.09-2.24-5.09"/>
    <path class="cls-3" d="M71.18,25.76c.22-.43.74-.6,1.17-.38.43.22.6.75.38,1.18-.22.43-.75.6-1.17.37-.43-.22-.6-.74-.38-1.17M72.06,30.73c.04-.07.07-.14.11-.21.06-.11.1-.23.14-.34.08-.3.04-.59-.05-.88-.13-.39-.17-.46-.48-.86-.1-.12-.12-.22-.04-.35.07-.12.1-.24,0-.36.04-.08.08-.16.13-.23l.1-.07c.27,0,.51-.09.74-.25.28.15.55.29.84.44-.03.07-.06.11-.08.15-.06.13-.05.16.07.23.17.09.33.18.5.26.13.07.16.05.23-.07.1-.19.2-.37.3-.56.12-.24.25-.48.37-.72.06-.12.05-.15-.07-.22-.18-.1-.36-.2-.55-.29-.09-.05-.12-.03-.18.06-.03.06-.06.12-.09.18-.3-.16-.57-.3-.84-.44,0-.27-.07-.53-.22-.75-.04-.06-.03-.1.05-.15.05.03.1.06.16.08.1.04.13.04.18-.06.1-.18.2-.37.3-.56.05-.1.04-.13-.05-.18-.07-.04-.14-.08-.21-.11-.36-.19-.73-.38-1.09-.58-.12-.06-.15-.06-.2.03-.11.2-.21.39-.31.59-.04.07-.02.12.05.16.06.03.13.07.18.1-.01.14-.1.12-.17.12-.4.03-.72.21-.95.54-.29.44-.31.9-.05,1.36l.05.12c-.03.09-.07.18-.13.26l-.12.05c-.07.04-.15.09-.18.15-.08.19-.21.21-.39.2-.55-.03-.64-.01-1.05.14-.38.13-.67.37-.85.73-.04.08-.07.14-.1.19l3.96,2.09Z"/>
    <path class="cls-3" d="M72.18,26.3c-.07.12-.2.17-.33.12-.13-.05-.21-.2-.16-.32.04-.1.03-.18,0-.26l-.03-.1c-.01-.08.03-.14.1-.16.07-.02.14,0,.18.08l.04.11c.02.09.05.16.14.21.11.07.13.22.06.33"/>
    <path class="cls-3" d="M65.92,32.89l-.07.15c-.19.44-.11.85.24,1.18.14.13.3.25.47.34.56.31,1.13.6,1.7.9.1.05.22.1.33.14.42.14.76.05,1.03-.3.08-.11.15-.22.22-.34l-3.92-2.07Z"/>
    <path class="cls-3" d="M67.79,29.32c-.66,1.24-.97,1.82-1.62,3.07l-.06.12,3.93,2.07c.78-1.47,1.14-2.16,1.83-3.47l-3.93-2.07c-.04.07-.09.16-.15.28"/>
    <path class="cls-3" d="M61.71,26.8c0-6.79-5.5-12.29-12.29-12.29s-12.29,5.5-12.29,12.29,5.5,12.29,12.29,12.29,12.29-5.5,12.29-12.29"/>
    <path class="cls-3" d="M60.21,26.8c0,6.01-4.87,10.88-10.88,10.88s-10.88-4.87-10.88-10.88,4.87-10.88,10.88-10.88,10.88,4.87,10.88,10.88"/>
    <path class="cls-2" d="M49.16,37.68v-10.72l-9.28-5.36c-.87,1.6-1.33,3.4-1.33,5.21,0,5.91,4.74,10.74,10.62,10.88"/>
    <path class="cls-3" d="M46.23,29.16c.62,1.28,1.25,2.55,1.87,3.83.11.23.16.45-.04.66-.27.27-.65.2-.82-.17-.57-1.25-1.14-2.5-1.71-3.75-.08-.17-.15-.26-.36-.28-.34-.03-.56-.29-.71-.57-.54-.93-.94-1.91-1.11-2.98-.03-.17-.02-.34,0-.51.03-.24.14-.44.4-.49.28-.05.45.09.57.33.43.89.87,1.78,1.31,2.67.21.42.41.84.62,1.26"/>
    <path class="cls-3" d="M43.08,29.88c.34.71.67,1.4,1.02,2.08.41.82.84,1.63,1.26,2.44.15.3.07.57-.2.7-.27.13-.52.03-.67-.29-.67-1.42-1.33-2.85-1.99-4.28-.09-.21-.18-.32-.44-.26-.31.07-.57-.09-.7-.37-.47-.98-.92-1.97-1.37-2.96-.03-.06.01-.15.02-.23.06.05.15.08.18.14.32.6.63,1.2.95,1.8.06.11.1.23.18.32.05.07.15.1.23.15,0-.09.05-.2.02-.27-.14-.33-.29-.64-.44-.96-.19-.4-.39-.81-.57-1.22-.03-.07.01-.17.02-.25.06.05.15.08.18.14.37.68.73,1.36,1.09,2.04l.08.15s.12.06.18.08c.02-.07.08-.14.06-.19-.06-.17-.14-.33-.21-.5-.27-.59-.54-1.18-.79-1.78-.03-.07.01-.16.02-.24.06.05.15.08.18.15.35.66.68,1.32,1.02,1.98l.07.12c.07.07.16.12.23.18,0-.1.05-.21.02-.29-.28-.65-.58-1.29-.87-1.93-.04-.08-.09-.15-.1-.23-.01-.08.01-.16.02-.25.06.05.14.09.18.15.33.63.66,1.27.99,1.9.12.23.23.46.35.69.32.64.3.78-.18,1.27"/>
    <path class="cls-12" d="M49.42,26.5l9.28-5.36c-1.97-3.22-5.5-5.22-9.28-5.22s-7.31,1.99-9.28,5.22l9.28,5.36Z"/>
    <path class="cls-7" d="M58.96,21.59l-9.28,5.36v10.73c5.88-.14,10.62-4.97,10.62-10.88,0-1.82-.46-3.61-1.33-5.21"/>
    <path class="cls-3" d="M49.42,24.18c-.85,0-1.54-.65-1.54-.92s.69-.48,1.54-.48,1.54.21,1.54.48-.69.92-1.54.92M49.42,17.23s-2.24,3.85-2.24,5.09,1.01,2.24,2.24,2.24,2.24-1,2.24-2.24-2.24-5.09-2.24-5.09"/>
    <path class="cls-3" d="M55.75,25.76c.22-.43.74-.6,1.17-.38.43.22.6.75.38,1.18-.22.43-.75.6-1.17.37-.43-.22-.6-.74-.38-1.17M56.64,30.73c.04-.07.07-.14.11-.21.06-.11.1-.23.14-.34.08-.3.04-.59-.05-.88-.13-.39-.17-.46-.48-.86-.1-.12-.12-.22-.04-.35.07-.12.1-.24,0-.36.04-.08.08-.16.13-.23l.1-.07c.27,0,.51-.09.74-.25.28.15.55.29.84.44-.03.07-.06.11-.08.15-.06.13-.05.16.07.23.17.09.33.18.5.26.13.07.16.05.23-.07.1-.19.2-.37.3-.56.12-.24.25-.48.37-.72.06-.12.05-.15-.07-.22-.18-.1-.36-.2-.55-.29-.09-.05-.12-.03-.18.06-.03.06-.06.12-.09.18-.3-.16-.57-.3-.84-.44,0-.27-.07-.53-.22-.75-.04-.06-.03-.1.05-.15.05.03.1.06.16.08.1.04.13.04.18-.06.1-.18.2-.37.3-.56.05-.1.04-.13-.05-.18-.07-.04-.14-.08-.21-.11-.36-.19-.73-.38-1.09-.58-.12-.06-.15-.06-.2.03-.11.2-.21.39-.31.59-.04.07-.02.12.05.16.06.03.13.07.18.1-.01.14-.1.12-.17.12-.4.03-.72.21-.95.54-.29.44-.3.9-.05,1.36l.05.12c-.03.09-.07.18-.13.26l-.12.05c-.06.04-.15.09-.18.15-.08.19-.21.21-.39.2-.55-.03-.64-.01-1.05.14-.38.13-.67.37-.85.73-.04.08-.07.14-.1.19l3.96,2.09Z"/>
    <path class="cls-3" d="M56.76,26.3c-.07.12-.2.17-.33.12-.13-.05-.21-.2-.16-.32.04-.1.03-.18,0-.26l-.03-.1c-.01-.08.03-.14.1-.16.07-.02.14,0,.18.08l.04.11c.02.09.05.16.14.21.11.07.13.22.06.33"/>
    <path class="cls-3" d="M50.5,32.89l-.07.15c-.19.44-.11.85.24,1.18.14.13.3.25.47.34.56.31,1.13.6,1.7.9.11.05.22.1.33.14.42.14.76.05,1.03-.3.08-.11.15-.22.22-.34l-3.92-2.07Z"/>
    <path class="cls-3" d="M52.37,29.32c-.66,1.24-.97,1.82-1.62,3.07l-.06.12,3.93,2.07c.78-1.47,1.14-2.16,1.83-3.47l-3.93-2.07c-.04.07-.09.16-.15.28"/>
    <path class="cls-3" d="M46.29,26.8c0-6.79-5.5-12.29-12.29-12.29s-12.29,5.5-12.29,12.29,5.5,12.29,12.29,12.29,12.29-5.5,12.29-12.29"/>
    <path class="cls-3" d="M44.88,26.8c0,6.01-4.87,10.88-10.88,10.88s-10.88-4.87-10.88-10.88,4.87-10.88,10.88-10.88,10.88,4.87,10.88,10.88"/>
    <path class="cls-8" d="M29.47,26.8c0,3.31-2.68,6-5.99,6s-5.99-2.68-5.99-6,2.68-5.99,5.99-5.99,5.99,2.68,5.99,5.99"/>
    <path class="cls-5" d="M23.47,20.1c-3.69,0-6.7,3.01-6.7,6.7s3.01,6.7,6.7,6.7,6.7-3.01,6.7-6.7-3.01-6.7-6.7-6.7M23.47,20.81c3.31,0,5.99,2.68,5.99,5.99s-2.68,5.99-5.99,5.99-5.99-2.68-5.99-5.99,2.68-5.99,5.99-5.99"/>
    <path class="cls-2" d="M33.74,37.68v-10.72l-9.28-5.36c-.87,1.6-1.33,3.39-1.33,5.21,0,5.91,4.74,10.74,10.62,10.88"/>
    <path class="cls-3" d="M30.81,29.16c.62,1.28,1.25,2.55,1.87,3.83.11.23.16.45-.04.66-.27.27-.65.2-.82-.17-.57-1.25-1.14-2.5-1.71-3.75-.08-.17-.16-.26-.36-.28-.34-.03-.56-.29-.71-.57-.54-.93-.94-1.91-1.11-2.98-.03-.17-.02-.34,0-.51.03-.24.14-.44.4-.49.28-.05.45.09.57.33.43.89.87,1.78,1.3,2.67.21.42.41.84.62,1.26"/>
    <path class="cls-3" d="M27.65,29.88c.34.71.67,1.4,1.02,2.08.41.82.84,1.63,1.26,2.44.15.3.07.57-.2.7-.27.13-.52.03-.67-.29-.67-1.42-1.33-2.85-1.99-4.28-.09-.2-.18-.32-.44-.26-.31.07-.57-.09-.7-.37-.47-.98-.92-1.97-1.37-2.96-.03-.06,0-.15.02-.23.06.05.14.08.18.14.32.6.63,1.2.95,1.8.06.11.1.23.18.32.05.07.15.1.23.15,0-.09.06-.2.03-.27-.14-.33-.29-.64-.44-.96-.19-.4-.39-.81-.57-1.22-.03-.07.01-.17.02-.25.06.05.15.08.18.14.37.68.73,1.36,1.09,2.04l.08.15c.05.04.12.06.18.08.02-.07.08-.14.06-.19-.06-.17-.14-.33-.22-.5-.27-.59-.54-1.18-.79-1.78-.03-.07.01-.16.02-.24.06.05.15.08.18.14.35.66.68,1.32,1.02,1.98l.07.12c.07.07.15.12.23.18,0-.1.05-.21.02-.29-.28-.65-.57-1.29-.87-1.93-.04-.08-.09-.15-.1-.23-.01-.08.01-.16.02-.25.06.05.14.09.18.15.33.63.66,1.27.99,1.9.12.23.23.46.35.69.33.64.3.78-.18,1.27"/>
    <path class="cls-12" d="M34,26.5l9.28-5.36c-1.97-3.22-5.5-5.22-9.28-5.22s-7.31,1.99-9.28,5.22l9.28,5.36Z"/>
    <path class="cls-7" d="M43.54,21.59l-9.28,5.36v10.73c5.88-.14,10.62-4.97,10.62-10.88,0-1.82-.46-3.61-1.33-5.21"/>
    <path class="cls-3" d="M34,24.18c-.85,0-1.54-.65-1.54-.92s.69-.48,1.54-.48,1.54.21,1.54.48-.69.92-1.54.92M34,17.23s-2.24,3.85-2.24,5.09,1.01,2.24,2.24,2.24,2.24-1,2.24-2.24-2.24-5.09-2.24-5.09"/>
    <path class="cls-3" d="M40.33,25.76c.22-.43.74-.6,1.17-.38.43.22.6.75.38,1.18-.22.43-.75.6-1.17.37-.43-.22-.6-.74-.38-1.17M41.22,30.73c.04-.07.07-.14.11-.21.06-.11.1-.23.14-.34.08-.3.04-.59-.05-.88-.13-.39-.17-.46-.48-.86-.1-.12-.12-.22-.04-.35.07-.12.1-.24,0-.36.04-.08.08-.16.13-.23l.1-.07c.27,0,.51-.09.74-.25.28.15.55.29.84.44-.04.07-.06.11-.08.15-.06.13-.05.16.07.23.17.09.33.18.5.26.13.07.16.05.23-.07.1-.19.2-.37.3-.56.12-.24.25-.48.37-.72.06-.12.05-.15-.06-.22-.18-.1-.36-.2-.55-.29-.09-.05-.12-.03-.18.06-.03.06-.06.12-.09.18-.3-.16-.57-.3-.84-.44,0-.27-.07-.53-.22-.75-.04-.06-.03-.1.05-.15.05.03.1.06.16.08.1.04.13.04.18-.06.1-.18.2-.37.3-.56.05-.1.04-.13-.05-.18-.07-.04-.14-.08-.21-.11-.36-.19-.73-.38-1.09-.58-.12-.06-.15-.06-.2.03-.11.2-.21.39-.31.59-.04.07-.02.12.05.16.06.03.13.07.18.1-.01.14-.1.12-.17.12-.4.03-.72.21-.95.54-.29.44-.31.9-.05,1.36l.05.12c-.03.09-.08.18-.13.26l-.12.05c-.06.04-.15.09-.18.15-.08.19-.21.21-.39.2-.55-.03-.64-.01-1.05.14-.38.13-.67.37-.85.73-.04.08-.07.14-.1.19l3.96,2.09Z"/>
    <path class="cls-3" d="M41.33,26.3c-.07.12-.2.17-.33.12-.13-.05-.21-.2-.16-.32.04-.1.03-.18,0-.26l-.03-.1c-.01-.08.03-.14.1-.16.07-.02.14,0,.18.08l.04.11c.02.09.05.16.14.21.11.07.13.22.06.33"/>
    <path class="cls-3" d="M35.08,32.89l-.07.15c-.19.44-.11.85.24,1.18.14.13.3.25.47.34.56.31,1.13.6,1.7.9.1.05.22.1.33.14.42.14.76.05,1.03-.3.08-.11.15-.22.22-.34l-3.92-2.07Z"/>
    <path class="cls-3" d="M36.95,29.32c-.66,1.24-.97,1.82-1.62,3.07l-.06.12,3.93,2.07c.78-1.47,1.14-2.16,1.83-3.47l-3.93-2.07c-.04.07-.09.16-.15.28"/>
    <path class="cls-9" d="M23.47,20.81h0c.46,0,.91.05,1.35.15-.43-.1-.88-.15-1.35-.15M24.82,32.65c-.43.1-.88.15-1.35.15.46,0,.91-.05,1.35-.15Z"/>
    <path class="cls-9" d="M24.82,20.96h0s0,0,0,0h0s0,0,0,0M29.52,23.91c.12.25.23.52.32.79l.56.32c-.11-.29-.24-.57-.4-.84l-.48-.28ZM24.82,32.64s0,0,0,0c0,0,0,0,0,0"/>
    <path class="cls-10" d="M23.47,20.81h0c-.11,0-.21,0-.32.01-.02.13-.03.26-.03.4v5.48c.02-1.78.48-3.53,1.33-5.1l4.39,2.53c-.17-.33-.36-.65-.59-.94l-3.54-2.04c.04-.06.07-.12.11-.18,0,0,0,0,0,0-.43-.1-.88-.15-1.35-.15M23.12,26.91v5.47c0,.14.01.27.03.4.11,0,.21.01.32.01h0c.46,0,.91-.05,1.35-.15,0,0,0,0,0,0-1.06-1.66-1.68-3.62-1.7-5.73"/>
    <path class="cls-6" d="M23.47,20.81h0ZM23.47,20.81c.46,0,.91.05,1.34.15,0,0,0,0,0,0,.01-.02.02-.03.03-.04-.45-.07-.91-.11-1.38-.11M28.25,23.18c.22.29.42.61.59.94l1,.57c-.09-.27-.2-.53-.32-.79l-1.26-.73ZM24.82,32.64h0c-.43.1-.88.15-1.35.15.47,0,.93-.04,1.38-.11,0-.02-.02-.03-.03-.04M23.47,32.8h0"/>
    <path class="cls-4" d="M24.45,21.6c-.86,1.57-1.32,3.33-1.33,5.1v.21c.02,2.11.64,4.07,1.7,5.73,0,.02.02.03.03.05,1.01-.16,1.95-.5,2.77-.97-.18-.4-.37-.79-.55-1.19-.08-.17-.15-.27-.31-.27-.04,0-.08,0-.13.02-.05.01-.1.02-.15.02-.24,0-.44-.15-.55-.39-.47-.98-.92-1.97-1.37-2.96-.03-.06.01-.15.02-.23.06.05.15.08.18.14.32.6.63,1.2.95,1.8.06.11.1.23.18.32.05.07.15.1.23.15.01-.09.05-.19.02-.27-.13-.33-.29-.64-.44-.96-.19-.4-.39-.81-.57-1.22-.03-.07,0-.16.02-.25.06.05.15.08.18.14.37.68.73,1.36,1.09,2.04l.08.15s.12.06.18.08c.02-.07.08-.14.06-.19-.06-.17-.14-.33-.22-.5-.27-.59-.54-1.18-.79-1.78-.03-.07.01-.16.02-.24.06.05.15.08.18.14.35.66.68,1.32,1.02,1.98l.07.12c.07.07.16.12.23.18,0-.1.05-.21.02-.29-.28-.65-.58-1.29-.87-1.93-.04-.08-.09-.15-.1-.23-.01-.08.01-.17.02-.25.06.05.14.09.18.15.34.63.66,1.27.99,1.9.12.23.23.46.35.69.32.64.3.78-.18,1.27.23.47.45.92.67,1.37.66-.49,1.22-1.09,1.62-1.76-.05-.03-.11-.05-.19-.06-.34-.03-.56-.29-.72-.57-.54-.93-.94-1.91-1.11-2.98-.03-.17-.02-.34,0-.51.03-.24.14-.44.4-.49.04,0,.08-.01.11-.01.22,0,.36.13.46.34.43.89.87,1.78,1.3,2.67.09.17.17.35.26.52.17-.52.27-1.06.27-1.62,0-.62-.11-1.21-.32-1.78l-.56-.32-1-.58-4.39-2.53Z"/>
    <path class="cls-9" d="M28.43,24.89s-.07,0-.11.01c-.27.05-.38.25-.4.49-.02.17-.02.34,0,.51.17,1.07.57,2.05,1.11,2.98.16.27.38.53.72.57.08,0,.14.03.19.06.21-.34.38-.7.51-1.08-.08-.17-.17-.35-.26-.52-.43-.89-.87-1.78-1.3-2.67-.1-.21-.24-.34-.46-.34"/>
    <path class="cls-9" d="M26.32,25.87c0,.08-.03.17-.02.25.01.08.07.16.1.24.29.64.59,1.28.87,1.93.03.08-.01.19-.02.29-.08-.06-.16-.11-.23-.17l-.07-.12c-.34-.66-.67-1.33-1.02-1.99-.03-.06-.12-.1-.18-.14,0,.08-.05.18-.02.24.26.6.53,1.18.79,1.78.07.17.16.33.21.5.02.05-.04.13-.06.19-.06-.03-.13-.04-.18-.08l-.08-.15c-.36-.68-.72-1.36-1.09-2.04-.03-.06-.12-.09-.18-.14,0,.08-.05.18-.02.25.18.41.38.81.57,1.22.15.32.3.64.44.96.03.07-.02.18-.02.27-.08-.05-.17-.08-.23-.15-.08-.09-.12-.21-.18-.32-.32-.6-.63-1.2-.95-1.8-.03-.06-.12-.09-.18-.14,0,.08-.04.17-.02.23.45.99.9,1.98,1.37,2.96.11.23.31.39.56.39.05,0,.1,0,.15-.02.05-.01.09-.02.13-.02.17,0,.24.11.31.27.18.4.37.79.55,1.19.24-.14.48-.3.7-.46-.22-.45-.44-.91-.67-1.37.49-.49.51-.64.18-1.28-.12-.23-.23-.46-.35-.69-.33-.63-.66-1.27-.99-1.9-.03-.06-.12-.1-.18-.15"/>
    <path class="cls-1" d="M24.86,20.92s-.02.03-.03.05c-.04.06-.07.12-.11.18l3.54,2.04,1.26.73.48.28c-.98-1.67-2.87-2.91-5.14-3.28"/>
    <path class="cls-14" d="M29.47,26.8c0,3.31-2.68,5.99-5.99,5.99s-5.99-2.68-5.99-5.99,2.68-5.99,5.99-5.99,5.99,2.68,5.99,5.99"/>
    <path class="cls-13" d="M28.88,26.8c0,2.98-2.42,5.4-5.4,5.4s-5.4-2.42-5.4-5.4,2.42-5.4,5.4-5.4,5.4,2.42,5.4,5.4"/>
  </g>
  <polygon class="cls-14" points="27.03 25.7 24.58 25.7 24.58 23.25 22.37 23.25 22.37 25.7 19.92 25.7 19.92 27.9 22.37 27.9 22.37 30.35 24.58 30.35 24.58 27.9 27.03 27.9 27.03 25.7"/>
  <g>
    <path class="cls-14" d="M29.47,26.8c0,3.31-2.68,5.99-5.99,5.99s-5.99-2.68-5.99-5.99,2.68-5.99,5.99-5.99,5.99,2.68,5.99,5.99"/>
    <path class="cls-13" d="M28.88,26.8c0,2.98-2.42,5.4-5.4,5.4s-5.4-2.42-5.4-5.4,2.42-5.4,5.4-5.4,5.4,2.42,5.4,5.4"/>
  </g>
  <polygon class="cls-14" points="27.03 25.7 24.58 25.7 24.58 23.25 22.37 23.25 22.37 25.7 19.92 25.7 19.92 27.9 22.37 27.9 22.37 30.35 24.58 30.35 24.58 27.9 27.03 27.9 27.03 25.7"/>
</svg>