<?xml version="1.0" encoding="UTF-8"?>
<svg id="Layer_1" xmlns="http://www.w3.org/2000/svg" viewBox="0 0 68.18 30.82">
  <defs>
    <style>
      .cls-1 {
        fill: #d2232a;
        font-family: Arial-BoldMT, Arial;
        font-weight: 700;
      }

      .cls-1, .cls-2 {
        font-size: 24px;
      }

      .cls-3 {
        font-size: 21px;
      }

      .cls-3, .cls-2 {
        font-family: ArialMT, Arial;
      }

      .cls-4 {
        fill: #e7d9c7;
      }

      .cls-5 {
        fill: #bf9a6b;
      }

      .cls-6 {
        fill: #725c3e;
      }

      .cls-7 {
        fill: #00a88e;
      }

      .cls-8 {
        fill: #065;
      }

      .cls-9 {
        fill: #ece2d6;
      }

      .cls-10 {
        fill: #00a76d;
      }

      .cls-11 {
        fill: #888178;
      }
    </style>
  </defs>
  <g>
    <path class="cls-7" d="M3.65,17.61c-1.91,0-3.46-1.55-3.46-3.46s1.55-3.46,3.46-3.46,3.46,1.55,3.46,3.46-1.55,3.46-3.46,3.46"/>
    <path class="cls-5" d="M3.65,10.5c-2.01,0-3.65,1.64-3.65,3.65s1.64,3.65,3.65,3.65,3.65-1.64,3.65-3.65-1.64-3.65-3.65-3.65M3.65,10.88c1.8,0,3.27,1.46,3.27,3.27s-1.46,3.27-3.27,3.27S.38,15.96.38,14.15s1.46-3.27,3.27-3.27"/>
    <path class="cls-5" d="M15,16.6l.12-.42,1.51-1.47-1.54-7.7-1.44-.81-1.45-.85v-2.76c0-1.43-1.07-2.59-2.38-2.59s-2.38,1.16-2.38,2.59v2.76l-1.45.85-1.44.81-1.54,7.7,1.51,1.47.12.42-.37,8.89.25-.1-.25,2.68h4.53l1.01-6.34.89,6.34h4.53l-.22-2.73.35.15-.37-8.89Z"/>
    <path class="cls-4" d="M7.66,5.23l-1.18.69-.06,1.25h.99c.09,0,.18.05.21.12.04.08.03.16-.03.23l-.78.87,1.64,2.32.03-1.84-.81-3.63Z"/>
    <path class="cls-4" d="M11.98,5.23l1.18.69.06,1.25h-.99c-.09,0-.18.05-.21.12-.04.08-.03.16.03.23l.78.87-1.64,2.32-.03-1.84.81-3.63Z"/>
    <path class="cls-4" d="M6.33,8.57c-.1-.08-.11-.21-.03-.3l.61-.68h-.74c-.06,0-.13-.02-.17-.07-.04-.04-.07-.1-.07-.16l.06-1.17-1.44.81-1.54,7.7,1.51,1.47,1.74-1.95c.07-.07.19-.09.27-.03.08.06.1.17.03.25l-1.92,2.15-.37,8.89,3.75-1.57.4-12.67-2.1-2.68Z"/>
    <path class="cls-4" d="M13.08,14.46c-.07-.08-.06-.19.03-.25.08-.06.21-.05.27.03l1.74,1.95,1.51-1.47-1.54-7.7-1.44-.81.05,1.17c0,.06-.02.12-.07.16s-.11.07-.17.07h-.74l.61.68c.08.09.07.22-.03.3l-.97,1.23h1.68v.35h-1.94v-.02l-.88,1.11.4,12.67,3.75,1.57-.37-8.89-1.92-2.15Z"/>
    <path class="cls-8" d="M3.65,10.88h0c-.06,0-.12,0-.18,0-.01.07-.02.14-.02.22v1.38l.32-1.6s-.09,0-.13,0"/>
    <path class="cls-6" d="M3.65,10.88h0s.08,0,.13,0c-.04,0-.09,0-.13,0"/>
    <path class="cls-8" d="M3.46,15.14v2.06c0,.07,0,.15.02.22.06,0,.12,0,.17,0,.34,0,.66-.05.97-.15l.03-.67-.12-.42-1.07-1.04Z"/>
    <path class="cls-6" d="M4.62,17.27c-.31.1-.63.15-.97.15.33,0,.66-.03.97-.1v-.05Z"/>
    <path class="cls-6" d="M6.42,14.17c-.06,0-.11.02-.15.07l-1.74,1.95-1.07-1.04,1.07,1.04.12.42,1.92-2.15c.07-.08.06-.19-.03-.25-.04-.03-.08-.04-.12-.04"/>
    <path class="cls-11" d="M3.78,10.89h0s-.32,1.6-.32,1.6v2.65l1.07,1.04,1.74-1.95s.09-.07.15-.07c.04,0,.09.01.12.04.08.06.1.17.03.25l-1.92,2.15-.03.67v.05c1.71-.36,2.98-1.64,2.98-3.17,0-1.77-1.7-3.21-3.82-3.27"/>
    <path class="cls-10" d="M6.92,14.15c0,1.81-1.46,3.27-3.27,3.27S.38,15.96.38,14.15s1.46-3.27,3.27-3.27,3.27,1.46,3.27,3.27"/>
    <path class="cls-9" d="M6.6,14.15c0,1.63-1.32,2.95-2.95,2.95s-2.95-1.32-2.95-2.95,1.32-2.94,2.95-2.94,2.95,1.32,2.95,2.94"/>
  </g>
  <polygon class="cls-10" points="5.59 13.55 4.25 13.55 4.25 12.22 3.05 12.22 3.05 13.55 1.72 13.55 1.72 14.75 3.05 14.75 3.05 16.09 4.25 16.09 4.25 14.75 5.59 14.75 5.59 13.55"/>
  <text class="cls-3" transform="translate(20.9 21.79)"><tspan x="0" y="0">&lt;</tspan></text>
  <text class="cls-1" transform="translate(34.4 21.79)"><tspan x="0" y="0">7</tspan></text>
  <text class="cls-2" transform="translate(48.4 21.79)"><tspan x="0" y="0">/</tspan></text>
  <text class="cls-1" transform="translate(54.84 21.79)"><tspan x="0" y="0">4</tspan></text>
</svg>