<?xml version="1.0" encoding="UTF-8"?>
<svg id="Layer_1" xmlns="http://www.w3.org/2000/svg" viewBox="0 0 24.54 41.44">
  <defs>
    <style>
      .cls-1 {
        fill: #e7d9c7;
      }

      .cls-2 {
        fill: #bf9a6b;
      }

      .cls-3 {
        fill: #725c3e;
      }

      .cls-4 {
        fill: #00a88e;
      }

      .cls-5 {
        fill: #065;
      }

      .cls-6 {
        fill: #ece2d6;
      }

      .cls-7 {
        fill: #00a76d;
      }

      .cls-8 {
        fill: #888178;
      }
    </style>
  </defs>
  <g>
    <path class="cls-4" d="M5.39,25.99c-2.82,0-5.11-2.29-5.11-5.1s2.29-5.11,5.11-5.11,5.1,2.29,5.1,5.11-2.29,5.1-5.1,5.1"/>
    <path class="cls-2" d="M5.39,15.49c-2.97,0-5.39,2.42-5.39,5.39s2.42,5.39,5.39,5.39,5.39-2.42,5.39-5.39-2.42-5.39-5.39-5.39M5.39,16.06c2.66,0,4.82,2.16,4.82,4.82s-2.16,4.82-4.82,4.82S.57,23.55.57,20.88s2.16-4.82,4.82-4.82"/>
    <path class="cls-2" d="M22.13,24.5l.18-.63,2.23-2.17-2.27-11.36-2.12-1.2-2.14-1.25V3.82c0-2.11-1.57-3.82-3.51-3.82s-3.51,1.71-3.51,3.82v4.08l-2.14,1.25-2.12,1.2-2.27,11.36,2.23,2.17.18.63-.55,13.12.36-.15-.36,3.96h6.68l1.5-9.35,1.3,9.35h6.68l-.33-4.03.52.22-.55-13.12Z"/>
    <path class="cls-1" d="M11.31,7.71l-1.75,1.02-.09,1.85h1.46c.14,0,.26.07.32.18.06.11.04.24-.04.34l-1.16,1.28,2.42,3.42.04-2.72-1.2-5.36Z"/>
    <path class="cls-1" d="M17.68,7.71l1.75,1.02.09,1.85h-1.46c-.13,0-.26.07-.32.18-.06.11-.04.24.04.34l1.16,1.28-2.42,3.42-.04-2.72,1.2-5.36Z"/>
    <path class="cls-1" d="M9.34,12.65c-.14-.11-.16-.31-.04-.44l.91-1.01h-1.09c-.1,0-.19-.04-.25-.1-.07-.06-.1-.15-.1-.23l.08-1.73-2.12,1.2-2.27,11.36,2.23,2.17,2.57-2.87c.1-.11.28-.13.4-.04.12.09.14.25.04.36l-2.83,3.17-.55,13.12,5.54-2.32.59-18.7-3.1-3.95Z"/>
    <path class="cls-1" d="M19.3,21.33c-.1-.11-.08-.27.04-.36.12-.09.3-.07.4.04l2.57,2.87,2.23-2.17-2.27-11.36-2.12-1.2.08,1.73c0,.09-.03.17-.1.23-.07.06-.16.1-.25.1h-1.09l.91,1.01c.12.13.1.33-.04.44l-1.43,1.82h2.48v.52h-2.87v-.03l-1.29,1.65.59,18.7,5.54,2.32-.55-13.12-2.84-3.17Z"/>
    <path class="cls-5" d="M5.39,16.06h0c-.09,0-.17,0-.26.01-.02.1-.03.21-.03.32v2.04l.47-2.37c-.06,0-.12,0-.19,0"/>
    <path class="cls-3" d="M5.39,16.06h0c.06,0,.12,0,.19,0h0c-.06,0-.12,0-.19,0"/>
    <path class="cls-5" d="M5.1,22.34v3.04c0,.11.01.21.03.32.09,0,.17.01.26.01.5,0,.98-.08,1.43-.22l.04-.99-.18-.63-1.58-1.54Z"/>
    <path class="cls-3" d="M6.82,25.49c-.45.14-.93.22-1.43.22.49,0,.97-.05,1.43-.15v-.07Z"/>
    <path class="cls-3" d="M9.47,20.91c-.08,0-.17.03-.22.1l-2.57,2.87-1.58-1.54,1.58,1.54.18.63,2.84-3.17c.1-.11.08-.28-.04-.36-.05-.04-.12-.06-.18-.06"/>
    <path class="cls-8" d="M5.58,16.06h0s-.47,2.37-.47,2.37v3.91l1.58,1.54,2.57-2.87c.06-.06.14-.1.22-.1.06,0,.13.02.18.06.12.09.14.25.04.37l-2.83,3.17-.04.98v.07c2.53-.53,4.4-2.42,4.4-4.68,0-2.61-2.51-4.74-5.64-4.82"/>
    <path class="cls-7" d="M10.21,20.88c0,2.66-2.16,4.82-4.82,4.82S.57,23.55.57,20.88s2.16-4.82,4.82-4.82,4.82,2.16,4.82,4.82"/>
    <path class="cls-6" d="M9.74,20.88c0,2.4-1.95,4.35-4.35,4.35s-4.35-1.95-4.35-4.35,1.95-4.35,4.35-4.35,4.35,1.95,4.35,4.35"/>
  </g>
  <polygon class="cls-7" points="8.25 20 6.27 20 6.27 18.03 4.5 18.03 4.5 20 2.53 20 2.53 21.77 4.5 21.77 4.5 23.74 6.27 23.74 6.27 21.77 8.25 21.77 8.25 20"/>
</svg>