<?xml version="1.0" encoding="UTF-8"?>
<svg id="Layer_1" xmlns="http://www.w3.org/2000/svg" viewBox="0 0 81.28 36.3">
  <defs>
    <style>
      .cls-1 {
        fill: #007a8c;
      }

      .cls-2 {
        fill: #dbc5aa;
      }

      .cls-3 {
        fill: #e7d9c7;
      }

      .cls-4 {
        fill: #f15a29;
      }

      .cls-5 {
        fill: #bf9a6b;
      }

      .cls-6 {
        fill: #262262;
      }

      .cls-7 {
        fill: #ceb28f;
      }

      .cls-8 {
        fill: #faa74a;
      }

      .cls-9 {
        font-family: ArialMT, Arial;
        font-size: 20.26px;
      }
    </style>
  </defs>
  <g>
    <path d="M37.09,16.46c0,.42-.33.74-.77.74s-.76-.32-.76-.76.32-.76.78-.76.76.32.76.77M37.09,19.87c0,.42-.33.74-.77.74s-.76-.32-.76-.77.32-.75.78-.75.76.32.76.77"/>
    <path class="cls-1" d="M81.28,20.46c0-5.7-4.62-10.33-10.33-10.33s-10.33,4.62-10.33,10.33,4.62,10.33,10.33,10.33,10.33-4.62,10.33-10.33"/>
  </g>
  <polygon class="cls-4" points="70.15 28.44 70.15 14.08 71.75 14.08 71.75 28.45 70.15 28.44"/>
  <polygon class="cls-2" points="70.95 5.51 74.91 14.95 67 14.95 70.95 5.51"/>
  <g>
    <path class="cls-4" d="M70.95,30.79c5.7,0,10.33-4.62,10.33-10.33,0-.17-.02-.33-.02-.49-.98.15-1.79.79-2.18,1.67-.36-.17-.77-.26-1.19-.26-1.6,0-2.89,1.29-2.89,2.89,0,.39.08.76.22,1.09-1.07.02-2.01.58-2.56,1.43-.13-.06-.26-.11-.39-.16,0,0,0,0,0,0-.12-.04-.25-.08-.38-.11-.01,0-.03,0-.04-.01-.12-.03-.24-.04-.36-.06-.02,0-.05,0-.07-.01-.15-.02-.29-.03-.44-.03s-.29,0-.44.03c-.02,0-.05,0-.07.01-.12.02-.24.03-.36.06-.01,0-.03,0-.04.01-.13.03-.26.07-.38.11,0,0,0,0,0,0-.13.04-.27.1-.39.16-.54-.84-1.48-1.4-2.56-1.43.14-.34.22-.71.22-1.09,0-1.6-1.29-2.89-2.89-2.89-.43,0-.83.1-1.19.26-.4-.87-1.21-1.51-2.18-1.67,0,.17-.02.33-.02.49,0,5.7,4.63,10.33,10.33,10.33"/>
    <path class="cls-8" d="M59.07,16.1l-2.98-5.16-.97,1.68c-4.79-2.77-10.95-1.12-13.71,3.67l1.79,1.03c2.2-3.81,7.08-5.11,10.89-2.92l-.97,1.68h5.96Z"/>
    <path class="cls-5" d="M51.42,16.58l-1.79-4.72-1.97-1.27-.3-.4v-.42c.29-.4.47-.93.47-1.51,0-1.27-.85-2.29-1.9-2.29s-1.9,1.03-1.9,2.29c0,.58.18,1.1.47,1.51v.42l-.3.4-1.97,1.27-1.93,4.03.18,2.16,1.36.41.55-.22.02.59s0,0,.02,0l-.03,1.05-.91,9.8h3.63l.81-5.61.71,5.61h3.63l-.81-9.8v-.48s1.96-1.43,1.96-1.43v-1.39Z"/>
    <path class="cls-3" d="M47.08,17.83s-.04-.16-.1-.28l2.53-1.71-.06-.09-2.52,1.7s-.05-.08-.08-.12l2.46-1.74-.06-.08-2.47,1.75c-.13-.12-.32-.2-.57-.17-.08.01-.15.04-.22.08l-3.2-1.17-.04.1,3.14,1.15s-.03.03-.05.05c-.03.03-.05.07-.06.11l-3.12-1.05-.03.1,3.11,1.05c-.02.05-.03.11-.04.17l-3.16-1-.03.1,3.18,1.01c0,.13,0,.23,0,.28l-3.36-.97,1.07,1.69,2.88.61.59-.07-.02-.81.5-.43,1.7-.66.53-.73.21-.7-2.71,1.86ZM45.76,18.07h0,0ZM45.81,18.06s-.07-.45.12-.7c.07-.09.17-.15.29-.16.64-.08.76.64.76.67h.05s-1.22.19-1.22.19Z"/>
  </g>
  <polygon class="cls-3" points="43.86 14.55 43.52 14.53 42.77 13.21 43.01 13.07 43.86 14.55"/>
  <polygon class="cls-3" points="43.96 15.31 44.17 15.67 44.59 16.12 44.42 15.52 44.28 15.29 43.96 15.31"/>
  <polygon class="cls-3" points="44.51 10.19 45.76 10.83 45.14 11.68 44.21 10.6 44.51 10.19"/>
  <polygon class="cls-3" points="47.37 10.19 46.12 10.83 46.74 11.68 47.67 10.6 47.37 10.19"/>
  <rect class="cls-3" x="46.9" y="13.51" width="2.07" height="1.27"/>
  <polygon class="cls-3" points="44.44 11.32 45.14 12.12 45.8 11.17 45.8 14.55 44.44 11.32"/>
  <polygon class="cls-3" points="47.43 11.32 46.73 12.12 46.07 11.17 46.07 14.55 47.43 11.32"/>
  <polygon points="28.79 19.59 28.79 16.08 29.6 16.08 29.6 19.59 33.23 19.59 33.23 20.39 29.6 20.39 29.6 23.91 28.79 23.91 28.79 20.39 25.16 20.39 25.16 19.59 28.79 19.59"/>
  <text class="cls-9" transform="translate(14.67 26.12)"><tspan x="0" y="0">3</tspan></text>
  <g>
    <path class="cls-6" d="M10.18,36.3H1.4c-.25,0-.45-.2-.45-.45v-5.81c0-.25.2-.45.45-.45h8.79c.25,0,.45.2.45.45v5.81c0,.25-.2.45-.45.45"/>
    <path class="cls-5" d="M4.74,29.88s-1.61,1.32-1.78,1.51c-.17.2-.16.4-.16.72v2.84c0,.12.12.16.22.06,0,0,.29-1.92.33-2.18.04-.26,1.34-1.05,1.34-1.05l.05-1.9Z"/>
    <path class="cls-2" d="M6.76,29.88s1.61,1.32,1.78,1.51c.17.2.16.4.16.72v2.84c0,.12-.12.16-.22.06,0,0-.29-1.92-.33-2.18-.04-.26-1.34-1.05-1.34-1.05l-.05-1.9Z"/>
    <path class="cls-5" d="M8.74,29.94s-.68,3.69-2.95,3.69-2.95-3.69-2.95-3.69h5.9Z"/>
    <path class="cls-2" d="M6.98,30.98c-.21.84-.56,1.89-1.09,2.65,1.56-.07,2.34-1.9,2.66-2.95-.4.11-.92.23-1.58.3"/>
    <path class="cls-5" d="M7.86,30.04s1.61,1.95,1.78,2.14c.17.2.16.4.16.72v2.84c0,.12-.12.16-.22.06,0,0-.29-1.77-.33-2.02-.04-.26-2.04-1.24-2.04-1.24l.65-2.5Z"/>
    <path class="cls-2" d="M9.27,29.6H2.16v.28s1.28.68,3.63.68,3.62-.68,3.62-.68v-.28h-.15Z"/>
    <path class="cls-2" d="M3.15,30.72c-.48.58-1.11,1.34-1.21,1.46-.17.19-.16.4-.16.72v2.84c0,.12.12.16.22.06,0,0,.29-1.77.33-2.02.04-.26,2.04-1.24,2.04-1.24l-.43-1.64c-.3-.05-.56-.11-.79-.17"/>
    <path class="cls-5" d="M4.14,30.44v-.73s0-.07,0-.11h-1.96c0,.09-.01.19-.02.28.03.02.72.37,1.98.56"/>
    <path class="cls-6" d="M10.18,6.7H1.4c-.25,0-.45-.2-.45-.45V.45c0-.25.2-.45.45-.45h8.79c.25,0,.45.2.45.45v5.81c0,.25-.2.45-.45.45"/>
    <path class="cls-2" d="M9.41,6.7v-.81c0-2.24-2.05-5.31-3.62-5.31s-3.62,3.06-3.62,5.31v.81h7.25Z"/>
    <path class="cls-5" d="M3.28,4.26s.58-1.29,2.51-1.29,2.51,1.29,2.51,1.29c0,0-.58-2.09-2.51-2.09s-2.51,2.09-2.51,2.09"/>
    <path class="cls-5" d="M4.14,6.7v-1.09c0-1.61.58-3.53,1.35-4.98-1.52.34-3.33,3.17-3.33,5.27v.81h7.25s-5.27,0-5.27,0Z"/>
    <path class="cls-6" d="M11.05,22.16H.54c-.3,0-.54-.24-.54-.53v-6.95c0-.29.24-.53.54-.53h10.51c.29,0,.53.24.53.53v6.95c0,.3-.24.53-.53.53"/>
  </g>
  <rect class="cls-5" x="1.45" y="14.14" width="8.67" height="8.02"/>
  <rect class="cls-5" x="1.82" y="15.54" width="7.93" height="5.22"/>
  <polygon class="cls-7" points="4.97 14.14 4.66 14.14 4.66 15.24 6.92 15.24 6.92 14.14 6.61 14.14 4.97 14.14"/>
  <polygon class="cls-7" points="4.97 21.06 4.66 21.06 4.66 22.16 4.97 22.16 6.61 22.16 6.92 22.16 6.92 21.06 6.61 21.06 4.97 21.06"/>
  <g>
    <path class="cls-3" d="M7.73,15.77h-3.88c-.37,0-.72.12-1.01.31-.47.32-.78.86-.78,1.47v3.21h7.44v-3.21c0-.98-.8-1.78-1.78-1.78"/>
    <path class="cls-6" d="M11.05,13.8H.54c-.3,0-.54-.24-.54-.53v-6.95c0-.29.24-.53.54-.53h10.51c.29,0,.53.24.53.53v6.95c0,.3-.24.53-.53.53"/>
  </g>
  <rect class="cls-5" x="1.45" y="5.79" width="8.67" height="8.02"/>
  <rect class="cls-5" x="1.82" y="7.19" width="7.93" height="5.22"/>
  <polygon class="cls-7" points="4.97 5.79 4.66 5.79 4.66 6.88 6.92 6.88 6.92 5.79 6.61 5.79 4.97 5.79"/>
  <polygon class="cls-7" points="4.97 12.71 4.66 12.71 4.66 13.8 4.97 13.8 6.61 13.8 6.92 13.8 6.92 12.71 6.61 12.71 4.97 12.71"/>
  <g>
    <path class="cls-3" d="M7.73,7.42h-3.88c-.37,0-.72.11-1.01.31-.47.32-.78.86-.78,1.47v3.2h7.44v-3.2c0-.98-.8-1.78-1.78-1.78"/>
    <path class="cls-6" d="M11.05,30.52H.54c-.3,0-.54-.24-.54-.53v-6.95c0-.29.24-.53.54-.53h10.51c.29,0,.53.24.53.53v6.95c0,.3-.24.53-.53.53"/>
  </g>
  <rect class="cls-5" x="1.45" y="22.5" width="8.67" height="8.02"/>
  <rect class="cls-5" x="1.82" y="23.9" width="7.93" height="5.22"/>
  <polygon class="cls-7" points="4.97 22.5 4.66 22.5 4.66 23.6 6.92 23.6 6.92 22.5 6.61 22.5 4.97 22.5"/>
  <polygon class="cls-7" points="4.97 29.42 4.66 29.42 4.66 30.52 4.97 30.52 6.61 30.52 6.92 30.52 6.92 29.42 6.61 29.42 4.97 29.42"/>
  <path class="cls-3" d="M7.73,24.13h-3.88c-.37,0-.72.12-1.01.31-.47.32-.78.86-.78,1.47v3.21h7.44v-3.21c0-.98-.8-1.78-1.78-1.78"/>
  <polygon points="13.91 26.89 11.58 26.89 11.58 26.12 13.14 26.12 13.14 10.21 11.58 10.21 11.58 9.44 13.91 9.44 13.91 26.89"/>
  <rect x="11.58" y="17.78" width="1.95" height=".77"/>
  <rect x="13.54" y="17.78" width="2.32" height=".77"/>
</svg>