<?xml version="1.0" encoding="UTF-8"?>
<svg id="Layer_1" xmlns="http://www.w3.org/2000/svg" viewBox="0 0 84.21 28.92">
  <defs>
    <style>
      .cls-1 {
        fill: #007a8c;
      }

      .cls-2 {
        fill: #dbc5aa;
      }

      .cls-3 {
        fill: #e7d9c7;
      }

      .cls-4 {
        fill: #f15a29;
      }

      .cls-5 {
        fill: #bf9a6b;
      }

      .cls-6 {
        fill: #262262;
      }

      .cls-7 {
        fill: #ceb28f;
      }

      .cls-8 {
        font-family: ArialMT, Arial;
        font-size: 20.31px;
      }

      .cls-9 {
        fill: #faa74a;
      }
    </style>
  </defs>
  <g>
    <path class="cls-6" d="M10.54,28.92H1.45c-.25,0-.46-.21-.46-.46v-6.01c0-.26.21-.46.46-.46h9.09c.26,0,.46.21.46.46v6.01c0,.26-.21.46-.46.46"/>
    <path class="cls-5" d="M4.91,22.27s-1.66,1.36-1.84,1.57c-.18.2-.16.42-.16.74v2.94c0,.13.13.16.23.06,0,0,.3-1.99.34-2.26s1.39-1.08,1.39-1.08l.05-1.97Z"/>
    <path class="cls-2" d="M7,22.27s1.66,1.36,1.84,1.57c.18.2.16.42.16.74v2.94c0,.13-.13.16-.23.06,0,0-.3-1.99-.34-2.26-.04-.27-1.39-1.08-1.39-1.08l-.05-1.97Z"/>
    <path class="cls-5" d="M9.05,22.34s-.7,3.81-3.05,3.81-3.05-3.81-3.05-3.81h6.11Z"/>
    <path class="cls-2" d="M7.22,23.41c-.22.87-.58,1.96-1.12,2.74,1.61-.08,2.42-1.96,2.76-3.05-.41.12-.96.24-1.63.31"/>
    <path class="cls-5" d="M8.13,22.44s1.66,2.02,1.84,2.22c.18.2.16.42.16.74v2.94c0,.13-.13.16-.23.06,0,0-.3-1.83-.34-2.09-.04-.27-2.11-1.29-2.11-1.29l.67-2.58Z"/>
    <path class="cls-2" d="M9.59,21.98H2.24v.29s1.33.7,3.75.7,3.75-.7,3.75-.7v-.29h-.16Z"/>
    <path class="cls-2" d="M3.26,23.14c-.5.6-1.15,1.39-1.26,1.51-.18.2-.16.42-.16.74v2.94c0,.13.13.16.23.06,0,0,.3-1.83.34-2.09.04-.26,2.11-1.29,2.11-1.29l-.44-1.7c-.31-.05-.58-.11-.82-.18"/>
    <path class="cls-5" d="M4.29,22.85v-.76s0-.07,0-.11h-2.03c0,.1-.01.19-.02.29.03.02.74.38,2.05.58"/>
    <path class="cls-6" d="M10.54,6.93H1.45c-.25,0-.46-.21-.46-.46V.46c0-.26.21-.46.46-.46h9.09c.25,0,.46.21.46.46v6.01c0,.26-.21.46-.46.46"/>
    <path class="cls-2" d="M9.74,6.93v-.84c0-2.32-2.12-5.49-3.75-5.49s-3.75,3.17-3.75,5.49v.84h7.5Z"/>
    <path class="cls-5" d="M3.39,4.41s.6-1.34,2.6-1.34,2.6,1.34,2.6,1.34c0,0-.6-2.16-2.6-2.16s-2.6,2.16-2.6,2.16"/>
    <path class="cls-5" d="M4.29,6.93v-1.13c0-1.67.6-3.65,1.4-5.16-1.57.35-3.44,3.28-3.44,5.46v.83h7.5s-5.45,0-5.45,0Z"/>
    <path class="cls-6" d="M11.43,14.28H.55c-.31,0-.55-.25-.55-.55v-7.19c0-.31.25-.55.55-.55h10.88c.31,0,.55.25.55.55v7.19c0,.3-.25.55-.55.55"/>
  </g>
  <rect class="cls-5" x="1.5" y="5.99" width="8.98" height="8.3"/>
  <rect class="cls-5" x="1.89" y="7.44" width="8.21" height="5.4"/>
  <polygon class="cls-7" points="5.14 5.99 4.82 5.99 4.82 7.12 7.16 7.12 7.16 5.99 6.84 5.99 5.14 5.99"/>
  <polygon class="cls-7" points="5.14 13.15 4.82 13.15 4.82 14.28 5.14 14.28 6.84 14.28 7.16 14.28 7.16 13.15 6.84 13.15 5.14 13.15"/>
  <g>
    <path class="cls-3" d="M8,7.68H3.99c-.39,0-.74.12-1.04.32-.49.33-.8.89-.8,1.52v3.32h7.7v-3.32c0-1.02-.82-1.84-1.84-1.84"/>
    <path class="cls-6" d="M11.43,22.93H.55c-.31,0-.55-.25-.55-.55v-7.19c0-.31.25-.55.55-.55h10.88c.31,0,.55.25.55.55v7.19c0,.3-.25.55-.55.55"/>
  </g>
  <rect class="cls-5" x="1.5" y="14.64" width="8.98" height="8.3"/>
  <rect class="cls-5" x="1.89" y="16.08" width="8.21" height="5.4"/>
  <polygon class="cls-7" points="5.14 14.64 4.82 14.64 4.82 15.77 7.16 15.77 7.16 14.64 6.84 14.64 5.14 14.64"/>
  <polygon class="cls-7" points="5.14 21.8 4.82 21.8 4.82 22.93 5.14 22.93 6.84 22.93 7.16 22.93 7.16 21.8 6.84 21.8 5.14 21.8"/>
  <path class="cls-3" d="M8,16.32H3.99c-.39,0-.74.12-1.04.32-.49.33-.8.89-.8,1.52v3.32h7.7v-3.32c0-1.02-.82-1.84-1.84-1.84"/>
  <polygon points="14.39 19.18 11.98 19.18 11.98 18.39 13.6 18.39 13.6 10.55 11.98 10.55 11.98 9.76 14.39 9.76 14.39 19.18"/>
  <rect x="14.02" y="14.07" width="2.4" height=".79"/>
  <text class="cls-8" transform="translate(15.33 21.87) scale(1 1.03)"><tspan x="0" y="0">2</tspan></text>
  <polygon points="28.03 15.95 28.03 12.31 28.87 12.31 28.87 15.95 32.62 15.95 32.62 16.78 28.87 16.78 28.87 20.42 28.03 20.42 28.03 16.78 24.27 16.78 24.27 15.95 28.03 15.95"/>
  <g>
    <path d="M38.48,12.71c0,.44-.34.77-.79.77s-.79-.33-.79-.79.33-.78.8-.78.78.33.78.8M38.48,16.24c0,.44-.34.77-.79.77s-.79-.33-.79-.79.33-.78.8-.78.78.33.78.8"/>
    <path class="cls-1" d="M84.21,16.85c0-5.9-4.79-10.69-10.69-10.69s-10.69,4.79-10.69,10.69,4.79,10.69,10.69,10.69,10.69-4.79,10.69-10.69"/>
  </g>
  <polygon class="cls-4" points="72.7 25.11 72.7 10.24 74.35 10.24 74.35 25.12 72.7 25.11"/>
  <polygon class="cls-2" points="73.52 1.38 77.62 11.15 69.43 11.15 73.52 1.38"/>
  <g>
    <path class="cls-4" d="M73.52,27.54c5.9,0,10.69-4.79,10.69-10.69,0-.17-.02-.34-.02-.51-1.01.16-1.85.82-2.26,1.72-.38-.17-.79-.27-1.23-.27-1.65,0-2.99,1.34-2.99,2.99,0,.4.08.78.22,1.13-1.11.02-2.08.6-2.65,1.48-.13-.06-.27-.12-.41-.16,0,0,0,0,0,0-.13-.04-.26-.08-.4-.11-.01,0-.03,0-.04-.01-.12-.03-.25-.05-.38-.06-.03,0-.05,0-.08-.01-.15-.02-.3-.03-.45-.03s-.3,0-.45.03c-.03,0-.05,0-.08.01-.13.02-.25.04-.37.06-.02,0-.03,0-.04.01-.14.03-.27.07-.4.11,0,0,0,0,0,0-.14.05-.27.1-.41.16-.57-.87-1.54-1.45-2.65-1.48.14-.35.22-.73.22-1.13,0-1.65-1.34-2.99-2.99-2.99-.44,0-.86.1-1.23.27-.41-.9-1.25-1.57-2.26-1.72,0,.17-.02.34-.02.51,0,5.91,4.79,10.69,10.69,10.69"/>
    <path class="cls-9" d="M61.23,12.33l-3.08-5.34-1.01,1.74c-4.96-2.86-11.33-1.16-14.19,3.8l1.85,1.07c2.27-3.94,7.33-5.29,11.27-3.02l-1.01,1.74h6.17Z"/>
    <path class="cls-5" d="M53.32,12.83l-1.85-4.88-2.04-1.31-.31-.41v-.44c.3-.42.49-.96.49-1.56,0-1.31-.88-2.37-1.97-2.37s-1.97,1.06-1.97,2.37c0,.6.18,1.15.49,1.56v.44l-.31.41-2.04,1.31-2,4.17.19,2.23,1.4.42.57-.23.02.61s.01,0,.02,0l-.03,1.09-.94,10.14h3.75l.84-5.8.73,5.8h3.75l-.83-10.14v-.5s2.02-1.48,2.02-1.48v-1.44Z"/>
    <path class="cls-3" d="M48.82,14.13s-.04-.16-.1-.29l2.62-1.77-.06-.09-2.61,1.76s-.05-.08-.09-.12l2.55-1.8-.06-.09-2.56,1.81c-.14-.12-.32-.21-.59-.17-.08.01-.16.04-.22.08l-3.31-1.21-.04.1,3.25,1.19s-.03.03-.05.05c-.03.03-.05.07-.07.11l-3.23-1.09-.03.1,3.22,1.09c-.02.06-.03.12-.04.17l-3.27-1.04-.03.1,3.29,1.04c0,.13,0,.24,0,.29l-3.48-1,1.1,1.75,2.98.63.62-.08-.02-.84.51-.45,1.76-.68.54-.76.21-.73-2.81,1.93ZM47.45,14.37h0,0ZM47.51,14.36s-.07-.47.12-.72c.07-.09.17-.15.3-.17.66-.09.78.67.79.7h.05s-1.26.19-1.26.19Z"/>
  </g>
  <polygon class="cls-3" points="45.49 10.74 45.14 10.71 44.36 9.35 44.61 9.2 45.49 10.74"/>
  <polygon class="cls-3" points="45.59 11.52 45.81 11.89 46.25 12.36 46.06 11.74 45.93 11.5 45.59 11.52"/>
  <polygon class="cls-3" points="46.16 6.23 47.45 6.88 46.81 7.76 45.85 6.64 46.16 6.23"/>
  <polygon class="cls-3" points="49.12 6.23 47.83 6.88 48.47 7.76 49.43 6.64 49.12 6.23"/>
  <rect class="cls-3" x="48.63" y="9.66" width="2.15" height="1.31"/>
  <polygon class="cls-3" points="46.09 7.39 46.81 8.22 47.49 7.24 47.49 10.74 46.09 7.39"/>
  <polygon class="cls-3" points="49.18 7.39 48.46 8.22 47.78 7.24 47.78 10.74 49.18 7.39"/>
</svg>