<?xml version="1.0" encoding="UTF-8"?>
<svg id="Layer_1" xmlns="http://www.w3.org/2000/svg" viewBox="0 0 52.09 28.25">
  <defs>
    <style>
      .cls-1 {
        fill: #457aa3;
      }

      .cls-2 {
        fill: #84acbd;
      }

      .cls-3 {
        fill: #4d6975;
      }

      .cls-4 {
        fill: #820024;
      }

      .cls-5 {
        fill: #bba371;
      }

      .cls-6 {
        fill: #fff;
      }

      .cls-7 {
        fill: #bce6fb;
      }

      .cls-8 {
        fill: #bd6aab;
      }

      .cls-9 {
        fill: #776846;
      }

      .cls-10 {
        fill: #85744f;
      }

      .cls-11 {
        fill: #ed1651;
      }

      .cls-12 {
        fill: #804574;
      }

      .cls-13 {
        fill: #bf9a6b;
      }

      .cls-14 {
        fill: #725c3e;
      }

      .cls-15 {
        fill: #a7a9ac;
      }

      .cls-16 {
        fill: #6e8896;
      }

      .cls-17 {
        fill: #0089cf;
      }

      .cls-18 {
        fill: #00a88e;
      }

      .cls-19 {
        fill: #939598;
      }

      .cls-20 {
        fill: #58595b;
      }

      .cls-21 {
        fill: #234864;
      }

      .cls-22 {
        fill: #065;
      }

      .cls-23 {
        fill: #d71249;
      }

      .cls-24 {
        fill: #ece2d6;
      }

      .cls-25 {
        fill: #414042;
      }

      .cls-26 {
        fill: #00a76d;
      }

      .cls-27 {
        fill: #713a66;
      }

      .cls-28 {
        fill: #7d9fd3;
      }

      .cls-29 {
        fill: #fbb040;
      }

      .cls-30 {
        fill: #92002c;
      }

      .cls-31 {
        fill: #4d4d4f;
      }
    </style>
  </defs>
  <g>
    <path class="cls-6" d="M51.68,7.52c0-4.15-3.37-7.52-7.52-7.52s-7.52,3.37-7.52,7.52,3.37,7.52,7.52,7.52,7.52-3.37,7.52-7.52"/>
    <path class="cls-6" d="M50.81,7.52c0,3.68-2.98,6.66-6.66,6.66s-6.65-2.98-6.65-6.66,2.98-6.66,6.65-6.66,6.66,2.98,6.66,6.66"/>
    <path class="cls-5" d="M43.99,14.17v-6.56l-5.68-3.28c-.54.98-.82,2.08-.82,3.19,0,3.62,2.9,6.57,6.5,6.65"/>
    <path class="cls-6" d="M42.21,8.96c.38.78.76,1.56,1.15,2.34.07.14.1.28-.03.4-.16.17-.4.12-.5-.1-.35-.76-.7-1.53-1.05-2.29-.05-.11-.1-.16-.22-.17-.21-.02-.34-.18-.44-.35-.33-.57-.58-1.17-.68-1.82-.02-.1-.01-.21,0-.31.02-.15.08-.27.25-.3.17-.03.28.05.35.2.27.55.53,1.09.8,1.63.13.26.25.51.38.77"/>
    <path class="cls-6" d="M40.27,9.41c.21.43.41.85.62,1.27.25.5.52.99.77,1.49.09.18.04.35-.12.43-.17.08-.32.02-.41-.18-.41-.87-.82-1.74-1.22-2.62-.06-.12-.11-.19-.27-.16-.19.04-.35-.05-.43-.23-.29-.6-.56-1.2-.83-1.81-.02-.04,0-.09.01-.14.04.03.09.05.11.09.2.37.39.73.58,1.1.04.07.07.14.11.2.03.04.09.06.14.09,0-.05.03-.12.02-.16-.08-.2-.18-.39-.27-.59-.12-.25-.24-.49-.35-.74-.02-.04,0-.1.01-.15.04.03.09.05.11.09.23.42.45.83.67,1.25l.05.09s.07.04.11.05c.01-.04.05-.09.04-.12-.04-.1-.09-.2-.13-.3-.16-.36-.33-.72-.49-1.09-.02-.04,0-.1.02-.15.04.03.09.05.11.09.21.4.42.81.62,1.21l.04.08s.1.07.14.11c0-.06.03-.13.01-.18-.17-.39-.35-.79-.53-1.18-.02-.05-.05-.09-.06-.14,0-.05,0-.1.01-.15.04.03.09.05.11.09.2.39.41.78.61,1.17.07.14.14.28.21.42.2.39.19.48-.11.78"/>
    <path class="cls-23" d="M44.15,7.34l5.68-3.28c-1.2-1.97-3.37-3.19-5.68-3.19s-4.47,1.22-5.68,3.19l5.68,3.28Z"/>
    <path class="cls-17" d="M49.99,4.33l-5.68,3.28v6.56c3.6-.09,6.49-3.04,6.49-6.65,0-1.11-.28-2.21-.82-3.19"/>
    <path class="cls-6" d="M44.15,1.66s-1.37,2.35-1.37,3.11.61,1.37,1.37,1.37,1.37-.61,1.37-1.37-1.37-3.11-1.37-3.11M44.15,5.91c-.52,0-.94-.4-.94-.56s.42-.29.94-.29.94.13.94.29-.42.56-.94.56"/>
    <path class="cls-6" d="M48.57,9.93s.04-.08.07-.13c.04-.07.06-.14.08-.21.05-.18.02-.36-.03-.54-.08-.24-.1-.28-.3-.53-.06-.08-.07-.14-.02-.22.04-.07.06-.15,0-.22.03-.05.05-.1.08-.14l.06-.04c.17,0,.32-.06.45-.15.17.09.33.18.51.27-.02.04-.04.07-.05.1-.04.08-.03.1.05.14.1.06.2.11.31.16.08.04.1.03.14-.05.06-.11.12-.23.18-.34.08-.15.15-.29.23-.44.04-.08.03-.09-.04-.13-.11-.06-.22-.12-.34-.18-.06-.03-.08-.02-.11.04-.02.03-.04.07-.06.11-.18-.09-.35-.18-.51-.27,0-.17-.04-.32-.13-.46-.03-.04-.02-.06.03-.09.03.02.07.04.1.05.06.03.08.02.11-.03.06-.11.12-.23.18-.34.03-.06.02-.08-.03-.11-.04-.02-.09-.05-.13-.07-.22-.12-.45-.24-.67-.35-.07-.04-.09-.04-.12.02-.07.12-.13.24-.19.36-.02.04-.01.07.03.1.04.02.08.04.11.06,0,.08-.06.07-.1.07-.24.02-.44.13-.58.33-.18.27-.19.55-.03.83l.03.07c-.02.06-.05.11-.08.16l-.07.03s-.09.05-.11.09c-.05.11-.13.13-.24.12-.33-.02-.39,0-.64.08-.23.08-.41.22-.52.45-.02.05-.04.08-.06.12l2.42,1.28ZM48.03,6.88c.14-.26.46-.36.72-.23.26.14.36.46.23.72-.13.26-.46.36-.72.23-.26-.14-.37-.45-.23-.72"/>
    <path class="cls-6" d="M48.64,7.22c-.04.07-.12.1-.2.07-.08-.03-.13-.12-.1-.2.02-.06.01-.11,0-.16l-.02-.06s.02-.09.06-.1c.04-.01.09,0,.11.05l.02.07c.01.05.03.1.09.13.07.04.08.13.04.2"/>
    <path class="cls-6" d="M44.81,11.24l-.05.09c-.12.27-.07.52.15.72.09.08.19.15.29.21.34.19.69.37,1.04.55.06.03.13.06.2.08.26.09.47.03.63-.18.05-.07.09-.14.14-.21l-2.4-1.27Z"/>
    <path class="cls-6" d="M45.96,9.06c-.4.76-.59,1.12-.99,1.88l-.04.07,2.41,1.27c.48-.9.7-1.32,1.12-2.12l-2.4-1.27s-.05.1-.09.17"/>
    <path class="cls-15" d="M40.35,1.04c-.31.18-.6.38-.88.61.23.18.44.38.65.58.28-.21.57-.4.88-.57-.2-.22-.42-.42-.65-.62"/>
    <path class="cls-15" d="M41,1.66c-.31.17-.6.36-.88.57,0,0,0,0,0,0,.28-.21.57-.4.88-.57,0,0,0,0,0,0"/>
    <path class="cls-15" d="M40.12,12.81c-.2.21-.42.4-.65.58.28.22.57.42.88.61.23-.2.44-.4.65-.62-.31-.17-.6-.36-.88-.57"/>
    <path class="cls-15" d="M40.12,12.81s0,0,0,0c.28.21.57.4.88.57h0c-.31-.17-.6-.36-.88-.57M42.18,6.2c.02.13.04.27.06.41l1.09.63c0-.13-.01-.26-.02-.38l-1.12-.65Z"/>
    <path class="cls-10" d="M41.97,9.73c-.18.58-.42,1.12-.72,1.63.14.27.28.54.42.81.09.18.04.35-.12.43-.05.02-.1.03-.14.03-.11,0-.2-.07-.27-.21-.08-.17-.16-.35-.24-.52-.23.32-.49.63-.77.91.28.21.57.4.88.57.64-.68,1.18-1.47,1.57-2.34-.2-.44-.4-.88-.6-1.32M42.24,6.6c.04.3.06.61.06.92,0,.47-.04.93-.12,1.37.01.02.02.05.03.07.22.45.44.9.66,1.35.3-.87.47-1.81.47-2.79,0-.1,0-.2,0-.29l-1.09-.63Z"/>
    <path class="cls-15" d="M42.17,8.89c-.05.28-.12.56-.2.83.2.44.4.88.6,1.32.11-.24.21-.48.29-.74-.22-.45-.44-.9-.66-1.35-.01-.02-.02-.05-.03-.07"/>
    <path class="cls-15" d="M41.25,11.36c-.11.19-.23.37-.36.54.08.17.16.35.24.52.07.14.16.21.27.21.04,0,.09-.01.14-.03.17-.08.22-.25.12-.43-.14-.27-.28-.54-.42-.81"/>
    <path class="cls-30" d="M41,1.66c-.31.17-.6.36-.88.57,1.05,1.06,1.79,2.43,2.06,3.96l1.12.65c-.03-.39-.09-.77-.17-1.15-.22-.24-.35-.57-.35-.92,0-.06,0-.13.02-.21-.4-1.09-1.02-2.08-1.8-2.91"/>
    <path class="cls-15" d="M42.81,4.57c-.02.08-.03.15-.03.21,0,.35.14.68.35.92-.08-.39-.2-.76-.33-1.13"/>
    <path class="cls-6" d="M42.3,7.52c0-4.15-3.37-7.52-7.52-7.52s-7.52,3.37-7.52,7.52,3.37,7.52,7.52,7.52,7.52-3.37,7.52-7.52"/>
    <path class="cls-6" d="M41.43,7.52c0,3.68-2.98,6.66-6.66,6.66s-6.65-2.98-6.65-6.66,2.98-6.66,6.65-6.66,6.66,2.98,6.66,6.66"/>
    <path class="cls-18" d="M32.01,7.52c0,2.03-1.64,3.67-3.67,3.67s-3.67-1.64-3.67-3.67,1.64-3.67,3.67-3.67,3.67,1.64,3.67,3.67"/>
    <path class="cls-13" d="M28.34,3.85c2.02,0,3.67,1.64,3.67,3.67s-1.64,3.67-3.67,3.67-3.67-1.64-3.67-3.67,1.64-3.67,3.67-3.67M28.34,3.42c-2.26,0-4.1,1.84-4.1,4.1s1.84,4.1,4.1,4.1,4.1-1.84,4.1-4.1-1.84-4.1-4.1-4.1"/>
    <path class="cls-5" d="M34.62,14.17v-6.56l-5.68-3.28c-.54.98-.82,2.08-.82,3.19,0,3.62,2.9,6.57,6.5,6.65"/>
    <path class="cls-6" d="M32.83,8.96c.38.78.76,1.56,1.15,2.34.07.14.1.28-.03.4-.16.17-.4.12-.5-.1-.35-.76-.7-1.53-1.05-2.29-.05-.11-.1-.16-.22-.17-.21-.02-.34-.18-.44-.35-.33-.57-.58-1.17-.68-1.82-.02-.1-.01-.21,0-.31.02-.15.08-.27.25-.3.17-.03.28.05.35.2.27.55.53,1.09.8,1.63.13.26.25.51.38.77"/>
    <path class="cls-6" d="M30.9,9.41c.21.43.41.85.62,1.27.25.5.52.99.77,1.49.09.18.04.35-.12.43-.17.08-.32.02-.41-.18-.41-.87-.82-1.74-1.22-2.62-.06-.12-.11-.19-.27-.16-.19.04-.35-.05-.43-.23-.29-.6-.56-1.2-.83-1.81-.02-.04,0-.09.01-.14.04.03.09.05.11.09.2.37.39.73.58,1.1.04.07.07.14.11.2.03.04.09.06.14.09,0-.05.03-.12.02-.16-.08-.2-.18-.39-.27-.59-.12-.25-.24-.49-.35-.74-.02-.04,0-.1.01-.15.04.03.09.05.11.09.23.42.45.83.67,1.25l.05.09s.07.04.11.05c.01-.04.05-.09.04-.12-.04-.1-.09-.2-.13-.3-.16-.36-.33-.72-.49-1.09-.02-.04,0-.1.02-.15.04.03.09.05.11.09.21.4.42.81.62,1.21l.04.08s.1.07.14.11c0-.06.03-.13.01-.18-.17-.39-.35-.79-.53-1.18-.02-.05-.05-.09-.06-.14,0-.05,0-.1.01-.15.04.03.09.05.11.09.2.39.41.78.61,1.17.07.14.14.28.21.42.2.39.19.48-.11.78"/>
    <path class="cls-23" d="M34.78,7.34l5.68-3.28c-1.21-1.97-3.37-3.19-5.68-3.19s-4.47,1.22-5.68,3.19l5.68,3.28Z"/>
    <path class="cls-17" d="M40.62,4.33l-5.68,3.28v6.56c3.6-.09,6.49-3.04,6.49-6.65,0-1.11-.28-2.21-.82-3.19"/>
    <path class="cls-6" d="M34.78,1.66s-1.37,2.35-1.37,3.11.61,1.37,1.37,1.37,1.37-.61,1.37-1.37-1.37-3.11-1.37-3.11M34.78,5.91c-.52,0-.94-.4-.94-.56s.42-.29.94-.29.94.13.94.29-.42.56-.94.56"/>
    <path class="cls-6" d="M39.2,9.93s.04-.08.07-.13c.04-.07.06-.14.08-.21.05-.18.02-.36-.03-.54-.08-.24-.1-.28-.3-.53-.06-.08-.07-.14-.02-.22.04-.07.06-.15,0-.22.03-.05.05-.1.08-.14l.06-.04c.17,0,.32-.06.45-.15.17.09.33.18.51.27-.02.04-.04.07-.05.1-.04.08-.03.1.05.14.1.06.2.11.31.16.08.04.1.03.14-.05.06-.11.12-.23.18-.34.08-.15.15-.29.23-.44.04-.08.03-.09-.04-.13-.11-.06-.22-.12-.34-.18-.06-.03-.08-.02-.11.04-.02.03-.04.07-.06.11-.18-.09-.35-.18-.51-.27,0-.17-.04-.32-.13-.46-.03-.04-.02-.06.03-.09.03.02.07.04.1.05.06.03.08.02.11-.03.06-.11.12-.23.18-.34.03-.06.02-.08-.03-.11-.04-.02-.09-.05-.13-.07-.22-.12-.45-.24-.67-.35-.07-.04-.09-.04-.12.02-.07.12-.13.24-.19.36-.02.04-.01.07.03.1.04.02.08.04.11.06,0,.08-.06.07-.1.07-.24.02-.44.13-.58.33-.18.27-.19.55-.03.83l.03.07c-.02.06-.05.11-.08.16l-.07.03s-.09.05-.11.09c-.05.11-.13.13-.24.12-.33-.02-.39,0-.64.08-.23.08-.41.22-.52.45-.02.05-.04.08-.06.12l2.42,1.28ZM38.65,6.88c.14-.26.46-.36.72-.23.26.14.36.46.23.72-.13.26-.46.36-.72.23-.26-.14-.37-.45-.23-.72"/>
    <path class="cls-6" d="M39.26,7.22c-.04.07-.12.1-.2.07-.08-.03-.13-.12-.1-.2.02-.06.01-.11,0-.16l-.02-.06s.02-.09.06-.1c.04-.01.09,0,.11.05l.02.07c.01.05.03.1.09.13.07.04.08.13.04.2"/>
    <path class="cls-6" d="M35.44,11.24l-.05.09c-.12.27-.07.52.15.72.09.08.19.15.29.21.34.19.69.37,1.04.55.06.03.13.06.2.08.26.09.47.03.63-.18.05-.07.09-.14.14-.21l-2.4-1.27Z"/>
    <path class="cls-6" d="M36.58,9.06c-.4.76-.59,1.12-.99,1.88l-.04.07,2.41,1.27c.48-.9.7-1.32,1.12-2.12l-2.4-1.27s-.05.1-.09.17"/>
    <path class="cls-19" d="M32.04,5.75c.07.16.14.32.19.48l.34.2c-.07-.18-.15-.35-.24-.51l-.29-.17Z"/>
    <path class="cls-22" d="M28.12,7.58v3.36c0,.08,0,.16.02.24.07,0,.13,0,.2,0,.28,0,.56-.03.82-.09-.65-1.02-1.03-2.22-1.04-3.51M28.34,3.85h0c-.07,0-.13,0-.2,0-.01.08-.02.16-.02.24v3.36c0-1.09.29-2.17.82-3.13l2.68,1.55c-.1-.2-.22-.4-.36-.58l-2.16-1.25s.05-.07.07-.11c-.27-.06-.54-.09-.83-.09"/>
    <path class="cls-14" d="M29.16,11.09c-.26.06-.54.09-.82.09.29,0,.57-.02.84-.07,0,0-.01-.02-.02-.03M31.26,5.31c.14.18.26.37.36.58l.61.35c-.06-.17-.12-.33-.19-.48l-.77-.45ZM28.34,3.85h0c.29,0,.56.03.83.09,0,0,.01-.02.02-.03-.27-.04-.56-.07-.85-.07"/>
    <path class="cls-9" d="M28.94,4.33c-.53.96-.81,2.04-.82,3.13v.12c.01,1.29.39,2.5,1.04,3.51,0,0,.01.02.02.03.62-.1,1.2-.3,1.69-.59-.11-.24-.22-.48-.33-.73-.05-.1-.09-.17-.19-.17-.02,0-.05,0-.08,0-.03,0-.06.01-.09.01-.15,0-.27-.09-.34-.24-.29-.6-.56-1.21-.84-1.81-.02-.04,0-.09.01-.14.04.03.09.05.11.08.2.36.39.73.58,1.1.04.07.06.14.11.2.03.04.09.06.14.09,0-.05.03-.12.02-.16-.08-.2-.18-.39-.27-.59-.12-.25-.24-.49-.35-.74-.02-.04,0-.1.01-.15.04.03.09.05.11.09.23.41.44.83.67,1.25l.05.09s.07.04.11.05c.01-.04.05-.09.03-.12-.03-.1-.09-.2-.13-.3-.16-.36-.33-.72-.49-1.08-.02-.04,0-.1.01-.15.04.03.09.05.11.09.21.4.42.81.62,1.21l.04.08s.1.07.14.11c0-.06.03-.13.01-.18-.17-.4-.35-.79-.53-1.18-.02-.05-.05-.09-.06-.14,0-.05,0-.1.01-.15.04.03.09.05.11.09.2.39.41.77.61,1.16.07.14.14.28.21.42.2.39.19.48-.11.78.14.28.27.56.41.84.41-.3.74-.67.99-1.07-.03-.02-.07-.03-.12-.04-.21-.02-.34-.18-.44-.35-.33-.57-.58-1.17-.68-1.82-.02-.1-.02-.21,0-.31.02-.15.08-.27.25-.3.02,0,.05,0,.07,0,.13,0,.22.08.28.21.27.55.53,1.09.8,1.64.05.11.1.21.16.32.11-.32.16-.65.16-.99,0-.38-.07-.74-.2-1.09l-.34-.2-.61-.35-2.68-1.55Z"/>
    <path class="cls-19" d="M31.37,6.35s-.04,0-.07,0c-.16.03-.23.15-.25.3-.01.1-.01.21,0,.31.1.65.35,1.26.68,1.82.1.17.23.32.44.35.05,0,.09.02.12.04.13-.21.23-.43.31-.66-.05-.11-.1-.21-.16-.32-.27-.55-.53-1.09-.8-1.64-.06-.13-.15-.21-.28-.21"/>
    <path class="cls-19" d="M30.08,6.95c0,.05-.02.1-.01.15,0,.05.04.1.06.14.18.39.36.79.53,1.18.02.05,0,.12-.01.18-.05-.04-.1-.07-.14-.11l-.04-.08c-.21-.4-.41-.81-.62-1.21-.02-.04-.07-.06-.11-.09,0,.05-.03.11-.02.15.16.36.32.72.49,1.08.05.1.1.2.13.3.01.03-.02.08-.04.12-.04-.02-.08-.03-.11-.05l-.05-.09c-.22-.42-.44-.84-.67-1.25-.02-.04-.07-.06-.11-.09,0,.05-.03.11-.01.15.11.25.23.5.35.74.09.2.19.39.27.59.02.04,0,.11-.02.16-.05-.03-.1-.05-.14-.09-.05-.06-.07-.13-.11-.2-.19-.37-.38-.73-.58-1.1-.02-.04-.07-.06-.11-.09,0,.05-.03.1-.01.14.27.61.55,1.21.84,1.81.07.14.19.24.34.24.03,0,.06,0,.09-.01.03,0,.06-.01.08-.01.1,0,.14.07.19.17.11.24.22.48.34.73.15-.09.29-.18.43-.28-.14-.28-.27-.56-.41-.84.3-.3.31-.39.11-.78-.07-.14-.14-.28-.21-.42-.2-.39-.4-.78-.61-1.16-.02-.04-.07-.06-.11-.09"/>
    <path class="cls-4" d="M29.18,3.92s-.01.02-.02.03c-.02.04-.05.07-.07.11l2.16,1.25.77.45.3.17c-.6-1.02-1.76-1.78-3.15-2"/>
    <path class="cls-26" d="M32.01,7.52c0,2.03-1.64,3.67-3.67,3.67s-3.67-1.64-3.67-3.67,1.64-3.67,3.67-3.67,3.67,1.64,3.67,3.67"/>
    <path class="cls-24" d="M31.64,7.52c0,1.83-1.48,3.31-3.31,3.31s-3.3-1.48-3.3-3.31,1.48-3.3,3.3-3.3,3.31,1.48,3.31,3.3"/>
  </g>
  <polygon class="cls-26" points="30.51 6.85 29.01 6.85 29.01 5.35 27.66 5.35 27.66 6.85 26.17 6.85 26.17 8.19 27.66 8.19 27.66 9.69 29.01 9.69 29.01 8.19 30.51 8.19 30.51 6.85"/>
  <g>
    <path class="cls-26" d="M32.01,7.52c0,2.03-1.64,3.67-3.67,3.67s-3.67-1.64-3.67-3.67,1.64-3.67,3.67-3.67,3.67,1.64,3.67,3.67"/>
    <path class="cls-24" d="M31.64,7.52c0,1.83-1.48,3.31-3.31,3.31s-3.3-1.48-3.3-3.31,1.48-3.3,3.3-3.3,3.31,1.48,3.31,3.3"/>
  </g>
  <polygon class="cls-26" points="30.51 6.85 29.01 6.85 29.01 5.35 27.66 5.35 27.66 6.85 26.17 6.85 26.17 8.19 27.66 8.19 27.66 9.69 29.01 9.69 29.01 8.19 30.51 8.19 30.51 6.85"/>
  <g>
    <path class="cls-20" d="M22.11,5.26c0,.57-.44.99-1.02.99s-1.02-.43-1.02-1.02.43-1.01,1.04-1.01,1.01.43,1.01,1.04M22.11,9.82c0,.57-.44.99-1.02.99s-1.02-.43-1.02-1.02.43-1.01,1.04-1.01,1.01.43,1.01,1.04"/>
    <path class="cls-18" d="M27.91,26.53c-2.14,0-3.88-1.74-3.88-3.88s1.74-3.88,3.88-3.88,3.88,1.74,3.88,3.88-1.74,3.88-3.88,3.88"/>
    <path class="cls-13" d="M27.91,18.98c2.02,0,3.67,1.64,3.67,3.67s-1.64,3.67-3.67,3.67-3.67-1.64-3.67-3.67,1.64-3.67,3.67-3.67M27.91,18.55c-2.26,0-4.1,1.84-4.1,4.1s1.84,4.1,4.1,4.1,4.1-1.84,4.1-4.1-1.84-4.1-4.1-4.1"/>
    <path class="cls-6" d="M49.14,17.05h-8.99c-1.62,0-2.95,1.32-2.95,2.95v5.31c0,1.62,1.32,2.95,2.95,2.95h8.99c1.62,0,2.95-1.32,2.95-2.95v-5.31c0-1.62-1.32-2.95-2.95-2.95"/>
    <path class="cls-8" d="M46.92,20.38c-.16-.16-.42-.16-.57,0-.16.16-.16.42,0,.58.45.45.7,1.06.7,1.7s-.25,1.24-.7,1.7c-.16.16-.16.42,0,.58.08.08.18.12.29.12s.21-.04.29-.12c.61-.61.94-1.41.94-2.27s-.33-1.67-.94-2.27"/>
    <path class="cls-8" d="M47.41,19.31c-.16.16-.16.42,0,.57.74.74,1.15,1.72,1.15,2.77s-.41,2.03-1.15,2.77c-.16.16-.16.42,0,.58.08.08.18.12.29.12s.21-.04.29-.12c.89-.89,1.39-2.08,1.39-3.34s-.49-2.45-1.39-3.35c-.16-.16-.41-.16-.57,0"/>
    <path class="cls-8" d="M42.37,20.38c-.61.61-.94,1.41-.94,2.27s.33,1.67.94,2.27c.08.08.18.12.29.12s.21-.04.29-.12c.16-.16.16-.42,0-.58-.45-.45-.7-1.06-.7-1.7s.25-1.24.7-1.7c.16-.16.16-.42,0-.58-.16-.16-.42-.16-.57,0"/>
    <path class="cls-8" d="M40.73,22.65c0-1.05.41-2.03,1.15-2.77.16-.16.16-.42,0-.58-.16-.16-.42-.16-.57,0-.89.89-1.39,2.08-1.39,3.34s.49,2.45,1.39,3.35c.08.08.18.12.29.12s.21-.04.29-.12c.16-.16.16-.42,0-.58-.74-.74-1.15-1.72-1.15-2.77"/>
    <path class="cls-8" d="M49.14,17.78h-8.99c-1.22,0-2.22.99-2.22,2.22v5.31c0,1.22.99,2.22,2.22,2.22h8.99c1.22,0,2.21-.99,2.21-2.22v-5.31c0-1.22-.99-2.22-2.21-2.22M44.65,24.24h.04s.72,2.46.72,2.46h-1.54l.73-2.47h.04ZM50.54,25.3c0,.77-.63,1.4-1.4,1.4h-2.88l-.79-2.7c.46-.28.77-.78.77-1.36,0-.88-.71-1.59-1.59-1.59s-1.59.71-1.59,1.59c0,.58.31,1.08.77,1.36l-.79,2.7h-2.88c-.77,0-1.4-.63-1.4-1.4v-5.31c0-.77.63-1.4,1.4-1.4h8.99c.77,0,1.4.63,1.4,1.4v5.31Z"/>
    <path class="cls-15" d="M43.6,18.6h-1.13c.23.42.36.9.36,1.4v.3s.09.05.12.08c.16.16.16.42,0,.58-.04.04-.08.09-.12.13v3.13s.08.09.12.13c.16.16.16.42,0,.57-.04.04-.08.07-.12.09v.29c0,.51-.13.99-.36,1.4h.56l.79-2.69c-.46-.28-.77-.78-.77-1.36s.32-1.11.81-1.39v-1.27c0-.49-.09-.97-.26-1.4M42.55,17.05h-2.4s-.09,0-.14,0c.69.03,1.32.3,1.8.73h1.36c-.18-.27-.39-.51-.63-.73"/>
    <path class="cls-12" d="M42.82,24.21v.79s.09-.05.12-.08c.16-.16.16-.42,0-.57-.04-.04-.08-.09-.12-.13M42.82,20.29v.79s.08-.09.12-.13c.16-.16.16-.42,0-.57-.04-.04-.08-.07-.12-.09"/>
    <path class="cls-15" d="M43.18,27.52h-1.36c-.49.43-1.11.7-1.8.73.04,0,.09,0,.14,0h2.4c.24-.22.45-.46.63-.73"/>
    <path class="cls-12" d="M43.86,21.27c-.48.27-.81.79-.81,1.39s.31,1.08.77,1.36l-.79,2.7h-.56c-.17.31-.39.58-.65.81h1.36c.43-.63.68-1.39.68-2.22v-4.04ZM43.18,17.78h-1.36c.26.23.48.51.65.81h1.13c-.11-.29-.25-.56-.42-.81"/>
    <path class="cls-6" d="M39.88,17.05h-8.99c-1.62,0-2.95,1.32-2.95,2.95v5.31c0,1.62,1.32,2.95,2.95,2.95h8.99c1.62,0,2.95-1.32,2.95-2.95v-5.31c0-1.62-1.32-2.95-2.95-2.95"/>
    <path class="cls-8" d="M37.65,20.38c-.16-.16-.42-.16-.58,0-.16.16-.16.42,0,.58.45.45.7,1.06.7,1.7s-.25,1.24-.7,1.7c-.16.16-.16.42,0,.58.08.08.18.12.29.12s.21-.04.29-.12c.61-.61.94-1.41.94-2.27s-.33-1.67-.94-2.27"/>
    <path class="cls-8" d="M38.15,19.31c-.16.16-.16.42,0,.57.74.74,1.15,1.72,1.15,2.77s-.41,2.03-1.15,2.77c-.16.16-.16.42,0,.58.08.08.18.12.29.12s.21-.04.29-.12c.89-.89,1.39-2.08,1.39-3.34s-.49-2.45-1.39-3.35c-.16-.16-.42-.16-.57,0"/>
    <path class="cls-8" d="M33.11,20.38c-.61.61-.94,1.41-.94,2.27s.33,1.67.94,2.27c.08.08.18.12.29.12s.21-.04.29-.12c.16-.16.16-.42,0-.58-.45-.45-.7-1.06-.7-1.7s.25-1.24.7-1.7c.16-.16.16-.42,0-.58-.16-.16-.41-.16-.57,0"/>
    <path class="cls-8" d="M31.47,22.65c0-1.05.41-2.03,1.15-2.77.16-.16.16-.42,0-.58-.16-.16-.42-.16-.57,0-.89.89-1.39,2.08-1.39,3.34s.49,2.45,1.39,3.35c.08.08.18.12.29.12s.21-.04.29-.12c.16-.16.16-.42,0-.58-.74-.74-1.15-1.72-1.15-2.77"/>
    <path class="cls-8" d="M39.88,17.78h-8.99c-1.22,0-2.22.99-2.22,2.22v5.31c0,1.22.99,2.22,2.22,2.22h8.99c1.22,0,2.21-.99,2.21-2.22v-5.31c0-1.22-.99-2.22-2.21-2.22M35.38,24.24h.04s.72,2.46.72,2.46h-1.54l.73-2.47h.04ZM41.28,25.3c0,.77-.63,1.4-1.4,1.4h-2.88l-.79-2.7c.46-.28.77-.78.77-1.36,0-.88-.71-1.59-1.59-1.59s-1.59.71-1.59,1.59c0,.58.31,1.08.77,1.36l-.79,2.7h-2.88c-.77,0-1.4-.63-1.4-1.4v-5.31c0-.77.63-1.4,1.4-1.4h8.99c.77,0,1.4.63,1.4,1.4v5.31Z"/>
    <path class="cls-22" d="M27.91,18.98h0c-.07,0-.13,0-.2,0-.01.08-.02.16-.02.24v6.83c0,.08,0,.16.02.24.07,0,.13,0,.2,0,.07,0,.14,0,.21,0-.11-.32-.18-.65-.18-1.01v-5.31c0-.35.06-.69.18-1.01-.07,0-.14,0-.21,0"/>
    <path class="cls-14" d="M28.12,26.31c-.07,0-.14,0-.21,0,.07,0,.14,0,.21,0t0,0M27.91,18.98h0c.07,0,.14,0,.21,0,0,0,0,0,0,0-.07,0-.14,0-.21,0"/>
    <path class="cls-19" d="M31.85,20.96c-.25.52-.38,1.09-.38,1.68s.13,1.17.38,1.69c.19-.3.32-.62.41-.95-.05-.24-.08-.48-.08-.73s.03-.5.08-.73c-.08-.34-.22-.66-.41-.95M29.68,19.29c-.12.21-.19.45-.19.71v5.31c0,.26.07.5.19.71.63-.23,1.18-.57,1.61-.99-.42-.71-.64-1.53-.64-2.37s.22-1.66.64-2.37c-.44-.42-.99-.77-1.61-.99M28.12,18.99s0,0,0,0c-.12.31-.18.65-.18,1.01v5.31c0,.35.06.69.18,1.01,0,0,0,0,0,0,.26-.01.51-.04.75-.08-.13-.28-.2-.6-.2-.93v-5.31c0-.33.07-.64.2-.93-.24-.04-.5-.07-.75-.08"/>
    <path class="cls-27" d="M32.25,21.92c-.06.24-.08.48-.08.73s.03.5.08.73c.06-.24.09-.48.09-.73s-.03-.5-.09-.73"/>
    <path class="cls-27" d="M31.29,20.28c-.42.71-.64,1.53-.64,2.37s.22,1.66.64,2.37c.21-.21.4-.44.56-.68-.25-.52-.38-1.09-.38-1.69s.13-1.16.38-1.68c-.15-.25-.34-.48-.56-.69"/>
    <path class="cls-27" d="M28.87,19.07c-.13.28-.2.6-.2.93v5.31c0,.33.07.64.2.93.28-.05.55-.12.8-.22-.12-.21-.19-.45-.19-.71v-5.31c0-.26.07-.5.19-.71-.26-.09-.52-.16-.8-.22"/>
    <path class="cls-26" d="M31.57,22.65c0,2.03-1.64,3.67-3.67,3.67s-3.67-1.64-3.67-3.67,1.64-3.67,3.67-3.67,3.67,1.64,3.67,3.67"/>
    <path class="cls-24" d="M31.21,22.65c0,1.83-1.48,3.31-3.31,3.31s-3.3-1.48-3.3-3.31,1.48-3.3,3.3-3.3,3.31,1.48,3.31,3.3"/>
  </g>
  <polygon class="cls-26" points="30.08 21.98 28.58 21.98 28.58 20.48 27.23 20.48 27.23 21.98 25.73 21.98 25.73 23.32 27.23 23.32 27.23 24.82 28.58 24.82 28.58 23.32 30.08 23.32 30.08 21.98"/>
  <g>
    <path class="cls-20" d="M21.75,20.39c0,.57-.44.99-1.02.99s-1.02-.43-1.02-1.02.43-1.01,1.04-1.01,1.01.43,1.01,1.04M21.75,24.95c0,.57-.44.99-1.02.99s-1.02-.43-1.02-1.02.43-1.01,1.04-1.01,1.01.43,1.01,1.04"/>
    <rect class="cls-31" x="3.87" y="2.6" width="14.64" height="9.85" rx="1.51" ry="1.51"/>
  </g>
  <polygon class="cls-11" points="2.49 11.4 .22 9.13 .22 5.91 2.49 3.64 5.71 3.64 7.98 5.91 7.98 9.13 5.71 11.4 2.49 11.4"/>
  <path class="cls-13" d="M5.62,3.85l2.15,2.15v3.04l-2.15,2.15h-3.04L.43,9.04v-3.04l2.15-2.15h3.04ZM5.8,3.42h-3.4l-.13.13L.13,5.7l-.13.13v3.4l.13.12,2.15,2.15.13.13h3.4l.13-.13,2.15-2.15.13-.12v-3.4l-.13-.13-2.15-2.15-.13-.13Z"/>
  <g>
    <path class="cls-29" d="M17.02,12.44H5.39c-.83,0-1.51-.67-1.51-1.51v-6.83c0-.83.67-1.51,1.51-1.51h11.63c.83,0,1.51.68,1.51,1.51v6.83c0,.83-.68,1.51-1.51,1.51"/>
    <path class="cls-2" d="M17.02,12.44H5.39c-.83,0-1.51-.67-1.51-1.51v-6.83c0-.83.67-1.51,1.51-1.51h11.63c.83,0,1.51.68,1.51,1.51v6.83c0,.83-.68,1.51-1.51,1.51"/>
    <path class="cls-1" d="M5.36,11.19h-1.25c.11.59.63,1.03,1.25,1.04v-1.04ZM18.51,6.72v4.22c0,.83-.67,1.51-1.51,1.51H5.39h11.63c.83,0,1.51-.68,1.51-1.51v-4.21s0,0-.01,0M13.84,5.74c-.76,0-1.62.12-2.64.46-1.04.34-1.87.45-2.59.45-.06,0-.12,0-.18,0v2.39l-1.23.94v2.25h9.8c.71,0,1.29-.58,1.29-1.29v-4.25c-1.48-.27-2.7-.94-4.45-.94"/>
  </g>
  <polygon class="cls-6" points="12.1 11.63 12.1 4.75 10.94 5.6 10.94 4.37 12.1 3.52 13.26 3.52 13.26 11.63 12.1 11.63"/>
  <path class="cls-7" d="M17,2.81c.71,0,1.29.58,1.29,1.29v6.83c0,.71-.58,1.29-1.29,1.29H5.38c-.71,0-1.29-.58-1.29-1.29v-6.83c0-.71.58-1.29,1.29-1.29h11.63ZM17,2.6H5.38c-.83,0-1.51.68-1.51,1.51v6.83c0,.83.67,1.51,1.51,1.51h11.63c.83,0,1.51-.68,1.51-1.51v-6.83c0-.83-.68-1.51-1.51-1.51"/>
  <rect class="cls-20" x="5.36" y="2.6" width="1.85" height="9.85"/>
  <g>
    <path d="M5.36,6.41v6.04h.03s1.81,0,1.81,0v-5.9c-.62-.08-1.2-.17-1.85-.13"/>
    <path class="cls-3" d="M5.36,3.85h-1.25c-.02.08-.02.17-.02.25v2.55c.46-.15.88-.22,1.27-.25v-2.55Z"/>
    <path class="cls-21" d="M5.36,6.4c-.39.02-.81.1-1.27.25v4.29c0,.09,0,.17.02.25h1.25v-4.78Z"/>
    <path class="cls-3" d="M7.2,5.06v1.48c.39.05.79.1,1.23.11v-.65l-1.23-.94Z"/>
    <path class="cls-21" d="M7.2,6.54v3.44l1.23-.94v-2.39c-.44-.01-.85-.06-1.23-.11"/>
    <path class="cls-16" d="M4.11,3.85h-.2c-.01.08-.02.17-.02.25v6.83c0,.09,0,.17.02.25h.2c-.02-.08-.03-.17-.03-.25v-6.83c0-.09,0-.17.03-.25"/>
    <path class="cls-25" d="M5.62,3.85h-.26v7.33-4.78c.11,0,.21,0,.31,0,.52,0,1.02.07,1.54.14v3.44-4.92l-1.58-1.21Z"/>
    <path d="M5.67,6.4c-.1,0-.21,0-.31,0v4.78h.26l1.58-1.21v-3.44c-.52-.07-1.01-.14-1.53-.14"/>
  </g>
  <polygon class="cls-11" points="5.62 3.85 2.58 3.85 .43 6 .43 9.04 2.58 11.19 5.62 11.19 7.77 9.04 7.77 6 5.62 3.85"/>
  <polygon class="cls-24" points="5.46 4.24 2.74 4.24 .82 6.16 .82 8.88 2.74 10.8 5.46 10.8 7.38 8.88 7.38 6.16 5.46 4.24"/>
  <polygon class="cls-11" points="3.43 8.19 1.93 8.19 1.93 6.85 3.43 6.85 4.77 6.85 6.27 6.85 6.27 8.19 4.77 8.19 3.43 8.19"/>
  <rect class="cls-31" x="3.87" y="17.73" width="14.64" height="9.85" rx="1.51" ry="1.51"/>
  <polygon class="cls-11" points="2.49 26.53 .22 24.26 .22 21.04 2.49 18.77 5.71 18.77 7.98 21.04 7.98 24.26 5.71 26.53 2.49 26.53"/>
  <path class="cls-13" d="M5.62,18.98l2.15,2.15v3.04l-2.15,2.15h-3.04l-2.15-2.15v-3.04l2.15-2.15h3.04ZM5.8,18.55h-3.4l-.13.13L.13,20.83l-.13.13v3.4l.13.12,2.15,2.15.13.13h3.4l.13-.13,2.15-2.15.13-.12v-3.4l-.13-.13-2.15-2.15-.13-.13Z"/>
  <g>
    <path class="cls-29" d="M17.02,27.57H5.39c-.83,0-1.51-.67-1.51-1.51v-6.83c0-.83.67-1.51,1.51-1.51h11.63c.83,0,1.51.68,1.51,1.51v6.83c0,.83-.68,1.51-1.51,1.51"/>
    <path class="cls-2" d="M17.02,27.57H5.39c-.83,0-1.51-.67-1.51-1.51v-6.83c0-.83.67-1.51,1.51-1.51h11.63c.83,0,1.51.68,1.51,1.51v6.83c0,.83-.68,1.51-1.51,1.51"/>
    <path class="cls-28" d="M18.52,21.85v4.22c0,.24-.06.46-.16.67.1-.2.16-.43.16-.67v-4.22Z"/>
    <path class="cls-1" d="M5.36,26.32h-1.25c.11.59.63,1.03,1.25,1.04v-1.04ZM18.51,21.85v4.22c0,.83-.67,1.51-1.51,1.51H5.39h11.63c.59,0,1.11-.34,1.35-.84.1-.2.15-.43.15-.67v-4.21s0,0-.01,0M13.84,20.87c-.76,0-1.62.12-2.64.46-1.04.34-1.87.45-2.59.45-.06,0-.12,0-.18,0v2.39l-1.23.94v2.25h9.8c.71,0,1.29-.58,1.29-1.29v-4.25c-1.48-.27-2.7-.94-4.45-.94"/>
  </g>
  <polygon class="cls-6" points="12.1 26.76 12.1 19.88 10.94 20.74 10.94 19.51 12.1 18.65 13.26 18.65 13.26 26.76 12.1 26.76"/>
  <path class="cls-7" d="M17,17.94c.71,0,1.29.58,1.29,1.29v6.83c0,.71-.58,1.29-1.29,1.29H5.38c-.71,0-1.29-.58-1.29-1.29v-6.83c0-.71.58-1.29,1.29-1.29h11.63ZM17,17.73H5.38c-.83,0-1.51.68-1.51,1.51v6.83c0,.83.67,1.51,1.51,1.51h11.63c.83,0,1.51-.68,1.51-1.51v-6.83c0-.83-.68-1.51-1.51-1.51"/>
  <rect class="cls-20" x="5.36" y="17.73" width="1.85" height="9.85"/>
  <g>
    <path d="M5.36,21.54v6.04h.03s1.81,0,1.81,0v-5.9c-.62-.08-1.2-.17-1.85-.13"/>
    <path class="cls-3" d="M5.36,18.98h-1.25c-.02.08-.02.17-.02.25v2.55c.46-.15.88-.22,1.27-.25v-2.55Z"/>
    <path class="cls-21" d="M5.36,21.53c-.39.02-.81.1-1.27.25v4.29c0,.09,0,.17.02.25h1.25v-4.78Z"/>
    <path class="cls-3" d="M7.2,20.19v1.48c.39.05.79.1,1.23.11v-.65l-1.23-.94Z"/>
    <path class="cls-21" d="M7.2,21.67v3.44l1.23-.94v-2.39c-.44-.01-.85-.06-1.23-.11"/>
    <path class="cls-16" d="M4.11,18.98h-.2c-.01.08-.02.17-.02.25v6.83c0,.09,0,.17.02.25h.2c-.02-.08-.03-.17-.03-.25v-6.83c0-.09,0-.17.03-.25"/>
    <path class="cls-25" d="M5.62,18.98h-.26v7.33-4.78c.11,0,.21,0,.31,0,.52,0,1.02.07,1.54.14v3.44-4.92l-1.58-1.21Z"/>
    <path d="M5.67,21.53c-.1,0-.21,0-.31,0v4.78h.26l1.58-1.21v-3.44c-.52-.07-1.01-.14-1.53-.14"/>
  </g>
  <polygon class="cls-11" points="5.62 18.98 2.58 18.98 .43 21.13 .43 24.17 2.58 26.32 5.62 26.32 7.77 24.17 7.77 21.13 5.62 18.98"/>
  <polygon class="cls-24" points="5.46 19.37 2.74 19.37 .82 21.29 .82 24.01 2.74 25.93 5.46 25.93 7.38 24.01 7.38 21.29 5.46 19.37"/>
  <polygon class="cls-11" points="3.43 23.32 1.93 23.32 1.93 21.98 3.43 21.98 4.77 21.98 6.27 21.98 6.27 23.32 4.77 23.32 3.43 23.32"/>
</svg>