<?xml version="1.0" encoding="UTF-8"?>
<svg id="Layer_1" xmlns="http://www.w3.org/2000/svg" viewBox="0 0 88.59 35.24">
  <defs>
    <style>
      .cls-1 {
        fill: #ed1d24;
      }

      .cls-2 {
        fill: #fff;
      }

      .cls-3 {
        fill: #6d6e71;
      }

      .cls-4 {
        fill: #ceb28f;
      }
    </style>
  </defs>
  <g>
    <rect class="cls-2" x="37.69" y="0" width="50.89" height="35.24" rx="2.35" ry="2.35"/>
    <path class="cls-4" d="M86.24,35.24h-46.2c-1.3,0-2.35-1.05-2.35-2.35V2.35c0-1.3,1.05-2.35,2.35-2.35h46.2c1.3,0,2.35,1.05,2.35,2.35v30.54c0,1.3-1.05,2.35-2.35,2.35"/>
    <path class="cls-2" d="M78.49,10.6v-3.36c0-1.45-1.17-2.62-2.62-2.62h-3.5v2.29c0,.77-.62,1.39-1.39,1.39s-1.39-.62-1.39-1.39v-2.29h-12.9v2.29c0,.77-.62,1.39-1.39,1.39s-1.39-.62-1.39-1.39v-2.29h-3.5c-1.45,0-2.62,1.17-2.62,2.62v3.36h30.69Z"/>
    <path class="cls-2" d="M47.79,13.37v14.64c0,1.45,1.17,2.62,2.62,2.62h25.45c1.45,0,2.62-1.17,2.62-2.62v-14.64h-30.69ZM56.23,25.84h-3.14c-.77,0-1.39-.62-1.39-1.39s.62-1.39,1.39-1.39h3.14c.77,0,1.39.62,1.39,1.39s-.62,1.39-1.39,1.39M56.23,19.6h-3.14c-.77,0-1.39-.62-1.39-1.39s.62-1.39,1.39-1.39h3.14c.77,0,1.39.62,1.39,1.39s-.62,1.39-1.39,1.39M64.71,25.84h-3.14c-.77,0-1.39-.62-1.39-1.39s.62-1.39,1.39-1.39h3.14c.77,0,1.39.62,1.39,1.39s-.62,1.39-1.39,1.39M64.71,19.6h-3.14c-.77,0-1.39-.62-1.39-1.39s.62-1.39,1.39-1.39h3.14c.77,0,1.39.62,1.39,1.39s-.62,1.39-1.39,1.39M73.19,25.84h-3.14c-.77,0-1.39-.62-1.39-1.39s.62-1.39,1.39-1.39h3.14c.77,0,1.39.62,1.39,1.39s-.62,1.39-1.39,1.39M73.19,19.6h-3.14c-.77,0-1.39-.62-1.39-1.39s.62-1.39,1.39-1.39h3.14c.77,0,1.39.62,1.39,1.39s-.62,1.39-1.39,1.39"/>
    <path class="cls-2" d="M45.51,14.58c-.36-.36-.85-.56-1.35-.56-.17,0-.33.02-.49.06l-10.7,2.87c-.66.18-1.17.69-1.35,1.35-.04.13-.04.27-.05.4l-13.4-13.4c-.37-.37-.86-.56-1.34-.56s-.97.18-1.35.56L7.47,13.32l-1.36-1.36c-.36-.36-.85-.56-1.35-.56-.16,0-.33.02-.49.07-.66.18-1.17.69-1.35,1.35L.06,23.52c-.18.66.01,1.36.49,1.84.36.36.85.56,1.35.56.16,0,.33-.02.49-.07l10.7-2.87c.66-.18,1.17-.69,1.35-1.35.03-.13.05-.27.05-.4l13.4,13.39c.37.37.86.56,1.35.56s.97-.18,1.35-.56l8.01-8.01,1.36,1.36c.36.36.85.56,1.35.56.16,0,.33-.02.49-.06.66-.18,1.17-.69,1.35-1.35l2.87-10.7c.18-.66-.01-1.36-.49-1.84"/>
  </g>
  <polygon class="cls-1" points="16.83 11.51 29.11 23.79 31.53 21.36 16.83 6.65 7.47 16.01 4.77 13.31 1.9 24.01 12.61 21.14 9.9 18.44 16.83 11.51"/>
  <polygon class="cls-3" points="44.16 15.93 33.46 18.8 36.16 21.5 29.24 28.43 16.96 16.16 14.53 18.59 29.24 33.29 38.59 23.93 41.3 26.63 44.16 15.93"/>
</svg>