<?xml version="1.0" encoding="UTF-8"?>
<svg id="Layer_1" xmlns="http://www.w3.org/2000/svg" viewBox="0 0 61.67 39.31">
  <defs>
    <style>
      .cls-1 {
        fill: #ed1d24;
      }

      .cls-2 {
        fill: #bba371;
      }

      .cls-3 {
        fill: #7a6a55;
      }

      .cls-4 {
        fill: #fff;
      }

      .cls-5 {
        fill: #ed1651;
      }

      .cls-6 {
        fill: #f15a29;
      }

      .cls-7 {
        fill: #bf9a6b;
      }

      .cls-8 {
        fill: #0089cf;
      }

      .cls-9 {
        fill: #939598;
      }

      .cls-10 {
        fill: #ceb28f;
      }

      .cls-11 {
        fill: #d71249;
      }

      .cls-12 {
        fill: #ece2d6;
      }

      .cls-13 {
        fill: #fbb040;
      }
    </style>
  </defs>
  <path d="M37.08,26.86c0,1.25-.97,2.19-2.25,2.19s-2.25-.94-2.25-2.25.94-2.22,2.28-2.22,2.22.94,2.22,2.28M37.08,16.81c0,1.25-.97,2.19-2.25,2.19s-2.25-.94-2.25-2.25.94-2.22,2.28-2.22,2.22.94,2.22,2.28"/>
  <polygon class="cls-5" points="2.75 26.07 .24 23.56 .24 20.01 2.75 17.5 6.3 17.5 8.81 20.01 8.81 23.56 6.3 26.07 2.75 26.07"/>
  <path class="cls-7" d="M6.4,17.26h-3.75l-.14.14L.14,19.78l-.14.14v3.75l.14.14,2.37,2.37.14.14h3.75l.14-.14,2.37-2.37.14-.14v-3.75l-.14-.14-2.37-2.37-.14-.14ZM6.2,17.74l2.37,2.37v3.35l-2.37,2.37h-3.35l-2.37-2.37v-3.35l2.37-2.37h3.35Z"/>
  <g>
    <path class="cls-10" d="M27.48,30.36H5.09c-.45,0-.81-.36-.81-.81v-15.53c0-.45.36-.81.81-.81h22.39c.45,0,.81.36.81.81v15.53c0,.45-.36.81-.81.81"/>
    <path class="cls-4" d="M23.48,18.5v-1.58c0-.68-.55-1.23-1.23-1.23h-1.64v1.07c0,.36-.29.65-.65.65s-.65-.29-.65-.65v-1.07h-6.05v1.07c0,.36-.29.65-.65.65s-.65-.29-.65-.65v-1.07h-1.64c-.68,0-1.23.55-1.23,1.23v1.58h14.38Z"/>
    <path class="cls-4" d="M21,22.72h-1.47c-.36,0-.65-.29-.65-.65s.29-.65.65-.65h1.47c.36,0,.65.29.65.65s-.29.65-.65.65M21,25.64h-1.47c-.36,0-.65-.29-.65-.65s.29-.65.65-.65h1.47c.36,0,.65.29.65.65s-.29.65-.65.65M17.02,22.72h-1.47c-.36,0-.65-.29-.65-.65s.29-.65.65-.65h1.47c.36,0,.65.29.65.65s-.29.65-.65.65M17.02,25.64h-1.47c-.36,0-.65-.29-.65-.65s.29-.65.65-.65h1.47c.36,0,.65.29.65.65s-.29.65-.65.65M13.05,22.72h-1.47c-.36,0-.65-.29-.65-.65s.29-.65.65-.65h1.47c.36,0,.65.29.65.65s-.29.65-.65.65M13.05,25.64h-1.47c-.36,0-.65-.29-.65-.65s.29-.65.65-.65h1.47c.36,0,.65.29.65.65s-.29.65-.65.65M9.1,19.8v6.86c0,.68.55,1.23,1.23,1.23h11.93c.68,0,1.23-.55,1.23-1.23v-6.86h-14.38Z"/>
    <path class="cls-3" d="M6.2,17.74h-1.89c-.01.09-.02.18-.02.28v7.54c0,.1,0,.19.02.28h1.89l2.9-2.21v-3.68l-2.9-2.21Z"/>
  </g>
  <polygon class="cls-9" points="9.1 23.63 9.31 23.46 9.31 20.11 9.1 19.95 9.1 23.63"/>
  <polygon class="cls-5" points="6.2 17.74 2.85 17.74 .48 20.11 .48 23.46 2.85 25.84 6.2 25.84 8.57 23.46 8.57 20.11 6.2 17.74"/>
  <polygon class="cls-12" points="6.02 18.17 3.02 18.17 .91 20.29 .91 23.29 3.02 25.41 6.02 25.41 8.14 23.29 8.14 20.29 6.02 18.17"/>
  <polygon class="cls-5" points="3.78 22.53 2.13 22.53 2.13 21.04 3.78 21.04 5.27 21.04 6.92 21.04 6.92 22.53 5.27 22.53 3.78 22.53"/>
  <path class="cls-10" d="M58.18,22.86h-13c-1.93,0-3.49,1.56-3.49,3.49v12.95h19.99v-12.95c0-1.93-1.56-3.49-3.49-3.49"/>
  <rect class="cls-4" x="44.82" y="26.45" width="13.71" height="12.86"/>
  <g>
    <path class="cls-7" d="M57.32,37.93h-11.27c-.19,0-.35.16-.35.35v.69c0,.19.16.35.35.35h11.27c.19,0,.35-.16.35-.35v-.69c0-.19-.16-.35-.35-.35"/>
    <path class="cls-7" d="M57.32,35.3h-11.27c-.19,0-.35.16-.35.35v.69c0,.19.16.35.35.35h11.27c.19,0,.35-.16.35-.35v-.69c0-.19-.16-.35-.35-.35"/>
    <path class="cls-7" d="M57.32,32.67h-11.27c-.19,0-.35.16-.35.35v.69c0,.19.16.35.35.35h11.27c.19,0,.35-.16.35-.35v-.69c0-.19-.16-.35-.35-.35"/>
    <path class="cls-7" d="M57.32,30.05h-11.27c-.19,0-.35.16-.35.35v.69c0,.19.16.35.35.35h11.27c.19,0,.35-.16.35-.35v-.69c0-.19-.16-.35-.35-.35"/>
    <path class="cls-7" d="M57.32,27.42h-11.27c-.19,0-.35.16-.35.35v.69c0,.19.16.35.35.35h11.27c.19,0,.35-.16.35-.35v-.69c0-.19-.16-.35-.35-.35"/>
    <path class="cls-4" d="M59.68,21.11c0-4.42-3.58-8-8-8s-8,3.58-8,8,3.58,8,8,8,8-3.58,8-8"/>
  </g>
  <rect class="cls-1" x="51.35" y=".92" width=".66" height="10.77"/>
  <polygon class="cls-1" points="51.68 8.69 47.2 13.19 56.15 13.19 51.68 8.69"/>
  <g>
    <path class="cls-6" d="M51.23,8.15c.12-.12.28-.19.45-.19s.33.07.45.19l2.16,2.17h1.87l-4.47-4.5-4.47,4.5h1.87l2.16-2.17Z"/>
    <path class="cls-13" d="M51.23,5.37c.12-.12.28-.19.45-.19s.33.07.45.19l2.16,2.17h1.87l-4.47-4.5-4.47,4.5h1.87l2.16-2.17Z"/>
  </g>
  <rect class="cls-1" x="47.34" width="8.67" height="1.84"/>
  <g>
    <path class="cls-4" d="M58.73,21.27c0,3.9-3.16,7.05-7.05,7.05s-7.05-3.16-7.05-7.05,3.16-7.05,7.05-7.05,7.05,3.16,7.05,7.05"/>
    <path class="cls-2" d="M51.51,28.32v-6.95l-6.02-3.48c-.57,1.04-.86,2.2-.86,3.38,0,3.83,3.07,6.96,6.88,7.05"/>
    <path class="cls-4" d="M49.61,22.8c.4.83.81,1.66,1.21,2.48.07.15.1.29-.03.42-.17.18-.42.13-.53-.11-.37-.81-.74-1.62-1.11-2.43-.05-.11-.1-.17-.24-.18-.22-.02-.36-.19-.46-.37-.35-.6-.61-1.24-.72-1.93-.02-.11-.02-.22,0-.33.02-.16.09-.29.26-.32.18-.03.29.06.37.21.28.58.56,1.16.85,1.73.13.27.27.54.4.82"/>
    <path class="cls-4" d="M47.57,23.27c.22.46.44.9.66,1.35.27.53.55,1.05.82,1.58.1.19.04.37-.13.45-.18.08-.34.02-.43-.19-.43-.92-.87-1.85-1.29-2.77-.06-.13-.12-.21-.28-.17-.2.05-.37-.06-.46-.24-.3-.64-.6-1.28-.89-1.92-.02-.04,0-.1.01-.15l.12.09c.21.39.41.77.62,1.16.04.07.07.15.12.21.04.04.1.07.15.1,0-.06.04-.13.02-.17-.09-.21-.19-.42-.29-.62-.12-.26-.25-.52-.37-.79-.02-.04,0-.11.01-.16l.12.09c.24.44.47.88.71,1.33l.05.1.12.05.04-.12c-.04-.11-.09-.22-.14-.32-.17-.38-.35-.77-.52-1.15-.02-.04,0-.1.02-.16l.12.09c.22.43.44.86.66,1.29l.04.08s.1.08.15.11c0-.06.04-.14.01-.19-.18-.42-.37-.84-.56-1.25-.02-.05-.06-.1-.07-.15,0-.05,0-.11.01-.16l.12.1c.22.41.43.82.64,1.23.08.15.15.3.23.45.21.41.2.51-.12.83"/>
    <path class="cls-11" d="M51.68,21.07l6.02-3.47c-1.28-2.09-3.57-3.38-6.02-3.38s-4.74,1.29-6.02,3.38l6.02,3.47Z"/>
    <path class="cls-8" d="M57.87,17.89l-6.02,3.47v6.95c3.81-.09,6.88-3.22,6.88-7.05,0-1.18-.3-2.34-.86-3.38"/>
    <path class="cls-4" d="M51.68,19.57c-.55,0-1-.42-1-.6s.45-.31,1-.31,1,.14,1,.31-.45.6-1,.6M51.68,15.07s-1.45,2.49-1.45,3.3.65,1.45,1.45,1.45,1.45-.65,1.45-1.45-1.45-3.3-1.45-3.3"/>
    <path class="cls-4" d="M55.78,20.59c.14-.28.48-.39.76-.24.28.14.38.48.24.76-.14.28-.48.39-.76.24-.28-.15-.39-.48-.24-.76M56.36,23.82s.05-.09.07-.13c.04-.07.07-.15.09-.22.05-.19.02-.38-.04-.57-.08-.25-.11-.3-.31-.56-.06-.08-.08-.14-.02-.23.05-.08.07-.16,0-.23.03-.05.05-.11.08-.15l.07-.05c.18,0,.33-.06.48-.16.18.09.36.19.54.29l-.05.1c-.04.08-.04.1.05.15.11.06.22.12.33.17.08.04.1.04.15-.05.07-.12.13-.24.19-.36.08-.15.16-.31.24-.46.04-.08.03-.1-.04-.14-.12-.06-.23-.13-.35-.19-.06-.03-.08-.02-.12.04l-.06.12c-.19-.1-.37-.19-.55-.29,0-.18-.04-.34-.14-.49-.03-.04-.02-.07.03-.09l.11.05c.06.03.08.02.12-.04.07-.12.13-.24.19-.36.03-.06.02-.08-.04-.12l-.14-.07c-.24-.12-.47-.25-.71-.37-.08-.04-.1-.04-.13.02-.07.13-.14.26-.2.38l.03.1.12.06c0,.09-.06.07-.11.08-.26.02-.47.13-.61.35-.19.29-.2.58-.03.88l.03.08c-.02.06-.05.12-.08.17l-.07.03-.12.1c-.05.12-.14.14-.26.13-.35-.02-.41,0-.68.09-.24.09-.43.24-.55.48-.02.05-.04.09-.06.12l2.57,1.35Z"/>
    <path class="cls-4" d="M56.43,20.95c-.04.08-.13.11-.21.08-.08-.03-.14-.13-.1-.21.03-.06.02-.11,0-.17l-.02-.07s.02-.09.07-.11c.05-.01.09,0,.11.05l.02.07c.02.05.03.1.09.14.07.04.08.14.04.21"/>
    <path class="cls-4" d="M52.38,25.21l-.05.1c-.12.29-.07.55.16.76.09.08.2.16.31.22.36.2.73.39,1.1.58.07.04.14.06.21.09.27.09.5.03.67-.2.05-.07.1-.14.14-.22l-2.54-1.34Z"/>
    <path class="cls-4" d="M53.59,22.9c-.43.81-.62,1.18-1.05,1.99l-.04.08,2.55,1.35c.51-.96.74-1.4,1.19-2.25l-2.55-1.34s-.05.1-.1.18"/>
  </g>
</svg>