<?xml version="1.0" encoding="UTF-8"?>
<svg id="Layer_1" xmlns="http://www.w3.org/2000/svg" viewBox="0 0 78.28 23.02">
  <defs>
    <style>
      .cls-1 {
        fill: #a3c260;
      }

      .cls-2 {
        fill: #ed1d24;
      }

      .cls-3 {
        fill: #6f8f9f;
      }

      .cls-4 {
        font-family: ArialNarrow, Arial;
        font-size: 17.99px;
      }

      .cls-5 {
        fill: #6e7f8a;
      }

      .cls-6 {
        fill: #c7eafb;
      }

      .cls-7 {
        fill: #5e5f7a;
      }

      .cls-8 {
        fill: #a0b1bb;
      }

      .cls-9 {
        fill: #fff;
      }

      .cls-10 {
        fill: #25408f;
      }

      .cls-11 {
        fill: #70001b;
      }

      .cls-12 {
        fill: #b9d4e2;
      }

      .cls-13 {
        fill: #4a5e29;
      }

      .cls-14 {
        fill: #e7d9c7;
      }

      .cls-15 {
        fill: #6d6e71;
      }

      .cls-16 {
        fill: #ed1651;
      }

      .cls-17 {
        fill: #5d6495;
      }

      .cls-18 {
        fill: #bf9a6b;
      }

      .cls-19 {
        fill: #565883;
      }

      .cls-20 {
        fill: #725c3e;
      }

      .cls-21 {
        fill: #9b9bc5;
      }

      .cls-22 {
        fill: #262262;
      }

      .cls-23 {
        fill: #97c0d4;
      }

      .cls-24 {
        fill: #939598;
      }

      .cls-25 {
        fill: #58595b;
      }

      .cls-26 {
        fill: #ceb28f;
      }

      .cls-27 {
        fill: #ece2d6;
      }

      .cls-28 {
        fill: #8a949b;
      }

      .cls-29 {
        fill: #8b0029;
      }

      .cls-30 {
        fill: #7578b0;
      }

      .cls-31 {
        fill: #7a9448;
      }

      .cls-32 {
        fill: #5e7637;
      }

      .cls-33 {
        fill: #54a3c1;
      }
    </style>
  </defs>
  <g>
    <path class="cls-25" d="M73.92,9.9L69.34.46c-.19-.4-.68-.57-1.09-.38l-7.28,3.4-6.01,2.8-1.27.59c-.41.19-.58.67-.39,1.07l4.57,9.45c.19.4.68.57,1.09.38l1.27-.59.51-.24.65-.3,2.49-1.16.78-.36.44-.2,2.27-1.06.43-.2.79-.37,2.49-1.16.65-.3.51-.24,1.27-.59c.41-.19.58-.67.39-1.07"/>
    <path class="cls-12" d="M69.34.45s0,0,0,.01c0,0,0,0,0-.01M69.33.44s0,0,0,0c0,0,0,0,0,0M68.27.07s-.02,0-.02.01l-1.31.61h.03s1.28-.61,1.28-.61c0,0,.02,0,.02-.01M68.61,0c.29,0,.56.15.71.41-.15-.26-.42-.41-.71-.41M68.6,0h0,0"/>
    <path class="cls-5" d="M68.6,0h0c-.11,0-.22.02-.32.07,0,0-.02,0-.02.01l-1.28.6.11-.05,1.72,3.55,2.09-.51-1.55-3.2s0,0,0-.01c0,0,0,0,0,0,0,0,0,0,0,0,0,0,0-.02-.01-.02-.15-.26-.42-.41-.71-.41h0Z"/>
  </g>
  <path class="cls-12" d="M66.57.86l.3-.14-.3.14Z"/>
  <path class="cls-5" d="M66.57.86l.3-.14-.3.14Z"/>
  <polygon class="cls-12" points="66.48 .9 63.43 2.33 66.45 .92 66.48 .9"/>
  <polygon class="cls-5" points="66.45 .92 63.43 2.33 66.36 .96 66.45 .92"/>
  <g>
    <path class="cls-12" d="M63.41,2.33l-9.72,4.53c-.09.04-.16.09-.23.16.06-.06.14-.11.23-.16l1.17-.54.11-.05.4-.18h0s3.92-1.83,3.92-1.83l.04-.02,1.63-.76,1.46-.68.12-.06.78-.36.08-.04Z"/>
    <path class="cls-5" d="M54.86,6.33l-1.17.54c-.09.04-.16.09-.22.16-.24.23-.32.6-.16.92l4.57,9.44c.14.29.43.46.74.46.12,0,.24-.03.35-.08l.38-.18-1.08-4.21-3.42-7.05ZM55.37,6.09l-.4.19.1-.05.3-.14ZM59.29,4.26l-3.92,1.83.16-.08,2.97-1.39.21-.1.57-.27ZM62.43,2.79l-1.46.68-1.63.76.11-.05,2.99-1.4ZM63.33,2.37l-.78.36.09-.04.6-.28.09-.04Z"/>
    <path class="cls-28" d="M55.37,6.09l-.3.14,2.92,6.02-1.1-4.32c-.02-.06-.02-.13-.03-.19,0-.17.05-.33.14-.46l-.8.37-.05-.02-.04-.02-.74-1.53ZM58.51,4.62l-2.97,1.39.04-.02.67,1.39,2.93-1.37-.26-.55-.41-.84ZM65.9,4.58c-.35,0-.68.07-.99.22l-1.47.69.17-.04.12-.03h0s2.92-.72,2.92-.72c-.24-.08-.48-.12-.74-.12M59.29,4.26l-.57.27.41.84.27.55.57-.27-.67-1.39ZM62.43,2.79l-2.99,1.4.06-.03.67,1.39,2.93-1.37-.67-1.39ZM66.36.96l-2.93,1.37.41.84.27.55,2.93-1.37-.67-1.39ZM66.87.72l-.3.14.77,1.59-3.35,1.56-.36-.76-.41-.84h.03s-.6.27-.6.27l.77,1.6-3.25,1.51-.05-.1.02.11-.73.14.08.17-1.55.72.78-.19.11-.03,2.57-.63,3.32-1.55c.38-.18.78-.26,1.17-.26.49,0,.96.13,1.38.36l1.29-.32-1.7-3.51Z"/>
  </g>
  <polygon class="cls-21" points="66.94 .69 66.87 .72 66.97 .67 66.94 .69"/>
  <polygon class="cls-7" points="67.08 .62 66.97 .67 66.87 .72 66.87 .72 68.57 4.23 68.8 4.17 67.08 .62"/>
  <polygon class="cls-21" points="54.85 6.33 54.96 6.28 54.97 6.27 54.85 6.33"/>
  <polygon class="cls-7" points="55.07 6.23 54.97 6.27 54.96 6.28 54.86 6.33 58.27 13.38 57.98 12.25 55.07 6.23"/>
  <path class="cls-7" d="M58.72,4.52l-.21.1h0s.41.84.41.84l.27.55-2.93,1.37-.67-1.39-.04.02-.16.08h0s.74,1.54.74,1.54l.05.02.05.02.8-.37c.11-.16.27-.28.48-.33l.47-.12,1.55-.72-.08-.17-.15.03.14-.06-.27-.55-.41-.84Z"/>
  <path class="cls-21" d="M63.43,2.33h-.02s-.08.05-.08.05l.1-.05ZM66.57.86l-.09.04h-.03s.12-.04.12-.04Z"/>
  <polygon class="cls-7" points="66.57 .86 66.45 .92 66.36 .96 67.03 2.35 64.1 3.71 63.84 3.17 63.43 2.33 63.33 2.37 63.25 2.41 63.22 2.42 63.63 3.26 63.99 4.02 67.34 2.46 66.57 .86"/>
  <path class="cls-21" d="M62.43,2.79l.12-.06-.12.06Z"/>
  <polygon class="cls-7" points="62.65 2.69 62.55 2.73 62.43 2.79 63.11 4.18 60.18 5.54 59.5 4.16 59.44 4.19 59.34 4.23 59.29 4.26 59.96 5.64 59.39 5.91 59.26 5.97 59.41 5.94 60.14 5.81 60.12 5.7 60.17 5.8 63.42 4.29 62.65 2.69"/>
  <g>
    <path class="cls-7" d="M65.9,4.18c-.39,0-.79.08-1.17.26l-3.32,1.55,2.02-.5,1.47-.69c.32-.15.65-.22,1-.22.25,0,.5.04.74.12l.46-.11h0s.18-.04.18-.04c-.42-.24-.89-.37-1.38-.37"/>
    <path class="cls-25" d="M76.7,13.84l-2.59-10.14c-.11-.43-.56-.69-.99-.58l-1.37.34-.55.13h-.02s-12.33,3.04-12.33,3.04l-1.37.34c-.44.11-.71.54-.6.98l2.59,10.14c.11.43.55.69.99.59l1.92-.47.69-.17,2.68-.66.84-.21.47-.11,2.44-.6.47-.12.84-.21,2.68-.66.7-.17,1.92-.47c.44-.11.71-.54.6-.98"/>
    <path class="cls-23" d="M73.22,3.09s-.07.01-.11.02l-.72.18.72-.18s.07-.02.11-.02"/>
    <path class="cls-3" d="M67.03,4.61l-1.73.43,1.71-.42h.03ZM67.71,4.44l-.62.15.62-.15ZM71.15,3.59l-3.38.83h.05s3.27-.82,3.27-.82l.07-.02ZM71.64,3.47l-.33.08.32-.08h0ZM73.31,3.08s-.06,0-.09,0c-.04,0-.07.01-.11.02l-.72.18-.53.13,2.99,11.7-.11.03,1.37-.34c.44-.11.71-.54.6-.98l-2.59-10.14c-.09-.36-.43-.61-.79-.61"/>
    <path class="cls-3" d="M68.28,16.74l-1.78.44h-.02s-.62.16-.62.16l2.42-.59ZM58.73,6.65l-1.25.31c-.37.09-.62.42-.62.78,0,.06,0,.13.02.19l2.59,10.14c.09.36.43.61.8.61.07,0,.13,0,.2-.02l5.3-1.3-.08.02-3.18.78-.06.02-.49.12h-.02s-.09.03-.09.03l-.11.03-2.99-11.71Z"/>
    <path class="cls-8" d="M61.92,18.3l-.09.02.09-.02ZM65.26,15.9l-2.57.63-.58.14.38,1.49,3.18-.78h-.04s-.38-1.48-.38-1.48ZM69.45,7.03c-.19,0-.38.02-.57.07l-5.77,1.42c-.46.11-.86.35-1.17.7-.51.56-.7,1.34-.52,2.07l1.1,4.29,10.27-2.53-1.1-4.29c-.26-1.02-1.18-1.73-2.25-1.73M67,4.61l-1.71.42-1.57.39.38,1.49,3.15-.77-.38-1.49.13-.03ZM71.08,3.61l-3.27.8.12-.03.23.9.15.59,3.15-.77-.38-1.49ZM71.63,3.47l-.32.08.44,1.71-3.6.88-.21-.81-.23-.9-.61.15.44,1.71-3.4.84v.71l4.65-1.14c.22-.06.45-.08.67-.08,1.22,0,2.34.81,2.65,2.03l1.2,4.68-11.07,2.72-1.2-4.68c-.23-.89.03-1.79.61-2.43.35-.39.83-.68,1.38-.82l1.08-.27-.17-.67h-.03s0-.13,0-.13l-.4-1.59h.02s-.82.2-.82.2l.19-.05.23.9.21.81-3.63.89v-.13l-.41-1.59.23-.06.38,1.49,3.14-.77-.15-.59-.23-.9-3.81.94.11-.03,2.99,11.71.49-.12-.17.04-.44-1.71.81-.2,2.79-.69.44,1.71.62-.15-.44-1.71.58-.14,2.44-.6.58-.14.44,1.71-.23.06-.38-1.49-.35.09-2.44.6-.36.09.38,1.49-.21.05,1.78-.44,2.52-.62-.11.02-.44-1.71,2.79-.69.81-.2.44,1.71-.23.06-.38-1.49-.58.14-2.57.63.38,1.49,3.81-.94-.11.03-2.99-11.71Z"/>
  </g>
  <path class="cls-30" d="M71.85,3.42h.02s-.02,0-.02,0Z"/>
  <polygon class="cls-19" points="71.86 3.42 71.85 3.42 71.64 3.47 71.64 3.47 74.62 15.18 74.74 15.15 74.85 15.12 71.86 3.42"/>
  <polygon class="cls-19" points="58.96 6.59 58.84 6.62 58.73 6.65 58.73 6.64 61.72 18.35 61.83 18.32 61.92 18.3 61.94 18.29 58.96 6.59"/>
  <polygon class="cls-19" points="62.88 5.62 62.69 5.67 62.65 5.68 62.88 6.58 63.03 7.17 59.89 7.94 59.51 6.45 59.28 6.51 59.68 8.1 59.68 8.23 63.32 7.34 63.11 6.53 62.88 5.62"/>
  <polygon class="cls-19" points="71.31 3.55 71.15 3.59 71.08 3.61 71.46 5.1 68.32 5.87 68.17 5.28 67.94 4.38 67.82 4.41 67.77 4.42 67.71 4.44 67.94 5.34 68.15 6.15 71.75 5.26 71.31 3.55"/>
  <path class="cls-17" d="M63.6,5.45l.12-.03-.12.03Z"/>
  <path class="cls-19" d="M63.9,7.05h.12-.12ZM67.1,4.59h0s-.07.02-.07.02h-.03s-.13.04-.13.04l.38,1.49-3.15.77-.38-1.49-.12.03-.09.02h-.02s.4,1.59.4,1.59v.14h.03s.17.66.17.66h.03v-.72l3.4-.84-.44-1.71Z"/>
  <polygon class="cls-19" points="65.43 15.62 62.64 16.3 61.83 16.5 62.27 18.21 62.43 18.17 62.49 18.16 62.11 16.67 62.69 16.53 65.26 15.9 65.64 17.39 65.68 17.38 65.76 17.36 65.87 17.33 65.43 15.62"/>
  <path class="cls-30" d="M70.92,16.09h0s0,0,0,0Z"/>
  <polygon class="cls-19" points="73.86 13.54 73.05 13.74 70.26 14.43 70.7 16.14 70.8 16.12 70.92 16.09 70.93 16.09 70.55 14.6 73.11 13.97 73.69 13.82 74.07 15.31 74.3 15.26 73.86 13.54"/>
  <polygon class="cls-19" points="69.65 14.58 69.07 14.72 66.63 15.32 66.05 15.47 66.48 17.18 66.5 17.17 66.71 17.12 66.33 15.63 66.68 15.55 69.12 14.95 69.48 14.86 69.86 16.35 70.08 16.29 69.65 14.58"/>
  <g>
    <path class="cls-19" d="M62.53,15.57l-1.1-4.29c-.19-.73,0-1.5.52-2.07.31-.34.72-.59,1.17-.7l5.77-1.42c.18-.04.38-.07.57-.07,1.07,0,1.99.71,2.25,1.73l1.1,4.29-10.27,2.53ZM69.45,6.62c-.22,0-.44.03-.67.08l-4.65,1.14h-.03s-1.08.27-1.08.27c-.55.14-1.03.43-1.38.82-.58.64-.83,1.54-.61,2.43l1.19,4.68,11.07-2.72-1.2-4.68c-.31-1.22-1.42-2.03-2.65-2.03"/>
    <path class="cls-22" d="M77.46,18.53h-16.12c-.45,0-.82-.36-.82-.8V7.27c0-.44.37-.8.82-.8h16.12c.45,0,.82.36.82.8v10.46c0,.45-.37.8-.82.8"/>
  </g>
  <rect class="cls-18" x="62.74" y="6.47" width="13.31" height="12.07"/>
  <rect class="cls-18" x="63.31" y="8.57" width="12.17" height="7.86"/>
  <polygon class="cls-26" points="66.79 6.47 64.03 6.47 63.31 6.47 63.31 8.12 66.79 8.12 66.79 7.4 66.79 6.47"/>
  <polygon class="cls-26" points="75.48 6.47 74.77 6.47 72 6.47 72 7.4 72 8.12 75.48 8.12 75.48 6.47"/>
  <polygon class="cls-26" points="68.14 6.47 67.66 6.47 67.66 8.12 71.14 8.12 71.14 6.47 70.65 6.47 68.14 6.47"/>
  <polygon class="cls-26" points="63.31 16.88 63.31 18.53 64.03 18.53 66.79 18.53 66.79 16.88 64.03 16.88 63.31 16.88"/>
  <polygon class="cls-26" points="74.77 16.88 72 16.88 72 18.53 74.77 18.53 75.48 18.53 75.48 16.88 74.77 16.88"/>
  <polygon class="cls-26" points="68.14 16.88 67.66 16.88 67.66 18.53 68.14 18.53 70.65 18.53 71.14 18.53 71.14 16.88 70.65 16.88 68.14 16.88"/>
  <g>
    <path class="cls-14" d="M72.37,8.92h-5.95c-.57,0-1.1.17-1.54.47-.72.48-1.19,1.29-1.19,2.21v4.82h11.41v-4.82c0-1.48-1.22-2.68-2.73-2.68"/>
    <path class="cls-33" d="M77.46,18.53h-16.12c-.45,0-.82-.36-.82-.8V7.27c0-.44.37-.8.82-.8h16.12c.45,0,.82.36.82.8v10.46c0,.45-.37.8-.82.8"/>
  </g>
  <rect class="cls-6" x="62.74" y="6.47" width="13.31" height="12.07"/>
  <rect class="cls-10" x="75.93" y="6.47" width=".23" height="12.07"/>
  <rect class="cls-10" x="62.63" y="6.47" width=".23" height="12.07"/>
  <polygon class="cls-10" points="63.19 6.47 63.19 8.12 63.19 8.23 66.91 8.23 66.91 7.4 66.91 6.47 66.67 6.47 66.67 7.4 66.67 8 63.31 8 63.31 8.12 63.43 8.12 63.43 6.47 63.19 6.47"/>
  <polygon class="cls-10" points="71.89 6.47 71.89 7.4 71.89 8.23 75.6 8.23 75.6 6.47 75.36 6.47 75.36 8 72.12 8 72.12 7.4 72.12 6.47 71.89 6.47"/>
  <polygon class="cls-10" points="67.54 6.47 67.54 8.23 71.25 8.23 71.25 6.47 71.02 6.47 71.02 8 67.77 8 67.77 6.47 67.54 6.47"/>
  <polygon class="cls-10" points="66.91 18.53 66.91 16.77 64.03 16.77 63.19 16.77 63.19 18.53 63.43 18.53 63.43 17 64.03 17 66.67 17 66.67 18.53 66.91 18.53"/>
  <polygon class="cls-10" points="75.6 18.53 75.6 16.77 74.77 16.77 71.89 16.77 71.89 18.53 72.12 18.53 72.12 17 74.77 17 75.37 17 75.37 18.53 75.6 18.53"/>
  <polygon class="cls-10" points="71.25 18.53 71.25 16.77 70.65 16.77 68.14 16.77 67.66 16.77 67.54 16.77 67.54 18.53 67.77 18.53 67.77 17 68.14 17 70.65 17 71.02 17 71.02 18.53 71.25 18.53"/>
  <g>
    <path class="cls-10" d="M72.37,9.32c1.28,0,2.32,1.02,2.32,2.28v4.42h-10.59v-4.42c0-.75.38-1.46,1.01-1.88.39-.26.84-.4,1.31-.4h5.95ZM72.37,8.92h-5.95c-.57,0-1.1.17-1.54.47-.72.48-1.19,1.29-1.19,2.21v4.82h11.41v-4.82c0-1.48-1.22-2.68-2.73-2.68"/>
    <path class="cls-9" d="M51.64,9.05c-.24-.23-.55-.36-.88-.36-.11,0-.21.01-.32.04l-4.76,1.25c-.27.07-.5.24-.66.45l-5.55-5.44c-.23-.23-.55-.36-.88-.36s-.64.13-.88.36l-3.29,3.23-.33-.32c-.24-.23-.55-.36-.88-.36-.11,0-.21.01-.32.04-.43.11-.76.44-.88.86l-1.28,4.68c-.11.42,0,.87.32,1.17.23.23.55.36.88.36.11,0,.21-.01.32-.04l4.76-1.25c.27-.07.5-.24.66-.45l5.55,5.44c.24.24.56.36.88.36s.63-.12.88-.36l3.29-3.23.33.32c.24.23.55.36.88.36.11,0,.21-.01.32-.04.43-.11.76-.44.88-.86l1.28-4.68c.12-.42,0-.87-.32-1.18"/>
  </g>
  <polygon class="cls-2" points="38.59 7.98 44.06 13.34 45.14 12.28 38.59 5.86 34.43 9.94 33.22 8.76 31.95 13.44 36.71 12.19 35.51 11.01 38.59 7.98"/>
  <polygon class="cls-15" points="50.76 9.91 46 11.16 47.2 12.34 44.12 15.37 38.65 10.01 37.57 11.07 44.12 17.49 48.28 13.4 49.49 14.59 50.76 9.91"/>
  <path d="M27.85,9.64c0,.45-.37.8-.83.8s-.83-.34-.83-.81.35-.81.83-.81.83.34.83.83M27.85,14.14c0,.45-.37.8-.83.8s-.83-.34-.83-.81.35-.81.83-.81.83.34.83.83"/>
  <text class="cls-4" transform="translate(65.89 17.5) scale(1.02 1)"><tspan x="0" y="0">?</tspan></text>
  <polygon class="cls-16" points="3.18 16.56 .28 13.71 .28 9.69 3.18 6.84 7.28 6.84 10.18 9.69 10.18 13.71 7.28 16.56 3.18 16.56"/>
  <path class="cls-18" d="M7.16,7.11l2.74,2.69v3.8l-2.74,2.69h-3.88l-2.74-2.69v-3.8l2.74-2.69h3.88ZM7.39,6.57H3.06l-.16.16L.16,9.42l-.16.16v4.25l.16.16,2.74,2.69.16.16h4.33l.16-.16,2.74-2.69.16-.16v-4.25l-.16-.16-2.74-2.69-.16-.16Z"/>
  <g>
    <path class="cls-1" d="M13.55,3.61l-6.21,4.43c-.72.51-1.02,1.42-.75,2.26l2.37,7.16c.27.83,1.07,1.39,1.96,1.39h7.67c.89,0,1.68-.56,1.96-1.39l2.37-7.16c.28-.83-.03-1.74-.75-2.26l-6.21-4.43c-.72-.51-1.7-.51-2.42,0"/>
    <path class="cls-31" d="M18.12,11.9l-.78.75.61,3.48-3.19-1.65-3.19,1.65.61-3.48-.78-.75c-.22.03-.43.06-.64.09v1.61l-2.45,1.84.12.38.54,1.64c.28.83,1.07,1.4,1.96,1.4h7.67c.89,0,1.68-.56,1.96-1.4l1.57-4.73c-1.21-.37-2.56-.65-4-.82"/>
  </g>
  <polygon class="cls-9" points="12.18 12.65 9.6 10.18 13.17 9.68 14.76 6.51 16.36 9.68 19.92 10.18 17.34 12.65 17.95 16.14 14.76 14.49 11.57 16.14 12.18 12.65"/>
  <path class="cls-29" d="M7.16,7.11h-2.19c-.02.1-.03.21-.03.31v8.55c0,.11.01.21.03.31h2.19l1.07-1.05-.83-2.51-.8-2.43c-.28-.83.03-1.74.75-2.26l.44-.31-.62-.61Z"/>
  <path class="cls-20" d="M8.24,15.24l-1.07,1.05,1.14-.85-.07-.2ZM7.16,7.11h-2.19,2.19l.62.61.1-.07-.72-.54Z"/>
  <path class="cls-32" d="M7.89,7.65l-.1.07-.44.32c-.72.51-1.02,1.42-.75,2.26l.81,2.43c1.03-.31,2.16-.56,3.35-.74v-.7l-1.16-1.11,1.16-.17v-.22l-2.87-2.15Z"/>
  <path class="cls-11" d="M8.24,15.24l-.83-2.51.83,2.51Z"/>
  <path class="cls-13" d="M10.76,11.99c-1.19.17-2.32.42-3.35.74l.83,2.51.07.2,2.45-1.84v-1.61Z"/>
  <polygon class="cls-24" points="10.76 10.02 9.6 10.18 10.76 11.29 10.76 10.02"/>
  <polygon class="cls-16" points="7.16 7.11 3.29 7.11 .55 9.8 .55 13.6 3.29 16.29 7.16 16.29 9.9 13.6 9.9 9.8 7.16 7.11"/>
  <polygon class="cls-27" points="6.96 7.6 3.5 7.6 1.05 10 1.05 13.4 3.5 15.8 6.96 15.8 9.41 13.4 9.41 10 6.96 7.6"/>
  <polygon class="cls-16" points="4.37 12.54 2.46 12.54 2.46 10.86 4.37 10.86 6.09 10.86 8 10.86 8 12.54 6.09 12.54 4.37 12.54"/>
</svg>