<?xml version="1.0" encoding="UTF-8"?>
<svg id="Layer_1" xmlns="http://www.w3.org/2000/svg" viewBox="0 0 78.5 36.58">
  <defs>
    <style>
      .cls-1 {
        fill: #dbc5aa;
      }

      .cls-2 {
        fill: #e1ceb8;
      }

      .cls-3 {
        fill: #f15a29;
      }

      .cls-4 {
        fill: #bf9a6b;
      }

      .cls-5 {
        fill: #262262;
      }
    </style>
  </defs>
  <g>
    <path class="cls-5" d="M57.89,30.14H2.81C1.27,30.14.02,28.89.02,27.35v-14.9c0-1.54,1.25-2.79,2.79-2.79h55.08c1.54,0,2.79,1.25,2.79,2.79v14.9c0,1.54-1.25,2.79-2.79,2.79"/>
    <path class="cls-3" d="M0,18.66c0,.27,0,.53,0,.8,0,.56,0,1.12.02,1.67h32.43v-2.47H0Z"/>
  </g>
  <polygon class="cls-1" points="45.7 19.9 31.09 13.78 31.09 26.02 45.7 19.9"/>
  <path class="cls-4" d="M77.44,28.11c-1.14-5.8-4.35-6.35-7.75-8.17-2.64-1.42-2.62-3.87-2.48-4.9h.09c1.22,0,2.11-1.45,2.63-2.63h.38c.96,0,1.73-.77,1.73-1.73v-2.2c0-.88-.65-1.59-1.5-1.71-.88-3.28-3.5-6.77-8.1-6.77s-7.21,3.47-8.09,6.75c-.92.04-1.65.79-1.65,1.72v2.2c0,.96.77,1.73,1.73,1.73h1.93c.47,1.25,1.24,2.15,1.24,2.15,0,0,1.01,3.56-2.39,5.38-3.4,1.82-6.61,2.37-7.75,8.17-1.14,5.8-1.06,8.43-1.06,8.43l16.04.04,16.04-.04s.08-2.63-1.06-8.43"/>
  <rect class="cls-2" x="66.58" y="28.84" width="5.36" height="1.75"/>
  <g>
    <path class="cls-2" d="M57.43,17.56c-.14.35-.33.7-.59,1.04l3.54,3.65,1.35-3.03-4.23-1.76-.08.09Z"/>
    <path class="cls-2" d="M64.55,22.25l3.54-3.64c-.27-.35-.47-.72-.61-1.08l-.05-.07-4.23,1.75,1.35,3.03Z"/>
    <path class="cls-2" d="M70.56,6.77C69.68,3.49,67.05,0,62.46,0s-7.21,3.47-8.09,6.76c-.92.04-1.65.79-1.65,1.72v2.2c0,.96.77,1.73,1.73,1.73h1.93c-.05-.15-.1-.29-.15-.45.35-.32.58-.77.58-1.28v-2.2c0-.32-.09-.61-.24-.87.09-.29.18-.57.3-.86h-.05l.21-.39c.07-.16.15-.33.23-.49h-.75l1.36-1.83h-.64l2.31-1.59-.48-.64,2.71-.16-.24-.72,2.87,1.04s1.59.08,1.91.32c.32.24-.72.4-.72.4l1.83,1.04-.56.24,1.68,2.07-.71.16c.19.42.35.84.48,1.26-.21.29-.35.64-.35,1.03v2.2c0,.52.23.97.59,1.29-.44.92-.95,1.64-1.25,1.64h-2.99c0-.29-.23-.52-.52-.52h-2.25c-.29,0-.52.23-.52.52v1.43c0,.29.23.52.52.52h2.25c.29,0,.52-.23.52-.52h2.99c1.22,0,2.11-1.45,2.64-2.63h.38c.96,0,1.73-.78,1.73-1.73v-2.2c0-.88-.65-1.59-1.5-1.71"/>
    <path class="cls-2" d="M63.42,27.09c0-.53-.43-.96-.96-.96s-.96.43-.96.96.43.96.96.96.96-.43.96-.96"/>
    <path class="cls-2" d="M63.42,32.67c0-.53-.43-.96-.96-.96s-.96.43-.96.96.43.96.96.96.96-.43.96-.96"/>
  </g>
</svg>