<?xml version="1.0" encoding="UTF-8"?>
<svg id="Layer_1" data-name="Layer 1" xmlns="http://www.w3.org/2000/svg" viewBox="0 0 16.84 19.9">
  <defs>
    <style>
      .cls-1 {
        fill: #e7d9c7;
      }

      .cls-2 {
        fill: #bf9a6b;
      }

      .cls-3 {
        fill: none;
        stroke: #000;
        stroke-miterlimit: 10;
        stroke-width: .19px;
      }
    </style>
  </defs>
  <rect class="cls-2" x=".15" y="13.82" width="3.86" height="5.93"/>
  <rect class="cls-3" x=".15" y="13.82" width="3.86" height="5.93"/>
  <polygon class="cls-2" points="4.01 19.75 4.01 19.69 .21 19.69 .21 13.88 3.96 13.88 3.96 19.75 4.01 19.75 4.01 19.69 4.01 19.75 4.07 19.75 4.07 13.76 .1 13.76 .1 19.8 4.07 19.8 4.07 19.75 4.01 19.75"/>
  <polygon class="cls-3" points="4.01 19.75 4.01 19.69 .21 19.69 .21 13.88 3.96 13.88 3.96 19.75 4.01 19.75 4.01 19.69 4.01 19.75 4.07 19.75 4.07 13.76 .1 13.76 .1 19.8 4.07 19.8 4.07 19.75 4.01 19.75"/>
  <rect class="cls-1" x="6.54" y="13.88" width="3.75" height="5.81"/>
  <rect class="cls-3" x="6.54" y="13.88" width="3.75" height="5.81"/>
  <path class="cls-1" d="M10.35,19.75h0v-.06.06h.06-.06ZM6.54,13.88h3.75v5.81h-3.75v-5.81ZM10.41,13.76h-3.98v6.04h3.98v-6.04Z"/>
  <path class="cls-3" d="M10.35,19.75h0v-.06.06h.06-.06ZM6.54,13.88h3.75v5.81h-3.75v-5.81ZM10.41,13.76h-3.98v6.04h3.98v-6.04Z"/>
  <rect class="cls-1" x="6.54" y="7.04" width="3.75" height="5.81"/>
  <rect class="cls-3" x="6.54" y="7.04" width="3.75" height="5.81"/>
  <path class="cls-1" d="M10.35,12.91h0v-.06.06h.06-.06ZM6.54,7.04h3.75v5.81h-3.75v-5.81ZM10.41,6.93h-3.98v6.04h3.98v-6.04Z"/>
  <path class="cls-3" d="M10.35,12.91h0v-.06.06h.06-.06ZM6.54,7.04h3.75v5.81h-3.75v-5.81ZM10.41,6.93h-3.98v6.04h3.98v-6.04Z"/>
  <rect class="cls-1" x="12.88" y="13.88" width="3.75" height="5.81"/>
  <rect class="cls-3" x="12.88" y="13.88" width="3.75" height="5.81"/>
  <path class="cls-1" d="M16.68,19.75h0v-.06.06h.06-.06ZM12.88,13.88h3.75v5.81h-3.75v-5.81ZM16.74,13.76h-3.98v6.04h3.98v-6.04Z"/>
  <path class="cls-3" d="M16.68,19.75h0v-.06.06h.06-.06ZM12.88,13.88h3.75v5.81h-3.75v-5.81ZM16.74,13.76h-3.98v6.04h3.98v-6.04Z"/>
  <rect class="cls-1" x="12.88" y="7.04" width="3.75" height="5.81"/>
  <rect class="cls-3" x="12.88" y="7.04" width="3.75" height="5.81"/>
  <path class="cls-1" d="M16.68,12.91h0v-.06.06h.06-.06ZM12.88,7.04h3.75v5.81h-3.75v-5.81ZM16.74,6.93h-3.98v6.04h3.98v-6.04Z"/>
  <path class="cls-3" d="M16.68,12.91h0v-.06.06h.06-.06ZM12.88,7.04h3.75v5.81h-3.75v-5.81ZM16.74,6.93h-3.98v6.04h3.98v-6.04Z"/>
  <rect class="cls-1" x="12.88" y=".21" width="3.75" height="5.81"/>
  <rect class="cls-3" x="12.88" y=".21" width="3.75" height="5.81"/>
  <path class="cls-1" d="M16.68,6.08h0v-.06.06h.06-.06ZM12.88.21h3.75v5.81h-3.75V.21ZM16.74.1h-3.98v6.04h3.98V.1Z"/>
  <path class="cls-3" d="M16.68,6.08h0v-.06.06h.06-.06ZM12.88.21h3.75v5.81h-3.75V.21ZM16.74.1h-3.98v6.04h3.98V.1Z"/>
</svg>